<?xml version="1.0" encoding="UTF-8" standalone="no"?>
<!-- Created with Inkscape (http://www.inkscape.org/) -->

<svg
   xmlns:dc="http://purl.org/dc/elements/1.1/"
   xmlns:cc="http://creativecommons.org/ns#"
   xmlns:rdf="http://www.w3.org/1999/02/22-rdf-syntax-ns#"
   xmlns:svg="http://www.w3.org/2000/svg"
   xmlns="http://www.w3.org/2000/svg"
   xmlns:sodipodi="http://sodipodi.sourceforge.net/DTD/sodipodi-0.dtd"
   xmlns:inkscape="http://www.inkscape.org/namespaces/inkscape"
   width="210mm"
   height="297mm"
   viewBox="0 0 210 297"
   version="1.1"
   id="svg8"
   inkscape:version="0.92.1 r15371"
   sodipodi:docname="circle.svg">
  <defs
     id="defs2" />
  <sodipodi:namedview
     id="base"
     pagecolor="#ffffff"
     bordercolor="#666666"
     borderopacity="1.0"
     inkscape:pageopacity="0.0"
     inkscape:pageshadow="2"
     inkscape:zoom="0.35"
     inkscape:cx="-114.28571"
     inkscape:cy="560"
     inkscape:document-units="mm"
     inkscape:current-layer="layer1"
     showgrid="false"
     showborder="false"
     inkscape:window-width="2160"
     inkscape:window-height="1346"
     inkscape:window-x="-11"
     inkscape:window-y="-11"
     inkscape:window-maximized="1" />
  <metadata
     id="metadata5">
    <rdf:RDF>
      <cc:Work
         rdf:about="">
        <dc:format>image/svg+xml</dc:format>
        <dc:type
           rdf:resource="http://purl.org/dc/dcmitype/StillImage" />
        <dc:title></dc:title>
      </cc:Work>
    </rdf:RDF>
  </metadata>
  <g
     inkscape:label="Layer 1"
     inkscape:groupmode="layer"
     id="layer1">
    <path
       style="opacity:1;fill:#008080;fill-opacity:1;stroke-width:0.26458332"
       d="m 30.994045,57.363094 c 0,3.0689 -0.155014,6.101734 -0.457654,9.091079 -0.302639,2.989345 -0.752904,5.9352 -1.343405,8.830142 -0.590501,2.894942 -1.321238,5.738971 -2.184823,8.524663 -0.863584,2.785693 -1.860016,5.513048 -2.981906,8.174643 -1.12189,2.661595 -2.369238,5.25743 -3.734655,7.78008 -1.365417,2.522649 -2.848904,4.972119 -4.443071,7.340979 -1.594166,2.36886 -3.299013,4.65711 -5.107151,6.85733 -1.8081376,2.20022 -3.7195666,4.31241 -5.7268976,6.32914 -2.0073311,2.01673 -4.11056419,3.93801 -6.3023104,5.75641 -2.1917462,1.8184 -4.4720054,3.53392 -6.8333887,5.13914 -2.3613833,1.60522 -4.8038903,3.10014 -7.3201323,4.47733 -2.516243,1.37719 -5.10622,2.63666 -7.762543,3.77097 -2.656324,1.13432 -5.378993,2.14348 -8.160619,3.02008 -2.781626,0.87659 -5.622209,1.62061 -8.51436,2.22463 -2.892151,0.60403 -5.83587,1.06805 -8.823768,1.38466 -2.987898,0.3166 -6.019974,0.48579 -9.088841,0.50013 -3.068866,0.0143 -6.102392,-0.1265 -9.093118,-0.41517 -2.990726,-0.28866 -5.938653,-0.72516 -8.836323,-1.30212 -2.89767,-0.57697 -5.745083,-1.29441 -8.53478,-2.14496 -2.789697,-0.85056 -5.521679,-1.83424 -8.188488,-2.94368 -2.666808,-1.10944 -5.268444,-2.34464 -7.797451,-3.69826 -2.529,-1.35361 -4.98537,-2.82563 -7.36165,-4.40871 -2.37629,-1.58308 -4.67248,-3.27722 -6.88113,-5.07505 -2.20864,-1.79784 -4.32974,-3.69938 -6.35583,-5.69726 -2.02609,-1.99789 -3.95718,-4.09212 -5.7858,-6.27534 -1.82862,-2.18323 -3.55478,-4.45545 -5.17102,-6.8093 -1.61623,-2.35386 -3.12255,-4.78935 -4.51148,-7.29913 -1.38894,-2.509781 -2.66049,-5.093844 -3.80721,-7.744837 -1.14672,-2.650994 -2.16859,-5.368917 -3.05818,-8.146417 -0.88958,-2.777499 -1.64686,-5.614574 -2.2644,-8.503871 -0.61753,-2.889297 -1.09531,-5.830815 -1.42587,-8.817201 -0.33057,-2.986385 -0.51392,-6.017638 -0.5426,-9.086404 -0.0287,-3.068766 0.098,-6.102916 0.37267,-9.094959 0.27469,-2.992042 0.6974,-5.941977 1.26082,-8.842311 0.56342,-2.900335 1.26754,-5.751069 2.10505,-8.544711 0.83751,-2.793641 1.80841,-5.53019 2.90538,-8.202154 1.09696,-2.671964 2.32,-5.279343 3.66178,-7.814645 1.34178,-2.535301 2.80231,-4.998526 4.37426,-7.3821803 1.57196,-2.3836546 3.25535,-4.6877394 5.04284,-6.9047622 1.7875,-2.21702273 3.6791,-4.3469834 5.6675,-6.3823896 1.98839,-2.0354062 4.07357,-3.9762579 6.24823,-5.8150629 2.17466,-1.838805 4.43878,-3.575563 6.78506,-5.202782 2.34628,-1.627218 4.7747,-3.144898 7.27797,-4.545546 2.503257,-1.400648 5.08135,-2.684264 7.726955,-3.843357 2.645606,-1.159092 5.358724,-2.193661 8.132036,-3.096213 2.773312,-0.902552 5.606817,-1.673088 8.493196,-2.304115 2.886379,-0.631027 5.825633,-1.122545 8.810441,-1.467063 2.984808,-0.344517 6.015171,-0.542033 9.083769,-0.585056 3.068598,-0.04302 6.103308,0.06946 9.096601,0.330162 2.993294,0.260702 5.945172,0.669625 8.848107,1.219484 2.902936,0.549859 5.75693,1.240654 8.554455,2.065101 2.797525,0.824448 5.538581,1.782547 8.215642,2.867014 2.677061,1.084467 5.290127,2.295302 7.831671,3.62522 2.541545,1.329918 5.011567,2.77892 7.4025418,4.339721 2.3909746,1.560801 4.7029009,3.233402 6.9282527,5.010517 2.22535172,1.777115 4.3641288,3.658746 6.4088048,5.6376073 2.044676,1.9788614 3.9952508,4.0549536 5.844198,6.22099237 1.8489477,2.16603883 3.5962667,4.42202413 5.2344327,6.76067193 1.638165,2.3386478 3.167176,4.7599574 4.579507,7.2566464 1.412331,2.496688 2.707981,5.068754 3.879424,7.708915 1.171443,2.64016 2.218679,5.348414 3.134181,8.117478 0.915502,2.769064 1.699271,5.598938 2.343779,8.482337 0.644509,2.883399 1.149757,5.820323 1.508219,8.803489 0.358462,2.983165 0.570137,6.012572 0.627499,9.080936"
       id="path10"
       inkscape:connector-curvature="0"
       sodipodi:nodetypes="csssssssssssssssssssssssssssssssssssssssssssssssssssssssssssssssc" />
  </g>
</svg>
