<?xml version="1.0" encoding="UTF-8" standalone="no"?>
<!-- Created with Inkscape (http://www.inkscape.org/) -->

<svg
   xmlns:osb="http://www.openswatchbook.org/uri/2009/osb"
   xmlns:dc="http://purl.org/dc/elements/1.1/"
   xmlns:cc="http://creativecommons.org/ns#"
   xmlns:rdf="http://www.w3.org/1999/02/22-rdf-syntax-ns#"
   xmlns:svg="http://www.w3.org/2000/svg"
   xmlns="http://www.w3.org/2000/svg"
   xmlns:sodipodi="http://sodipodi.sourceforge.net/DTD/sodipodi-0.dtd"
   xmlns:inkscape="http://www.inkscape.org/namespaces/inkscape"
   id="svg8"
   version="1.1"
   viewBox="0 0 210 297"
   height="297mm"
   width="210mm"
   sodipodi:docname="motorDomain.svg"
   inkscape:version="0.92.1 r15371">
  <sodipodi:namedview
     inkscape:window-maximized="1"
     inkscape:window-y="-11"
     inkscape:window-x="-11"
     inkscape:window-height="1346"
     inkscape:window-width="2160"
     showborder="false"
     showgrid="false"
     inkscape:current-layer="layer1"
     inkscape:document-units="mm"
     inkscape:cy="681.45619"
     inkscape:cx="-687.68201"
     inkscape:zoom="0.49497475"
     inkscape:pageshadow="2"
     inkscape:pageopacity="0.0"
     borderopacity="1.0"
     bordercolor="#666666"
     pagecolor="#ffffff"
     id="base" />
  <defs
     id="defs2">
    <inkscape:perspective
       id="perspective2186"
       inkscape:persp3d-origin="105 : 99 : 1"
       inkscape:vp_z="210 : 148.5 : 1"
       inkscape:vp_y="0 : 1000 : 0"
       inkscape:vp_x="0 : 148.5 : 1"
       sodipodi:type="inkscape:persp3d" />
    <linearGradient
       id="linearGradient1816"
       osb:paint="solid">
      <stop
         style="stop-color:#000000;stop-opacity:1;"
         offset="0"
         id="stop1814" />
    </linearGradient>
  </defs>
  <metadata
     id="metadata5">
    <rdf:RDF>
      <cc:Work
         rdf:about="">
        <dc:format>image/svg+xml</dc:format>
        <dc:type
           rdf:resource="http://purl.org/dc/dcmitype/StillImage" />
        <dc:title></dc:title>
      </cc:Work>
    </rdf:RDF>
  </metadata>
  <g
     id="layer1"
     inkscape:groupmode="layer"
     inkscape:label="Layer 1">
    <path
       style="opacity:1;fill:#008080;fill-opacity:1;stroke-width:0.99999994"
       d="m -545.13281,-157.8125 c -14.83711,0.31605 -29.67348,6.77366 -40.84284,16.93103 -11.16936,10.15736 -18.67171,24.01448 -18.84076,39.12952 h -0.004 -0.004 c -0.004,-0.0945 -0.006,-0.18825 -0.008,-0.28205 -0.002,-0.0938 -0.005,-0.18766 -0.009,-0.28241 -0.80716,-16.66014 -10.48912,-31.45477 -23.99208,-41.29008 -13.50295,-9.83531 -30.82691,-14.71129 -46.91807,-11.53413 -16.09116,3.17716 -30.2593,14.19646 -39.01687,28.35372 -8.75756,14.15726 -12.10456,31.452465 -6.55345,47.181431 l 0.0879,0.240234 0.0879,0.240235 -0.007,0.0029 -0.007,0.0029 c -0.0598,-0.169932 -0.11733,-0.339755 -0.17529,-0.509624 -0.058,-0.16987 -0.11642,-0.339787 -0.17822,-0.509907 -5.69543,-15.677264 -19.76558,-26.252868 -35.93099,-30.804458 -16.16542,-4.55159 -34.4261,-3.07917 -48.50261,5.33961 -14.07259,8.416437 -23.89437,23.882462 -27.43361,40.364149 -3.53923,16.481686 -0.7959,33.979036 10.26174,46.458121 l -0.003,0.002 -0.003,0.002 c -0.0599,-0.06706 -0.11806,-0.1347 -0.17636,-0.202295 -0.0583,-0.0676 -0.11673,-0.135141 -0.17716,-0.202002 -11.18416,-12.374688 -27.80855,-17.625614 -44.271,-16.640315 -16.46245,0.985298 -32.76295,8.206822 -43.29931,20.777034 -10.53636,12.5702097 -14.56186,30.533389 -12.31575,47.392935 2.2461,16.859545 10.76379,32.615456 25.3138,40.771128 l 0.16797,0.0918 0.16797,0.0918 -0.003,0.0049 -0.003,0.0049 c -0.13826,-0.07741 -0.2745,-0.155821 -0.41109,-0.234022 -0.13659,-0.0782 -0.27351,-0.156196 -0.41313,-0.232775 -14.62433,-8.021597 -32.53095,-6.840427 -48.03692,0.249699 -15.50597,7.090125 -28.61128,20.089205 -33.633,35.703428 -5.02171,15.61422 -2.4499,33.29966 5.48939,47.77398 7.93929,14.47432 21.24604,25.73752 37.6942,28.50727 l 0.01,0.002 0.01,0.002 -9.7e-4,0.002 -9.8e-4,0.002 c -0.0966,-0.0159 -0.19218,-0.0331 -0.2878,-0.0501 -0.0956,-0.0171 -0.19135,-0.034 -0.28837,-0.0495 -16.4729,-2.61846 -32.88494,4.64107 -45.01766,16.65251 -12.13271,12.01143 -19.9861,28.77476 -19.3417,45.1639 0.6444,16.38913 9.09406,32.13592 21.48107,43.01628 12.387,10.88036 28.71131,16.89429 45.10485,13.8177 l 0.11425,-0.0225 0.11426,-0.0225 9.8e-4,0.004 9.8e-4,0.004 c -0.1316,0.025 -0.2624,0.0481 -0.39328,0.0715 -0.13089,0.0234 -0.26187,0.047 -0.39383,0.0731 -16.36455,3.22712 -29.32905,15.67007 -36.64911,31.10112 -7.32007,15.43104 -8.99571,33.85019 -2.78253,49.02974 6.21318,15.17955 19.53518,27.04057 34.90265,33.00017 15.36747,5.9596 32.78041,6.01778 47.17547,-2.40837 l 0.13476,-0.0801 0.13477,-0.0801 0.003,0.004 0.003,0.004 c -0.12718,0.0746 -0.25455,0.14698 -0.38189,0.21968 -0.12735,0.0727 -0.25467,0.14574 -0.38178,0.22172 -14.31699,8.55807 -22.25977,24.46548 -23.90167,41.30042 -1.64189,16.83493 3.0171,34.5974 13.90362,46.8656 10.88652,12.2682 27.45738,18.94058 44.01531,19.37549 16.55794,0.43491 33.10296,-5.36765 43.93782,-18.04932 l 0.0947,-0.11328 0.0947,-0.11328 0.005,0.004 0.005,0.004 c -0.0935,0.10977 -0.18816,0.2174 -0.28263,0.32531 -0.0945,0.10791 -0.18881,0.21611 -0.28183,0.32703 -10.71784,12.7807 -12.87831,30.23381 -8.78225,46.49638 4.09604,16.26258 14.44861,31.33463 28.75686,39.35323 14.30825,8.0186 32.65283,8.82958 48.73439,3.67842 16.08156,-5.15115 29.90009,-16.26446 35.15624,-32.09443 l 0.0547,-0.16992 0.0547,-0.16993 0.006,0.002 0.006,0.002 c -0.0487,0.14628 -0.0992,0.29086 -0.14937,0.43571 -0.0502,0.14485 -0.10007,0.28997 -0.1475,0.43734 -5.11044,15.87759 -1.244,32.95838 7.94364,46.75032 9.18764,13.79194 23.69647,24.29504 39.87081,27.01726 16.17434,2.72222 33.77894,-2.802 47.21539,-13.17484 13.43645,-10.37285 22.70475,-25.59431 22.20649,-42.26657 l -0.002,-0.04 -0.002,-0.04 h 0.004 0.004 c 0.003,0.10813 0.005,0.21554 0.007,0.32302 0.002,0.10748 0.004,0.21503 0.008,0.32347 0.65146,16.66695 10.1822,31.43175 23.58012,41.27314 13.39792,9.8414 30.66302,14.75939 46.78316,11.73271 16.12014,-3.02667 30.73239,-14.20466 39.77141,-28.49987 9.03903,-14.29522 12.50483,-31.70766 6.3321,-47.20325 l -0.085,-0.20606 -0.085,-0.20605 0.008,-0.003 0.008,-0.003 c 0.0623,0.15727 0.12195,0.31446 0.18208,0.47166 0.0601,0.15721 0.12076,0.31441 0.1851,0.4717 6.31488,15.43818 20.22687,26.04014 36.09878,30.71082 15.8719,4.67068 33.70373,3.41008 47.85826,-4.87684 14.15453,-8.28692 24.03384,-23.79095 27.63627,-40.36821 3.60244,-16.57725 0.928,-34.22774 -10.02495,-46.80757 l -0.01,-0.0107 -0.01,-0.0107 0.002,-0.002 0.002,-0.002 c 0.0658,0.075 0.12974,0.15036 0.19387,0.22569 0.0641,0.0753 0.1284,0.15063 0.1948,0.22548 11.06808,12.47862 28.31063,17.48288 45.29793,16.12633 16.9873,-1.35654 33.71938,-9.07387 43.76652,-22.03843 10.04715,-12.96456 13.67047,-30.40978 11.1637,-46.68666 -2.50676,-16.27688 -11.14361,-31.38543 -25.61682,-39.67663 l -0.17285,-0.0967 -0.17285,-0.0967 0.003,-0.005 0.003,-0.005 c 0.13951,0.0798 0.27709,0.16096 0.415,0.24186 0.13791,0.0809 0.27616,0.16157 0.41703,0.24056 14.54877,8.15783 32.324,7.07982 47.75387,0.0707 15.42986,-7.00912 28.51436,-19.94937 33.68167,-35.51601 5.16731,-15.56664 2.64568,-33.30425 -5.27317,-47.88101 -7.91886,-14.57675 -21.23493,-25.99265 -37.65651,-28.91587 l -0.041,-0.007 -0.041,-0.007 9.7e-4,-0.004 9.8e-4,-0.004 c 0.10705,0.0187 0.21298,0.0389 0.31902,0.059 0.10604,0.0201 0.21219,0.04 0.31965,0.0582 16.44773,2.77217 32.66365,-4.10404 44.70923,-15.77377 12.04559,-11.66972 19.92085,-28.13296 19.68725,-44.53483 -0.23359,-16.40187 -8.71465,-32.60513 -21.22832,-43.90047 -12.51368,-11.29535 -29.05996,-17.6828 -45.42402,-14.45304 l -0.15527,0.0322 -0.15528,0.0322 -9.7e-4,-0.006 -9.8e-4,-0.006 c 0.14481,-0.0285 0.28907,-0.0546 0.43339,-0.0809 0.14433,-0.0264 0.28872,-0.0531 0.4338,-0.0831 16.33366,-3.38001 29.20754,-15.1409 36.59696,-29.91047 7.38941,-14.76957 9.29436,-32.54783 3.69015,-47.962578 -5.60421,-15.414742 -19.18271,-27.904877 -34.93907,-34.40124 -15.75636,-6.496362 -33.69059,-6.998952 -48.00625,1.561396 l -0.0937,0.05762 -0.0937,0.05762 -0.002,-0.0039 -0.002,-0.0039 c 0.11265,-0.06765 0.22529,-0.133372 0.33792,-0.199369 0.11263,-0.066 0.22525,-0.13227 0.33786,-0.201022 14.23636,-8.69154 22.15323,-24.762397 23.76083,-41.701844 1.60759,-16.9394476 -3.09409,-34.747486 -14.09481,-46.91339 -11.00073,-12.165906 -27.55442,-18.765596 -44.03689,-19.128213 -16.48248,-0.362617 -32.89374,5.51184 -43.6096,18.294229 l -0.0986,0.120117 -0.0986,0.120117 -0.004,-0.0029 -0.004,-0.0029 c 0.0942,-0.112643 0.18947,-0.223189 0.28458,-0.334042 0.0951,-0.110852 0.19009,-0.222012 0.28378,-0.33588 10.59792,-12.880313 12.68129,-30.478574 8.51954,-46.82789 -4.16175,-16.349316 -14.56862,-31.449684 -28.95118,-39.334224 -14.38256,-7.88453 -32.6723,-8.66651 -48.64341,-3.50775 -15.97111,5.15877 -29.62358,16.25826 -34.73159,32.136661 l -0.0488,0.15625 -0.0488,0.15625 -0.006,-0.002 -0.006,-0.002 c 0.0458,-0.142062 0.0933,-0.282424 0.14053,-0.423046 0.0472,-0.140623 0.0942,-0.281505 0.13876,-0.42461 4.96186,-15.924649 0.96374,-33.083978 -8.32461,-46.904898 -9.28836,-13.82091 -23.86694,-24.30341 -40.06601,-26.8744 -1.51866,-0.24103 -3.04517,-0.4107 -4.57574,-0.51193 -1.53056,-0.10124 -3.06517,-0.13404 -4.60004,-0.10135 z m -57.21875,231.808594 h 0.005 0.005 c -0.002,0.09457 -0.005,0.188755 -0.008,0.283005 -0.003,0.09425 -0.006,0.188568 -0.006,0.283401 -0.0379,16.6796 1.42521,30.25727 6.62817,41.05003 5.20296,10.79276 14.14575,18.80061 29.06714,24.34059 14.92139,5.53998 27.39008,4.76317 38.8074,-0.59422 11.41733,-5.35738 21.7833,-15.29534 32.49924,-28.07765 l 0.005,-0.006 0.005,-0.006 0.004,0.003 0.004,0.003 c -0.0629,0.0739 -0.12667,0.14669 -0.19022,0.21979 -0.0635,0.0731 -0.12683,0.14649 -0.18868,0.22162 -10.60148,12.87732 -18.19721,24.67741 -21.08371,36.66329 -2.88651,11.98589 -1.06379,24.15757 7.1716,37.77811 8.23456,13.61915 18.12757,20.84376 30.05231,23.85646 11.92473,3.01269 25.88118,1.81347 42.24261,-1.41505 l 9.7e-4,0.005 9.8e-4,0.005 c -0.0914,0.0173 -0.18291,0.0328 -0.27443,0.0487 -0.0915,0.0158 -0.18305,0.0321 -0.2744,0.051 -16.33455,3.37547 -29.5612,7.29926 -39.3824,14.30009 -9.82119,7.00083 -16.23692,17.07872 -18.94963,32.76241 -2.71109,15.67433 0.24469,27.69376 7.49263,37.86619 7.24795,10.17243 18.78806,18.49786 33.24565,26.78421 l -0.003,0.004 -0.003,0.004 c -0.073,-0.0423 -0.14501,-0.0861 -0.21719,-0.1296 -0.0722,-0.0435 -0.14454,-0.0868 -0.21835,-0.12821 -14.54652,-8.16177 -27.54272,-13.5879 -39.89052,-14.34597 -12.3478,-0.75808 -24.0472,3.1519 -36.00011,13.66237 -11.94402,10.50264 -17.37685,21.50576 -18.28353,33.75276 -0.90668,12.24699 2.7128,25.73786 8.87338,41.21599 l -0.006,9.7e-4 -0.006,9.8e-4 c -0.03,-0.0763 -0.0584,-0.15299 -0.087,-0.22964 -0.0287,-0.0767 -0.0577,-0.15327 -0.0887,-0.22934 -6.31068,-15.43986 -12.95439,-28.04272 -21.99716,-36.64727 -9.04277,-8.60455 -20.4846,-13.2108 -36.39152,-12.65742 -15.87298,0.55219 -26.91056,5.47216 -35.29216,14.19619 -8.38161,8.72403 -14.10723,21.25214 -19.35627,37.02061 l -0.005,-0.002 -0.005,-0.002 c 0.0188,-0.0564 0.0389,-0.11203 0.059,-0.16774 0.02,-0.0557 0.0399,-0.11149 0.0582,-0.16819 5.11482,-15.87615 8.38217,-29.18402 7.33284,-41.0928 -1.04932,-11.90878 -6.41533,-22.41846 -18.56722,-32.69822 -12.1296,-10.2609 -24.09792,-13.80724 -36.62365,-12.69048 -12.52573,1.11676 -25.60888,6.89663 -39.96814,15.28814 l -0.002,-0.003 -0.002,-0.003 c 0.0557,-0.0325 0.11199,-0.0638 0.16816,-0.0952 0.0562,-0.0314 0.11228,-0.0631 0.16778,-0.0962 14.31928,-8.55416 25.47637,-16.97262 32.30053,-27.15977 6.82416,-10.18714 9.3154,-22.14297 6.30298,-37.77187 -3.00772,-15.60453 -9.84789,-25.73259 -20.03728,-32.65233 -10.18939,-6.91974 -23.728,-10.63115 -40.13264,-13.40236 l 9.8e-4,-0.005 9.8e-4,-0.005 c 0.0679,0.0116 0.13539,0.0247 0.20292,0.0377 0.0675,0.0129 0.13512,0.0257 0.20332,0.0365 16.47216,2.62287 30.45285,3.32911 42.24411,-0.10093 11.79125,-3.43005 21.39306,-10.99637 29.10746,-24.91861 7.7024,-13.9006 9.0865,-26.14008 5.78654,-38.01733 -3.29996,-11.87725 -11.28398,-23.39228 -22.31779,-35.84399 l 0.003,-0.004 0.003,-0.004 c 0.0459,0.052 0.0905,0.10484 0.13521,0.15754 0.0447,0.0527 0.0896,0.10529 0.13627,0.15692 11.18078,12.37768 21.04662,21.84128 31.86305,26.86782 10.81643,5.02654 22.58346,5.61602 37.56664,0.24546 10.0577,-3.60508 17.42444,-16.1554 22.77576,-29.98901 5.35132,-13.833608 8.68722,-28.950503 10.68322,-37.688726 0.44091,-0.02436 0.88191,-0.04696 1.323,-0.06779 0.44108,-0.02083 0.88225,-0.0399 1.32349,-0.05721 z"
       transform="scale(0.26458333)"
       id="path2220"
       inkscape:connector-curvature="0"
       sodipodi:nodetypes="sscccscssscccccscssscccscssscccccscssscccccscscscccccscssscccccscssscccccscssscccccscssscccccscssscccccscssscccccscssscccccscssscccccscssscccccscssscccccscssscccccscssscccccscsssscccscssscccccscssscccscssscccscssscccscssscccscssscccssssscccscssscccscssscsc" />
  </g>
</svg>
