<?xml version="1.0" encoding="UTF-8" standalone="no"?>
<!-- Created with Inkscape (http://www.inkscape.org/) -->

<svg
   xmlns:dc="http://purl.org/dc/elements/1.1/"
   xmlns:cc="http://creativecommons.org/ns#"
   xmlns:rdf="http://www.w3.org/1999/02/22-rdf-syntax-ns#"
   xmlns:svg="http://www.w3.org/2000/svg"
   xmlns="http://www.w3.org/2000/svg"
   xmlns:sodipodi="http://sodipodi.sourceforge.net/DTD/sodipodi-0.dtd"
   xmlns:inkscape="http://www.inkscape.org/namespaces/inkscape"
   width="908.25629"
   height="812.30426"
   id="svg2"
   version="1.1"
   inkscape:version="0.48.5 r10040"
   sodipodi:docname="code-bothbound.svg">
  <sodipodi:namedview
     id="base"
     pagecolor="#ffffff"
     bordercolor="#666666"
     borderopacity="1.0"
     inkscape:pageopacity="0.0"
     inkscape:pageshadow="2"
     inkscape:zoom="0.75464337"
     inkscape:cx="605.76955"
     inkscape:cy="353.14697"
     inkscape:document-units="px"
     inkscape:current-layer="layer1"
     showgrid="false"
     inkscape:window-width="1327"
     inkscape:window-height="853"
     inkscape:window-x="401"
     inkscape:window-y="139"
     inkscape:window-maximized="0"
     showguides="true"
     inkscape:guide-bbox="true"
     fit-margin-top="0"
     fit-margin-left="0"
     fit-margin-right="0"
     fit-margin-bottom="0" />
  <defs
     id="defs4" />
  <metadata
     id="metadata7">
    <rdf:RDF>
      <cc:Work
         rdf:about="">
        <dc:format>image/svg+xml</dc:format>
        <dc:type
           rdf:resource="http://purl.org/dc/dcmitype/StillImage" />
        <dc:title />
      </cc:Work>
    </rdf:RDF>
  </metadata>
  <g
     inkscape:label="Layer 1"
     inkscape:groupmode="layer"
     id="layer1"
     transform="translate(-64.321327,-94.219324)">
    <path
       sodipodi:type="arc"
       style="fill:#aeaae5;fill-opacity:1;stroke:#000000;stroke-width:2;stroke-linecap:round;stroke-linejoin:round;stroke-miterlimit:4;stroke-opacity:1;stroke-dasharray:none;stroke-dashoffset:0"
       id="path3006"
       sodipodi:cx="368.57144"
       sodipodi:cy="120.93361"
       sodipodi:rx="25.714285"
       sodipodi:ry="25.714285"
       d="m 394.28573,120.93361 c 0,14.20161 -11.51268,25.71428 -25.71429,25.71428 -14.20161,0 -25.71428,-11.51267 -25.71428,-25.71428 0,-14.20161 11.51267,-25.714286 25.71428,-25.714286 14.20161,0 25.71429,11.512676 25.71429,25.714286 z" />
    <path
       sodipodi:type="arc"
       style="fill:#aeaae5;fill-opacity:1;stroke:#000000;stroke-width:2;stroke-linecap:round;stroke-linejoin:round;stroke-miterlimit:4;stroke-opacity:1;stroke-dasharray:none;stroke-dashoffset:0"
       id="path3776"
       sodipodi:cx="162.85715"
       sodipodi:cy="380.93362"
       sodipodi:rx="28.571428"
       sodipodi:ry="28.571428"
       d="m 191.42858,380.93362 c 0,15.77957 -12.79187,28.57143 -28.57143,28.57143 -15.77957,0 -28.57143,-12.79186 -28.57143,-28.57143 0,-15.77956 12.79186,-28.57142 28.57143,-28.57142 15.77956,0 28.57143,12.79186 28.57143,28.57142 z"
       transform="translate(281.29386,101.16709)" />
    <path
       sodipodi:type="arc"
       style="fill:#aeaae5;fill-opacity:1;stroke:#000000;stroke-width:2;stroke-linecap:round;stroke-linejoin:round;stroke-miterlimit:4;stroke-opacity:1;stroke-dasharray:none;stroke-dashoffset:0"
       id="path3778"
       sodipodi:cx="222.85715"
       sodipodi:cy="820.93359"
       sodipodi:rx="28.571428"
       sodipodi:ry="28.571428"
       d="m 251.42858,820.93359 c 0,15.77957 -12.79187,28.57143 -28.57143,28.57143 -15.77957,0 -28.57143,-12.79186 -28.57143,-28.57143 0,-15.77956 12.79186,-28.57142 28.57143,-28.57142 15.77956,0 28.57143,12.79186 28.57143,28.57142 z" />
    <path
       d="m 191.42858,380.93362 c 0,15.77957 -12.79187,28.57143 -28.57143,28.57143 -15.77957,0 -28.57143,-12.79186 -28.57143,-28.57143 0,-15.77956 12.79186,-28.57142 28.57143,-28.57142 15.77956,0 28.57143,12.79186 28.57143,28.57142 z"
       sodipodi:ry="28.571428"
       sodipodi:rx="28.571428"
       sodipodi:cy="380.93362"
       sodipodi:cx="162.85715"
       id="path3780"
       style="fill:#aeaae5;fill-opacity:1;stroke:#000000;stroke-width:2;stroke-linecap:round;stroke-linejoin:round;stroke-miterlimit:4;stroke-opacity:1;stroke-dasharray:none;stroke-dashoffset:0"
       sodipodi:type="arc"
       transform="translate(500.57143,60)" />
    <path
       d="m 251.42858,820.93359 c 0,15.77957 -12.79187,28.57143 -28.57143,28.57143 -15.77957,0 -28.57143,-12.79186 -28.57143,-28.57143 0,-15.77956 12.79186,-28.57142 28.57143,-28.57142 15.77956,0 28.57143,12.79186 28.57143,28.57142 z"
       sodipodi:ry="28.571428"
       sodipodi:rx="28.571428"
       sodipodi:cy="820.93359"
       sodipodi:cx="222.85715"
       id="path3782"
       style="fill:#aeaae5;fill-opacity:1;stroke:#000000;stroke-width:2;stroke-linecap:round;stroke-linejoin:round;stroke-miterlimit:4;stroke-opacity:1;stroke-dasharray:none;stroke-dashoffset:0"
       sodipodi:type="arc"
       transform="translate(592.46328,-2.8571321e-8)" />
    <path
       style="fill:none;stroke:#000000;stroke-width:1px;stroke-linecap:butt;stroke-linejoin:miter;stroke-opacity:1"
       d="M 428.52592,506.02498 238.48223,797.00933"
       id="path3784"
       inkscape:connector-type="polyline"
       inkscape:connector-curvature="0"
       inkscape:connection-end-point="d4"
       inkscape:connection-end="#path3778"
       inkscape:connection-start-point="d4"
       inkscape:connection-start="#path3776" />
    <path
       style="fill:none;stroke:#000000;stroke-width:1px;stroke-linecap:butt;stroke-linejoin:miter;stroke-opacity:1"
       d="M 438.2976,454.12942 373.83951,146.10777"
       id="path3786"
       inkscape:connector-type="polyline"
       inkscape:connector-curvature="0"
       inkscape:connection-start="#path3776"
       inkscape:connection-start-point="d4"
       inkscape:connection-end="#path3006"
       inkscape:connection-end-point="d4" />
    <path
       style="fill:none;stroke:#000000;stroke-width:1px;stroke-linecap:butt;stroke-linejoin:miter;stroke-opacity:1"
       d="M 644.06775,419.92188 385.99618,139.84418"
       id="path3788"
       inkscape:connector-type="polyline"
       inkscape:connector-curvature="0"
       inkscape:connection-end-point="d4"
       inkscape:connection-end="#path3006"
       inkscape:connection-start-point="d4"
       inkscape:connection-start="#path3780" />
    <path
       style="fill:none;stroke:#000000;stroke-width:1px;stroke-linecap:butt;stroke-linejoin:miter;stroke-opacity:1"
       d="m 674.03605,467.47119 130.6769,326.92484"
       id="path3790"
       inkscape:connector-type="polyline"
       inkscape:connector-curvature="0"
       inkscape:connection-start="#path3780"
       inkscape:connection-start-point="d4"
       inkscape:connection-end="#path3782"
       inkscape:connection-end-point="d4" />
    <path
       sodipodi:type="arc"
       style="fill:none;stroke:#000000;stroke-width:2;stroke-linecap:round;stroke-linejoin:round;stroke-miterlimit:4;stroke-opacity:1;stroke-dasharray:none;stroke-dashoffset:0"
       id="path3796"
       sodipodi:cx="445.38196"
       sodipodi:cy="479.90448"
       sodipodi:rx="81.42717"
       sodipodi:ry="81.42717"
       d="m 427.67909,400.42497 c 43.89532,-9.77702 87.40535,17.88132 97.18238,61.77664 9.77702,43.89532 -17.88132,87.40535 -61.77664,97.18238 -20.36903,4.5369 -41.7025,1.0803 -59.59681,-9.65629"
       sodipodi:start="4.4932314"
       sodipodi:end="8.3944012"
       sodipodi:open="true" />
    <path
       sodipodi:end="7.3968037"
       sodipodi:start="4.028288"
       d="m 393.9219,416.79944 c 34.85195,-28.42061 86.14449,-23.20697 114.5651,11.64498 28.42061,34.85195 23.20697,86.14449 -11.64498,114.5651 -4.77846,3.89667 -9.98405,7.23799 -15.51667,9.9597"
       sodipodi:ry="81.42717"
       sodipodi:rx="81.42717"
       sodipodi:cy="479.90448"
       sodipodi:cx="445.38196"
       id="path3798"
       style="fill:none;stroke:#000000;stroke-width:2;stroke-linecap:round;stroke-linejoin:round;stroke-miterlimit:4;stroke-opacity:1;stroke-dasharray:none;stroke-dashoffset:0"
       sodipodi:type="arc"
       transform="translate(210.59426,-41.648566)"
       sodipodi:open="true" />
    <g
       id="g3816"
       transform="translate(-685.96223,186.2955)">
      <g
         id="content"
         transform="matrix(1.0629921,0,0,-1.0629921,-186.02362,789.27165)"
         xml:space="preserve"
         stroke-miterlimit="10.433"
         font-style="normal"
         font-variant="normal"
         font-weight="normal"
         font-stretch="normal"
         font-size-adjust="none"
         letter-spacing="normal"
         word-spacing="normal"
         style="font-style:normal;font-variant:normal;font-weight:normal;font-stretch:normal;letter-spacing:normal;word-spacing:normal;text-anchor:start;fill:none;stroke:#000000;stroke-linecap:butt;stroke-linejoin:miter;stroke-miterlimit:10.43299961;stroke-opacity:1;stroke-dasharray:none;stroke-dashoffset:0"><path
           d="m 1219.9,371.35 0,0.32 0,0.34 0,0.35 0,0.37 -0.1,0.39 0,0.4 -0.1,0.4 0,0.42 -0.1,0.42 -0.1,0.42 0,0.42 -0.1,0.43 -0.2,0.42 -0.1,0.42 -0.1,0.42 -0.2,0.4 -0.1,0.4 -0.2,0.38 -0.2,0.38 -0.2,0.35 -0.3,0.34 -0.2,0.32 -0.3,0.3 -0.3,0.27 -0.3,0.25 -0.2,0.12 -0.1,0.11 -0.2,0.1 -0.2,0.09 -0.2,0.08 -0.2,0.08 -0.2,0.07 -0.2,0.06 -0.2,0.05 -0.2,0.05 -0.2,0.03 -0.2,0.03 -0.2,0.01 -0.3,0.01 0,-1.1 c 2.4,0 2.7,-3.18 2.7,-6.03 0,-2.44 -0.4,-4.98 -1.6,-9.92 h -10.4 c 0.9,3.2 1.9,7.19 3.8,10.72 1.4,2.44 3.2,5.23 5.5,5.23 l 0,1.1 c -6.9,0 -14.6,-14.05 -14.6,-25.46 0,-4.68 1.5,-10.22 6,-10.22 v 1.1 c -1.6,0 -2.7,1.45 -2.7,6.08 0,2.09 0.3,4.98 1.6,9.86 h 10.4 c -0.6,-2.29 -1.6,-6.52 -3.5,-10.11 -1.8,-3.39 -3.6,-5.83 -5.8,-5.83 v -1.1 c 7,0 14.6,14.3 14.6,25.46 z"
           id="path3819"
           inkscape:connector-curvature="0"
           style="fill:#000000;stroke-width:0" /><path
           d="m 1224.9,341.07 0,-0.05 0,-0.04 -0.1,-0.05 0,-0.05 0,-0.05 0,-0.05 0,-0.05 0,-0.06 -0.1,-0.11 0,-0.11 0,-0.11 0,-0.11 0,-0.05 -0.1,-0.05 0,-0.05 0,-0.05 0,-0.05 0,-0.05 0,-0.04 0,-0.04 0,-0.04 0,-0.03 0,-0.03 0,-0.03 0,-0.03 0,-0.02 0,0 0,-0.01 0,-0.01 0,-0.01 c 0,-0.76 0.6,-1.1 1.1,-1.1 0.7,0 1.2,0.45 1.4,0.76 0.2,0.31 0.5,1.42 0.6,2.16 0.2,0.65 0.6,2.26 0.8,3.14 0.2,0.76 0.4,1.53 0.6,2.33 0.3,1.43 0.4,1.7 1.4,3.14 1,1.39 2.7,3.2 5.3,3.2 2,0 2,-1.78 2,-2.44 0,-2.09 -1.5,-5.95 -2,-7.42 -0.4,-0.98 -0.6,-1.3 -0.6,-1.89 0,-1.84 1.6,-2.98 3.4,-2.98 3.4,0 5,4.79 5,5.32 0,0.46 -0.5,0.46 -0.6,0.46 -0.5,0 -0.5,-0.21 -0.7,-0.6 -0.7,-2.78 -2.2,-4.22 -3.6,-4.22 -0.8,0 -0.9,0.49 -0.9,1.22 0,0.8 0.1,1.25 0.8,2.83 0.4,1.08 1.8,4.77 1.8,6.72 0,3.39 -2.6,3.97 -4.5,3.97 -2.9,0 -4.8,-1.77 -5.9,-3.16 -0.2,2.39 -2.3,3.16 -3.7,3.16 -1.5,0 -2.3,-1.08 -2.8,-1.88 -0.7,-1.28 -1.2,-3.28 -1.2,-3.45 0,-0.45 0.5,-0.45 0.6,-0.45 0.5,0 0.5,0.11 0.7,1.04 0.6,2.07 1.2,3.77 2.6,3.77 0.9,0 1.1,-0.77 1.1,-1.7 0,-0.68 -0.3,-1.96 -0.5,-2.89 -0.3,-0.96 -0.6,-2.38 -0.8,-3.14 z"
           id="path3821"
           inkscape:connector-curvature="0"
           style="fill:#000000;stroke-width:0" /><path
           d="m 1260.4,341.71 -0.1,-0.07 0,-0.07 0,-0.07 0,-0.08 0,-0.07 0,-0.08 -0.1,-0.16 0,-0.16 -0.1,-0.16 0,-0.16 0,-0.08 0,-0.07 -0.1,-0.08 0,-0.07 0,-0.07 0,-0.07 0,-0.07 0,-0.06 -0.1,-0.06 0,-0.06 0,-0.05 0,-0.05 0,-0.05 0,-0.04 0,-0.03 0,-0.03 0,-0.03 0,-0.02 c 0,-0.76 0.6,-1.1 1.2,-1.1 0.6,0 1.1,0.45 1.3,0.76 0.2,0.31 0.5,1.42 0.7,2.16 0.1,0.65 0.5,2.26 0.7,3.14 0.2,0.76 0.4,1.53 0.6,2.33 0.4,1.5 0.4,1.56 1.1,2.65 1.1,1.71 2.8,3.69 5.6,3.69 1.9,0 2,-1.61 2,-2.44 0,-2.09 -1.5,-5.95 -2,-7.42 -0.4,-0.98 -0.6,-1.3 -0.6,-1.89 0,-1.84 1.6,-2.98 3.3,-2.98 3.5,0 5.1,4.79 5.1,5.32 0,0.46 -0.5,0.46 -0.6,0.46 -0.5,0 -0.5,-0.21 -0.7,-0.6 -0.8,-2.78 -2.3,-4.22 -3.6,-4.22 -0.8,0 -0.9,0.49 -0.9,1.22 0,0.8 0.1,1.25 0.8,2.83 0.4,1.08 1.8,4.77 1.8,6.72 0,0.56 0,2.03 -1.3,3.03 -0.6,0.45 -1.6,0.94 -3.2,0.94 -3.1,0 -5.1,-2.05 -6.2,-3.52 -0.2,2.97 -2.7,3.52 -4.5,3.52 -2.9,0 -4.8,-1.77 -5.9,-3.16 -0.2,2.39 -2.3,3.16 -3.7,3.16 -1.5,0 -2.3,-1.08 -2.8,-1.88 -0.7,-1.28 -1.2,-3.28 -1.2,-3.45 0,-0.45 0.5,-0.45 0.6,-0.45 0.5,0 0.5,0.11 0.7,1.04 0.6,2.07 1.2,3.77 2.6,3.77 0.9,0 1.1,-0.77 1.1,-1.7 0,-0.68 -0.3,-1.96 -0.5,-2.89 -0.3,-0.96 -0.6,-2.38 -0.8,-3.14 l -1.1,-4.47 c -0.2,-0.44 -0.4,-1.32 -0.4,-1.43 0,-0.76 0.7,-1.1 1.2,-1.1 0.7,0 1.2,0.45 1.4,0.76 0.2,0.31 0.4,1.42 0.6,2.16 0.2,0.65 0.6,2.26 0.8,3.14 0.2,0.76 0.4,1.53 0.6,2.33 0.4,1.43 0.4,1.7 1.4,3.14 1,1.39 2.7,3.2 5.3,3.2 2,0 2,-1.78 2,-2.44 0,-0.87 -0.1,-1.33 -0.6,-3.28 z"
           id="path3823"
           inkscape:connector-curvature="0"
           style="fill:#000000;stroke-width:0" /></g>    </g>
    <g
       id="g3865"
       transform="translate(-338.03215,119.03705)">
      <g
         word-spacing="normal"
         letter-spacing="normal"
         font-size-adjust="none"
         font-stretch="normal"
         font-weight="normal"
         font-variant="normal"
         font-style="normal"
         stroke-miterlimit="10.433"
         xml:space="preserve"
         transform="matrix(1.0629921,0,0,-1.0629921,-186.02362,789.27165)"
         id="g3867"
         style="font-style:normal;font-variant:normal;font-weight:normal;font-stretch:normal;letter-spacing:normal;word-spacing:normal;text-anchor:start;fill:none;stroke:#000000;stroke-linecap:butt;stroke-linejoin:miter;stroke-miterlimit:10.43299961;stroke-opacity:1;stroke-dasharray:none;stroke-dashoffset:0"><path
           id="path3869"
           d="m 1220.5,371.35 0,0.32 0,0.34 0,0.35 0,0.37 -0.1,0.39 0,0.4 -0.1,0.4 0,0.42 -0.1,0.42 -0.1,0.42 0,0.42 -0.1,0.43 -0.2,0.42 -0.1,0.42 -0.1,0.42 -0.2,0.4 -0.1,0.4 -0.2,0.38 -0.2,0.38 -0.2,0.35 -0.3,0.34 -0.2,0.32 -0.3,0.3 -0.3,0.27 -0.3,0.25 -0.2,0.12 -0.1,0.11 -0.2,0.1 -0.2,0.09 -0.2,0.08 -0.2,0.08 -0.1,0.07 -0.2,0.06 -0.3,0.05 -0.2,0.05 -0.2,0.03 -0.2,0.03 -0.2,0.01 -0.3,0.01 0,-1.1 c 2.4,0 2.7,-3.18 2.7,-6.03 0,-2.44 -0.4,-4.98 -1.6,-9.92 h -10.4 c 0.9,3.2 1.9,7.19 3.8,10.72 1.4,2.44 3.2,5.23 5.5,5.23 l 0,1.1 c -6.9,0 -14.6,-14.05 -14.6,-25.46 0,-4.68 1.5,-10.22 6,-10.22 v 1.1 c -1.6,0 -2.7,1.45 -2.7,6.08 0,2.09 0.3,4.98 1.6,9.86 h 10.4 c -0.6,-2.29 -1.6,-6.52 -3.5,-10.11 -1.8,-3.39 -3.6,-5.83 -5.8,-5.83 v -1.1 c 7,0 14.6,14.3 14.6,25.46 z"
           inkscape:connector-curvature="0"
           style="fill:#000000;stroke-width:0" /><path
           id="path3871"
           d="m 1235.4,352.64 h 3.4 c 0.7,0 1.2,0 1.2,0.77 0,0.48 -0.5,0.48 -1.1,0.48 h -3.2 c 0.8,4.43 1,6.04 1.3,7.05 0.2,0.77 1,1.5 1.8,1.5 0,0 1,0 1.6,-0.42 -1.4,-0.45 -1.5,-1.72 -1.5,-1.92 0,-0.77 0.6,-1.28 1.4,-1.28 0.9,0 2,0.79 2,2.12 0,1.6 -1.7,2.47 -3.5,2.47 -1.5,0 -3.2,-0.87 -4.2,-2.61 -0.7,-1.3 -1,-2.86 -1.7,-6.91 h -2.7 c -0.7,0 -1.2,0 -1.2,-0.76 0,-0.49 0.5,-0.49 1.1,-0.49 h 2.6 c -0.1,-0.21 -2.3,-12.75 -3.1,-16.48 -0.2,-0.77 -0.8,-3.41 -2.4,-3.41 -0.1,0 -0.9,0 -1.6,0.41 1.5,0.45 1.6,1.72 1.6,1.92 0,0.77 -0.6,1.28 -1.4,1.28 -1,0 -2,-0.79 -2,-2.12 0,-1.56 1.6,-2.47 3.4,-2.47 2.2,0 3.7,2.3 4.1,3.06 1.3,2.35 2.1,6.63 2.2,7.05 z"
           inkscape:connector-curvature="0"
           style="fill:#000000;stroke-width:0" /><path
           id="path3873"
           d="m 1259.8,341.71 -0.1,-0.07 0,-0.07 0,-0.07 0,-0.08 0,-0.07 0,-0.08 -0.1,-0.16 0,-0.16 -0.1,-0.16 0,-0.16 0,-0.08 0,-0.07 -0.1,-0.08 0,-0.07 0,-0.07 0,-0.07 0,-0.07 0,-0.06 -0.1,-0.06 0,-0.06 0,-0.05 0,-0.05 0,-0.05 0,-0.04 0,-0.03 0,-0.03 0,-0.03 0,-0.02 c 0,-0.76 0.6,-1.1 1.1,-1.1 0.7,0 1.2,0.45 1.4,0.76 0.2,0.31 0.5,1.42 0.6,2.16 0.2,0.65 0.6,2.26 0.8,3.14 0.2,0.76 0.4,1.53 0.6,2.33 0.4,1.5 0.4,1.56 1.1,2.65 1.1,1.71 2.9,3.69 5.5,3.69 2,0 2.1,-1.61 2.1,-2.44 0,-2.09 -1.5,-5.95 -2.1,-7.42 -0.3,-0.98 -0.5,-1.3 -0.5,-1.89 0,-1.84 1.6,-2.98 3.3,-2.98 3.5,0 5.1,4.79 5.1,5.32 0,0.46 -0.5,0.46 -0.6,0.46 -0.5,0 -0.5,-0.21 -0.7,-0.6 -0.8,-2.78 -2.2,-4.22 -3.6,-4.22 -0.8,0 -0.9,0.49 -0.9,1.22 0,0.8 0.2,1.25 0.8,2.83 0.4,1.08 1.8,4.77 1.8,6.72 0,0.56 0,2.03 -1.3,3.03 -0.6,0.45 -1.6,0.94 -3.2,0.94 -3.1,0 -5.1,-2.05 -6.2,-3.52 -0.2,2.97 -2.7,3.52 -4.5,3.52 -2.9,0 -4.8,-1.77 -5.9,-3.16 -0.2,2.39 -2.3,3.16 -3.7,3.16 -1.5,0 -2.3,-1.08 -2.8,-1.88 -0.7,-1.28 -1.2,-3.28 -1.2,-3.45 0,-0.45 0.5,-0.45 0.6,-0.45 0.5,0 0.5,0.11 0.7,1.04 0.6,2.07 1.2,3.77 2.6,3.77 0.9,0 1.1,-0.77 1.1,-1.7 0,-0.68 -0.3,-1.96 -0.5,-2.89 -0.3,-0.96 -0.6,-2.38 -0.8,-3.14 l -1.1,-4.47 c -0.1,-0.44 -0.4,-1.32 -0.4,-1.43 0,-0.76 0.7,-1.1 1.2,-1.1 0.7,0 1.2,0.45 1.4,0.76 0.2,0.31 0.4,1.42 0.6,2.16 0.2,0.65 0.6,2.26 0.8,3.14 0.2,0.76 0.4,1.53 0.6,2.33 0.3,1.43 0.4,1.7 1.4,3.14 1,1.39 2.7,3.2 5.3,3.2 2,0 2,-1.78 2,-2.44 0,-0.87 -0.1,-1.33 -0.6,-3.28 z"
           inkscape:connector-curvature="0"
           style="fill:#000000;stroke-width:0" /></g>    </g>
    <path
       style="fill:#e3e3e3;fill-opacity:1;stroke:#000000;stroke-width:1px;stroke-linecap:butt;stroke-linejoin:miter;stroke-opacity:1"
       d="m -111.97203,741.48077 890.7639,0 c 0,0 -12.62467,13.73735 -12.03868,35.31111 0.50267,18.50618 3.17746,35.01235 3.17746,35.01235 l -888.97827,0 c 0,0 -10.82823,-5.63331 -9.26186,-33.60988 1.63253,-29.1581 16.33745,-36.71358 16.33745,-36.71358 z"
       id="path3005"
       inkscape:connector-curvature="0"
       transform="translate(193.28572,94.219324)"
       sodipodi:nodetypes="ccsccsc" />
    <path
       style="fill:none;stroke:#000000;stroke-width:1;stroke-linecap:butt;stroke-linejoin:miter;stroke-miterlimit:4;stroke-opacity:1;stroke-dasharray:8, 8;stroke-dashoffset:0"
       d="M 299.00863,51.893968 164.35969,698.73684"
       id="path3004"
       inkscape:connector-type="polyline"
       inkscape:connector-curvature="0"
       inkscape:connection-start="#path3006"
       inkscape:connection-start-point="d4"
       inkscape:connection-end="#path3778"
       inkscape:connection-end-point="d4"
       transform="translate(64.321327,94.219324)" />
    <g
       transform="translate(-987.19668,185.51809)"
       id="g3034">
      <g
         style="font-style:normal;font-variant:normal;font-weight:normal;font-stretch:normal;letter-spacing:normal;word-spacing:normal;text-anchor:start;fill:none;stroke:#000000;stroke-linecap:butt;stroke-linejoin:miter;stroke-miterlimit:10.43299961;stroke-opacity:1;stroke-dasharray:none;stroke-dashoffset:0"
         id="g3036"
         transform="matrix(1.1604347,0,0,-1.1604347,-203.07606,681.19222)"
         xml:space="preserve"
         stroke-miterlimit="10.433"
         font-style="normal"
         font-variant="normal"
         font-weight="normal"
         font-stretch="normal"
         font-size-adjust="none"
         letter-spacing="normal"
         word-spacing="normal"><path
           style="fill:#000000;stroke-width:0"
           inkscape:connector-curvature="0"
           d="m 1228.2,376.58 0.1,0.17 0,0.15 0.1,0.16 0,0.14 0,0.14 0.1,0.13 0,0.12 0.1,0.12 0.1,0.11 0,0.1 0.1,0.1 0.1,0.09 0.1,0.09 0.1,0.08 0.1,0.08 0.1,0.07 0.1,0.06 0.2,0.06 0.1,0.06 0.2,0.05 0.1,0.02 0.1,0.02 0.1,0.02 0.1,0.02 0.1,0.02 0.1,0.02 0.2,0.02 0.1,0.01 0.1,0.02 0.1,0.01 0.2,0.01 0.1,0.01 0.2,0.01 0.1,0.01 0.2,0.01 0.2,0.01 0.1,0.01 0.2,0 0.2,0.01 0.2,0 0.2,0 0.2,0 0.2,0.01 0.2,0 c 1.5,0 1.9,0 1.9,0.95 0,0.59 -0.5,0.59 -0.8,0.59 -1.6,0 -5.7,-0.15 -7.4,-0.15 -1.5,0 -5.1,0.15 -6.6,0.15 -0.3,0 -0.9,0 -0.9,-1 0,-0.54 0.4,-0.54 1.4,-0.54 0.1,0 1,0 1.9,-0.1 0.8,-0.11 1.3,-0.15 1.3,-0.79 0,-0.21 -0.1,-0.36 -0.2,-0.96 l -6.7,-26.75 c -0.5,-1.95 -0.6,-2.34 -4.5,-2.34 -0.9,0 -1.4,0 -1.4,-1 0,-0.55 0.5,-0.55 1.4,-0.55 h 23.1 c 1.2,0 1.2,0 1.5,0.85 l 3.9,10.76 c 0.2,0.55 0.2,0.64 0.2,0.7 0,0.19 -0.1,0.55 -0.6,0.55 -0.4,0 -0.5,-0.25 -0.8,-1.05 -1.7,-4.59 -3.9,-10.26 -12.5,-10.26 h -4.7 c -0.7,0 -0.8,0 -1.1,0.05 -0.5,0.04 -0.6,0.09 -0.6,0.5 0,0.14 0,0.25 0.2,1.14 z"
           id="path3038" /><path
           style="fill:#000000;stroke-width:0"
           inkscape:connector-curvature="0"
           d="m 1247.8,341.07 0,-0.05 0,-0.04 0,-0.05 0,-0.05 -0.1,-0.05 0,-0.05 0,-0.05 0,-0.06 0,-0.11 -0.1,-0.11 0,-0.11 0,-0.11 0,-0.05 0,-0.05 -0.1,-0.05 0,-0.05 0,-0.05 0,-0.05 0,-0.04 0,-0.04 0,-0.04 0,-0.03 0,-0.03 0,-0.03 0,-0.03 0,-0.02 0,0 0,-0.01 0,-0.01 0,-0.01 c 0,-0.76 0.6,-1.1 1.2,-1.1 0.6,0 1.1,0.45 1.3,0.76 0.2,0.31 0.5,1.42 0.6,2.16 0.2,0.65 0.6,2.26 0.8,3.14 0.2,0.76 0.4,1.53 0.6,2.33 0.4,1.43 0.4,1.7 1.4,3.14 1,1.39 2.7,3.2 5.3,3.2 2,0 2,-1.78 2,-2.44 0,-2.09 -1.5,-5.95 -2,-7.42 -0.4,-0.98 -0.5,-1.3 -0.5,-1.89 0,-1.84 1.5,-2.98 3.3,-2.98 3.4,0 5,4.79 5,5.32 0,0.46 -0.5,0.46 -0.6,0.46 -0.5,0 -0.5,-0.21 -0.6,-0.6 -0.8,-2.78 -2.3,-4.22 -3.7,-4.22 -0.8,0 -0.9,0.49 -0.9,1.22 0,0.8 0.2,1.25 0.8,2.83 0.4,1.08 1.9,4.77 1.9,6.72 0,3.39 -2.7,3.97 -4.6,3.97 -2.9,0 -4.8,-1.77 -5.9,-3.16 -0.2,2.39 -2.3,3.16 -3.7,3.16 -1.5,0 -2.3,-1.08 -2.8,-1.88 -0.7,-1.28 -1.2,-3.28 -1.2,-3.45 0,-0.45 0.5,-0.45 0.6,-0.45 0.5,0 0.5,0.11 0.8,1.04 0.5,2.07 1.2,3.77 2.5,3.77 0.9,0 1.1,-0.77 1.1,-1.7 0,-0.68 -0.3,-1.96 -0.5,-2.89 -0.3,-0.96 -0.6,-2.38 -0.8,-3.14 z"
           id="path3040" /></g>    </g>
    <g
       id="g3104"
       transform="translate(-611.31333,333.78489)">
      <g
         word-spacing="normal"
         letter-spacing="normal"
         font-size-adjust="none"
         font-stretch="normal"
         font-weight="normal"
         font-variant="normal"
         font-style="normal"
         stroke-miterlimit="10.433"
         xml:space="preserve"
         transform="matrix(1.1604347,0,0,-1.1604347,-203.07606,681.19222)"
         id="g3106"
         style="font-style:normal;font-variant:normal;font-weight:normal;font-stretch:normal;letter-spacing:normal;word-spacing:normal;text-anchor:start;fill:none;stroke:#000000;stroke-linecap:butt;stroke-linejoin:miter;stroke-miterlimit:10.43299961;stroke-opacity:1;stroke-dasharray:none;stroke-dashoffset:0"><path
           id="path3108"
           d="m 1228.8,376.58 0.1,0.17 0,0.15 0.1,0.16 0,0.14 0,0.14 0.1,0.13 0,0.12 0.1,0.12 0,0.11 0.1,0.1 0.1,0.1 0.1,0.09 0.1,0.09 0.1,0.08 0.1,0.08 0.1,0.07 0.1,0.06 0.2,0.06 0.1,0.06 0.2,0.05 0.1,0.02 0.1,0.02 0.1,0.02 0.1,0.02 0.1,0.02 0.1,0.02 0.2,0.02 0.1,0.01 0.1,0.02 0.1,0.01 0.2,0.01 0.1,0.01 0.2,0.01 0.1,0.01 0.2,0.01 0.2,0.01 0.1,0.01 0.2,0 0.2,0.01 0.2,0 0.2,0 0.2,0 0.2,0.01 0.2,0 c 1.5,0 1.9,0 1.9,0.95 0,0.59 -0.5,0.59 -0.8,0.59 -1.6,0 -5.7,-0.15 -7.4,-0.15 -1.5,0 -5.1,0.15 -6.6,0.15 -0.3,0 -0.9,0 -0.9,-1 0,-0.54 0.4,-0.54 1.4,-0.54 0.1,0 1,0 1.9,-0.1 0.8,-0.11 1.3,-0.15 1.3,-0.79 0,-0.21 -0.1,-0.36 -0.2,-0.96 l -6.7,-26.75 c -0.5,-1.95 -0.6,-2.34 -4.5,-2.34 -0.9,0 -1.4,0 -1.4,-1 0,-0.55 0.5,-0.55 1.4,-0.55 h 23.1 c 1.2,0 1.2,0 1.5,0.85 l 3.9,10.76 c 0.2,0.55 0.2,0.64 0.2,0.7 0,0.19 -0.1,0.55 -0.6,0.55 -0.4,0 -0.5,-0.25 -0.8,-1.05 -1.7,-4.59 -3.9,-10.26 -12.5,-10.26 h -4.7 c -0.7,0 -0.8,0 -1.1,0.05 -0.5,0.04 -0.6,0.09 -0.6,0.5 0,0.14 0,0.25 0.2,1.14 z"
           inkscape:connector-curvature="0"
           style="fill:#000000;stroke-width:0" /><path
           id="path3110"
           d="m 1258.3,352.64 h 3.5 c 0.7,0 1.1,0 1.1,0.77 0,0.48 -0.4,0.48 -1.1,0.48 h -3.2 c 0.8,4.43 1.1,6.04 1.3,7.05 0.2,0.77 1,1.5 1.8,1.5 0.1,0 1,0 1.7,-0.42 -1.5,-0.45 -1.6,-1.72 -1.6,-1.92 0,-0.77 0.6,-1.28 1.4,-1.28 1,0 2,0.79 2,2.12 0,1.6 -1.7,2.47 -3.5,2.47 -1.5,0 -3.2,-0.87 -4.2,-2.61 -0.7,-1.3 -0.9,-2.86 -1.7,-6.91 h -2.7 c -0.7,0 -1.2,0 -1.2,-0.76 0,-0.49 0.5,-0.49 1.1,-0.49 h 2.6 c 0,-0.21 -2.2,-12.75 -3.1,-16.48 -0.2,-0.77 -0.7,-3.41 -2.4,-3.41 0,0 -0.9,0 -1.5,0.41 1.4,0.45 1.5,1.72 1.5,1.92 0,0.77 -0.6,1.28 -1.4,1.28 -0.9,0 -2,-0.79 -2,-2.12 0,-1.56 1.6,-2.47 3.4,-2.47 2.2,0 3.7,2.3 4.2,3.06 1.2,2.35 2,6.63 2.1,7.05 z"
           inkscape:connector-curvature="0"
           style="fill:#000000;stroke-width:0" /></g>    </g>
    <path
       style="fill:none;stroke:#000000;stroke-width:1;stroke-linecap:butt;stroke-linejoin:miter;stroke-miterlimit:4;stroke-opacity:1;stroke-dasharray:8, 8;stroke-dashoffset:0"
       d="M 735.6262,702.62685 318.08572,48.39296"
       id="path3146"
       inkscape:connector-type="polyline"
       inkscape:connector-curvature="0"
       inkscape:connection-start="#path3782"
       inkscape:connection-start-point="d4"
       inkscape:connection-end="#path3006"
       inkscape:connection-end-point="d4"
       transform="translate(64.321327,94.219324)" />
    <g
       id="g3051"
       transform="translate(-891.81198,516.8004)">
      <g
         id="g3053"
         transform="matrix(1.1604347,0,0,-1.1604347,-203.07606,681.19222)"
         xml:space="preserve"
         stroke-miterlimit="10.433"
         font-style="normal"
         font-variant="normal"
         font-weight="normal"
         font-stretch="normal"
         font-size-adjust="none"
         letter-spacing="normal"
         word-spacing="normal"
         style="font-style:normal;font-variant:normal;font-weight:normal;font-stretch:normal;letter-spacing:normal;word-spacing:normal;text-anchor:start;fill:none;stroke:#000000;stroke-linecap:butt;stroke-linejoin:miter;stroke-miterlimit:10.43299961;stroke-opacity:1;stroke-dasharray:none;stroke-dashoffset:0"><path
           d="m 1237.6,371.35 -0.1,0.32 0,0.34 0,0.35 0,0.37 0,0.39 -0.1,0.4 0,0.4 -0.1,0.42 0,0.42 -0.1,0.42 -0.1,0.42 -0.1,0.43 -0.1,0.42 -0.1,0.42 -0.2,0.42 -0.1,0.4 -0.2,0.4 -0.2,0.38 -0.2,0.38 -0.2,0.35 -0.2,0.34 -0.3,0.32 -0.3,0.3 -0.3,0.27 -0.3,0.25 -0.1,0.12 -0.2,0.11 -0.2,0.1 -0.1,0.09 -0.2,0.08 -0.2,0.08 -0.2,0.07 -0.2,0.06 -0.2,0.05 -0.2,0.05 -0.2,0.03 -0.3,0.03 -0.2,0.01 -0.2,0.01 -0.1,-1.1 c 2.5,0 2.7,-3.18 2.7,-6.03 0,-2.44 -0.3,-4.98 -1.5,-9.92 h -10.5 c 0.9,3.2 1.9,7.19 3.9,10.72 1.3,2.44 3.2,5.23 5.4,5.23 l 0.1,1.1 c -7,0 -14.6,-14.05 -14.6,-25.46 0,-4.68 1.4,-10.22 6,-10.22 v 1.1 c -1.7,0 -2.8,1.45 -2.8,6.08 0,2.09 0.4,4.98 1.6,9.86 h 10.4 c -0.5,-2.29 -1.6,-6.52 -3.5,-10.11 -1.7,-3.39 -3.6,-5.83 -5.7,-5.83 v -1.1 c 7,0 14.6,14.3 14.6,25.46 z"
           id="path3055"
           inkscape:connector-curvature="0"
           style="fill:#000000;stroke-width:0" /><path
           d="m 1242.5,341.07 0,-0.05 0,-0.04 0,-0.05 0,-0.05 0,-0.05 -0.1,-0.05 0,-0.05 0,-0.06 0,-0.11 0,-0.11 -0.1,-0.11 0,-0.11 0,-0.05 0,-0.05 0,-0.05 0,-0.05 0,-0.05 -0.1,-0.05 0,-0.04 0,-0.04 0,-0.04 0,-0.03 0,-0.03 0,-0.03 0,-0.03 0,-0.02 0,0 0,-0.01 0,-0.01 0,-0.01 c 0,-0.76 0.6,-1.1 1.2,-1.1 0.6,0 1.2,0.45 1.3,0.76 0.2,0.31 0.5,1.42 0.7,2.16 0.1,0.65 0.5,2.26 0.7,3.14 0.2,0.76 0.5,1.53 0.6,2.33 0.4,1.43 0.5,1.7 1.5,3.14 1,1.39 2.6,3.2 5.2,3.2 2,0 2,-1.78 2,-2.44 0,-2.09 -1.4,-5.95 -2,-7.42 -0.4,-0.98 -0.5,-1.3 -0.5,-1.89 0,-1.84 1.5,-2.98 3.3,-2.98 3.5,0 5,4.79 5,5.32 0,0.46 -0.4,0.46 -0.5,0.46 -0.5,0 -0.6,-0.21 -0.7,-0.6 -0.8,-2.78 -2.3,-4.22 -3.7,-4.22 -0.7,0 -0.9,0.49 -0.9,1.22 0,0.8 0.2,1.25 0.8,2.83 0.4,1.08 1.9,4.77 1.9,6.72 0,3.39 -2.7,3.97 -4.5,3.97 -2.9,0 -4.9,-1.77 -5.9,-3.16 -0.3,2.39 -2.3,3.16 -3.8,3.16 -1.5,0 -2.3,-1.08 -2.7,-1.88 -0.8,-1.28 -1.3,-3.28 -1.3,-3.45 0,-0.45 0.5,-0.45 0.6,-0.45 0.5,0 0.5,0.11 0.8,1.04 0.5,2.07 1.2,3.77 2.5,3.77 0.9,0 1.2,-0.77 1.2,-1.7 0,-0.68 -0.3,-1.96 -0.6,-2.89 -0.2,-0.96 -0.6,-2.38 -0.8,-3.14 z"
           id="path3057"
           inkscape:connector-curvature="0"
           style="fill:#000000;stroke-width:0" /></g>    </g>
    <g
       id="g3139"
       transform="matrix(0.7611591,0,0,0.7611591,-647.34656,450.50429)">
      <g
         word-spacing="normal"
         letter-spacing="normal"
         font-size-adjust="none"
         font-stretch="normal"
         font-weight="normal"
         font-variant="normal"
         font-style="normal"
         stroke-miterlimit="10.433"
         xml:space="preserve"
         transform="matrix(1.1604347,0,0,-1.1604347,-203.07606,681.19222)"
         id="g3141"
         style="font-style:normal;font-variant:normal;font-weight:normal;font-stretch:normal;letter-spacing:normal;word-spacing:normal;text-anchor:start;fill:none;stroke:#000000;stroke-linecap:butt;stroke-linejoin:miter;stroke-miterlimit:10.43299961;stroke-opacity:1;stroke-dasharray:none;stroke-dashoffset:0"><path
           id="path3143"
           d="m 1228.2,371.35 0,0.32 0,0.34 0,0.35 -0.1,0.37 0,0.39 0,0.4 -0.1,0.4 0,0.42 -0.1,0.42 -0.1,0.42 -0.1,0.42 -0.1,0.43 -0.1,0.42 -0.1,0.42 -0.1,0.42 -0.2,0.4 -0.2,0.4 -0.1,0.38 -0.2,0.38 -0.3,0.35 -0.2,0.34 -0.3,0.32 -0.2,0.3 -0.3,0.27 -0.3,0.25 -0.2,0.12 -0.2,0.11 -0.1,0.1 -0.2,0.09 -0.2,0.08 -0.2,0.08 -0.2,0.07 -0.2,0.06 -0.2,0.05 -0.2,0.05 -0.2,0.03 -0.2,0.03 -0.3,0.01 -0.2,0.01 0,-1.1 c 2.4,0 2.7,-3.18 2.7,-6.03 0,-2.44 -0.4,-4.98 -1.6,-9.92 h -10.4 c 0.8,3.2 1.8,7.19 3.8,10.72 1.4,2.44 3.2,5.23 5.5,5.23 l 0,1.1 c -6.9,0 -14.6,-14.05 -14.6,-25.46 0,-4.68 1.5,-10.22 6,-10.22 v 1.1 c -1.7,0 -2.7,1.45 -2.7,6.08 0,2.09 0.3,4.98 1.6,9.86 h 10.4 c -0.6,-2.29 -1.6,-6.52 -3.5,-10.11 -1.8,-3.39 -3.7,-5.83 -5.8,-5.83 v -1.1 c 7,0 14.6,14.3 14.6,25.46 z"
           inkscape:connector-curvature="0"
           style="fill:#000000;stroke-width:0" /><path
           id="path3145"
           d="m 1233.2,341.07 0,-0.05 -0.1,-0.04 0,-0.05 0,-0.05 0,-0.05 0,-0.05 0,-0.05 0,-0.06 -0.1,-0.11 0,-0.11 0,-0.11 -0.1,-0.11 0,-0.05 0,-0.05 0,-0.05 0,-0.05 0,-0.05 0,-0.05 0,-0.04 0,-0.04 0,-0.04 -0.1,-0.03 0,-0.03 0,-0.03 0,-0.03 0,-0.02 0,0 0,-0.01 0,-0.01 0,-0.01 c 0,-0.76 0.6,-1.1 1.2,-1.1 0.6,0 1.2,0.45 1.4,0.76 0.2,0.31 0.4,1.42 0.6,2.16 0.2,0.65 0.6,2.26 0.8,3.14 0.2,0.76 0.4,1.53 0.6,2.33 0.3,1.43 0.4,1.7 1.4,3.14 1,1.39 2.6,3.2 5.3,3.2 2,0 2,-1.78 2,-2.44 0,-2.09 -1.5,-5.95 -2,-7.42 -0.4,-0.98 -0.6,-1.3 -0.6,-1.89 0,-1.84 1.6,-2.98 3.3,-2.98 3.5,0 5,4.79 5,5.32 0,0.46 -0.4,0.46 -0.5,0.46 -0.5,0 -0.5,-0.21 -0.7,-0.6 -0.8,-2.78 -2.3,-4.22 -3.7,-4.22 -0.7,0 -0.8,0.49 -0.8,1.22 0,0.8 0.1,1.25 0.8,2.83 0.4,1.08 1.8,4.77 1.8,6.72 0,3.39 -2.7,3.97 -4.5,3.97 -2.9,0 -4.9,-1.77 -5.9,-3.16 -0.2,2.39 -2.3,3.16 -3.7,3.16 -1.5,0 -2.3,-1.08 -2.8,-1.88 -0.7,-1.28 -1.2,-3.28 -1.2,-3.45 0,-0.45 0.5,-0.45 0.6,-0.45 0.4,0 0.5,0.11 0.7,1.04 0.5,2.07 1.2,3.77 2.6,3.77 0.9,0 1.1,-0.77 1.1,-1.7 0,-0.68 -0.3,-1.96 -0.5,-2.89 -0.3,-0.96 -0.6,-2.38 -0.8,-3.14 z"
           inkscape:connector-curvature="0"
           style="fill:#000000;stroke-width:0" /><path
           id="path3147"
           d="m 1268.5,351.97 0,-0.02 -0.1,-0.02 -0.1,-0.03 -0.1,-0.03 -0.1,-0.03 0,-0.03 -0.1,-0.04 -0.1,-0.04 0,-0.04 -0.1,-0.05 -0.1,-0.04 0,-0.05 -0.1,-0.05 0,-0.05 -0.1,-0.05 0,-0.06 -0.1,-0.05 0,-0.06 -0.1,-0.06 0,-0.06 0,-0.06 -0.1,-0.06 0,-0.06 0,-0.07 -0.1,-0.06 0,-0.06 0,-0.07 0,-0.06 0,-0.07 0,-0.06 0,-0.07 0,-0.06 c 0,-0.81 0.7,-1.13 1.1,-1.13 0.4,0 1.7,0.22 1.7,1.99 0,2.26 -2.5,3.03 -4.6,3.03 -5.5,0 -6.5,-4 -6.5,-5.08 0,-1.3 0.8,-2.12 1.3,-2.55 0.9,-0.7 1.5,-0.82 3.9,-1.25 0.7,-0.14 3,-0.56 3,-2.29 0,-0.6 -0.4,-1.93 -1.9,-2.8 -1.3,-0.77 -3,-0.77 -3.5,-0.77 -1.4,0 -3.4,0.32 -4.1,1.47 1.1,0.14 1.9,1 1.9,1.99 0,0.87 -0.6,1.28 -1.4,1.28 -1,0 -2,-0.8 -2,-2.33 0,-2.09 2.2,-3.37 5.6,-3.37 6.4,0 7.6,4.39 7.6,5.75 0,3.2 -3.5,3.82 -4.8,4.07 -0.3,0.07 -1.2,0.21 -1.4,0.27 -1.3,0.25 -1.9,0.98 -1.9,1.75 0,0.8 0.6,1.73 1.4,2.23 0.9,0.6 2.1,0.66 2.7,0.66 0.8,0 2.6,-0.11 3.3,-1.3 z"
           inkscape:connector-curvature="0"
           style="fill:#000000;stroke-width:0" /></g>    </g>
    <path
       sodipodi:end="5.2116329"
       sodipodi:start="4.8802045"
       d="m 465.18003,363.03881 c 12.9405,2.19223 25.42704,6.51849 36.94995,12.80218"
       sodipodi:ry="118.53079"
       sodipodi:rx="118.53079"
       sodipodi:cy="479.90448"
       sodipodi:cx="445.38196"
       id="path3798-9"
       style="fill:none;stroke:#ff0000;stroke-width:2;stroke-linecap:round;stroke-linejoin:round;stroke-miterlimit:4;stroke-opacity:1;stroke-dasharray:none;stroke-dashoffset:0"
       sodipodi:type="arc"
       transform="translate(-217.153,344.66818)"
       sodipodi:open="true" />
    <path
       sodipodi:end="6.4225885"
       sodipodi:start="4.8746557"
       d="m 458.53697,399.54697 c 43.66442,7.14813 73.63027,47.85556 67.48224,91.67199"
       sodipodi:ry="81.42717"
       sodipodi:rx="81.42717"
       sodipodi:cy="479.90448"
       sodipodi:cx="445.38196"
       id="path3798-3"
       style="fill:none;stroke:#000000;stroke-width:2;stroke-linecap:round;stroke-linejoin:round;stroke-miterlimit:4;stroke-opacity:1;stroke-dasharray:none;stroke-dashoffset:0"
       sodipodi:type="arc"
       transform="translate(-219.80326,344.66818)"
       sodipodi:open="true" />
    <g
       id="g3073"
       transform="translate(-438.61778,392.23826)">
      <g
         id="g3075"
         transform="matrix(1.1604347,0,0,-1.1604347,-203.07606,681.19222)"
         xml:space="preserve"
         stroke-miterlimit="10.433"
         font-style="normal"
         font-variant="normal"
         font-weight="normal"
         font-stretch="normal"
         font-size-adjust="none"
         letter-spacing="normal"
         word-spacing="normal"
         style="font-style:normal;font-variant:normal;font-weight:normal;font-stretch:normal;letter-spacing:normal;word-spacing:normal;text-anchor:start;fill:none;stroke:#000000;stroke-linecap:butt;stroke-linejoin:miter;stroke-miterlimit:10.43299961;stroke-opacity:1;stroke-dasharray:none;stroke-dashoffset:0"><path
           d="m 1231.1,376.58 0.1,0.17 0,0.15 0,0.16 0.1,0.14 0,0.14 0.1,0.13 0,0.12 0.1,0.12 0,0.11 0.1,0.1 0.1,0.1 0,0.09 0.1,0.09 0.1,0.08 0.1,0.08 0.2,0.07 0.1,0.06 0.1,0.06 0.2,0.06 0.2,0.05 0.1,0.02 0.1,0.02 0.1,0.02 0.1,0.02 0.1,0.02 0.1,0.02 0.1,0.02 0.2,0.01 0.1,0.02 0.1,0.01 0.2,0.01 0.1,0.01 0.2,0.01 0.1,0.01 0.2,0.01 0.1,0.01 0.2,0.01 0.2,0 0.2,0.01 0.2,0 0.2,0 0.2,0 0.2,0.01 0.2,0 c 1.5,0 1.9,0 1.9,0.95 0,0.59 -0.5,0.59 -0.8,0.59 -1.7,0 -5.7,-0.15 -7.4,-0.15 -1.5,0 -5.1,0.15 -6.6,0.15 -0.4,0 -1,0 -1,-1 0,-0.54 0.5,-0.54 1.4,-0.54 0.1,0 1.1,0 1.9,-0.1 0.9,-0.11 1.4,-0.15 1.4,-0.79 0,-0.21 -0.1,-0.36 -0.2,-0.96 l -6.7,-26.75 c -0.5,-1.95 -0.6,-2.34 -4.5,-2.34 -0.9,0 -1.4,0 -1.4,-1 0,-0.55 0.5,-0.55 1.4,-0.55 h 23 c 1.2,0 1.3,0 1.6,0.85 l 3.9,10.76 c 0.2,0.55 0.2,0.64 0.2,0.7 0,0.19 -0.1,0.55 -0.6,0.55 -0.4,0 -0.5,-0.25 -0.8,-1.05 -1.7,-4.59 -3.9,-10.26 -12.5,-10.26 h -4.7 c -0.7,0 -0.8,0 -1.1,0.05 -0.5,0.04 -0.7,0.09 -0.7,0.5 0,0.14 0,0.25 0.3,1.14 z"
           id="path3077"
           inkscape:connector-curvature="0"
           style="fill:#000000;stroke-width:0" /><path
           d="m 1261.5,351.97 -0.1,-0.02 -0.1,-0.02 -0.1,-0.03 -0.1,-0.03 0,-0.03 -0.1,-0.03 -0.1,-0.04 -0.1,-0.04 0,-0.04 -0.1,-0.05 0,-0.04 -0.1,-0.05 -0.1,-0.05 0,-0.05 -0.1,-0.05 0,-0.06 -0.1,-0.05 0,-0.06 0,-0.06 -0.1,-0.06 0,-0.06 -0.1,-0.06 0,-0.06 0,-0.07 0,-0.06 -0.1,-0.06 0,-0.07 0,-0.06 0,-0.07 0,-0.06 0,-0.07 0,-0.06 c 0,-0.81 0.7,-1.13 1.1,-1.13 0.4,0 1.7,0.22 1.7,1.99 0,2.26 -2.5,3.03 -4.6,3.03 -5.4,0 -6.4,-4 -6.4,-5.08 0,-1.3 0.7,-2.12 1.2,-2.55 0.9,-0.7 1.5,-0.82 3.9,-1.25 0.8,-0.14 3,-0.56 3,-2.29 0,-0.6 -0.4,-1.93 -1.8,-2.8 -1.4,-0.77 -3.1,-0.77 -3.5,-0.77 -1.4,0 -3.4,0.32 -4.2,1.47 1.1,0.14 1.9,1 1.9,1.99 0,0.87 -0.6,1.28 -1.4,1.28 -1,0 -2,-0.8 -2,-2.33 0,-2.09 2.2,-3.37 5.6,-3.37 6.4,0 7.6,4.39 7.6,5.75 0,3.2 -3.5,3.82 -4.8,4.07 -0.3,0.07 -1.2,0.21 -1.4,0.27 -1.3,0.25 -1.9,0.98 -1.9,1.75 0,0.8 0.6,1.73 1.4,2.23 0.9,0.6 2.2,0.66 2.7,0.66 0.8,0 2.6,-0.11 3.4,-1.3 z"
           id="path3079"
           inkscape:connector-curvature="0"
           style="fill:#000000;stroke-width:0" /></g>    </g>
    <g
       id="g3183"
       transform="translate(-681.76669,7.9507755)">
      <g
         word-spacing="normal"
         letter-spacing="normal"
         font-size-adjust="none"
         font-stretch="normal"
         font-weight="normal"
         font-variant="normal"
         font-style="normal"
         stroke-miterlimit="10.433"
         xml:space="preserve"
         transform="matrix(1.1604347,0,0,-1.1604347,-203.07606,681.19222)"
         id="g3185"
         style="font-style:normal;font-variant:normal;font-weight:normal;font-stretch:normal;letter-spacing:normal;word-spacing:normal;text-anchor:start;fill:none;stroke:#000000;stroke-linecap:butt;stroke-linejoin:miter;stroke-miterlimit:10.43299961;stroke-opacity:1;stroke-dasharray:none;stroke-dashoffset:0"><path
           id="path3187"
           d="m 1233,376.58 0.1,0.17 0,0.15 0.1,0.16 0,0.14 0,0.14 0.1,0.13 0,0.12 0.1,0.12 0,0.11 0.1,0.1 0.1,0.1 0.1,0.09 0.1,0.09 0.1,0.08 0.1,0.08 0.1,0.07 0.1,0.06 0.2,0.06 0.1,0.06 0.2,0.05 0.1,0.02 0.1,0.02 0.1,0.02 0.1,0.02 0.1,0.02 0.1,0.02 0.2,0.02 0.1,0.01 0.1,0.02 0.1,0.01 0.2,0.01 0.1,0.01 0.2,0.01 0.1,0.01 0.2,0.01 0.2,0.01 0.1,0.01 0.2,0 0.2,0.01 0.2,0 0.2,0 0.2,0 0.2,0.01 0.2,0 c 1.5,0 1.9,0 1.9,0.95 0,0.59 -0.5,0.59 -0.8,0.59 -1.6,0 -5.7,-0.15 -7.4,-0.15 -1.5,0 -5.1,0.15 -6.6,0.15 -0.3,0 -0.9,0 -0.9,-1 0,-0.54 0.4,-0.54 1.3,-0.54 0.2,0 1.1,0 2,-0.1 0.9,-0.11 1.3,-0.15 1.3,-0.79 0,-0.21 -0.1,-0.36 -0.2,-0.96 l -6.7,-26.75 c -0.5,-1.95 -0.6,-2.34 -4.5,-2.34 -0.9,0 -1.4,0 -1.4,-1 0,-0.55 0.5,-0.55 1.4,-0.55 h 23.1 c 1.1,0 1.2,0 1.5,0.85 l 3.9,10.76 c 0.2,0.55 0.2,0.64 0.2,0.7 0,0.19 -0.1,0.55 -0.6,0.55 -0.4,0 -0.5,-0.25 -0.8,-1.05 -1.7,-4.59 -3.9,-10.26 -12.5,-10.26 h -4.7 c -0.7,0 -0.8,0 -1.1,0.05 -0.5,0.04 -0.6,0.09 -0.6,0.5 0,0.14 0,0.25 0.2,1.14 z"
           inkscape:connector-curvature="0"
           style="fill:#000000;stroke-width:0" /><path
           id="path3189"
           d="m 1256.9,352.64 h 3.6 c 0.6,0 1.1,0 1.1,0.77 0,0.48 -0.5,0.48 -1,0.48 h -3.4 l 1.3,5.16 c 0.1,0.17 0.1,0.34 0.1,0.49 0,0.64 -0.4,1.12 -1.2,1.12 -0.8,0 -1.3,-0.59 -1.6,-1.5 -0.2,-0.87 0.2,0.8 -1.3,-5.27 h -3.6 c -0.6,0 -1.1,0 -1.1,-0.76 0,-0.49 0.4,-0.49 1.1,-0.49 h 3.3 l -2.1,-8.21 c -0.2,-0.88 -0.5,-2.13 -0.5,-2.58 0,-2.06 1.7,-3.31 3.7,-3.31 3.9,0 6.1,4.87 6.1,5.32 0,0.46 -0.5,0.46 -0.6,0.46 -0.4,0 -0.4,-0.08 -0.7,-0.66 -1,-2.2 -2.8,-4.16 -4.7,-4.16 -0.7,0 -1.2,0.46 -1.2,1.71 0,0.36 0.2,1.09 0.2,1.43 z"
           inkscape:connector-curvature="0"
           style="fill:#000000;stroke-width:0" /></g>    </g>
  </g>
</svg>
