<?xml version="1.0" encoding="UTF-8" standalone="no"?>
<!-- Created with Inkscape (http://www.inkscape.org/) -->

<svg
   xmlns:dc="http://purl.org/dc/elements/1.1/"
   xmlns:cc="http://creativecommons.org/ns#"
   xmlns:rdf="http://www.w3.org/1999/02/22-rdf-syntax-ns#"
   xmlns:svg="http://www.w3.org/2000/svg"
   xmlns="http://www.w3.org/2000/svg"
   xmlns:sodipodi="http://sodipodi.sourceforge.net/DTD/sodipodi-0.dtd"
   xmlns:inkscape="http://www.inkscape.org/namespaces/inkscape"
   width="210mm"
   height="297mm"
   viewBox="0 0 210 297"
   version="1.1"
   id="svg15540"
   inkscape:version="0.92.0 r"
   sodipodi:docname="weihong-step-size.svg">
  <defs
     id="defs15534" />
  <sodipodi:namedview
     id="base"
     pagecolor="#ffffff"
     bordercolor="#666666"
     borderopacity="1.0"
     inkscape:pageopacity="0.0"
     inkscape:pageshadow="2"
     inkscape:zoom="2.8"
     inkscape:cx="284.88716"
     inkscape:cy="868.30383"
     inkscape:document-units="mm"
     inkscape:current-layer="layer1"
     showgrid="false"
     inkscape:window-width="1359"
     inkscape:window-height="1058"
     inkscape:window-x="1280"
     inkscape:window-y="18"
     inkscape:window-maximized="0" />
  <metadata
     id="metadata15537">
    <rdf:RDF>
      <cc:Work
         rdf:about="">
        <dc:format>image/svg+xml</dc:format>
        <dc:type
           rdf:resource="http://purl.org/dc/dcmitype/StillImage" />
        <dc:title></dc:title>
      </cc:Work>
    </rdf:RDF>
  </metadata>
  <g
     inkscape:label="Layer 1"
     inkscape:groupmode="layer"
     id="layer1">
    <text
       y="79.334427"
       x="54.555271"
       style="font-variant:normal;font-weight:normal;font-stretch:normal;font-size:2.11666656px;font-family:'ANKEF A +Helvetica LT Std';-inkscape-font-specification:HelveticaLTStd-Roman;writing-mode:lr-tb;fill:#231f20;fill-opacity:1;fill-rule:nonzero;stroke:none;stroke-width:0.35277775"
       id="text217">
      <tspan
         style="stroke-width:0.35277775"
         x="54.555271 55.73214 56.909004 76.598236 77.775101 81.908958 83.085823 87.274704 88.451576 59.86599 61.042854 62.219723 66.601219 71.319275 72.49614"
         y="79.334427"
         sodipodi:role="line"
         id="tspan215">–32324864–16016</tspan>
    </text>
    <path
       d="m 56.368231,77.104035 h 0.414514 v 0.05821 h -0.414514 z"
       style="fill:#3c4ca8;fill-opacity:1;fill-rule:nonzero;stroke:none;stroke-width:0.35277775"
       id="path219"
       inkscape:connector-curvature="0" />
    <g
       id="g221"
       transform="matrix(0.35277777,0,0,-0.35277777,85.396552,77.162232)">
      <path
         d="M 0,0 V 0 H 1.175 Z"
         style="fill:#3c4ca8;fill-opacity:1;fill-rule:nonzero;stroke:none"
         id="path223"
         inkscape:connector-curvature="0" />
    </g>
    <g
       id="g225"
       transform="matrix(0.35277777,0,0,-0.35277777,85.396552,77.162232)">
      <path
         d="M 0,0 V -0.337 H 1.175 V 0.338 H 0 V -0.337 0 -0.337 H 1.175 V 0.338 H 0 v -0.675 z"
         style="fill:#110f0d;fill-opacity:1;fill-rule:nonzero;stroke:none"
         id="path227"
         inkscape:connector-curvature="0" />
    </g>
    <g
       id="g229"
       transform="matrix(0.35277777,0,0,-0.35277777,86.433364,77.162232)">
      <path
         d="M 0,0 V 0 H 1.175 Z"
         style="fill:#3c4ca8;fill-opacity:1;fill-rule:nonzero;stroke:none"
         id="path231"
         inkscape:connector-curvature="0" />
    </g>
    <g
       id="g233"
       transform="matrix(0.35277777,0,0,-0.35277777,86.433364,77.162232)">
      <path
         d="M 0,0 V -0.337 H 1.175 V 0.338 H 0 V -0.337 0 -0.337 H 1.175 V 0.338 H 0 v -0.675 z"
         style="fill:#110f0d;fill-opacity:1;fill-rule:nonzero;stroke:none"
         id="path235"
         inkscape:connector-curvature="0" />
    </g>
    <g
       id="g237"
       transform="matrix(0.35277777,0,0,-0.35277777,87.469827,77.162232)">
      <path
         d="M 0,0 V 0 H 1.176 Z"
         style="fill:#3c4ca8;fill-opacity:1;fill-rule:nonzero;stroke:none"
         id="path239"
         inkscape:connector-curvature="0" />
    </g>
    <g
       id="g241"
       transform="matrix(0.35277777,0,0,-0.35277777,87.469827,77.162232)">
      <path
         d="M 0,0 V -0.337 H 1.176 V 0.338 H 0 V -0.337 0 -0.337 H 1.176 V 0.338 H 0 v -0.675 z"
         style="fill:#110f0d;fill-opacity:1;fill-rule:nonzero;stroke:none"
         id="path243"
         inkscape:connector-curvature="0" />
    </g>
    <path
       d="m 55.33177,76.873318 h 0.414514 v 0.288925 H 55.33177 Z"
       style="fill:#3c4ca8;fill-opacity:1;fill-rule:nonzero;stroke:none;stroke-width:0.35277775"
       id="path245"
       inkscape:connector-curvature="0" />
    <path
       d="m 57.404693,77.104035 h 0.414514 v 0.05821 h -0.414514 z"
       style="fill:#3c4ca8;fill-opacity:1;fill-rule:nonzero;stroke:none;stroke-width:0.35277775"
       id="path247"
       inkscape:connector-curvature="0" />
    <path
       d="m 58.441154,76.815816 h 0.414514 v 0.346427 h -0.414514 z"
       style="fill:#3c4ca8;fill-opacity:1;fill-rule:nonzero;stroke:none;stroke-width:0.35277775"
       id="path249"
       inkscape:connector-curvature="0" />
    <path
       d="m 59.477968,76.584393 h 0.414866 v 0.57785 h -0.414866 z"
       style="fill:#3c4ca8;fill-opacity:1;fill-rule:nonzero;stroke:none;stroke-width:0.35277775"
       id="path251"
       inkscape:connector-curvature="0" />
    <path
       d="m 60.514429,76.179758 h 0.414867 v 0.982485 h -0.414867 z"
       style="fill:#3c4ca8;fill-opacity:1;fill-rule:nonzero;stroke:none;stroke-width:0.35277775"
       id="path253"
       inkscape:connector-curvature="0" />
    <path
       d="m 61.551243,75.717972 h 0.414514 v 1.444271 h -0.414514 z"
       style="fill:#3c4ca8;fill-opacity:1;fill-rule:nonzero;stroke:none;stroke-width:0.35277775"
       id="path255"
       inkscape:connector-curvature="0" />
    <path
       d="m 62.588057,74.100485 h 0.414513 v 3.061758 h -0.414513 z"
       style="fill:#3c4ca8;fill-opacity:1;fill-rule:nonzero;stroke:none;stroke-width:0.35277775"
       id="path257"
       inkscape:connector-curvature="0" />
    <path
       d="m 63.624518,70.923016 h 0.414866 v 6.239227 h -0.414866 z"
       style="fill:#3c4ca8;fill-opacity:1;fill-rule:nonzero;stroke:none;stroke-width:0.35277775"
       id="path259"
       inkscape:connector-curvature="0" />
    <path
       d="m 64.661684,68.959101 h 0.414514 v 8.203142 h -0.414514 z"
       style="fill:#3c4ca8;fill-opacity:1;fill-rule:nonzero;stroke:none;stroke-width:0.35277775"
       id="path261"
       inkscape:connector-curvature="0" />
    <path
       d="m 65.698145,70.403022 h 0.414867 v 6.759221 h -0.414867 z"
       style="fill:#3c4ca8;fill-opacity:1;fill-rule:nonzero;stroke:none;stroke-width:0.35277775"
       id="path263"
       inkscape:connector-curvature="0" />
    <path
       d="m 66.734606,69.305176 h 0.414514 v 7.857067 h -0.414514 z"
       style="fill:#3c4ca8;fill-opacity:1;fill-rule:nonzero;stroke:none;stroke-width:0.35277775"
       id="path265"
       inkscape:connector-curvature="0" />
    <path
       d="m 67.77142,67.630189 h 0.414514 v 9.532054 H 67.77142 Z"
       style="fill:#3c4ca8;fill-opacity:1;fill-rule:nonzero;stroke:none;stroke-width:0.35277775"
       id="path267"
       inkscape:connector-curvature="0" />
    <path
       d="m 68.807881,58.84955 h 0.41522 v 18.312693 h -0.41522 z"
       style="fill:#3c4ca8;fill-opacity:1;fill-rule:nonzero;stroke:none;stroke-width:0.35277775"
       id="path269"
       inkscape:connector-curvature="0" />
    <path
       d="m 69.846106,56.134572 h 0.41522 v 21.028025 h -0.41522 z"
       style="fill:#3c4ca8;fill-opacity:1;fill-rule:nonzero;stroke:none;stroke-width:0.35277775"
       id="path271"
       inkscape:connector-curvature="0" />
    <path
       d="m 70.883273,62.084522 h 0.414514 v 15.078075 h -0.414514 z"
       style="fill:#3c4ca8;fill-opacity:1;fill-rule:nonzero;stroke:none;stroke-width:0.35277775"
       id="path273"
       inkscape:connector-curvature="0" />
    <path
       d="m 71.920087,64.568431 h 0.414514 v 12.593812 h -0.414514 z"
       style="fill:#3c4ca8;fill-opacity:1;fill-rule:nonzero;stroke:none;stroke-width:0.35277775"
       id="path275"
       inkscape:connector-curvature="0" />
    <path
       d="m 72.956548,69.305176 h 0.414514 v 7.857067 h -0.414514 z"
       style="fill:#3c4ca8;fill-opacity:1;fill-rule:nonzero;stroke:none;stroke-width:0.35277775"
       id="path277"
       inkscape:connector-curvature="0" />
    <path
       d="m 73.993362,70.345166 h 0.414867 v 6.817077 h -0.414867 z"
       style="fill:#3c4ca8;fill-opacity:1;fill-rule:nonzero;stroke:none;stroke-width:0.35277775"
       id="path279"
       inkscape:connector-curvature="0" />
    <path
       d="m 75.029823,73.638347 h 0.414866 v 3.523896 h -0.414866 z"
       style="fill:#3c4ca8;fill-opacity:1;fill-rule:nonzero;stroke:none;stroke-width:0.35277775"
       id="path281"
       inkscape:connector-curvature="0" />
    <path
       d="m 76.066637,74.793693 h 0.414512 v 2.36855 h -0.414512 z"
       style="fill:#3c4ca8;fill-opacity:1;fill-rule:nonzero;stroke:none;stroke-width:0.35277775"
       id="path283"
       inkscape:connector-curvature="0" />
    <path
       d="m 77.103449,75.717972 h 0.414867 v 1.444271 h -0.414867 z"
       style="fill:#3c4ca8;fill-opacity:1;fill-rule:nonzero;stroke:none;stroke-width:0.35277775"
       id="path285"
       inkscape:connector-curvature="0" />
    <path
       d="m 78.139912,75.891185 h 0.414867 v 1.271058 h -0.414867 z"
       style="fill:#3c4ca8;fill-opacity:1;fill-rule:nonzero;stroke:none;stroke-width:0.35277775"
       id="path287"
       inkscape:connector-curvature="0" />
    <path
       d="m 79.176724,76.295116 h 0.414515 v 0.867127 h -0.414515 z"
       style="fill:#3c4ca8;fill-opacity:1;fill-rule:nonzero;stroke:none;stroke-width:0.35277775"
       id="path289"
       inkscape:connector-curvature="0" />
    <path
       d="m 80.213539,76.526539 h 0.414515 v 0.635704 h -0.414515 z"
       style="fill:#3c4ca8;fill-opacity:1;fill-rule:nonzero;stroke:none;stroke-width:0.35277775"
       id="path291"
       inkscape:connector-curvature="0" />
    <path
       d="m 81.249999,76.815816 h 0.414515 v 0.346427 h -0.414515 z"
       style="fill:#3c4ca8;fill-opacity:1;fill-rule:nonzero;stroke:none;stroke-width:0.35277775"
       id="path293"
       inkscape:connector-curvature="0" />
    <path
       d="m 82.286462,76.931174 h 0.414512 v 0.231069 h -0.414512 z"
       style="fill:#3c4ca8;fill-opacity:1;fill-rule:nonzero;stroke:none;stroke-width:0.35277775"
       id="path295"
       inkscape:connector-curvature="0" />
    <path
       d="m 83.323274,77.046181 h 0.414867 v 0.116062 h -0.414867 z"
       style="fill:#3c4ca8;fill-opacity:1;fill-rule:nonzero;stroke:none;stroke-width:0.35277775"
       id="path297"
       inkscape:connector-curvature="0" />
    <path
       d="m 84.359737,77.046181 h 0.414512 v 0.116062 h -0.414512 z"
       style="fill:#3c4ca8;fill-opacity:1;fill-rule:nonzero;stroke:none;stroke-width:0.35277775"
       id="path299"
       inkscape:connector-curvature="0" />
    <path
       d="m 88.506639,77.046181 h 0.414515 v 0.116062 h -0.414515 z"
       style="fill:#3c4ca8;fill-opacity:1;fill-rule:nonzero;stroke:none;stroke-width:0.35277775"
       id="path301"
       inkscape:connector-curvature="0" />
    <g
       id="g303"
       transform="matrix(0.35277777,0,0,-0.35277777,54.751451,77.281118)">
      <path
         d="M 0,0 H 99.291 V 0.675 H 0"
         style="fill:#231f20;fill-opacity:1;fill-rule:nonzero;stroke:none"
         id="path305"
         inkscape:connector-curvature="0" />
    </g>
    <g
       id="g307"
       transform="matrix(0.35277777,0,0,-0.35277777,67.253189,77.162232)">
      <path
         d="M 0,0 V 0 H 1.175 Z"
         style="fill:#bdbcbd;fill-opacity:1;fill-rule:nonzero;stroke:none"
         id="path309"
         inkscape:connector-curvature="0" />
    </g>
    <g
       id="g311"
       transform="matrix(0.35277777,0,0,-0.35277777,67.253189,77.162232)">
      <path
         d="M 0,0 V -0.337 H 1.175 V 0.338 H 0 V -0.337 0 -0.337 H 1.175 V 0.338 H 0 v -0.675 z"
         style="fill:#231f20;fill-opacity:1;fill-rule:nonzero;stroke:none"
         id="path313"
         inkscape:connector-curvature="0" />
    </g>
    <path
       d="m 82.804691,76.988676 h 0.414867 v 0.173567 h -0.414867 z"
       style="fill:#f68715;fill-opacity:1;fill-rule:nonzero;stroke:none;stroke-width:0.35277775"
       id="path315"
       inkscape:connector-curvature="0" />
    <path
       d="m 55.849648,76.815816 h 0.414867 v 0.346427 h -0.414867 z"
       style="fill:#f68715;fill-opacity:1;fill-rule:nonzero;stroke:none;stroke-width:0.35277775"
       id="path317"
       inkscape:connector-curvature="0" />
    <path
       d="m 56.886462,76.988676 h 0.414514 v 0.173567 h -0.414514 z"
       style="fill:#f68715;fill-opacity:1;fill-rule:nonzero;stroke:none;stroke-width:0.35277775"
       id="path319"
       inkscape:connector-curvature="0" />
    <path
       d="m 57.923276,76.873318 h 0.414514 v 0.288925 h -0.414514 z"
       style="fill:#f68715;fill-opacity:1;fill-rule:nonzero;stroke:none;stroke-width:0.35277775"
       id="path321"
       inkscape:connector-curvature="0" />
    <path
       d="m 58.959737,76.584393 h 0.414514 v 0.57785 h -0.414514 z"
       style="fill:#f68715;fill-opacity:1;fill-rule:nonzero;stroke:none;stroke-width:0.35277775"
       id="path323"
       inkscape:connector-curvature="0" />
    <path
       d="m 59.996551,75.660116 h 0.414514 v 1.502127 h -0.414514 z"
       style="fill:#f68715;fill-opacity:1;fill-rule:nonzero;stroke:none;stroke-width:0.35277775"
       id="path325"
       inkscape:connector-curvature="0" />
    <path
       d="m 61.033012,75.833331 h 0.414514 v 1.328912 h -0.414514 z"
       style="fill:#f68715;fill-opacity:1;fill-rule:nonzero;stroke:none;stroke-width:0.35277775"
       id="path327"
       inkscape:connector-curvature="0" />
    <path
       d="m 62.069826,74.619774 h 0.414514 v 2.542469 h -0.414514 z"
       style="fill:#f68715;fill-opacity:1;fill-rule:nonzero;stroke:none;stroke-width:0.35277775"
       id="path329"
       inkscape:connector-curvature="0" />
    <path
       d="m 63.10664,71.789085 h 0.414514 v 5.373158 H 63.10664 Z"
       style="fill:#f68715;fill-opacity:1;fill-rule:nonzero;stroke:none;stroke-width:0.35277775"
       id="path331"
       inkscape:connector-curvature="0" />
    <path
       d="m 64.143101,69.305176 h 0.414514 v 7.857067 h -0.414514 z"
       style="fill:#f68715;fill-opacity:1;fill-rule:nonzero;stroke:none;stroke-width:0.35277775"
       id="path333"
       inkscape:connector-curvature="0" />
    <path
       d="m 65.179915,71.442658 h 0.414514 v 5.719585 h -0.414514 z"
       style="fill:#f68715;fill-opacity:1;fill-rule:nonzero;stroke:none;stroke-width:0.35277775"
       id="path335"
       inkscape:connector-curvature="0" />
    <path
       d="m 66.216376,76.295116 h 0.414514 v 0.867127 h -0.414514 z"
       style="fill:#f68715;fill-opacity:1;fill-rule:nonzero;stroke:none;stroke-width:0.35277775"
       id="path337"
       inkscape:connector-curvature="0" />
    <path
       d="m 68.289651,75.891185 h 0.414514 v 1.271058 h -0.414514 z"
       style="fill:#f68715;fill-opacity:1;fill-rule:nonzero;stroke:none;stroke-width:0.35277775"
       id="path339"
       inkscape:connector-curvature="0" />
    <path
       d="m 69.326818,62.951297 h 0.415572 v 14.2113 h -0.415572 z"
       style="fill:#f68715;fill-opacity:1;fill-rule:nonzero;stroke:none;stroke-width:0.35277775"
       id="path341"
       inkscape:connector-curvature="0" />
    <path
       d="m 70.365042,53.5346 h 0.414514 v 23.627643 h -0.414514 z"
       style="fill:#f68715;fill-opacity:1;fill-rule:nonzero;stroke:none;stroke-width:0.35277775"
       id="path343"
       inkscape:connector-curvature="0" />
    <path
       d="M 71.401856,56.018861 H 71.81637 V 77.162597 H 71.401856 Z"
       style="fill:#f68715;fill-opacity:1;fill-rule:nonzero;stroke:none;stroke-width:0.35277775"
       id="path345"
       inkscape:connector-curvature="0" />
    <path
       d="m 72.43867,61.910955 h 0.414514 V 77.162243 H 72.43867 Z"
       style="fill:#f68715;fill-opacity:1;fill-rule:nonzero;stroke:none;stroke-width:0.35277775"
       id="path347"
       inkscape:connector-curvature="0" />
    <path
       d="m 73.475131,65.435206 h 0.414515 v 11.727037 h -0.414515 z"
       style="fill:#f68715;fill-opacity:1;fill-rule:nonzero;stroke:none;stroke-width:0.35277775"
       id="path349"
       inkscape:connector-curvature="0" />
    <path
       d="m 74.511946,68.265541 h 0.414514 v 8.896702 h -0.414514 z"
       style="fill:#f68715;fill-opacity:1;fill-rule:nonzero;stroke:none;stroke-width:0.35277775"
       id="path351"
       inkscape:connector-curvature="0" />
    <path
       d="m 75.548406,72.020508 h 0.414515 v 5.141735 h -0.414515 z"
       style="fill:#f68715;fill-opacity:1;fill-rule:nonzero;stroke:none;stroke-width:0.35277775"
       id="path353"
       inkscape:connector-curvature="0" />
    <path
       d="m 76.585221,73.811208 h 0.414512 v 3.351035 h -0.414512 z"
       style="fill:#f68715;fill-opacity:1;fill-rule:nonzero;stroke:none;stroke-width:0.35277775"
       id="path355"
       inkscape:connector-curvature="0" />
    <path
       d="m 77.621681,75.313335 h 0.414867 v 1.848908 h -0.414867 z"
       style="fill:#f68715;fill-opacity:1;fill-rule:nonzero;stroke:none;stroke-width:0.35277775"
       id="path357"
       inkscape:connector-curvature="0" />
    <path
       d="m 78.658496,75.371191 h 0.414866 v 1.791052 h -0.414866 z"
       style="fill:#f68715;fill-opacity:1;fill-rule:nonzero;stroke:none;stroke-width:0.35277775"
       id="path359"
       inkscape:connector-curvature="0" />
    <path
       d="m 79.695308,76.237614 h 0.414515 v 0.924629 h -0.414515 z"
       style="fill:#f68715;fill-opacity:1;fill-rule:nonzero;stroke:none;stroke-width:0.35277775"
       id="path361"
       inkscape:connector-curvature="0" />
    <path
       d="m 80.731771,76.353324 h 0.414512 v 0.808919 h -0.414512 z"
       style="fill:#f68715;fill-opacity:1;fill-rule:nonzero;stroke:none;stroke-width:0.35277775"
       id="path363"
       inkscape:connector-curvature="0" />
    <path
       d="m 81.768231,76.410826 h 0.414515 v 0.751417 h -0.414515 z"
       style="fill:#f68715;fill-opacity:1;fill-rule:nonzero;stroke:none;stroke-width:0.35277775"
       id="path365"
       inkscape:connector-curvature="0" />
    <path
       d="m 83.841506,76.931174 h 0.414867 v 0.231069 h -0.414867 z"
       style="fill:#f68715;fill-opacity:1;fill-rule:nonzero;stroke:none;stroke-width:0.35277775"
       id="path367"
       inkscape:connector-curvature="0" />
    <g
       id="g369"
       transform="matrix(0.35277777,0,0,-0.35277777,84.877969,77.162232)">
      <path
         d="M 0,0 V 0 H 1.176 Z"
         style="fill:#bdbcbd;fill-opacity:1;fill-rule:nonzero;stroke:none"
         id="path371"
         inkscape:connector-curvature="0" />
    </g>
    <g
       id="g373"
       transform="matrix(0.35277777,0,0,-0.35277777,84.877969,77.162232)">
      <path
         d="M 0,0 V -0.337 H 1.176 V 0.338 H 0 V -0.337 0 -0.337 H 1.176 V 0.338 H 0 v -0.675 z"
         style="fill:#231f20;fill-opacity:1;fill-rule:nonzero;stroke:none"
         id="path375"
         inkscape:connector-curvature="0" />
    </g>
    <path
       d="m 85.914781,76.988676 h 0.414867 v 0.173567 h -0.414867 z"
       style="fill:#f68715;fill-opacity:1;fill-rule:nonzero;stroke:none;stroke-width:0.35277775"
       id="path377"
       inkscape:connector-curvature="0" />
    <g
       id="g379"
       transform="matrix(0.35277777,0,0,-0.35277777,86.951596,77.162232)">
      <path
         d="M 0,0 V 0 H 1.176 Z"
         style="fill:#bdbcbd;fill-opacity:1;fill-rule:nonzero;stroke:none"
         id="path381"
         inkscape:connector-curvature="0" />
    </g>
    <g
       id="g383"
       transform="matrix(0.35277777,0,0,-0.35277777,86.951596,77.162232)">
      <path
         d="M 0,0 V -0.337 H 1.176 V 0.338 H 0 V -0.337 0 -0.337 H 1.176 V 0.338 H 0 v -0.675 z"
         style="fill:#231f20;fill-opacity:1;fill-rule:nonzero;stroke:none"
         id="path385"
         inkscape:connector-curvature="0" />
    </g>
    <path
       d="m 87.988056,77.046181 h 0.414867 v 0.116062 h -0.414867 z"
       style="fill:#f68715;fill-opacity:1;fill-rule:nonzero;stroke:none;stroke-width:0.35277775"
       id="path387"
       inkscape:connector-curvature="0" />
    <path
       d="m 89.024871,77.046181 h 0.414866 v 0.116062 h -0.414866 z"
       style="fill:#f68715;fill-opacity:1;fill-rule:nonzero;stroke:none;stroke-width:0.35277775"
       id="path389"
       inkscape:connector-curvature="0" />
    <g
       id="g391"
       transform="matrix(0.35277777,0,0,-0.35277777,56.696316,77.162232)">
      <path
         d="M 0,0 V 0.994 H -0.675 V 0"
         style="fill:#231f20;fill-opacity:1;fill-rule:nonzero;stroke:none"
         id="path393"
         inkscape:connector-curvature="0" />
    </g>
    <g
       id="g395"
       transform="matrix(0.35277777,0,0,-0.35277777,62.008443,77.162232)">
      <path
         d="M 0,0 V 0.994 H -0.675 V 0"
         style="fill:#231f20;fill-opacity:1;fill-rule:nonzero;stroke:none"
         id="path397"
         inkscape:connector-curvature="0" />
    </g>
    <g
       id="g399"
       transform="matrix(0.35277777,0,0,-0.35277777,67.320218,77.162232)">
      <path
         d="M 0,0 V 0.994 H -0.675 V 0"
         style="fill:#231f20;fill-opacity:1;fill-rule:nonzero;stroke:none"
         id="path401"
         inkscape:connector-curvature="0" />
    </g>
    <g
       id="g403"
       transform="matrix(0.35277777,0,0,-0.35277777,72.634462,77.162232)">
      <path
         d="M 0,0 V 0.994 H -0.676 V 0"
         style="fill:#231f20;fill-opacity:1;fill-rule:nonzero;stroke:none"
         id="path405"
         inkscape:connector-curvature="0" />
    </g>
    <g
       id="g407"
       transform="matrix(0.35277777,0,0,-0.35277777,77.946237,77.162232)">
      <path
         d="M 0,0 V 0.994 H -0.675 V 0"
         style="fill:#231f20;fill-opacity:1;fill-rule:nonzero;stroke:none"
         id="path409"
         inkscape:connector-curvature="0" />
    </g>
    <g
       id="g411"
       transform="matrix(0.35277777,0,0,-0.35277777,83.258012,77.162232)">
      <path
         d="M 0,0 V 0.994 H -0.675 V 0"
         style="fill:#231f20;fill-opacity:1;fill-rule:nonzero;stroke:none"
         id="path413"
         inkscape:connector-curvature="0" />
    </g>
    <g
       id="g415"
       transform="matrix(0.35277777,0,0,-0.35277777,88.570139,77.162232)">
      <path
         d="M 0,0 V 0.994 H -0.676 V 0"
         style="fill:#231f20;fill-opacity:1;fill-rule:nonzero;stroke:none"
         id="path417"
         inkscape:connector-curvature="0" />
    </g>
    <g
       id="g419"
       transform="matrix(0.35277777,0,0,-0.35277777,54.751451,77.281118)">
      <path
         d="M 0,0 H 99.291 V 0.675 H 0"
         style="fill:#231f20;fill-opacity:1;fill-rule:nonzero;stroke:none"
         id="path421"
         inkscape:connector-curvature="0" />
    </g>
    <g
       id="g423"
       transform="matrix(0.35277777,0,0,-0.35277777,54.751451,70.375141)">
      <path
         d="M 0,0 H 0.993 V 0.675 H 0"
         style="fill:#231f20;fill-opacity:1;fill-rule:nonzero;stroke:none"
         id="path425"
         inkscape:connector-curvature="0" />
    </g>
    <g
       id="g427"
       transform="matrix(0.35277777,0,0,-0.35277777,54.751451,63.468809)">
      <path
         d="M 0,0 H 0.993 V 0.675 H 0"
         style="fill:#231f20;fill-opacity:1;fill-rule:nonzero;stroke:none"
         id="path429"
         inkscape:connector-curvature="0" />
    </g>
    <g
       id="g431"
       transform="matrix(0.35277777,0,0,-0.35277777,54.751451,56.56248)">
      <path
         d="M 0,0 H 0.993 V 0.675 H 0"
         style="fill:#231f20;fill-opacity:1;fill-rule:nonzero;stroke:none"
         id="path433"
         inkscape:connector-curvature="0" />
    </g>
    <g
       id="g435"
       transform="matrix(0.35277777,0,0,-0.35277777,54.87069,77.265243)">
      <path
         d="M 0,0 V 78.92 H -0.676 V 0"
         style="fill:#231f20;fill-opacity:1;fill-rule:nonzero;stroke:none"
         id="path437"
         inkscape:connector-curvature="0" />
    </g>
    <g
       id="g439"
       transform="matrix(0.35277777,0,0,-0.35277777,54.87069,77.162232)">
      <path
         d="M 0,0 V 0.784 H -0.676 V 0"
         style="fill:#231f20;fill-opacity:1;fill-rule:nonzero;stroke:none"
         id="path441"
         inkscape:connector-curvature="0" />
    </g>
    <text
       y="82.031097"
       x="65.383888"
       style="font-variant:normal;font-weight:normal;font-stretch:normal;font-size:2.11666656px;font-family:'ANKEF A +Helvetica LT Std';-inkscape-font-specification:HelveticaLTStd-Roman;writing-mode:lr-tb;fill:#231f20;fill-opacity:1;fill-rule:nonzero;stroke:none;stroke-width:0.35277775"
       id="text451">
      <tspan
         style="stroke-width:0.35277775"
         x="65.383888 66.795708 67.38414 68.561012 69.737877 70.326309 71.384644 71.854538 72.912872 74.089745 74.678169 75.383026 76.559891 78.323074"
         y="82.031097"
         sodipodi:role="line"
         id="tspan449">Step size (nm)</tspan>
    </text>
    <text
       y="48.659119"
       x="-73.64521"
       transform="rotate(-90)"
       style="font-variant:normal;font-weight:normal;font-stretch:normal;font-size:2.11666656px;font-family:'ANKEF A +Helvetica LT Std';-inkscape-font-specification:HelveticaLTStd-Roman;writing-mode:lr-tb;fill:#231f20;fill-opacity:1;fill-rule:nonzero;stroke:none;stroke-width:0.35277775"
       id="text455">
      <tspan
         style="stroke-width:0.35277775"
         x="-73.64521 -72.116982 -70.940117 -70.235268 -68.472076 -67.295212 -66.82531 -66.355415 -65.297081 -64.120216 -62.943348 -62.354912 -61.766479 -61.06163 -59.884762 -58.707897 -57.531029 -56.354164 -55.177296 -54.118965"
         y="48.659119"
         sodipodi:role="line"
         id="tspan453">Normalized frequency</tspan>
    </text>
    <path
       d="m 74.984314,52.862206 h -1.34902 v -1.344084 h 1.34902 z"
       style="fill:#f68715;fill-opacity:1;fill-rule:nonzero;stroke:none;stroke-width:0.35277775"
       id="path457"
       inkscape:connector-curvature="0" />
    <path
       d="m 74.984314,55.401853 h -1.34902 v -1.344084 h 1.34902 z"
       style="fill:#4453ad;fill-opacity:1;fill-rule:nonzero;stroke:none;stroke-width:0.35277775"
       id="path459"
       inkscape:connector-curvature="0" />
    <text
       y="55.440716"
       x="75.779968"
       style="font-variant:normal;font-weight:normal;font-stretch:normal;font-size:2.11666656px;font-family:'ANKEF A +Helvetica LT Std';-inkscape-font-specification:HelveticaLTStd-Roman;writing-mode:lr-tb;fill:#231f20;fill-opacity:1;fill-rule:nonzero;stroke:none;stroke-width:0.35277775"
       id="text489">
      <tspan
         style="stroke-width:0.35277775"
         x="75.779968 76.956833 78.485069 79.073502 80.131836 80.720268 81.897133 83.074005 83.662437 84.720772 85.190666 86.249001"
         y="55.440716"
         sodipodi:role="line"
         id="tspan461">1D step size0</tspan>
      <tspan
         style="stroke-width:0.35277775"
         x="49.761902 50.93877 51.527203 52.704067"
         y="70.966469"
         sodipodi:role="line"
         id="tspan465">0.05</tspan>
      <tspan
         style="stroke-width:0.35277775"
         x="49.761902 50.93877 51.527203 52.704067"
         y="64.023796"
         sodipodi:role="line"
         id="tspan467">0.10</tspan>
      <tspan
         style="stroke-width:0.35277775"
         x="49.761902 50.93877 51.527203 52.704067"
         y="57.129814"
         sodipodi:role="line"
         id="tspan469">0.15</tspan>
      <tspan
         style="stroke-width:0.35277775"
         x="49.761902 50.93877 51.527203 52.704067"
         y="50.322617"
         sodipodi:role="line"
         id="tspan471">0.20</tspan>
      <tspan
         style="stroke-width:0.35277775"
         sodipodi:role="line"
         id="tspan481"
         x="75.779968"
         y="0" />
      <tspan
         style="stroke-width:0.35277775"
         sodipodi:role="line"
         id="tspan487"
         x="75.779968"
         y="0" />
    </text>
    <text
       y="45.14024"
       x="80.003143"
       style="font-variant:normal;font-weight:normal;font-stretch:normal;font-size:2.11666656px;font-family:'ANKEF A +Helvetica LT Std';-inkscape-font-specification:HelveticaLTStd-Roman;writing-mode:lr-tb;fill:#231f20;fill-opacity:1;fill-rule:nonzero;stroke:none;stroke-width:0.35277775"
       id="text1047">
      <tspan
         style="stroke-width:0.35277775"
         x="80.003143"
         y="45.14024"
         id="tspan1043" />
      <tspan
         style="stroke-width:0.35277775"
         x="75.780396 76.95726 78.485489 79.073929 80.132263 80.720688 81.89756 83.074425 83.662857 84.721191 85.191093 86.249428"
         y="52.910522"
         sodipodi:role="line"
         id="tspan1045">2D step size</tspan>
    </text>
    <g
       id="g1049"
       transform="matrix(0.35277777,0,0,-0.35277777,54.744043,49.656149)">
      <path
         d="M 0,0 H 0.993 V 0.675 H 0"
         style="fill:#231f20;fill-opacity:1;fill-rule:nonzero;stroke:none"
         id="path1051"
         inkscape:connector-curvature="0" />
    </g>
  </g>
</svg>
