<?xml version="1.0" encoding="UTF-8" standalone="no"?>
<!-- Created with Inkscape (http://www.inkscape.org/) -->

<svg
   xmlns:dc="http://purl.org/dc/elements/1.1/"
   xmlns:cc="http://creativecommons.org/ns#"
   xmlns:rdf="http://www.w3.org/1999/02/22-rdf-syntax-ns#"
   xmlns:svg="http://www.w3.org/2000/svg"
   xmlns="http://www.w3.org/2000/svg"
   xmlns:sodipodi="http://sodipodi.sourceforge.net/DTD/sodipodi-0.dtd"
   xmlns:inkscape="http://www.inkscape.org/namespaces/inkscape"
   width="744.09448819"
   height="1052.3622047"
   id="svg2"
   version="1.1"
   inkscape:version="0.48.5 r10040"
   sodipodi:docname="New document 1">
  <sodipodi:namedview
     id="base"
     pagecolor="#ffffff"
     bordercolor="#666666"
     borderopacity="1.0"
     inkscape:pageopacity="0.0"
     inkscape:pageshadow="2"
     inkscape:zoom="0.89852406"
     inkscape:cx="576.25793"
     inkscape:cy="508.09951"
     inkscape:document-units="px"
     inkscape:current-layer="layer1"
     showgrid="false"
     inkscape:window-width="1366"
     inkscape:window-height="702"
     inkscape:window-x="0"
     inkscape:window-y="27"
     inkscape:window-maximized="1" />
  <defs
     id="defs4" />
  <metadata
     id="metadata7">
    <rdf:RDF>
      <cc:Work
         rdf:about="">
        <dc:format>image/svg+xml</dc:format>
        <dc:type
           rdf:resource="http://purl.org/dc/dcmitype/StillImage" />
        <dc:title></dc:title>
      </cc:Work>
    </rdf:RDF>
  </metadata>
  <g
     id="layer1"
     inkscape:groupmode="layer"
     inkscape:label="Layer 1">
    <path
       inkscape:connector-curvature="0"
       id="path3918"
       d="m 295.56107,533.72096 -1.61069,84.56107 54.76336,59.59542 z"
       style="fill:#00ff00;stroke:#000000;stroke-width:1px;stroke-linecap:butt;stroke-linejoin:miter;stroke-opacity:1" />
    <path
       inkscape:connector-curvature="0"
       id="path3916"
       d="m 261.73664,677.87745 c -0.80534,-3.22137 -26.57633,-78.11832 -26.57633,-78.11832 l 60.40076,-67.64886 z"
       style="fill:#00ffff;stroke:#000000;stroke-width:1px;stroke-linecap:butt;stroke-linejoin:miter;stroke-opacity:1" />
    <path
       inkscape:connector-curvature="0"
       id="path3853"
       d="m 13.69084,594.92707 60.400763,18.5229 -34.629771,60.40076 z"
       style="fill:#ff00ff;stroke:#000000;stroke-width:1px;stroke-linecap:butt;stroke-linejoin:miter;stroke-opacity:1" />
    <path
       inkscape:connector-curvature="0"
       id="path3851"
       d="m 41.072519,672.24005 31.408397,-57.17939 57.984734,59.59542 z"
       style="fill:#00ff00;stroke:#000000;stroke-width:1px;stroke-linecap:butt;stroke-linejoin:miter;stroke-opacity:1" />
    <path
       inkscape:connector-curvature="0"
       id="path3835"
       d="m 13.69084,595.73241 61.206107,17.71756 1.610687,-83.75573 z"
       style="fill:#ffff00;stroke:#000000;stroke-width:1px;stroke-linecap:butt;stroke-linejoin:miter;stroke-opacity:1" />
    <rect
       y="266.64789"
       x="8.5714283"
       height="420"
       width="725.71429"
       id="rect2985"
       style="fill:none;stroke:#ffd740;stroke-width:2;stroke-linecap:butt;stroke-linejoin:round;stroke-miterlimit:4;stroke-opacity:1;stroke-dasharray:none;stroke-dashoffset:0" />
    <path
       inkscape:connector-curvature="0"
       id="path2987"
       d="m 33.824427,674.65608 c 2.585319,-0.83127 4.034484,-0.80534 6.442748,-0.80534 0.536896,0 1.084218,0.10529 1.610687,0 0.832422,-0.16649 1.583609,-0.63886 2.416031,-0.80535 0.872131,-0.17442 4.776513,0 5.637404,0 2.684479,0 5.368957,0 8.053435,0 10.737914,0 21.475827,0 32.213741,0 4.832061,0 9.664119,0 14.496177,0 2.41603,0 4.84406,-0.2404 7.2481,0 2.98644,0.29865 5.85744,1.61069 8.85877,1.61069 2.73765,0 5.32525,-1.38334 8.05344,-1.61069 3.74529,-0.3121 7.51654,0 11.27481,0 3.75827,0 7.51654,0 11.27481,0 10.46946,0 20.93893,0 31.40839,0 3.48983,0 6.98993,-0.26765 10.46947,0 3.52048,0.27081 6.94899,1.33988 10.46947,1.61069 3.47954,0.26766 6.97964,0 10.46946,0 6.44275,0 12.8855,0 19.32825,0 2.95292,0 5.91798,-0.26735 8.85877,0 2.98902,0.27173 5.86977,1.33896 8.85878,1.61069 2.9408,0.26734 5.90586,0 8.85878,0 2.95293,0 5.90585,0 8.85878,0 13.95929,0 27.91858,0 41.87786,0 8.85878,0 17.71756,0 26.57634,0 3.22137,0 6.44275,0 9.66412,0 1.61069,0 3.23756,0.22778 4.83206,0 2.19143,-0.31306 4.24617,-1.33612 6.44275,-1.61069 2.131,-0.26637 4.29517,0 6.44275,0 2.41603,0 4.83206,0 7.24809,0 2.68448,0 5.38371,0.28102 8.05343,0 2.46137,-0.25909 4.80342,-1.22468 7.2481,-1.61069 2.66485,-0.42076 5.38541,-0.40514 8.05343,-0.80534 0.0789,-0.0118 16.06512,-3.21698 16.10687,-3.22137 2.40276,-0.25293 4.83206,0 7.24809,0 7.2481,0 14.49619,0 21.74428,0 6.44275,0 12.88549,0 19.32824,0 2.41603,0 4.83206,0 7.24809,0 0.80535,0 1.61879,-0.1139 2.41603,0 1.09572,0.15653 2.12566,0.64881 3.22138,0.80534 0.79725,0.11389 1.61069,0 2.41603,0 1.87913,0 3.75827,0 5.6374,0 1.0738,0 2.14759,0 3.22138,0 1.07379,0 2.15587,0.13319 3.22137,0 1.09829,-0.13729 2.12003,-0.69521 3.22138,-0.80534 8.76639,-0.87664 0.83797,0.80534 10.46946,0.80534 1.63291,0 3.20586,-0.65751 4.83206,-0.80534 2.40611,-0.21874 4.83206,0 7.24809,0 4.29517,0 8.59034,0 12.8855,0 11.54326,0 23.08651,0 34.62977,0 4.02672,0 8.05344,0 12.08015,0 1.0738,0 2.14759,0 3.22138,0 0.53689,0 1.08422,-0.1053 1.61069,0 0.83242,0.16648 1.56712,0.80534 2.41603,0.80534 0.8489,0 1.57867,-0.66578 2.41603,-0.80534 0.79438,-0.1324 1.61068,0 2.41603,0 1.87913,0 3.75827,0 5.6374,0 0.5369,0 1.08982,0.13021 1.61069,0 0.58234,-0.14559 1.04122,-0.61553 1.61069,-0.80535 0.76401,-0.25467 1.63473,0.19533 2.41603,0 0.58234,-0.14558 1.02834,-0.65975 1.61068,-0.80534 1.04173,-0.26043 2.17965,0.26043 3.22138,0 0.58234,-0.14559 1.04122,-0.61552 1.61068,-0.80534 0.76402,-0.25468 1.65202,0.25467 2.41603,0 0.36017,-0.12006 0.44519,-0.68529 0.80535,-0.80535 0.72481,-0.2416 1.69122,0.2416 2.41603,0 0.56946,-0.18982 1.04122,-0.61552 1.61069,-0.80534 0.444,-0.148 3.04919,0.17218 3.22137,0 0.18982,-0.18982 -0.18982,-0.61552 0,-0.80535 0.0365,-0.0365 3.647,0 4.02672,0"
       style="fill:none;stroke:#000000;stroke-width:1px;stroke-linecap:butt;stroke-linejoin:miter;stroke-opacity:1" />
    <path
       inkscape:connector-curvature="0"
       id="path3787"
       d="m 517.83588,666.60265 -43.48855,-65.23283 53.95801,-64.42748 64.42748,45.90458 -17.71756,85.36641 65.23283,-71.67557 -89.39313,-9.66412 -78.11832,16.10687 c 0,0 75.70229,4.02672 78.92366,4.02672 3.22138,0 84.56107,-10.46947 84.56107,-10.46947"
       style="fill:none;stroke:#000000;stroke-width:1px;stroke-linecap:butt;stroke-linejoin:miter;stroke-opacity:1" />
    <path
       inkscape:connector-curvature="0"
       id="path3795"
       d="m 506.56107,648.88509 c -12.08016,5.6374 -12.8855,12.08015 -11.27481,18.5229"
       style="fill:none;stroke:#000000;stroke-width:1px;stroke-linecap:butt;stroke-linejoin:miter;stroke-opacity:1" />
    <path
       inkscape:connector-curvature="0"
       id="path3809"
       d="m 529.91603,606.20188 c 0.80534,15.30152 29.79771,19.32824 34.62977,-0.80535"
       style="fill:none;stroke:#000000;stroke-width:1px;stroke-linecap:butt;stroke-linejoin:miter;stroke-opacity:1" />
    <path
       sodipodi:nodetypes="ccc"
       inkscape:connector-curvature="0"
       id="path3813"
       d="m 573.40458,668.21333 -62.8168,81.33969 -37.0458,-148.1832"
       style="fill:none;stroke:#00ff00;stroke-width:1px;stroke-linecap:butt;stroke-linejoin:miter;stroke-opacity:1" />
    <path
       inkscape:connector-curvature="0"
       id="path3815"
       d="m 474.34733,602.9805 164.29007,-6.44274 -62.81679,71.67557"
       style="fill:none;stroke:#00ff00;stroke-width:1;stroke-linecap:butt;stroke-linejoin:miter;stroke-opacity:1;stroke-miterlimit:4;stroke-dasharray:2,1;stroke-dashoffset:0" />
    <path
       inkscape:connector-curvature="0"
       id="path3817"
       d="m 475.15267,602.9805 99.8626,62.8168"
       style="fill:none;stroke:#00dfe5;stroke-width:1px;stroke-linecap:butt;stroke-linejoin:miter;stroke-opacity:1" />
    <path
       inkscape:connector-curvature="0"
       id="path3825"
       d="M 40.267176,672.24005 14.496183,594.92707 75.70229,529.69424 74.091603,614.25531 128.85496,674.65608"
       style="fill:none;stroke:#000000;stroke-width:1px;stroke-linecap:butt;stroke-linejoin:miter;stroke-opacity:1" />
    <path
       inkscape:connector-curvature="0"
       id="path3827"
       d="m 58.790076,614.25531 100.667944,0"
       style="fill:none;stroke:#000000;stroke-width:1px;stroke-linecap:butt;stroke-linejoin:miter;stroke-opacity:1" />
    <path
       inkscape:connector-curvature="0"
       id="path3829"
       d="m -28.992366,596.53776 98.251908,0"
       style="fill:none;stroke:#000000;stroke-width:1px;stroke-linecap:butt;stroke-linejoin:miter;stroke-opacity:1" />
    <path
       inkscape:connector-curvature="0"
       id="path3831"
       d="m 74.091603,584.4576 c 26.576337,4.83206 28.187027,13.69084 26.576337,28.99237"
       style="fill:none;stroke:#0000ff;stroke-width:7.50000000000000000;stroke-linecap:round;stroke-linejoin:miter;stroke-opacity:1;stroke-miterlimit:4;stroke-dasharray:none" />
    <path
       inkscape:connector-curvature="0"
       id="path3833"
       d="m 29.79771,578.01485 c -16.10687,-8.85877 -43.48855,4.83207 -41.072519,18.52291"
       style="fill:none;stroke:#0000ff;stroke-width:7.50000000000000000;stroke-linecap:round;stroke-linejoin:miter;stroke-opacity:1;stroke-miterlimit:4;stroke-dasharray:none" />
    <path
       sodipodi:nodetypes="ccccc"
       inkscape:connector-curvature="0"
       id="path3837"
       d="m -91.003817,516.0034 49.125954,0.80535 32.2137409,59.59542 -49.1259539,0 z"
       style="fill:none;stroke:#000000;stroke-width:1px;stroke-linecap:butt;stroke-linejoin:miter;stroke-opacity:1" />
    <path
       inkscape:connector-curvature="0"
       id="path3839"
       d="m 35.435115,656.93852 c -15.301527,7.24809 -16.912214,8.05343 -16.912214,16.10687"
       style="fill:none;stroke:#000000;stroke-width:1px;stroke-linecap:butt;stroke-linejoin:miter;stroke-opacity:1" />
    <path
       style="fill:none;stroke:#000000;stroke-width:1px;stroke-linecap:butt;stroke-linejoin:miter;stroke-opacity:1"
       d="m 113.55344,656.13318 c -15.301531,7.24809 -16.912218,8.05343 -16.912218,16.10687"
       id="path3841"
       inkscape:connector-curvature="0" />
    <path
       inkscape:connector-curvature="0"
       id="path3843"
       d="m 73.28626,601.36982 c -16.106871,2.41603 -26.576336,6.44274 -26.576336,15.30152"
       style="fill:none;stroke:#000000;stroke-width:1px;stroke-linecap:butt;stroke-linejoin:miter;stroke-opacity:1" />
    <path
       inkscape:connector-curvature="0"
       id="path3845"
       d="m 31.408397,579.62554 c 11.274809,14.49618 7.248092,15.30153 7.248092,15.30153"
       style="fill:none;stroke:#000000;stroke-width:1px;stroke-linecap:butt;stroke-linejoin:miter;stroke-opacity:1" />
    <path
       inkscape:connector-curvature="0"
       id="path3847"
       d="m 42.683206,604.59119 c -6.442748,14.49618 -3.221374,12.08015 -3.221374,12.08015"
       style="fill:none;stroke:#000000;stroke-width:1px;stroke-linecap:butt;stroke-linejoin:miter;stroke-opacity:1" />
    <path
       inkscape:connector-curvature="0"
       id="path3849"
       d="m 53.152672,596.53776 -4.026718,10.46946"
       style="fill:none;stroke:#000000;stroke-width:1px;stroke-linecap:butt;stroke-linejoin:miter;stroke-opacity:1" />
    <path
       inkscape:connector-curvature="0"
       id="path3825-3"
       d="m 260.12595,676.26676 -25.771,-77.31298 61.20611,-65.23283 -1.61069,84.56107 54.76336,60.40077"
       style="fill:none;stroke:#000000;stroke-width:1px;stroke-linecap:butt;stroke-linejoin:miter;stroke-opacity:1" />
    <path
       inkscape:connector-curvature="0"
       id="path3839-5"
       d="m 255.29388,660.96523 c -15.30152,7.24809 -16.91221,8.05343 -16.91221,16.10687"
       style="fill:none;stroke:#000000;stroke-width:1px;stroke-linecap:butt;stroke-linejoin:miter;stroke-opacity:1" />
    <path
       style="fill:none;stroke:#000000;stroke-width:1px;stroke-linecap:butt;stroke-linejoin:miter;stroke-opacity:1"
       d="m 333.41221,660.15989 c -15.30153,7.24809 -16.91222,8.05343 -16.91222,16.10687"
       id="path3841-6"
       inkscape:connector-curvature="0" />
    <path
       inkscape:transform-center-y="-6.4427481"
       inkscape:transform-center-x="13.69084"
       style="fill:none;stroke:#0000ff;stroke-width:7.5;stroke-linecap:round;stroke-linejoin:miter;stroke-miterlimit:4;stroke-opacity:1;stroke-dasharray:none"
       d="m 247.25061,632.05889 c 14.60149,-11.16717 13.11431,-41.74467 -0.38835,-45.0544"
       id="path3912"
       inkscape:connector-curvature="0" />
    <path
       inkscape:connector-curvature="0"
       id="path3914"
       d="m 313.49711,637.70231 c 9.60385,-15.67403 -2.78879,-43.66721 -16.5778,-41.89541"
       style="fill:none;stroke:#0000ff;stroke-width:7.5;stroke-linecap:round;stroke-linejoin:miter;stroke-miterlimit:4;stroke-opacity:1;stroke-dasharray:none"
       inkscape:transform-center-x="18.223008"
       inkscape:transform-center-y="0.74004305" />
    <path
       inkscape:connector-curvature="0"
       id="path3920"
       d="m 262.54198,677.87745 33.01909,-144.96183 53.95801,144.96183 z"
       style="fill:none;stroke:#ff0000;stroke-width:2;stroke-linecap:butt;stroke-linejoin:miter;stroke-opacity:1;stroke-miterlimit:4;stroke-dasharray:8,2;stroke-dashoffset:0" />
    <path
       style="fill:none;stroke:#ff0000;stroke-width:2;stroke-linecap:butt;stroke-linejoin:miter;stroke-miterlimit:4;stroke-opacity:1;stroke-dasharray:8, 2;stroke-dashoffset:0"
       d="m 262.54198,676.91562 33.01909,144.96183 53.95801,-144.96183 z"
       id="path3924"
       inkscape:connector-curvature="0" />
    <path
       style="fill:none;stroke:#000000;stroke-width:1px;stroke-linecap:butt;stroke-linejoin:miter;stroke-opacity:1"
       d="m 349.23801,677.07214 1.61069,-84.56107 -54.76336,-59.59542 z"
       id="path3926"
       inkscape:connector-curvature="0" />
    <path
       inkscape:connector-curvature="0"
       id="path3937"
       d="m 331.80153,572.37745 c 27.38168,-18.5229 57.17939,32.21374 20.13358,41.87786"
       style="fill:none;stroke:#000000;stroke-width:1px;stroke-linecap:butt;stroke-linejoin:miter;stroke-opacity:1" />
    <g
       id="g4006"
       transform="translate(-806.87878,-83.47022)">
      <g
         word-spacing="normal"
         letter-spacing="normal"
         font-size-adjust="none"
         font-stretch="normal"
         font-weight="normal"
         font-variant="normal"
         font-style="normal"
         stroke-miterlimit="10.433"
         xml:space="preserve"
         transform="matrix(1.0629921,0,0,-1.0629921,-186.02362,789.27165)"
         id="content"
         style="font-style:normal;font-variant:normal;font-weight:normal;font-stretch:normal;letter-spacing:normal;word-spacing:normal;text-anchor:start;fill:none;stroke:#000000;stroke-linecap:butt;stroke-linejoin:miter;stroke-miterlimit:10.43299961;stroke-opacity:1;stroke-dasharray:none;stroke-dashoffset:0"><path
           id="path4009"
           d="m 1165.4,376.08 0,-0.06 -0.1,-0.07 -0.1,-0.07 -0.1,-0.07 -0.1,-0.08 0,-0.08 -0.1,-0.09 -0.1,-0.08 -0.1,-0.09 -0.1,-0.09 -0.2,-0.19 -0.2,-0.2 -0.2,-0.2 -0.1,-0.11 -0.1,-0.1 -0.1,-0.1 -0.1,-0.1 0,-0.11 -0.1,-0.1 -0.1,-0.1 0,-0.1 -0.1,-0.1 -0.1,-0.1 0,-0.09 0,-0.1 -0.1,-0.09 0,-0.09 0,-0.09 0,-0.09 c 0,-0.5 0.5,-1 1,-1 0.4,0 0.7,0.36 0.9,0.66 0.6,0.75 1.8,2.14 4,3.24 0.3,0.2 0.8,0.45 0.8,1.04 0,0.5 -0.3,0.75 -0.7,1 -1.1,0.75 -1.6,1.64 -2,2.83 -0.1,0.45 -0.3,1.11 -1,1.11 -0.7,0 -1,-0.66 -1,-1.05 0,-0.25 0.4,-1.84 1.2,-2.89 h -16.8 c -0.8,0 -1.8,0 -1.8,-1 0,-1 1,-1 1.8,-1 z"
           inkscape:connector-curvature="0"
           style="fill:#000000;stroke-width:0" /><path
           id="path4011"
           d="m 1160.4,365.27 -0.1,0.17 -0.1,0.17 -0.1,0.16 -0.1,0.17 -0.1,0.15 -0.1,0.16 -0.1,0.15 -0.1,0.15 -0.1,0.14 -0.1,0.14 -0.2,0.13 -0.1,0.13 -0.1,0.12 -0.1,0.12 -0.2,0.12 -0.1,0.1 -0.2,0.11 -0.1,0.1 -0.2,0.09 -0.1,0.08 -0.2,0.08 -0.1,0.08 -0.2,0.07 -0.2,0.06 -0.1,0.05 -0.2,0.05 -0.2,0.04 -0.2,0.04 -0.2,0.02 -0.2,0.02 -0.2,0.01 -0.2,0.01 0,-1.1 c 3.3,0 4,-4.07 4,-4.37 0,-0.31 -0.1,-0.61 -0.2,-0.86 l -2.5,-9.77 c -0.2,-0.89 -0.2,-0.98 -1,-1.84 -2.2,-2.73 -4.2,-3.53 -5.6,-3.53 -2.5,0 -3.2,2.73 -3.2,4.69 0,2.48 1.6,8.61 2.8,10.9 1.5,2.94 3.8,4.78 5.7,4.78 l 0,1.1 c -5.8,0 -12,-7.32 -12,-14.6 0,-4.68 2.7,-7.97 6.6,-7.97 1,0 3.5,0.21 6.5,3.74 0.4,-2.09 2.1,-3.74 4.5,-3.74 1.8,0 2.9,1.15 3.7,2.74 0.8,1.8 1.5,4.84 1.5,4.94 0,0.5 -0.4,0.5 -0.6,0.5 -0.5,0 -0.5,-0.21 -0.7,-0.91 -0.8,-3.23 -1.7,-6.17 -3.8,-6.17 -1.3,0 -1.5,1.3 -1.5,2.3 0,1.09 0.1,1.48 0.7,3.68 0.5,2.1 0.6,2.6 1.1,4.49 l 1.8,6.97 c 0.3,1.39 0.3,1.5 0.3,1.68 0,0.86 -0.6,1.36 -1.4,1.36 -1.2,0 -2,-1.11 -2.1,-2.2 z"
           inkscape:connector-curvature="0"
           style="fill:#000000;stroke-width:0" /><path
           id="path4013"
           d="m 1199.6,357.89 h 13.9 c 0.7,0 1.7,0 1.7,1 0,1 -1,1 -1.7,1 h -13.9 v 13.96 c 0,0.69 0,1.64 -1,1.64 -1,0 -1,-0.95 -1,-1.64 v -13.96 h -13.9 c -0.7,0 -1.7,0 -1.7,-1 0,-1 1,-1 1.7,-1 h 13.9 v -13.93 c 0,-0.71 0,-1.66 1,-1.66 1,0 1,0.95 1,1.66 z"
           inkscape:connector-curvature="0"
           style="fill:#000000;stroke-width:0" /><path
           id="path4015"
           d="m 1250.3,389.16 -0.1,-0.06 -0.1,-0.07 0,-0.07 -0.1,-0.07 -0.1,-0.08 -0.1,-0.08 -0.1,-0.09 -0.1,-0.08 -0.1,-0.09 -0.1,-0.1 -0.2,-0.19 -0.2,-0.19 -0.2,-0.2 -0.1,-0.11 0,-0.1 -0.1,-0.1 -0.1,-0.11 -0.1,-0.1 -0.1,-0.1 0,-0.1 -0.1,-0.1 -0.1,-0.1 0,-0.1 -0.1,-0.1 0,-0.09 0,-0.09 -0.1,-0.09 0,-0.09 0,-0.09 c 0,-0.5 0.5,-1 1,-1 0.5,0 0.7,0.36 1,0.66 0.6,0.75 1.7,2.14 3.9,3.23 0.4,0.21 0.9,0.46 0.9,1.05 0,0.5 -0.4,0.75 -0.7,1 -1.1,0.75 -1.7,1.64 -2.1,2.83 -0.1,0.45 -0.3,1.11 -1,1.11 -0.7,0 -1,-0.66 -1,-1.05 0,-0.25 0.4,-1.84 1.2,-2.89 h -16.8 c -0.8,0 -1.7,0 -1.7,-1 0,-1 0.9,-1 1.7,-1 z"
           inkscape:connector-curvature="0"
           style="fill:#000000;stroke-width:0" /><path
           id="path4017"
           d="m 1240.9,380.47 0,0.01 0,0 0,0.01 0,0.01 0,0.01 0,0.01 0,0.02 0,0.02 0,0.02 0,0.02 0,0.02 0,0.02 0,0.03 0,0.02 0,0.02 0,0.03 0,0.02 0,0.03 -0.1,0.02 0,0.03 0,0.02 0,0.01 0,0.01 0,0.01 -0.1,0.01 0,0.01 0,0.01 0,0.01 0,0.01 0,0.01 -0.1,0.01 0,0.01 0,0 0,0.01 0,0.01 -0.1,0 0,0.01 0,0 0,0.01 -0.1,0 0,0 0,0.01 0,0 -0.1,0 0,0 c -1.1,0 -4.8,-0.41 -6.1,-0.5 -0.4,-0.05 -0.9,-0.09 -0.9,-1 0,-0.59 0.4,-0.59 1.2,-0.59 2.4,0 2.5,-0.35 2.5,-0.85 0,-0.36 -0.5,-2.04 -0.7,-3.09 l -4.1,-16.24 c -0.6,-2.5 -0.8,-3.29 -0.8,-5.03 0,-4.73 2.6,-7.83 6.3,-7.83 v 1.1 c -1.7,0 -3.3,1.34 -3.3,5.03 0,0.95 0,1.89 0.8,5.03 l 1.1,4.59 c 0.3,1.1 0.3,1.19 0.7,1.74 2.4,3.23 4.7,3.98 6,3.98 1.8,0 3.1,-1.48 3.1,-4.68 0,-2.94 -1.6,-8.66 -2.5,-10.57 -1.7,-3.32 -3.9,-5.12 -5.9,-5.12 v -1.1 c 5.9,0 12,7.43 12,14.6 0,4.53 -2.6,7.97 -6.6,7.97 -2.3,0 -4.3,-1.44 -5.8,-2.99 z"
           inkscape:connector-curvature="0"
           style="fill:#000000;stroke-width:0" /><path
           id="path4019"
           d="m 1298.6,362.74 0.1,0 0.1,0 0.2,0 0.1,0.01 0,0 0.1,0.01 0.1,0.01 0,0.01 0.1,0.01 0.1,0.01 0,0.02 0.1,0.02 0.1,0.02 0,0.03 0.1,0.02 0,0.03 0.1,0.04 0.1,0.04 0,0.04 0,0.04 0.1,0.05 0,0.03 0,0.03 0,0.03 0,0.03 0.1,0.03 0,0.03 0,0.03 0,0.04 0,0.03 0,0.04 0,0.04 0,0.04 0,0.04 0,0.04 0,0.05 0,0.04 c 0,1 -0.9,1 -1.6,1 h -29.8 c -0.7,0 -1.7,0 -1.7,-1 0,-0.98 1,-0.98 1.7,-0.98 z"
           inkscape:connector-curvature="0"
           style="fill:#000000;stroke-width:0" /><path
           id="path4021"
           d="m 1298.6,353.07 0.1,0 0,0 0.2,0 0.1,0 0.1,0.01 0,0 0.1,0.01 0.1,0.01 0.1,0.01 0,0.01 0.1,0.01 0.1,0.02 0,0.02 0.1,0.02 0,0.03 0.1,0.02 0.1,0.04 0,0.03 0.1,0.04 0,0.04 0,0.05 0.1,0.02 0,0.03 0,0.02 0,0.03 0,0.03 0,0.03 0.1,0.03 0,0.04 0,0.03 0,0.04 0,0.03 0,0.04 0,0.04 0,0.04 0,0.04 0,0.05 0,0.04 0,0.05 c 0,1 -0.9,1 -1.6,1 h -29.8 c -0.7,0 -1.7,0 -1.7,-1 0,-1 1,-1 1.7,-1 z"
           inkscape:connector-curvature="0"
           style="fill:#000000;stroke-width:0" /><path
           id="path4023"
           d="m 1340.9,376.08 -0.1,-0.06 -0.1,-0.07 0,-0.07 -0.1,-0.07 -0.1,-0.08 -0.1,-0.08 -0.1,-0.09 -0.1,-0.08 -0.1,-0.09 -0.1,-0.09 -0.2,-0.19 -0.2,-0.2 -0.2,-0.2 -0.1,-0.11 0,-0.1 -0.1,-0.1 -0.1,-0.1 -0.1,-0.11 -0.1,-0.1 0,-0.1 -0.1,-0.1 -0.1,-0.1 0,-0.1 -0.1,-0.09 0,-0.1 0,-0.09 -0.1,-0.09 0,-0.09 0,-0.09 c 0,-0.5 0.5,-1 1,-1 0.5,0 0.7,0.36 1,0.66 0.6,0.75 1.7,2.14 3.9,3.24 0.4,0.2 0.9,0.45 0.9,1.04 0,0.5 -0.4,0.75 -0.7,1 -1.1,0.75 -1.7,1.64 -2.1,2.83 -0.1,0.45 -0.3,1.11 -1,1.11 -0.7,0 -1,-0.66 -1,-1.05 0,-0.25 0.4,-1.84 1.2,-2.89 h -16.8 c -0.8,0 -1.7,0 -1.7,-1 0,-1 0.9,-1 1.7,-1 z"
           inkscape:connector-curvature="0"
           style="fill:#000000;stroke-width:0" /><path
           id="path4025"
           d="m 1336.6,365.38 -0.1,0 -0.2,0 -0.1,-0.01 -0.2,0 -0.1,-0.01 -0.2,-0.02 0,-0.01 -0.1,-0.01 -0.1,-0.01 0,-0.02 -0.1,-0.02 -0.1,-0.02 0,-0.02 -0.1,-0.02 -0.1,-0.03 0,-0.03 -0.1,-0.03 -0.1,-0.04 0,-0.04 -0.1,-0.04 -0.1,-0.04 0,-0.05 -0.1,-0.05 -0.1,-0.06 0,-0.06 -0.1,-0.06 c -0.8,-0.75 -0.9,-1.6 -0.9,-1.94 0,-1.2 0.9,-1.75 1.9,-1.75 1.4,0 2.8,1.2 2.8,3.19 0,2.43 -2.4,4.28 -5.9,4.28 -6.7,0 -13.4,-7.13 -13.4,-14.14 0,-4.49 2.9,-8.43 8.1,-8.43 7.1,0 11.3,5.29 11.3,5.88 0,0.3 -0.3,0.66 -0.6,0.66 -0.3,0 -0.3,-0.11 -0.6,-0.5 -4,-4.94 -9.4,-4.94 -10,-4.94 -3.2,0 -4.5,2.44 -4.5,5.44 0,2.03 1,6.87 2.7,9.95 1.5,2.84 4.3,4.98 7,4.98 1.7,0 3.6,-0.64 4.3,-1.98 z"
           inkscape:connector-curvature="0"
           style="fill:#000000;stroke-width:0" /></g>    </g>
    <g
       transform="translate(-786.84593,-14.468171)"
       id="g4137">
      <g
         style="font-style:normal;font-variant:normal;font-weight:normal;font-stretch:normal;letter-spacing:normal;word-spacing:normal;text-anchor:start;fill:none;stroke:#000000;stroke-linecap:butt;stroke-linejoin:miter;stroke-miterlimit:10.43299961;stroke-opacity:1;stroke-dasharray:none;stroke-dashoffset:0"
         id="g4139"
         transform="matrix(1.0629921,0,0,-1.0629921,-186.02362,789.27165)"
         xml:space="preserve"
         stroke-miterlimit="10.433"
         font-style="normal"
         font-variant="normal"
         font-weight="normal"
         font-stretch="normal"
         font-size-adjust="none"
         letter-spacing="normal"
         word-spacing="normal"><path
           style="fill:#000000;stroke-width:0"
           inkscape:connector-curvature="0"
           d="m 1099.7,382.02 0,0.17 0,0.16 0,0.16 0,0.08 0,0.08 0,0.08 -0.1,0.08 0,0.07 0,0.07 0,0.08 0,0.06 0,0.07 0,0.06 -0.1,0.07 0,0.05 0,0.06 -0.1,0.05 0,0.05 0,0.05 -0.1,0.04 0,0.04 -0.1,0.02 0,0.01 0,0.02 -0.1,0.01 0,0.02 0,0.01 -0.1,0.01 0,0.01 0,0.01 -0.1,0.01 0,0.01 0,0 -0.1,0.01 0,0 -0.1,0 0,0 c -1,0 -1,-0.89 -1,-1.78 v -46.23 c 0,-0.91 0,-1.8 1,-1.8 1,0 1,0.89 1,1.8 z"
           id="path4141" /><path
           style="fill:#000000;stroke-width:0"
           inkscape:connector-curvature="0"
           d="m 1129.2,376.08 -0.1,-0.06 -0.1,-0.07 0,-0.07 -0.1,-0.07 -0.1,-0.08 -0.1,-0.08 -0.1,-0.09 -0.1,-0.08 -0.1,-0.09 -0.1,-0.09 -0.2,-0.19 -0.2,-0.2 -0.1,-0.2 -0.1,-0.11 -0.1,-0.1 -0.1,-0.1 -0.1,-0.1 -0.1,-0.11 -0.1,-0.1 0,-0.1 -0.1,-0.1 0,-0.1 -0.1,-0.1 0,-0.09 -0.1,-0.1 0,-0.09 0,-0.09 -0.1,-0.09 0,-0.09 c 0,-0.5 0.5,-1 1,-1 0.5,0 0.8,0.36 1,0.66 0.6,0.75 1.7,2.14 3.9,3.24 0.4,0.2 0.9,0.45 0.9,1.04 0,0.5 -0.4,0.75 -0.7,1 -1.1,0.75 -1.7,1.64 -2.1,2.83 -0.1,0.45 -0.3,1.11 -1,1.11 -0.7,0 -1,-0.66 -1,-1.05 0,-0.25 0.4,-1.84 1.2,-2.89 h -16.8 c -0.8,0 -1.7,0 -1.7,-1 0,-1 0.9,-1 1.7,-1 z"
           id="path4143" /><path
           style="fill:#000000;stroke-width:0"
           inkscape:connector-curvature="0"
           d="m 1124.1,365.27 -0.1,0.17 0,0.17 -0.1,0.16 -0.1,0.17 -0.1,0.15 -0.1,0.16 -0.1,0.15 -0.1,0.15 -0.2,0.14 -0.1,0.14 -0.1,0.13 -0.1,0.13 -0.1,0.12 -0.2,0.12 -0.1,0.12 -0.2,0.1 -0.1,0.11 -0.1,0.1 -0.2,0.09 -0.2,0.08 -0.1,0.08 -0.2,0.08 -0.1,0.07 -0.2,0.06 -0.2,0.05 -0.2,0.05 -0.2,0.04 -0.1,0.04 -0.2,0.02 -0.2,0.02 -0.2,0.01 -0.2,0.01 0,-1.1 c 3.2,0 3.9,-4.07 3.9,-4.37 0,-0.31 -0.1,-0.61 -0.1,-0.86 l -2.5,-9.77 c -0.2,-0.89 -0.2,-0.98 -1,-1.84 -2.2,-2.73 -4.2,-3.53 -5.6,-3.53 -2.5,0 -3.2,2.73 -3.2,4.69 0,2.48 1.6,8.61 2.7,10.9 1.6,2.94 3.8,4.78 5.8,4.78 l 0,1.1 c -5.9,0 -12,-7.32 -12,-14.6 0,-4.68 2.7,-7.97 6.6,-7.97 1,0 3.5,0.21 6.5,3.74 0.4,-2.09 2.1,-3.74 4.5,-3.74 1.7,0 2.9,1.15 3.7,2.74 0.8,1.8 1.5,4.84 1.5,4.94 0,0.5 -0.5,0.5 -0.6,0.5 -0.5,0 -0.6,-0.21 -0.7,-0.91 -0.9,-3.23 -1.8,-6.17 -3.8,-6.17 -1.4,0 -1.5,1.3 -1.5,2.3 0,1.09 0.1,1.48 0.6,3.68 0.6,2.1 0.7,2.6 1.1,4.49 l 1.8,6.97 c 0.4,1.39 0.4,1.5 0.4,1.68 0,0.86 -0.6,1.36 -1.5,1.36 -1.2,0 -1.9,-1.11 -2.1,-2.2 z"
           id="path4145" /><path
           style="fill:#000000;stroke-width:0"
           inkscape:connector-curvature="0"
           d="m 1163.4,357.89 h 13.9 c 0.7,0 1.6,0 1.6,1 0,1 -0.9,1 -1.6,1 h -13.9 v 13.96 c 0,0.69 0,1.64 -1,1.64 -1,0 -1,-0.95 -1,-1.64 v -13.96 h -14 c -0.7,0 -1.6,0 -1.6,-1 0,-1 0.9,-1 1.6,-1 h 14 v -13.93 c 0,-0.71 0,-1.66 1,-1.66 1,0 1,0.95 1,1.66 z"
           id="path4147" /><path
           style="fill:#000000;stroke-width:0"
           inkscape:connector-curvature="0"
           d="m 1214,389.16 0,-0.06 -0.1,-0.07 -0.1,-0.07 -0.1,-0.07 -0.1,-0.08 0,-0.08 -0.1,-0.09 -0.1,-0.08 -0.1,-0.09 -0.1,-0.1 -0.2,-0.19 -0.2,-0.19 -0.2,-0.2 -0.1,-0.11 -0.1,-0.1 -0.1,-0.1 -0.1,-0.11 0,-0.1 -0.1,-0.1 -0.1,-0.1 0,-0.1 -0.1,-0.1 -0.1,-0.1 0,-0.1 0,-0.09 -0.1,-0.09 0,-0.09 0,-0.09 0,-0.09 c 0,-0.5 0.5,-1 1,-1 0.4,0 0.7,0.36 0.9,0.66 0.6,0.75 1.8,2.14 4,3.23 0.3,0.21 0.8,0.46 0.8,1.05 0,0.5 -0.3,0.75 -0.7,1 -1.1,0.75 -1.6,1.64 -2,2.83 -0.1,0.45 -0.3,1.11 -1,1.11 -0.7,0 -1,-0.66 -1,-1.05 0,-0.25 0.4,-1.84 1.2,-2.89 h -16.8 c -0.9,0 -1.8,0 -1.8,-1 0,-1 0.9,-1 1.8,-1 z"
           id="path4149" /><path
           style="fill:#000000;stroke-width:0"
           inkscape:connector-curvature="0"
           d="m 1204.8,380.47 0,0.01 0,0 0,0.01 0,0.01 0,0.01 0,0.01 0,0.02 0,0.02 0,0.02 0,0.02 0,0.02 0,0.02 0,0.03 0,0.02 0,0.02 0,0.03 -0.1,0.02 0,0.03 0,0.02 0,0.03 0,0.02 0,0.01 -0.1,0.01 0,0.01 0,0.01 0,0.01 0,0.01 0,0.01 0,0.01 -0.1,0.01 0,0.01 0,0.01 0,0 0,0.01 -0.1,0.01 0,0 0,0.01 0,0 0,0.01 -0.1,0 0,0 0,0.01 -0.1,0 0,0 0,0 c -1.2,0 -4.8,-0.41 -6.1,-0.5 -0.4,-0.05 -0.9,-0.09 -0.9,-1 0,-0.59 0.4,-0.59 1.2,-0.59 2.4,0 2.4,-0.35 2.4,-0.85 0,-0.36 -0.4,-2.04 -0.7,-3.09 l -4,-16.24 c -0.6,-2.5 -0.8,-3.29 -0.8,-5.03 0,-4.73 2.6,-7.83 6.3,-7.83 v 1.1 c -1.7,0 -3.4,1.34 -3.4,5.03 0,0.95 0,1.89 0.9,5.03 l 1,4.59 c 0.3,1.1 0.3,1.19 0.8,1.74 2.4,3.23 4.7,3.98 6,3.98 1.8,0 3.1,-1.48 3.1,-4.68 0,-2.94 -1.6,-8.66 -2.5,-10.57 -1.7,-3.32 -4,-5.12 -5.9,-5.12 v -1.1 c 5.9,0 12,7.43 12,14.6 0,4.53 -2.7,7.97 -6.6,7.97 -2.3,0 -4.4,-1.44 -5.9,-2.99 z"
           id="path4151" /><path
           style="fill:#000000;stroke-width:0"
           inkscape:connector-curvature="0"
           d="m 1222.2,382.02 0,0.17 0,0.16 0,0.16 0,0.08 0,0.08 0,0.08 0,0.08 0,0.07 -0.1,0.07 0,0.08 0,0.06 0,0.07 0,0.06 0,0.07 -0.1,0.05 0,0.06 0,0.05 -0.1,0.05 0,0.05 -0.1,0.04 0,0.04 0,0.02 -0.1,0.01 0,0.02 0,0.01 -0.1,0.02 0,0.01 0,0.01 -0.1,0.01 0,0.01 0,0.01 -0.1,0.01 0,0 -0.1,0.01 0,0 -0.1,0 0,0 c -1,0 -1,-0.89 -1,-1.78 v -46.23 c 0,-0.91 0,-1.8 1,-1.8 1,0 1,0.89 1,1.8 z"
           id="path4153" /><path
           style="fill:#000000;stroke-width:0"
           inkscape:connector-curvature="0"
           d="m 1245.7,373.3 h -1.2 c -0.1,-0.76 -0.5,-2.82 -0.9,-3.17 -0.3,-0.2 -3,-0.2 -3.5,-0.2 h -6.4 c 3.7,3.23 4.9,4.2 7,5.84 2.6,2.07 5,4.22 5,7.53 0,4.22 -3.7,6.8 -8.2,6.8 -4.3,0 -7.2,-3.03 -7.2,-6.23 0,-1.78 1.5,-1.96 1.8,-1.96 0.8,0 1.9,0.6 1.9,1.85 0,0.62 -0.3,1.84 -2.1,1.84 1.1,2.47 3.5,3.24 5.1,3.24 3.5,0 5.3,-2.71 5.3,-5.54 0,-3.03 -2.2,-5.43 -3.3,-6.68 l -8.4,-8.3 c -0.3,-0.31 -0.3,-0.39 -0.3,-1.36 h 14.3 z"
           id="path4155" /><path
           style="fill:#000000;stroke-width:0"
           inkscape:connector-curvature="0"
           d="m 1298.6,362.74 0.1,0 0.1,0 0.2,0 0.1,0.01 0,0 0.1,0.01 0.1,0.01 0,0.01 0.1,0.01 0.1,0.01 0,0.02 0.1,0.02 0.1,0.02 0,0.03 0.1,0.02 0,0.03 0.1,0.04 0.1,0.04 0,0.04 0,0.04 0.1,0.05 0,0.03 0,0.03 0,0.03 0,0.03 0.1,0.03 0,0.03 0,0.03 0,0.04 0,0.03 0,0.04 0,0.04 0,0.04 0,0.04 0,0.04 0,0.05 0,0.04 c 0,1 -0.9,1 -1.6,1 h -29.8 c -0.7,0 -1.7,0 -1.7,-1 0,-0.98 1,-0.98 1.7,-0.98 z"
           id="path4157" /><path
           style="fill:#000000;stroke-width:0"
           inkscape:connector-curvature="0"
           d="m 1298.6,353.07 0.1,0 0,0 0.2,0 0.1,0 0.1,0.01 0,0 0.1,0.01 0.1,0.01 0.1,0.01 0,0.01 0.1,0.01 0.1,0.02 0,0.02 0.1,0.02 0,0.03 0.1,0.02 0.1,0.04 0,0.03 0.1,0.04 0,0.04 0,0.05 0.1,0.02 0,0.03 0,0.02 0,0.03 0,0.03 0,0.03 0.1,0.03 0,0.04 0,0.03 0,0.04 0,0.03 0,0.04 0,0.04 0,0.04 0,0.04 0,0.05 0,0.04 0,0.05 c 0,1 -0.9,1 -1.6,1 h -29.8 c -0.7,0 -1.7,0 -1.7,-1 0,-1 1,-1 1.7,-1 z"
           id="path4159" /><path
           style="fill:#000000;stroke-width:0"
           inkscape:connector-curvature="0"
           d="m 1324.8,382.02 0,0.17 0,0.16 0,0.16 0,0.08 0,0.08 0,0.08 0,0.08 0,0.07 -0.1,0.07 0,0.08 0,0.06 0,0.07 0,0.06 0,0.07 -0.1,0.05 0,0.06 0,0.05 -0.1,0.05 0,0.05 -0.1,0.04 0,0.04 0,0.02 -0.1,0.01 0,0.02 0,0.01 -0.1,0.02 0,0.01 0,0.01 -0.1,0.01 0,0.01 0,0.01 -0.1,0.01 0,0 -0.1,0.01 0,0 -0.1,0 0,0 c -1,0 -1,-0.89 -1,-1.78 v -46.23 c 0,-0.91 0,-1.8 1,-1.8 1,0 1,0.89 1,1.8 z"
           id="path4161" /><path
           style="fill:#000000;stroke-width:0"
           inkscape:connector-curvature="0"
           d="m 1354.7,376.08 -0.1,-0.06 -0.1,-0.07 -0.1,-0.07 0,-0.07 -0.1,-0.08 -0.1,-0.08 -0.1,-0.09 -0.1,-0.08 -0.1,-0.09 -0.1,-0.09 -0.2,-0.19 -0.2,-0.2 -0.2,-0.2 -0.1,-0.11 0,-0.1 -0.1,-0.1 -0.1,-0.1 -0.1,-0.11 -0.1,-0.1 0,-0.1 -0.1,-0.1 -0.1,-0.1 0,-0.1 -0.1,-0.09 0,-0.1 0,-0.09 -0.1,-0.09 0,-0.09 0,-0.09 c 0,-0.5 0.5,-1 1,-1 0.5,0 0.7,0.36 1,0.66 0.6,0.75 1.7,2.14 3.9,3.24 0.4,0.2 0.9,0.45 0.9,1.04 0,0.5 -0.4,0.75 -0.8,1 -1,0.75 -1.6,1.64 -2,2.83 -0.1,0.45 -0.3,1.11 -1,1.11 -0.7,0 -1,-0.66 -1,-1.05 0,-0.25 0.4,-1.84 1.2,-2.89 h -16.8 c -0.8,0 -1.7,0 -1.7,-1 0,-1 0.9,-1 1.7,-1 z"
           id="path4163" /><path
           style="fill:#000000;stroke-width:0"
           inkscape:connector-curvature="0"
           d="m 1350.4,365.38 -0.1,0 -0.2,0 -0.1,-0.01 -0.2,0 -0.1,-0.01 -0.2,-0.02 0,-0.01 -0.1,-0.01 -0.1,-0.01 0,-0.02 -0.1,-0.02 -0.1,-0.02 0,-0.02 -0.1,-0.02 -0.1,-0.03 0,-0.03 -0.1,-0.03 -0.1,-0.04 0,-0.04 -0.1,-0.04 -0.1,-0.04 0,-0.05 -0.1,-0.05 -0.1,-0.06 0,-0.06 -0.1,-0.06 c -0.8,-0.75 -0.9,-1.6 -0.9,-1.94 0,-1.2 0.9,-1.75 1.9,-1.75 1.4,0 2.7,1.2 2.7,3.19 0,2.43 -2.3,4.28 -5.8,4.28 -6.8,0 -13.4,-7.13 -13.4,-14.14 0,-4.49 2.9,-8.43 8.1,-8.43 7.1,0 11.3,5.29 11.3,5.88 0,0.3 -0.3,0.66 -0.6,0.66 -0.3,0 -0.3,-0.11 -0.7,-0.5 -3.9,-4.94 -9.3,-4.94 -9.9,-4.94 -3.1,0 -4.5,2.44 -4.5,5.44 0,2.03 1,6.87 2.7,9.95 1.5,2.84 4.3,4.98 7,4.98 1.7,0 3.6,-0.64 4.3,-1.98 z"
           id="path4165" /><path
           style="fill:#000000;stroke-width:0"
           inkscape:connector-curvature="0"
           d="m 1360.2,382.02 0,0.17 0,0.16 0,0.16 0,0.08 0,0.08 0,0.08 0,0.08 -0.1,0.07 0,0.07 0,0.08 0,0.06 0,0.07 0,0.06 -0.1,0.07 0,0.05 0,0.06 -0.1,0.05 0,0.05 0,0.05 -0.1,0.04 0,0.04 -0.1,0.02 0,0.01 0,0.02 0,0.01 -0.1,0.02 0,0.01 0,0.01 -0.1,0.01 0,0.01 -0.1,0.01 0,0.01 0,0 -0.1,0.01 0,0 -0.1,0 0,0 c -1,0 -1,-0.89 -1,-1.78 v -46.23 c 0,-0.91 0,-1.8 1,-1.8 1,0 1,0.89 1,1.8 z"
           id="path4167" /><path
           style="fill:#000000;stroke-width:0"
           inkscape:connector-curvature="0"
           d="m 1383.7,373.3 h -1.2 c -0.1,-0.76 -0.5,-2.82 -0.9,-3.17 -0.3,-0.2 -3,-0.2 -3.5,-0.2 h -6.4 c 3.7,3.23 4.9,4.2 7,5.84 2.6,2.07 5,4.22 5,7.53 0,4.22 -3.7,6.8 -8.2,6.8 -4.3,0 -7.2,-3.03 -7.2,-6.23 0,-1.78 1.5,-1.96 1.8,-1.96 0.8,0 1.9,0.6 1.9,1.85 0,0.62 -0.3,1.84 -2.1,1.84 1.1,2.47 3.5,3.24 5.1,3.24 3.5,0 5.3,-2.71 5.3,-5.54 0,-3.03 -2.2,-5.43 -3.3,-6.68 l -8.4,-8.3 c -0.3,-0.31 -0.3,-0.39 -0.3,-1.36 h 14.3 z"
           id="path4169" /></g>    </g>
    <g
       id="g4309"
       transform="translate(-802.42704,61.211494)">
      <g
         word-spacing="normal"
         letter-spacing="normal"
         font-size-adjust="none"
         font-stretch="normal"
         font-weight="normal"
         font-variant="normal"
         font-style="normal"
         stroke-miterlimit="10.433"
         xml:space="preserve"
         transform="matrix(1.0629921,0,0,-1.0629921,-186.02362,789.27165)"
         id="g4311"
         style="font-style:normal;font-variant:normal;font-weight:normal;font-stretch:normal;letter-spacing:normal;word-spacing:normal;text-anchor:start;fill:none;stroke:#000000;stroke-linecap:butt;stroke-linejoin:miter;stroke-miterlimit:10.43299961;stroke-opacity:1;stroke-dasharray:none;stroke-dashoffset:0"><path
           id="path4313"
           d="m 990,382.02 0,0.17 0,0.16 -0.01,0.16 0,0.08 -0.01,0.08 0,0.08 -0.01,0.08 -0.01,0.07 -0.01,0.07 -0.02,0.08 -0.01,0.06 -0.02,0.07 -0.02,0.06 -0.03,0.07 -0.03,0.05 -0.03,0.06 -0.03,0.05 -0.04,0.05 -0.04,0.05 -0.05,0.04 -0.05,0.04 -0.03,0.02 -0.03,0.01 -0.03,0.02 -0.03,0.01 -0.03,0.02 -0.03,0.01 -0.03,0.01 -0.04,0.01 -0.04,0.01 -0.03,0.01 -0.04,0.01 -0.04,0 -0.05,0.01 -0.04,0 -0.04,0 -0.05,0 c -1,0 -1,-0.89 -1,-1.78 v -46.23 c 0,-0.91 0,-1.8 1,-1.8 1,0 1,0.89 1,1.8 z"
           inkscape:connector-curvature="0"
           style="fill:#000000;stroke-width:0" /><path
           id="path4315"
           d="m 1019.5,376.08 -0.1,-0.06 0,-0.07 -0.1,-0.07 -0.1,-0.07 -0.1,-0.08 -0.1,-0.08 -0.1,-0.09 0,-0.08 -0.1,-0.09 -0.1,-0.09 -0.2,-0.19 -0.2,-0.2 -0.2,-0.2 -0.1,-0.11 -0.1,-0.1 -0.1,-0.1 -0.1,-0.1 -0.1,-0.11 0,-0.1 -0.1,-0.1 -0.1,-0.1 0,-0.1 -0.1,-0.1 0,-0.09 -0.1,-0.1 0,-0.09 0,-0.09 0,-0.09 0,-0.09 c 0,-0.5 0.5,-1 1,-1 0.4,0 0.7,0.36 0.9,0.66 0.6,0.75 1.7,2.14 3.9,3.24 0.4,0.2 0.9,0.45 0.9,1.04 0,0.5 -0.4,0.75 -0.7,1 -1.1,0.75 -1.7,1.64 -2,2.83 -0.2,0.45 -0.4,1.11 -1,1.11 -0.7,0 -1,-0.66 -1,-1.05 0,-0.25 0.3,-1.84 1.1,-2.89 h -16.7 c -0.9,0 -1.8,0 -1.8,-1 0,-1 0.9,-1 1.8,-1 z"
           inkscape:connector-curvature="0"
           style="fill:#000000;stroke-width:0" /><path
           id="path4317"
           d="m 1014.5,365.27 -0.1,0.17 -0.1,0.17 -0.1,0.16 -0.1,0.17 -0.1,0.15 -0.1,0.16 -0.1,0.15 -0.1,0.15 -0.1,0.14 -0.2,0.14 -0.1,0.13 -0.1,0.13 -0.1,0.12 -0.2,0.12 -0.1,0.12 -0.1,0.1 -0.2,0.11 -0.1,0.1 -0.2,0.09 -0.1,0.08 -0.2,0.08 -0.2,0.08 -0.1,0.07 -0.2,0.06 -0.2,0.05 -0.1,0.05 -0.2,0.04 -0.2,0.04 -0.2,0.02 -0.2,0.02 -0.2,0.01 -0.2,0.01 0,-1.1 c 3.3,0 4,-4.07 4,-4.37 0,-0.31 -0.1,-0.61 -0.2,-0.86 l -2.5,-9.77 c -0.2,-0.89 -0.2,-0.98 -1,-1.84 -2.2,-2.73 -4.2,-3.53 -5.6,-3.53 -2.5,0 -3.2,2.73 -3.2,4.69 0,2.48 1.6,8.61 2.7,10.9 1.6,2.94 3.8,4.78 5.8,4.78 l 0,1.1 c -5.9,0 -12.02,-7.32 -12.02,-14.6 0,-4.68 2.72,-7.97 6.62,-7.97 1,0 3.5,0.21 6.5,3.74 0.4,-2.09 2.1,-3.74 4.5,-3.74 1.7,0 2.9,1.15 3.7,2.74 0.8,1.8 1.5,4.84 1.5,4.94 0,0.5 -0.5,0.5 -0.6,0.5 -0.5,0 -0.6,-0.21 -0.7,-0.91 -0.9,-3.23 -1.8,-6.17 -3.8,-6.17 -1.3,0 -1.5,1.3 -1.5,2.3 0,1.09 0.1,1.48 0.7,3.68 0.5,2.1 0.6,2.6 1.1,4.49 l 1.7,6.97 c 0.4,1.39 0.4,1.5 0.4,1.68 0,0.86 -0.6,1.36 -1.5,1.36 -1.1,0 -1.9,-1.11 -2,-2.2 z"
           inkscape:connector-curvature="0"
           style="fill:#000000;stroke-width:0" /><path
           id="path4319"
           d="m 1030.2,382.02 0,0.17 0,0.16 0,0.16 0,0.08 0,0.08 0,0.08 0,0.08 -0.1,0.07 0,0.07 0,0.08 0,0.06 0,0.07 0,0.06 -0.1,0.07 0,0.05 0,0.06 -0.1,0.05 0,0.05 0,0.05 -0.1,0.04 0,0.04 -0.1,0.02 0,0.01 0,0.02 0,0.01 -0.1,0.02 0,0.01 0,0.01 -0.1,0.01 0,0.01 -0.1,0.01 0,0.01 0,0 -0.1,0.01 0,0 -0.1,0 0,0 c -1,0 -1,-0.89 -1,-1.78 v -46.23 c 0,-0.91 0,-1.8 1,-1.8 1,0 1,0.89 1,1.8 z"
           inkscape:connector-curvature="0"
           style="fill:#000000;stroke-width:0" /><path
           id="path4321"
           d="m 1053.7,373.3 h -1.2 c -0.1,-0.76 -0.5,-2.82 -0.9,-3.17 -0.3,-0.2 -3,-0.2 -3.5,-0.2 h -6.4 c 3.7,3.23 4.9,4.2 7,5.84 2.6,2.07 5,4.22 5,7.53 0,4.22 -3.7,6.8 -8.2,6.8 -4.3,0 -7.2,-3.03 -7.2,-6.23 0,-1.78 1.5,-1.96 1.8,-1.96 0.8,0 1.9,0.6 1.9,1.85 0,0.62 -0.3,1.84 -2.1,1.84 1.1,2.47 3.5,3.24 5.1,3.24 3.5,0 5.3,-2.71 5.3,-5.54 0,-3.03 -2.2,-5.43 -3.3,-6.68 l -8.4,-8.3 c -0.3,-0.31 -0.3,-0.39 -0.3,-1.36 h 14.3 z"
           inkscape:connector-curvature="0"
           style="fill:#000000;stroke-width:0" /><path
           id="path4323"
           d="m 1089.8,357.89 h 13.9 c 0.7,0 1.7,0 1.7,1 0,1 -1,1 -1.7,1 h -13.9 v 13.96 c 0,0.69 0,1.64 -1,1.64 -1,0 -1,-0.95 -1,-1.64 v -13.96 h -13.9 c -0.7,0 -1.7,0 -1.7,-1 0,-1 1,-1 1.7,-1 h 13.9 v -13.93 c 0,-0.71 0,-1.66 1,-1.66 1,0 1,0.95 1,1.66 z"
           inkscape:connector-curvature="0"
           style="fill:#000000;stroke-width:0" /><path
           id="path4325"
           d="m 1127.3,382.02 0,0.17 0,0.16 0,0.16 0,0.08 0,0.08 0,0.08 -0.1,0.08 0,0.07 0,0.07 0,0.08 0,0.06 0,0.07 0,0.06 -0.1,0.07 0,0.05 0,0.06 -0.1,0.05 0,0.05 0,0.05 -0.1,0.04 0,0.04 -0.1,0.02 0,0.01 0,0.02 -0.1,0.01 0,0.02 0,0.01 -0.1,0.01 0,0.01 0,0.01 -0.1,0.01 0,0.01 0,0 -0.1,0.01 0,0 -0.1,0 0,0 c -1,0 -1,-0.89 -1,-1.78 v -46.23 c 0,-0.91 0,-1.8 1,-1.8 1,0 1,0.89 1,1.8 z"
           inkscape:connector-curvature="0"
           style="fill:#000000;stroke-width:0" /><path
           id="path4327"
           d="m 1154.3,389.16 -0.1,-0.06 -0.1,-0.07 0,-0.07 -0.1,-0.07 -0.1,-0.08 -0.1,-0.08 -0.1,-0.09 -0.1,-0.08 -0.1,-0.09 -0.1,-0.1 -0.2,-0.19 -0.2,-0.19 -0.2,-0.2 -0.1,-0.11 0,-0.1 -0.1,-0.1 -0.1,-0.11 -0.1,-0.1 -0.1,-0.1 0,-0.1 -0.1,-0.1 -0.1,-0.1 0,-0.1 -0.1,-0.1 0,-0.09 0,-0.09 -0.1,-0.09 0,-0.09 0,-0.09 c 0,-0.5 0.5,-1 1,-1 0.5,0 0.7,0.36 1,0.66 0.6,0.75 1.7,2.14 3.9,3.23 0.4,0.21 0.9,0.46 0.9,1.05 0,0.5 -0.4,0.75 -0.7,1 -1.1,0.75 -1.7,1.64 -2.1,2.83 -0.1,0.45 -0.3,1.11 -1,1.11 -0.7,0 -1,-0.66 -1,-1.05 0,-0.25 0.4,-1.84 1.2,-2.89 h -16.8 c -0.8,0 -1.7,0 -1.7,-1 0,-1 0.9,-1 1.7,-1 z"
           inkscape:connector-curvature="0"
           style="fill:#000000;stroke-width:0" /><path
           id="path4329"
           d="m 1145.1,380.47 0,0.01 0,0 0,0.01 0,0.01 0,0.01 0,0.01 0,0.02 0,0.02 0,0.02 0,0.02 0,0.02 -0.1,0.02 0,0.03 0,0.02 0,0.02 0,0.03 0,0.02 0,0.03 0,0.02 -0.1,0.03 0,0.02 0,0.01 0,0.01 0,0.01 0,0.01 -0.1,0.01 0,0.01 0,0.01 0,0.01 0,0.01 0,0.01 -0.1,0.01 0,0 0,0.01 0,0.01 0,0 -0.1,0.01 0,0 0,0.01 0,0 -0.1,0 0,0.01 0,0 0,0 -0.1,0 c -1.1,0 -4.8,-0.41 -6.1,-0.5 -0.4,-0.05 -0.9,-0.09 -0.9,-1 0,-0.59 0.4,-0.59 1.2,-0.59 2.4,0 2.5,-0.35 2.5,-0.85 0,-0.36 -0.5,-2.04 -0.7,-3.09 l -4.1,-16.24 c -0.6,-2.5 -0.8,-3.29 -0.8,-5.03 0,-4.73 2.6,-7.83 6.3,-7.83 v 1.1 c -1.7,0 -3.3,1.34 -3.3,5.03 0,0.95 0,1.89 0.8,5.03 l 1.1,4.59 c 0.3,1.1 0.3,1.19 0.7,1.74 2.5,3.23 4.7,3.98 6,3.98 1.8,0 3.1,-1.48 3.1,-4.68 0,-2.94 -1.6,-8.66 -2.5,-10.57 -1.6,-3.32 -3.9,-5.12 -5.9,-5.12 v -1.1 c 5.9,0 12,7.43 12,14.6 0,4.53 -2.6,7.97 -6.6,7.97 -2.3,0 -4.3,-1.44 -5.8,-2.99 z"
           inkscape:connector-curvature="0"
           style="fill:#000000;stroke-width:0" /><path
           id="path4331"
           d="m 1162.4,382.02 0,0.17 0,0.16 0,0.16 0,0.08 0,0.08 0,0.08 0,0.08 0,0.07 0,0.07 0,0.08 0,0.06 -0.1,0.07 0,0.06 0,0.07 0,0.05 -0.1,0.06 0,0.05 0,0.05 -0.1,0.05 0,0.04 -0.1,0.04 0,0.02 0,0.01 -0.1,0.02 0,0.01 0,0.02 -0.1,0.01 0,0.01 0,0.01 -0.1,0.01 0,0.01 0,0.01 -0.1,0 0,0.01 -0.1,0 0,0 -0.1,0 c -1,0 -1,-0.89 -1,-1.78 v -46.23 c 0,-0.91 0,-1.8 1,-1.8 1,0 1,0.89 1,1.8 z"
           inkscape:connector-curvature="0"
           style="fill:#000000;stroke-width:0" /><path
           id="path4333"
           d="m 1185.9,373.3 h -1.2 c -0.1,-0.76 -0.4,-2.82 -0.9,-3.17 -0.2,-0.2 -2.9,-0.2 -3.4,-0.2 h -6.4 c 3.6,3.23 4.8,4.2 6.9,5.84 2.6,2.07 5,4.22 5,7.53 0,4.22 -3.7,6.8 -8.1,6.8 -4.4,0 -7.3,-3.03 -7.3,-6.23 0,-1.78 1.5,-1.96 1.9,-1.96 0.8,0 1.8,0.6 1.8,1.85 0,0.62 -0.2,1.84 -2,1.84 1,2.47 3.4,3.24 5,3.24 3.5,0 5.3,-2.71 5.3,-5.54 0,-3.03 -2.1,-5.43 -3.2,-6.68 l -8.4,-8.3 c -0.4,-0.31 -0.4,-0.39 -0.4,-1.36 h 14.4 z"
           inkscape:connector-curvature="0"
           style="fill:#000000;stroke-width:0" /><path
           id="path4335"
           d="m 1222.2,357.89 h 13.9 c 0.7,0 1.6,0 1.6,1 0,1 -0.9,1 -1.6,1 h -13.9 v 13.96 c 0,0.69 0,1.64 -1,1.64 -1,0 -1,-0.95 -1,-1.64 v -13.96 h -14 c -0.7,0 -1.6,0 -1.6,-1 0,-1 0.9,-1 1.6,-1 h 14 v -13.93 c 0,-0.71 0,-1.66 1,-1.66 1,0 1,0.95 1,1.66 z"
           inkscape:connector-curvature="0"
           style="fill:#000000;stroke-width:0" /><path
           id="path4337"
           d="m 1257.9,350.29 5.3,5.12 c 7.8,6.88 10.8,9.56 10.8,14.55 0,5.68 -4.5,9.67 -10.6,9.67 -5.6,0 -9.3,-4.59 -9.3,-9.03 0,-2.78 2.5,-2.78 2.6,-2.78 0.9,0 2.6,0.59 2.6,2.64 0,1.29 -0.9,2.59 -2.6,2.59 -0.4,0 -0.5,0 -0.7,-0.05 1.2,3.24 3.9,5.08 6.8,5.08 4.5,0 6.6,-4.04 6.6,-8.12 0,-3.99 -2.5,-7.92 -5.2,-11.02 l -9.6,-10.65 c -0.5,-0.55 -0.5,-0.65 -0.5,-1.85 h 18.5 l 1.4,8.67 h -1.3 c -0.2,-1.5 -0.6,-3.68 -1.1,-4.43 -0.3,-0.39 -3.6,-0.39 -4.7,-0.39 z"
           inkscape:connector-curvature="0"
           style="fill:#000000;stroke-width:0" /><path
           id="path4339"
           d="m 1300.2,376.08 -0.1,-0.06 -0.1,-0.07 0,-0.07 -0.1,-0.07 -0.1,-0.08 -0.1,-0.08 -0.1,-0.09 -0.1,-0.08 -0.1,-0.09 -0.1,-0.09 -0.2,-0.19 -0.2,-0.2 -0.1,-0.2 -0.1,-0.11 -0.1,-0.1 -0.1,-0.1 -0.1,-0.1 -0.1,-0.11 -0.1,-0.1 0,-0.1 -0.1,-0.1 0,-0.1 -0.1,-0.1 0,-0.09 -0.1,-0.1 0,-0.09 0,-0.09 -0.1,-0.09 0,-0.09 c 0,-0.5 0.5,-1 1,-1 0.5,0 0.7,0.36 1,0.66 0.6,0.75 1.7,2.14 3.9,3.24 0.4,0.2 0.9,0.45 0.9,1.04 0,0.5 -0.4,0.75 -0.7,1 -1.1,0.75 -1.7,1.64 -2.1,2.83 -0.1,0.45 -0.3,1.11 -1,1.11 -0.7,0 -1,-0.66 -1,-1.05 0,-0.25 0.4,-1.84 1.2,-2.89 h -16.8 c -0.8,0 -1.7,0 -1.7,-1 0,-1 0.9,-1 1.7,-1 z"
           inkscape:connector-curvature="0"
           style="fill:#000000;stroke-width:0" /><path
           id="path4341"
           d="m 1295.1,365.27 -0.1,0.17 0,0.17 -0.1,0.16 -0.1,0.17 -0.1,0.15 -0.1,0.16 -0.1,0.15 -0.1,0.15 -0.2,0.14 -0.1,0.14 -0.1,0.13 -0.1,0.13 -0.1,0.12 -0.2,0.12 -0.1,0.12 -0.2,0.1 -0.1,0.11 -0.1,0.1 -0.2,0.09 -0.2,0.08 -0.1,0.08 -0.2,0.08 -0.1,0.07 -0.2,0.06 -0.2,0.05 -0.2,0.05 -0.2,0.04 -0.1,0.04 -0.2,0.02 -0.2,0.02 -0.2,0.01 -0.2,0.01 0,-1.1 c 3.2,0 3.9,-4.07 3.9,-4.37 0,-0.31 -0.1,-0.61 -0.1,-0.86 l -2.5,-9.77 c -0.3,-0.89 -0.3,-0.98 -1,-1.84 -2.2,-2.73 -4.2,-3.53 -5.6,-3.53 -2.5,0 -3.2,2.73 -3.2,4.69 0,2.48 1.6,8.61 2.7,10.9 1.6,2.94 3.8,4.78 5.8,4.78 l 0,1.1 c -5.9,0 -12,-7.32 -12,-14.6 0,-4.68 2.7,-7.97 6.6,-7.97 1,0 3.5,0.21 6.4,3.74 0.5,-2.09 2.2,-3.74 4.6,-3.74 1.7,0 2.9,1.15 3.7,2.74 0.8,1.8 1.5,4.84 1.5,4.94 0,0.5 -0.5,0.5 -0.6,0.5 -0.5,0 -0.6,-0.21 -0.7,-0.91 -0.9,-3.23 -1.8,-6.17 -3.8,-6.17 -1.4,0 -1.5,1.3 -1.5,2.3 0,1.09 0.1,1.48 0.6,3.68 0.6,2.1 0.7,2.6 1.1,4.49 l 1.8,6.97 c 0.4,1.39 0.4,1.5 0.4,1.68 0,0.86 -0.6,1.36 -1.5,1.36 -1.2,0 -1.9,-1.11 -2.1,-2.2 z"
           inkscape:connector-curvature="0"
           style="fill:#000000;stroke-width:0" /><path
           id="path4343"
           d="m 1323.4,358.89 0,0.14 0,0.13 0,0.14 0,0.13 -0.1,0.12 0,0.13 0,0.12 -0.1,0.12 0,0.12 -0.1,0.11 -0.1,0.11 0,0.11 -0.1,0.1 -0.1,0.1 -0.1,0.1 0,0.09 -0.1,0.09 -0.1,0.08 -0.1,0.08 -0.1,0.07 -0.1,0.07 -0.2,0.07 -0.1,0.05 -0.1,0.06 -0.1,0.04 -0.1,0.05 -0.1,0.03 -0.2,0.03 -0.1,0.02 -0.1,0.02 -0.2,0.01 -0.1,0.01 c -1.4,0 -2.6,-1.19 -2.6,-2.65 0,-1.43 1.2,-2.64 2.6,-2.64 1.4,0 2.6,1.21 2.6,2.64 z"
           inkscape:connector-curvature="0"
           style="fill:#000000;stroke-width:0" /><path
           id="path4345"
           d="m 1359.9,389.16 0,-0.06 -0.1,-0.07 -0.1,-0.07 0,-0.07 -0.1,-0.08 -0.1,-0.08 -0.1,-0.09 -0.1,-0.08 -0.1,-0.09 -0.1,-0.1 -0.2,-0.19 -0.2,-0.19 -0.2,-0.2 -0.1,-0.11 -0.1,-0.1 0,-0.1 -0.1,-0.11 -0.1,-0.1 -0.1,-0.1 -0.1,-0.1 0,-0.1 -0.1,-0.1 0,-0.1 -0.1,-0.1 0,-0.09 0,-0.09 -0.1,-0.09 0,-0.09 0,-0.09 c 0,-0.5 0.5,-1 1,-1 0.5,0 0.7,0.36 1,0.66 0.6,0.75 1.7,2.14 3.9,3.23 0.3,0.21 0.8,0.46 0.8,1.05 0,0.5 -0.3,0.75 -0.7,1 -1.1,0.75 -1.6,1.64 -2,2.83 -0.1,0.45 -0.3,1.11 -1,1.11 -0.7,0 -1,-0.66 -1,-1.05 0,-0.25 0.4,-1.84 1.2,-2.89 H 1344 c -0.8,0 -1.7,0 -1.7,-1 0,-1 0.9,-1 1.7,-1 z"
           inkscape:connector-curvature="0"
           style="fill:#000000;stroke-width:0" /><path
           id="path4347"
           d="m 1350.8,380.47 -0.1,0.01 0,0 0,0.01 0,0.01 0,0.01 0,0.01 0,0.02 0,0.02 0,0.02 0,0.02 0,0.02 0,0.02 0,0.03 0,0.02 0,0.02 0,0.03 0,0.02 0,0.03 -0.1,0.02 0,0.03 0,0.02 0,0.01 0,0.01 0,0.01 -0.1,0.01 0,0.01 0,0.01 0,0.01 0,0.01 0,0.01 -0.1,0.01 0,0.01 0,0 0,0.01 0,0.01 -0.1,0 0,0.01 0,0 0,0.01 -0.1,0 0,0 0,0.01 0,0 -0.1,0 0,0 c -1.2,0 -4.8,-0.41 -6.1,-0.5 -0.4,-0.05 -0.9,-0.09 -0.9,-1 0,-0.59 0.4,-0.59 1.2,-0.59 2.4,0 2.5,-0.35 2.5,-0.85 0,-0.36 -0.5,-2.04 -0.7,-3.09 l -4.1,-16.24 c -0.6,-2.5 -0.8,-3.29 -0.8,-5.03 0,-4.73 2.6,-7.83 6.3,-7.83 v 1.1 c -1.7,0 -3.3,1.34 -3.3,5.03 0,0.95 0,1.89 0.8,5.03 l 1.1,4.59 c 0.3,1.1 0.3,1.19 0.7,1.74 2.4,3.23 4.7,3.98 6,3.98 1.8,0 3.1,-1.48 3.1,-4.68 0,-2.94 -1.6,-8.66 -2.5,-10.57 -1.6,-3.32 -4,-5.12 -5.9,-5.12 v -1.1 c 5.9,0 12,7.43 12,14.6 0,4.53 -2.6,7.97 -6.6,7.97 -2.3,0 -4.3,-1.44 -5.8,-2.99 z"
           inkscape:connector-curvature="0"
           style="fill:#000000;stroke-width:0" /><path
           id="path4349"
           d="m 1408.2,362.74 0.2,0 0.1,0 0.2,0 0,0.01 0.1,0 0.1,0.01 0,0.01 0.1,0.01 0.1,0.01 0.1,0.01 0,0.02 0.1,0.02 0.1,0.02 0,0.03 0.1,0.02 0,0.03 0.1,0.04 0,0.04 0.1,0.04 0,0.04 0.1,0.05 0,0.03 0,0.03 0,0.03 0,0.03 0,0.03 0.1,0.03 0,0.03 0,0.04 0,0.03 0,0.04 0,0.04 0,0.04 0,0.04 0,0.04 0,0.05 0,0.04 c 0,1 -0.9,1 -1.6,1 h -29.9 c -0.7,0 -1.6,0 -1.6,-1 0,-0.98 0.9,-0.98 1.7,-0.98 z"
           inkscape:connector-curvature="0"
           style="fill:#000000;stroke-width:0" /><path
           id="path4351"
           d="m 1408.3,353.07 0,0 0.1,0 0.1,0 0.2,0 0.1,0.01 0,0 0.1,0.01 0.1,0.01 0,0.01 0.1,0.01 0.1,0.01 0,0.02 0.1,0.02 0.1,0.02 0,0.03 0.1,0.02 0,0.04 0.1,0.03 0,0.04 0.1,0.04 0,0.05 0,0.02 0.1,0.03 0,0.02 0,0.03 0,0.03 0,0.03 0,0.03 0.1,0.04 0,0.03 0,0.04 0,0.03 0,0.04 0,0.04 0,0.04 0,0.04 0,0.05 0,0.04 0,0.05 c 0,1 -0.9,1 -1.7,1 h -29.7 c -0.8,0 -1.7,0 -1.7,-1 0,-1 0.9,-1 1.6,-1 z"
           inkscape:connector-curvature="0"
           style="fill:#000000;stroke-width:0" /><path
           id="path4353"
           d="m 1434.5,382.02 0,0.17 0,0.16 0,0.16 0,0.08 0,0.08 0,0.08 -0.1,0.08 0,0.07 0,0.07 0,0.08 0,0.06 0,0.07 0,0.06 -0.1,0.07 0,0.05 0,0.06 -0.1,0.05 0,0.05 0,0.05 -0.1,0.04 0,0.04 -0.1,0.02 0,0.01 0,0.02 -0.1,0.01 0,0.02 0,0.01 -0.1,0.01 0,0.01 0,0.01 -0.1,0.01 0,0.01 0,0 -0.1,0.01 0,0 -0.1,0 0,0 c -1,0 -1,-0.89 -1,-1.78 v -46.23 c 0,-0.91 0,-1.8 1,-1.8 1,0 1,0.89 1,1.8 z"
           inkscape:connector-curvature="0"
           style="fill:#000000;stroke-width:0" /><path
           id="path4355"
           d="m 1464.3,376.08 0,-0.06 -0.1,-0.07 -0.1,-0.07 -0.1,-0.07 0,-0.08 -0.1,-0.08 -0.1,-0.09 -0.1,-0.08 -0.1,-0.09 -0.1,-0.09 -0.2,-0.19 -0.2,-0.2 -0.2,-0.2 -0.1,-0.11 -0.1,-0.1 -0.1,-0.1 0,-0.1 -0.1,-0.11 -0.1,-0.1 -0.1,-0.1 0,-0.1 -0.1,-0.1 0,-0.1 -0.1,-0.09 0,-0.1 -0.1,-0.09 0,-0.09 0,-0.09 0,-0.09 c 0,-0.5 0.5,-1 1,-1 0.4,0 0.7,0.36 0.9,0.66 0.7,0.75 1.8,2.14 4,3.24 0.3,0.2 0.8,0.45 0.8,1.04 0,0.5 -0.3,0.75 -0.7,1 -1.1,0.75 -1.6,1.64 -2,2.83 -0.1,0.45 -0.3,1.11 -1,1.11 -0.7,0 -1,-0.66 -1,-1.05 0,-0.25 0.4,-1.84 1.2,-2.89 h -16.8 c -0.8,0 -1.7,0 -1.7,-1 0,-1 0.9,-1 1.7,-1 z"
           inkscape:connector-curvature="0"
           style="fill:#000000;stroke-width:0" /><path
           id="path4357"
           d="m 1460.1,365.38 -0.2,0 -0.1,0 -0.2,-0.01 -0.1,0 -0.1,-0.01 -0.2,-0.02 0,-0.01 -0.1,-0.01 -0.1,-0.01 0,-0.02 -0.1,-0.02 -0.1,-0.02 -0.1,-0.02 0,-0.02 -0.1,-0.03 -0.1,-0.03 0,-0.03 -0.1,-0.04 -0.1,-0.04 0,-0.04 -0.1,-0.04 -0.1,-0.05 0,-0.05 -0.1,-0.06 -0.1,-0.06 0,-0.06 c -0.8,-0.75 -0.9,-1.6 -0.9,-1.94 0,-1.2 0.9,-1.75 1.8,-1.75 1.5,0 2.8,1.2 2.8,3.19 0,2.43 -2.3,4.28 -5.9,4.28 -6.7,0 -13.3,-7.13 -13.3,-14.14 0,-4.49 2.9,-8.43 8.1,-8.43 7.1,0 11.3,5.29 11.3,5.88 0,0.3 -0.3,0.66 -0.6,0.66 -0.3,0 -0.4,-0.11 -0.7,-0.5 -3.9,-4.94 -9.3,-4.94 -9.9,-4.94 -3.2,0 -4.5,2.44 -4.5,5.44 0,2.03 1,6.87 2.7,9.95 1.5,2.84 4.3,4.98 7,4.98 1.7,0 3.6,-0.64 4.3,-1.98 z"
           inkscape:connector-curvature="0"
           style="fill:#000000;stroke-width:0" /><path
           id="path4359"
           d="m 1469.9,382.02 0,0.17 0,0.16 0,0.16 0,0.08 0,0.08 -0.1,0.08 0,0.08 0,0.07 0,0.07 0,0.08 0,0.06 0,0.07 -0.1,0.06 0,0.07 0,0.05 0,0.06 -0.1,0.05 0,0.05 -0.1,0.05 0,0.04 -0.1,0.04 0,0.02 0,0.01 0,0.02 -0.1,0.01 0,0.02 0,0.01 -0.1,0.01 0,0.01 0,0.01 -0.1,0.01 0,0.01 -0.1,0 0,0.01 0,0 -0.1,0 0,0 c -1,0 -1,-0.89 -1,-1.78 v -46.23 c 0,-0.91 0,-1.8 1,-1.8 1,0 1,0.89 1,1.8 z"
           inkscape:connector-curvature="0"
           style="fill:#000000;stroke-width:0" /><path
           id="path4361"
           d="m 1493.4,373.3 h -1.2 c -0.1,-0.76 -0.5,-2.82 -0.9,-3.17 -0.3,-0.2 -3,-0.2 -3.5,-0.2 h -6.4 c 3.7,3.23 4.9,4.2 7,5.84 2.5,2.07 5,4.22 5,7.53 0,4.22 -3.7,6.8 -8.2,6.8 -4.3,0 -7.3,-3.03 -7.3,-6.23 0,-1.78 1.5,-1.96 1.9,-1.96 0.8,0 1.9,0.6 1.9,1.85 0,0.62 -0.3,1.84 -2.1,1.84 1.1,2.47 3.4,3.24 5.1,3.24 3.5,0 5.3,-2.71 5.3,-5.54 0,-3.03 -2.2,-5.43 -3.3,-6.68 l -8.4,-8.3 c -0.4,-0.31 -0.4,-0.39 -0.4,-1.36 h 14.4 z"
           inkscape:connector-curvature="0"
           style="fill:#000000;stroke-width:0" /></g>    </g>
  </g>
</svg>
