<?xml version="1.0" encoding="UTF-8" standalone="no"?>
<!-- Created with Inkscape (http://www.inkscape.org/) -->

<svg
   xmlns:dc="http://purl.org/dc/elements/1.1/"
   xmlns:cc="http://creativecommons.org/ns#"
   xmlns:rdf="http://www.w3.org/1999/02/22-rdf-syntax-ns#"
   xmlns:svg="http://www.w3.org/2000/svg"
   xmlns="http://www.w3.org/2000/svg"
   xmlns:sodipodi="http://sodipodi.sourceforge.net/DTD/sodipodi-0.dtd"
   xmlns:inkscape="http://www.inkscape.org/namespaces/inkscape"
   width="908.25629"
   height="812.30426"
   id="svg2"
   version="1.1"
   inkscape:version="0.48.5 r10040"
   sodipodi:docname="equilibrium-onebound.svg">
  <sodipodi:namedview
     id="base"
     pagecolor="#ffffff"
     bordercolor="#666666"
     borderopacity="1.0"
     inkscape:pageopacity="0.0"
     inkscape:pageshadow="2"
     inkscape:zoom="0.85921835"
     inkscape:cx="627.31435"
     inkscape:cy="406.15215"
     inkscape:document-units="px"
     inkscape:current-layer="layer1"
     showgrid="false"
     inkscape:window-width="1198"
     inkscape:window-height="983"
     inkscape:window-x="1573"
     inkscape:window-y="804"
     inkscape:window-maximized="0"
     showguides="true"
     inkscape:guide-bbox="true"
     fit-margin-top="0"
     fit-margin-left="0"
     fit-margin-right="0"
     fit-margin-bottom="0" />
  <defs
     id="defs4" />
  <metadata
     id="metadata7">
    <rdf:RDF>
      <cc:Work
         rdf:about="">
        <dc:format>image/svg+xml</dc:format>
        <dc:type
           rdf:resource="http://purl.org/dc/dcmitype/StillImage" />
        <dc:title />
      </cc:Work>
    </rdf:RDF>
  </metadata>
  <g
     inkscape:label="Layer 1"
     inkscape:groupmode="layer"
     id="layer1"
     transform="translate(-64.321327,-94.219324)">
    <path
       sodipodi:type="arc"
       style="fill:#aeaae5;fill-opacity:1;stroke:#000000;stroke-width:2;stroke-linecap:round;stroke-linejoin:round;stroke-miterlimit:4;stroke-opacity:1;stroke-dasharray:none;stroke-dashoffset:0"
       id="path3006"
       sodipodi:cx="368.57144"
       sodipodi:cy="120.93361"
       sodipodi:rx="25.714285"
       sodipodi:ry="25.714285"
       d="m 394.28573,120.93361 c 0,14.20161 -11.51268,25.71428 -25.71429,25.71428 -14.20161,0 -25.71428,-11.51267 -25.71428,-25.71428 0,-14.20161 11.51267,-25.714286 25.71428,-25.714286 14.20161,0 25.71429,11.512676 25.71429,25.714286 z" />
    <path
       sodipodi:type="arc"
       style="fill:#aeaae5;fill-opacity:1;stroke:#000000;stroke-width:2;stroke-linecap:round;stroke-linejoin:round;stroke-miterlimit:4;stroke-opacity:1;stroke-dasharray:none;stroke-dashoffset:0"
       id="path3776"
       sodipodi:cx="162.85715"
       sodipodi:cy="380.93362"
       sodipodi:rx="28.571428"
       sodipodi:ry="28.571428"
       d="m 191.42858,380.93362 c 0,15.77957 -12.79187,28.57143 -28.57143,28.57143 -15.77957,0 -28.57143,-12.79186 -28.57143,-28.57143 0,-15.77956 12.79186,-28.57142 28.57143,-28.57142 15.77956,0 28.57143,12.79186 28.57143,28.57142 z"
       transform="translate(281.29386,101.16709)" />
    <path
       sodipodi:type="arc"
       style="fill:#aeaae5;fill-opacity:1;stroke:#000000;stroke-width:2;stroke-linecap:round;stroke-linejoin:round;stroke-miterlimit:4;stroke-opacity:1;stroke-dasharray:none;stroke-dashoffset:0"
       id="path3778"
       sodipodi:cx="222.85715"
       sodipodi:cy="820.93359"
       sodipodi:rx="28.571428"
       sodipodi:ry="28.571428"
       d="m 251.42858,820.93359 c 0,15.77957 -12.79187,28.57143 -28.57143,28.57143 -15.77957,0 -28.57143,-12.79186 -28.57143,-28.57143 0,-15.77956 12.79186,-28.57142 28.57143,-28.57142 15.77956,0 28.57143,12.79186 28.57143,28.57142 z" />
    <path
       d="m 191.42858,380.93362 c 0,15.77957 -12.79187,28.57143 -28.57143,28.57143 -15.77957,0 -28.57143,-12.79186 -28.57143,-28.57143 0,-15.77956 12.79186,-28.57142 28.57143,-28.57142 15.77956,0 28.57143,12.79186 28.57143,28.57142 z"
       sodipodi:ry="28.571428"
       sodipodi:rx="28.571428"
       sodipodi:cy="380.93362"
       sodipodi:cx="162.85715"
       id="path3780"
       style="fill:#aeaae5;fill-opacity:1;stroke:#000000;stroke-width:2;stroke-linecap:round;stroke-linejoin:round;stroke-miterlimit:4;stroke-opacity:1;stroke-dasharray:none;stroke-dashoffset:0"
       sodipodi:type="arc"
       transform="translate(528.20225,-12.882109)" />
    <path
       d="m 251.42858,820.93359 c 0,15.77957 -12.79187,28.57143 -28.57143,28.57143 -15.77957,0 -28.57143,-12.79186 -28.57143,-28.57143 0,-15.77956 12.79186,-28.57142 28.57143,-28.57142 15.77956,0 28.57143,12.79186 28.57143,28.57142 z"
       sodipodi:ry="28.571428"
       sodipodi:rx="28.571428"
       sodipodi:cy="820.93359"
       sodipodi:cx="222.85715"
       id="path3782"
       style="fill:#aeaae5;fill-opacity:1;stroke:#000000;stroke-width:2;stroke-linecap:round;stroke-linejoin:round;stroke-miterlimit:4;stroke-opacity:1;stroke-dasharray:none;stroke-dashoffset:0"
       sodipodi:type="arc"
       transform="translate(596.06948,-147.08935)" />
    <path
       style="fill:none;stroke:#000000;stroke-width:1px;stroke-linecap:butt;stroke-linejoin:miter;stroke-opacity:1"
       d="M 428.52592,506.02498 238.48223,797.00933"
       id="path3784"
       inkscape:connector-type="polyline"
       inkscape:connector-curvature="0"
       inkscape:connection-end-point="d4"
       inkscape:connection-end="#path3778"
       inkscape:connection-start-point="d4"
       inkscape:connection-start="#path3776" />
    <path
       style="fill:none;stroke:#000000;stroke-width:1px;stroke-linecap:butt;stroke-linejoin:miter;stroke-opacity:1"
       d="M 438.2976,454.12942 373.83951,146.10777"
       id="path3786"
       inkscape:connector-type="polyline"
       inkscape:connector-curvature="0"
       inkscape:connection-start="#path3776"
       inkscape:connection-start-point="d4"
       inkscape:connection-end="#path3006"
       inkscape:connection-end-point="d4" />
    <path
       style="fill:none;stroke:#000000;stroke-width:1px;stroke-linecap:butt;stroke-linejoin:miter;stroke-opacity:1"
       d="M 668.37961,350.67232 388.98325,136.57489"
       id="path3788"
       inkscape:connector-type="polyline"
       inkscape:connector-curvature="0"
       inkscape:connection-end-point="d4"
       inkscape:connection-end="#path3006"
       inkscape:connection-start-point="d4"
       inkscape:connection-start="#path3780" />
    <path
       style="fill:none;stroke:#000000;stroke-width:1px;stroke-linecap:butt;stroke-linejoin:miter;stroke-opacity:1"
       d="M 702.08458,394.4181 807.90144,647.47766"
       id="path3790"
       inkscape:connector-type="polyline"
       inkscape:connector-curvature="0"
       inkscape:connection-start="#path3780"
       inkscape:connection-start-point="d4"
       inkscape:connection-end="#path3782"
       inkscape:connection-end-point="d4" />
    <path
       sodipodi:type="arc"
       style="fill:none;stroke:#000000;stroke-width:2;stroke-linecap:round;stroke-linejoin:round;stroke-miterlimit:4;stroke-opacity:1;stroke-dasharray:none;stroke-dashoffset:0"
       id="path3796"
       sodipodi:cx="445.38196"
       sodipodi:cy="479.90448"
       sodipodi:rx="81.42717"
       sodipodi:ry="81.42717"
       d="m 427.67909,400.42497 c 43.89532,-9.77702 87.40535,17.88132 97.18238,61.77664 9.77702,43.89532 -17.88132,87.40535 -61.77664,97.18238 -21.34249,4.75372 -43.70006,0.72417 -62.03998,-11.1816"
       sodipodi:start="4.4932314"
       sodipodi:end="8.4297747"
       sodipodi:open="true" />
    <path
       sodipodi:end="7.5488049"
       sodipodi:start="3.7876526"
       d="m 380.36545,430.88165 c 27.07456,-35.90762 78.13171,-43.06824 114.03934,-15.99368 35.90762,27.07456 43.06824,78.13171 15.99368,114.03934 -10.20594,13.53562 -24.38194,23.54844 -40.55076,28.64191"
       sodipodi:ry="81.42717"
       sodipodi:rx="81.42717"
       sodipodi:cy="479.90448"
       sodipodi:cx="445.38196"
       id="path3798"
       style="fill:none;stroke:#000000;stroke-width:2;stroke-linecap:round;stroke-linejoin:round;stroke-miterlimit:4;stroke-opacity:1;stroke-dasharray:none;stroke-dashoffset:0"
       sodipodi:type="arc"
       transform="translate(256.8015,-105.25477)"
       sodipodi:open="true" />
    <path
       style="fill:#e3e3e3;fill-opacity:1;stroke:#000000;stroke-width:1px;stroke-linecap:butt;stroke-linejoin:miter;stroke-opacity:1"
       d="m -111.97203,741.48077 890.7639,0 c 0,0 -12.62467,13.73735 -12.03868,35.31111 0.50267,18.50618 3.17746,35.01235 3.17746,35.01235 l -888.97827,0 c 0,0 -10.82823,-5.63331 -9.26186,-33.60988 1.63253,-29.1581 16.33745,-36.71358 16.33745,-36.71358 z"
       id="path3005"
       inkscape:connector-curvature="0"
       transform="translate(193.28572,94.219324)"
       sodipodi:nodetypes="ccsccsc" />
    <path
       transform="translate(-219.29328,339.1692)"
       sodipodi:type="arc"
       style="fill:none;stroke:#000000;stroke-width:2;stroke-linecap:round;stroke-linejoin:round;stroke-miterlimit:4;stroke-opacity:1;stroke-dasharray:none;stroke-dashoffset:0"
       id="path3796-9"
       sodipodi:cx="445.38196"
       sodipodi:cy="479.90448"
       sodipodi:rx="81.42717"
       sodipodi:ry="81.42717"
       d="m 488.93743,411.10546 c 29.22368,18.50101 43.5706,53.4451 35.77837,87.14365"
       sodipodi:start="5.2767795"
       sodipodi:end="6.5104247"
       sodipodi:open="true" />
    <path
       sodipodi:end="1.6213167"
       sodipodi:start="0.76398692"
       d="m 504.17918,536.23627 c -16.34943,17.06499 -39.30638,26.18493 -62.9092,24.99149"
       sodipodi:ry="81.42717"
       sodipodi:rx="81.42717"
       sodipodi:cy="479.90448"
       sodipodi:cx="445.38196"
       id="path3798-7"
       style="fill:none;stroke:#000000;stroke-width:2;stroke-linecap:round;stroke-linejoin:round;stroke-miterlimit:4;stroke-opacity:1;stroke-dasharray:none;stroke-dashoffset:0"
       sodipodi:type="arc"
       transform="translate(-55.31027,-354.19827)"
       sodipodi:open="true" />
    <text
       xml:space="preserve"
       style="font-size:144px;font-style:normal;font-variant:normal;font-weight:normal;font-stretch:normal;text-align:start;line-height:125%;letter-spacing:0px;word-spacing:0px;writing-mode:lr-tb;text-anchor:start;fill:#000000;fill-opacity:1;stroke:none;font-family:Droid Serif;-inkscape-font-specification:Sans"
       x="64.32132"
       y="841.59222"
       id="text3019"
       sodipodi:linespacing="125%"><tspan
         sodipodi:role="line"
         id="tspan3021"
         x="64.32132"
         y="841.59222">+</tspan></text>
    <text
       xml:space="preserve"
       style="font-size:144px;font-style:normal;font-variant:normal;font-weight:normal;font-stretch:normal;text-align:start;line-height:125%;letter-spacing:0px;word-spacing:0px;writing-mode:lr-tb;text-anchor:start;fill:#000000;fill-opacity:1;stroke:none;font-family:Droid Serif;-inkscape-font-specification:Sans"
       x="891.20203"
       y="833.64148"
       id="text3023"
       sodipodi:linespacing="125%"><tspan
         sodipodi:role="line"
         id="tspan3025"
         x="891.20203"
         y="833.64148">-</tspan></text>
    <g
       id="g3065"
       transform="translate(-884.52488,510.9295)">
      <g
         id="content"
         transform="matrix(1.1604347,0,0,-1.1604347,-203.07606,681.19222)"
         xml:space="preserve"
         stroke-miterlimit="10.433"
         font-style="normal"
         font-variant="normal"
         font-weight="normal"
         font-stretch="normal"
         font-size-adjust="none"
         letter-spacing="normal"
         word-spacing="normal"
         style="font-style:normal;font-variant:normal;font-weight:normal;font-stretch:normal;letter-spacing:normal;word-spacing:normal;text-anchor:start;fill:none;stroke:#000000;stroke-linecap:butt;stroke-linejoin:miter;stroke-miterlimit:10.43299961;stroke-opacity:1;stroke-dasharray:none;stroke-dashoffset:0"><path
           d="m 1230,371.35 0,0.32 0,0.34 0,0.35 -0.1,0.37 0,0.39 0,0.4 -0.1,0.4 0,0.42 -0.1,0.42 -0.1,0.42 -0.1,0.42 -0.1,0.43 -0.1,0.42 -0.1,0.42 -0.1,0.42 -0.2,0.4 -0.2,0.4 -0.1,0.38 -0.2,0.38 -0.3,0.35 -0.2,0.34 -0.3,0.32 -0.2,0.3 -0.3,0.27 -0.3,0.25 -0.2,0.12 -0.2,0.11 -0.1,0.1 -0.2,0.09 -0.2,0.08 -0.2,0.08 -0.2,0.07 -0.2,0.06 -0.2,0.05 -0.2,0.05 -0.2,0.03 -0.2,0.03 -0.3,0.01 -0.2,0.01 0,-1.1 c 2.4,0 2.7,-3.18 2.7,-6.03 0,-2.44 -0.4,-4.98 -1.6,-9.92 h -10.4 c 0.8,3.2 1.8,7.19 3.8,10.72 1.4,2.44 3.2,5.23 5.5,5.23 l 0,1.1 c -6.9,0 -14.6,-14.05 -14.6,-25.46 0,-4.68 1.4,-10.22 6,-10.22 v 1.1 c -1.7,0 -2.7,1.45 -2.7,6.08 0,2.09 0.3,4.98 1.6,9.86 h 10.4 c -0.6,-2.29 -1.6,-6.52 -3.5,-10.11 -1.8,-3.39 -3.7,-5.83 -5.8,-5.83 v -1.1 c 7,0 14.6,14.3 14.6,25.46 z"
           id="path3068"
           inkscape:connector-curvature="0"
           style="fill:#000000;stroke-width:0" /><path
           d="m 1240,378.26 0.1,0 0.1,0 0.1,0 0.1,0 0.1,0.01 0.2,0 0.1,0 0.2,0.01 0.2,0.01 0.1,0.01 0.2,0.01 0.2,0.01 0.2,0.01 0.1,0.01 0.4,0.04 0.4,0.04 0.4,0.05 0.4,0.06 0.4,0.07 0.4,0.08 0.2,0.04 0.2,0.05 0.2,0.05 0.2,0.06 0.2,0.05 0.2,0.06 c 2.6,0.91 3,2.58 3,3.63 0,1.92 -1.9,3.06 -4.3,3.06 v -0.97 c 1.5,0 2.8,-0.76 2.8,-2.09 0,-3.38 -5.9,-3.38 -7.3,-3.38 h -1.7 c 1.4,5.05 5.2,5.47 6.2,5.47 v 0.97 c -4.2,0 -9.8,-3.2 -9.8,-9.16 0,-3.51 2.2,-6.54 6.3,-6.54 5.9,0 8.6,3.43 8.6,3.93 0,0.21 -0.3,0.6 -0.6,0.6 -0.2,0 -0.3,-0.08 -0.6,-0.36 -2.7,-3.2 -6.7,-3.2 -7.4,-3.2 -2.1,0 -3.5,1.39 -3.5,4.21 0,0.49 0,1.19 0.5,3.1 z"
           id="path3070"
           inkscape:connector-curvature="0"
           style="fill:#000000;stroke-width:0" /><path
           d="m 1268.7,384.68 0,0.03 0,0.03 0.1,0.02 0,0.04 0,0.03 0,0.03 0,0.03 0,0.04 0,0.03 0,0.03 0,0.04 0,0.03 0,0.04 0,0.03 0,0.03 0,0.04 c 0,0.21 -0.1,0.48 -0.4,0.48 -0.4,0 -1.8,-1.17 -2.6,-2.3 -0.3,0.71 -1.5,2.3 -3.7,2.3 v -0.97 c 2.5,0 3.1,-2.69 3.1,-3.03 0,-0.17 -0.1,-0.39 -0.1,-0.52 l -1.6,-6.45 c -0.2,-0.59 -0.2,-0.66 -0.7,-1.22 -1.3,-1.61 -3,-2.54 -4.3,-2.54 -1.3,0 -2.6,0.9 -2.6,3.37 0,1.86 1,5.69 1.9,7.08 1.6,2.8 3.3,3.31 4.3,3.31 v 0.97 c -4.4,0 -9,-4.91 -9,-9.92 0,-3.38 2.3,-5.78 5.3,-5.78 2,0 3.6,1.25 4.4,1.9 0,-0.09 -1.1,-4.48 -1.3,-5.08 -0.5,-1.92 -0.5,-1.95 -2.7,-1.98 -0.4,0 -0.9,0 -0.9,-0.77 0,-0.21 0.2,-0.5 0.5,-0.5 1.2,0 2.5,0.15 3.7,0.15 1.2,0 2.6,-0.15 3.7,-0.15 0.3,0 0.7,0.11 0.7,0.77 0,0.5 -0.5,0.5 -0.9,0.5 -0.8,0 -1.7,0 -1.7,0.41 0,0.11 0,0.18 0.2,0.76 z"
           id="path3072"
           inkscape:connector-curvature="0"
           style="fill:#000000;stroke-width:0" /><path
           d="m 1239.9,354.46 0,0 0,0.01 0,0 0,0.01 0,0 0,0.01 0,0 0,0.01 0,0.01 0,0.01 0,0.01 0,0.02 0.1,0.02 0,0.02 0,0.02 0,0.02 0,0.02 0,0.03 0,0.02 0,0.05 0,0.04 0,0.03 0,0.02 0,0.02 0,0.02 0,0.02 0,0.02 0,0.02 0,0.01 0.1,0.01 0,0.01 0,0 0,0.01 0,0 0,0.01 0,0 0,0.01 0,0 0,0 0,0.01 0,0 c 0,0.19 -0.2,0.5 -0.6,0.5 -0.7,0 -3.6,-0.28 -4.4,-0.36 -0.3,-0.03 -0.8,-0.06 -0.8,-0.8 0,-0.48 0.5,-0.48 0.9,-0.48 1.6,0 1.6,-0.25 1.6,-0.53 0,-0.24 -0.3,-1.63 -0.5,-2.44 l -0.8,-3.2 c -0.3,-1.19 -2.2,-8.82 -2.3,-9.27 -0.2,-0.84 -0.2,-1.3 -0.2,-1.7 0,-3.53 2.2,-5.75 5.1,-5.75 l 0.1,0.97 c -1.7,0 -2.7,1.5 -2.7,3.56 0,1.28 0.3,2.47 1.3,6.4 0.2,0.66 0.2,0.74 0.9,1.5 1.3,1.54 2.9,2.3 4.1,2.3 1.4,0 2.5,-1.01 2.5,-3.37 0,-1.44 -0.7,-4.99 -1.8,-7.02 -0.8,-1.7 -2.6,-3.37 -4.3,-3.37 h 0 l -0.1,-0.97 c 4.4,0 9,4.73 9,9.89 0,4.08 -2.8,5.81 -5.2,5.81 -1.8,0 -3.3,-1 -4.4,-1.91 z"
           id="path3074"
           inkscape:connector-curvature="0"
           style="fill:#000000;stroke-width:0" /></g>    </g>
    <g
       id="g3163"
       transform="translate(-792.58084,-31.42391)">
      <g
         word-spacing="normal"
         letter-spacing="normal"
         font-size-adjust="none"
         font-stretch="normal"
         font-weight="normal"
         font-variant="normal"
         font-style="normal"
         stroke-miterlimit="10.433"
         xml:space="preserve"
         transform="matrix(1.1604347,0,0,-1.1604347,-203.07606,681.19222)"
         id="g3165"
         style="font-style:normal;font-variant:normal;font-weight:normal;font-stretch:normal;letter-spacing:normal;word-spacing:normal;text-anchor:start;fill:none;stroke:#000000;stroke-linecap:butt;stroke-linejoin:miter;stroke-miterlimit:10.43299961;stroke-opacity:1;stroke-dasharray:none;stroke-dashoffset:0"><path
           id="path3167"
           d="m 1230,371.35 0,0.32 0,0.34 0,0.35 -0.1,0.37 0,0.39 0,0.4 -0.1,0.4 0,0.42 -0.1,0.42 -0.1,0.42 -0.1,0.42 -0.1,0.43 -0.1,0.42 -0.1,0.42 -0.1,0.42 -0.2,0.4 -0.2,0.4 -0.1,0.38 -0.2,0.38 -0.3,0.35 -0.2,0.34 -0.3,0.32 -0.2,0.3 -0.3,0.27 -0.3,0.25 -0.2,0.12 -0.2,0.11 -0.1,0.1 -0.2,0.09 -0.2,0.08 -0.2,0.08 -0.2,0.07 -0.2,0.06 -0.2,0.05 -0.2,0.05 -0.2,0.03 -0.2,0.03 -0.3,0.01 -0.2,0.01 0,-1.1 c 2.4,0 2.7,-3.18 2.7,-6.03 0,-2.44 -0.4,-4.98 -1.6,-9.92 h -10.4 c 0.8,3.2 1.8,7.19 3.8,10.72 1.4,2.44 3.2,5.23 5.5,5.23 l 0,1.1 c -6.9,0 -14.6,-14.05 -14.6,-25.46 0,-4.68 1.4,-10.22 6,-10.22 v 1.1 c -1.7,0 -2.7,1.45 -2.7,6.08 0,2.09 0.3,4.98 1.6,9.86 h 10.4 c -0.6,-2.29 -1.6,-6.52 -3.5,-10.11 -1.8,-3.39 -3.7,-5.83 -5.8,-5.83 v -1.1 c 7,0 14.6,14.3 14.6,25.46 z"
           inkscape:connector-curvature="0"
           style="fill:#000000;stroke-width:0" /><path
           id="path3169"
           d="m 1240,378.26 0.1,0 0.1,0 0.1,0 0.1,0 0.1,0.01 0.2,0 0.1,0 0.2,0.01 0.2,0.01 0.1,0.01 0.2,0.01 0.2,0.01 0.2,0.01 0.1,0.01 0.4,0.04 0.4,0.04 0.4,0.05 0.4,0.06 0.4,0.07 0.4,0.08 0.2,0.04 0.2,0.05 0.2,0.05 0.2,0.06 0.2,0.05 0.2,0.06 c 2.6,0.91 3,2.58 3,3.63 0,1.92 -1.9,3.06 -4.3,3.06 v -0.97 c 1.5,0 2.8,-0.76 2.8,-2.09 0,-3.38 -5.9,-3.38 -7.3,-3.38 h -1.7 c 1.4,5.05 5.2,5.47 6.2,5.47 v 0.97 c -4.2,0 -9.8,-3.2 -9.8,-9.16 0,-3.51 2.2,-6.54 6.3,-6.54 5.9,0 8.6,3.43 8.6,3.93 0,0.21 -0.3,0.6 -0.6,0.6 -0.2,0 -0.3,-0.08 -0.6,-0.36 -2.7,-3.2 -6.7,-3.2 -7.4,-3.2 -2.1,0 -3.5,1.39 -3.5,4.21 0,0.49 0,1.19 0.5,3.1 z"
           inkscape:connector-curvature="0"
           style="fill:#000000;stroke-width:0" /><path
           id="path3171"
           d="m 1268.7,384.68 0,0.03 0,0.03 0.1,0.02 0,0.04 0,0.03 0,0.03 0,0.03 0,0.04 0,0.03 0,0.03 0,0.04 0,0.03 0,0.04 0,0.03 0,0.03 0,0.04 c 0,0.21 -0.1,0.48 -0.4,0.48 -0.4,0 -1.8,-1.17 -2.6,-2.3 -0.3,0.71 -1.5,2.3 -3.7,2.3 v -0.97 c 2.5,0 3.1,-2.69 3.1,-3.03 0,-0.17 -0.1,-0.39 -0.1,-0.52 l -1.6,-6.45 c -0.2,-0.59 -0.2,-0.66 -0.7,-1.22 -1.3,-1.61 -3,-2.54 -4.3,-2.54 -1.3,0 -2.6,0.9 -2.6,3.37 0,1.86 1,5.69 1.9,7.08 1.6,2.8 3.3,3.31 4.3,3.31 v 0.97 c -4.4,0 -9,-4.91 -9,-9.92 0,-3.38 2.3,-5.78 5.3,-5.78 2,0 3.6,1.25 4.4,1.9 0,-0.09 -1.1,-4.48 -1.3,-5.08 -0.5,-1.92 -0.5,-1.95 -2.7,-1.98 -0.4,0 -0.9,0 -0.9,-0.77 0,-0.21 0.2,-0.5 0.5,-0.5 1.2,0 2.5,0.15 3.7,0.15 1.2,0 2.6,-0.15 3.7,-0.15 0.3,0 0.7,0.11 0.7,0.77 0,0.5 -0.5,0.5 -0.9,0.5 -0.8,0 -1.7,0 -1.7,0.41 0,0.11 0,0.18 0.2,0.76 z"
           inkscape:connector-curvature="0"
           style="fill:#000000;stroke-width:0" /><path
           id="path3173"
           d="m 1239.3,347.96 h 3.5 c 0.7,0 1.1,0 1.1,0.77 0,0.48 -0.4,0.48 -1,0.48 h -3.3 l 1.3,5.16 c 0,0.17 0.1,0.34 0.1,0.49 0,0.64 -0.5,1.12 -1.2,1.12 -0.9,0 -1.4,-0.59 -1.6,-1.5 -0.3,-0.87 0.2,0.8 -1.4,-5.27 h -3.5 c -0.7,0 -1.1,0 -1.1,-0.76 0,-0.49 0.4,-0.49 1,-0.49 h 3.3 l -2,-8.21 c -0.2,-0.88 -0.6,-2.13 -0.6,-2.58 0,-2.06 1.8,-3.31 3.8,-3.31 3.9,0 6.1,4.87 6.1,5.32 0,0.46 -0.5,0.46 -0.6,0.46 -0.4,0 -0.5,-0.08 -0.7,-0.66 -1,-2.2 -2.8,-4.16 -4.7,-4.16 -0.7,0 -1.2,0.46 -1.2,1.71 0,0.36 0.1,1.09 0.2,1.43 z"
           inkscape:connector-curvature="0"
           style="fill:#000000;stroke-width:0" /></g>    </g>
    <g
       id="g3273"
       transform="translate(-658.73826,297.94522)">
      <g
         id="g3275"
         transform="matrix(1.1604347,0,0,-1.1604347,-203.07606,681.19222)"
         xml:space="preserve"
         stroke-miterlimit="10.433"
         font-style="normal"
         font-variant="normal"
         font-weight="normal"
         font-stretch="normal"
         font-size-adjust="none"
         letter-spacing="normal"
         word-spacing="normal"
         style="font-style:normal;font-variant:normal;font-weight:normal;font-stretch:normal;letter-spacing:normal;word-spacing:normal;text-anchor:start;fill:none;stroke:#000000;stroke-linecap:butt;stroke-linejoin:miter;stroke-miterlimit:10.43299961;stroke-opacity:1;stroke-dasharray:none;stroke-dashoffset:0"><path
           d="m 1194.6,371.35 0,0.32 0,0.34 0,0.35 -0.1,0.37 0,0.39 0,0.4 -0.1,0.4 0,0.42 -0.1,0.42 -0.1,0.42 -0.1,0.42 -0.1,0.43 -0.1,0.42 -0.1,0.42 -0.1,0.42 -0.2,0.4 -0.2,0.4 -0.1,0.38 -0.2,0.38 -0.3,0.35 -0.2,0.34 -0.3,0.32 -0.2,0.3 -0.3,0.27 -0.3,0.25 -0.2,0.12 -0.2,0.11 -0.1,0.1 -0.2,0.09 -0.2,0.08 -0.2,0.08 -0.2,0.07 -0.2,0.06 -0.2,0.05 -0.2,0.05 -0.2,0.03 -0.2,0.03 -0.3,0.01 -0.2,0.01 0,-1.1 c 2.4,0 2.7,-3.18 2.7,-6.03 0,-2.44 -0.4,-4.98 -1.6,-9.92 h -10.4 c 0.8,3.2 1.8,7.19 3.8,10.72 1.4,2.44 3.2,5.23 5.5,5.23 l 0,1.1 c -6.9,0 -14.6,-14.05 -14.6,-25.46 0,-4.68 1.4,-10.22 6,-10.22 v 1.1 c -1.7,0 -2.7,1.45 -2.7,6.08 0,2.09 0.3,4.98 1.6,9.86 h 10.4 c -0.6,-2.29 -1.6,-6.52 -3.5,-10.11 -1.8,-3.39 -3.7,-5.83 -5.8,-5.83 v -1.1 c 7,0 14.6,14.3 14.6,25.46 z"
           id="path3277"
           inkscape:connector-curvature="0"
           style="fill:#000000;stroke-width:0" /><path
           d="m 1204.6,374.9 0.1,0 0.1,0 0.1,0 0.1,0 0.1,0.01 0.2,0 0.1,0 0.2,0.01 0.2,0.01 0.1,0.01 0.2,0.01 0.2,0.01 0.2,0.01 0.1,0.02 0.4,0.03 0.4,0.04 0.4,0.05 0.4,0.06 0.4,0.07 0.4,0.08 0.2,0.05 0.2,0.04 0.2,0.05 0.2,0.06 0.2,0.05 0.2,0.06 c 2.6,0.91 3,2.58 3,3.63 0,1.92 -1.9,3.06 -4.3,3.06 v -0.97 c 1.5,0 2.9,-0.76 2.9,-2.09 0,-3.38 -5.9,-3.38 -7.4,-3.38 h -1.7 c 1.4,5.05 5.2,5.47 6.2,5.47 v 0.97 c -4.1,0 -9.8,-3.2 -9.8,-9.16 0,-3.51 2.2,-6.54 6.3,-6.54 5.9,0 8.6,3.43 8.6,3.93 0,0.21 -0.3,0.6 -0.6,0.6 -0.2,0 -0.3,-0.08 -0.5,-0.36 -2.8,-3.2 -6.8,-3.2 -7.5,-3.2 -2.1,0 -3.5,1.39 -3.5,4.21 0,0.49 0,1.19 0.5,3.1 z"
           id="path3279"
           inkscape:connector-curvature="0"
           style="fill:#000000;stroke-width:0" /><path
           d="m 1233.3,381.32 0,0.03 0.1,0.03 0,0.03 0,0.03 0,0.03 0,0.03 0,0.03 0,0.04 0,0.03 0,0.03 0,0.04 0,0.03 0,0.04 0,0.03 0,0.03 0,0.04 c 0,0.21 -0.1,0.48 -0.4,0.48 -0.4,0 -1.8,-1.17 -2.6,-2.3 -0.3,0.71 -1.5,2.3 -3.7,2.3 v -0.97 c 2.5,0 3.1,-2.69 3.1,-3.03 0,-0.17 -0.1,-0.39 -0.1,-0.52 l -1.6,-6.45 c -0.2,-0.59 -0.2,-0.65 -0.7,-1.22 -1.3,-1.61 -3,-2.54 -4.3,-2.54 -1.3,0 -2.5,0.9 -2.5,3.37 0,1.86 1,5.69 1.8,7.08 1.6,2.8 3.3,3.31 4.3,3.31 v 0.97 c -4.4,0 -9,-4.91 -9,-9.92 0,-3.38 2.3,-5.78 5.3,-5.78 2,0 3.6,1.25 4.4,1.9 -0.1,-0.09 -1.1,-4.48 -1.3,-5.07 -0.5,-1.93 -0.5,-1.96 -2.7,-1.99 -0.4,0 -0.9,0 -0.9,-0.76 0,-0.22 0.2,-0.5 0.6,-0.5 1.1,0 2.4,0.14 3.6,0.14 1.2,0 2.6,-0.14 3.7,-0.14 0.3,0 0.7,0.1 0.7,0.76 0,0.5 -0.5,0.5 -0.9,0.5 -0.8,0 -1.7,0 -1.7,0.41 0,0.11 0,0.18 0.2,0.76 z"
           id="path3281"
           inkscape:connector-curvature="0"
           style="fill:#000000;stroke-width:0" /><path
           d="m 1242.4,367.52 0,-0.36 0,-0.37 0,-0.38 -0.1,-0.38 0,-0.2 -0.1,-0.19 0,-0.2 0,-0.19 -0.1,-0.2 0,-0.2 -0.1,-0.2 -0.1,-0.2 -0.1,-0.2 0,-0.21 -0.1,-0.2 -0.1,-0.21 -0.1,-0.2 -0.1,-0.21 -0.2,-0.2 -0.1,-0.21 -0.1,-0.21 -0.2,-0.2 -0.2,-0.21 -0.1,-0.21 -0.2,-0.21 -0.2,-0.21 -0.2,-0.2 -0.2,-0.21 c -0.2,-0.14 -0.3,-0.25 -0.3,-0.42 0,-0.25 0.3,-0.49 0.5,-0.49 0.5,0 3.5,2.78 3.5,6.92 0,2.18 -0.9,3.8 -2.5,3.8 -1.1,0 -2,-0.91 -2,-1.98 0,-1.11 0.8,-2.02 2.1,-2.02 0.8,0 1.3,0.56 1.4,0.56 z"
           id="path3283"
           inkscape:connector-curvature="0"
           style="fill:#000000;stroke-width:0" /><path
           d="m 1249.5,362.71 0,-0.09 0,-0.09 0,-0.08 -0.1,-0.08 0,-0.07 0,-0.07 0,-0.07 0,-0.06 -0.1,-0.06 0,-0.05 0,-0.06 -0.1,-0.05 0,-0.04 0,-0.05 -0.1,-0.04 0,-0.03 0,-0.04 -0.1,-0.03 0,-0.03 -0.1,-0.02 -0.1,-0.03 0,-0.02 -0.1,-0.02 -0.1,-0.01 0,-0.02 -0.1,0 0,-0.01 -0.1,0 0,-0.01 -0.1,0 0,-0.01 -0.1,0 0,0 -0.1,0 0,-0.01 -0.1,0 -0.1,0 0,0 -0.1,0 c -0.4,0 -0.9,0 -0.9,-0.73 0,-0.39 0.3,-0.53 0.5,-0.53 0.9,0 2,0.14 3,0.14 1.2,0 2.5,-0.14 3.6,-0.14 0.3,0 0.7,0.1 0.7,0.76 0,0.5 -0.5,0.5 -0.9,0.5 -0.8,0 -1.7,0 -1.7,0.41 0,0.18 0.3,1.09 0.4,1.61 0.4,1.84 0.9,3.73 1.3,5.18 0.4,-0.68 1.5,-2.04 3.6,-2.04 v 0.97 c -2.5,0 -3.1,2.68 -3.1,3.03 0,0.14 0,0.39 0.1,0.53 l 1.7,7 c 2,2.69 3.8,3.2 4.9,3.2 1.4,0 2.5,-1.01 2.5,-3.37 0,-1.44 -0.7,-4.99 -1.8,-7.02 -0.8,-1.7 -2.5,-3.37 -4.3,-3.37 v -0.97 c 4.2,0 8.9,4.7 8.9,9.89 0,4.08 -2.8,5.81 -5.2,5.81 -2.2,0 -4,-1.45 -4.9,-2.44 -0.6,1.99 -2.6,2.44 -3.6,2.44 -1.4,0 -2.2,-0.91 -2.8,-1.84 -0.7,-1.19 -1.2,-3.27 -1.2,-3.49 0,-0.45 0.4,-0.45 0.6,-0.45 0.4,0 0.5,0.11 0.7,1.05 0.5,2.03 1.2,3.76 2.6,3.76 0.9,0 1.1,-0.76 1.1,-1.7 0,-0.39 -0.1,-0.85 -0.1,-1.05 z"
           id="path3285"
           inkscape:connector-curvature="0"
           style="fill:#000000;stroke-width:0" /><path
           d="m 1275.6,373.99 0,0.01 0,0.02 0,0.02 0,0.03 0,0.02 0.1,0.04 0,0.03 0,0.04 0,0.04 0,0.05 0,0.04 0,0.05 0,0.06 0,0.05 0.1,0.12 0,0.13 0,0.13 0.1,0.14 0,0.15 0,0.15 0.1,0.15 0.1,0.32 0,0.31 0.1,0.15 0,0.15 0.1,0.14 0,0.14 0,0.14 0.1,0.12 0,0.12 0,0.05 0,0.05 0,0.05 0.1,0.05 0,0.04 0,0.04 0,0.04 0,0.03 0,0.03 0,0.03 0,0.02 0,0.02 0,0.01 0,0.01 c 0.1,0.28 1.1,2.02 2.2,2.86 0.4,0.27 1.4,0.97 2.9,0.97 0.3,0 1.2,-0.03 1.9,-0.48 -1.2,-0.32 -1.6,-1.3 -1.6,-1.92 0,-0.77 0.6,-1.29 1.4,-1.29 0.8,0 2,0.66 2,2.13 0,1.81 -1.9,2.53 -3.7,2.53 -1.8,0 -3.4,-0.72 -4.9,-2.47 -0.6,2.13 -2.8,2.47 -3.6,2.47 -1.3,0 -2.2,-0.8 -2.7,-1.77 -0.8,-1.35 -1.3,-3.39 -1.3,-3.56 0,-0.45 0.5,-0.45 0.6,-0.45 0.5,0 0.5,0.11 0.7,1.05 0.5,2.12 1.2,3.76 2.6,3.76 0.9,0 1.1,-0.76 1.1,-1.7 0,-0.67 -0.3,-1.95 -0.5,-2.89 -0.3,-0.96 -0.6,-2.38 -0.8,-3.14 l -1.1,-4.47 c -0.1,-0.44 -0.4,-1.31 -0.4,-1.42 0,-0.77 0.7,-1.11 1.2,-1.11 0.6,0 1.3,0.31 1.5,1 0.1,0.22 0.5,1.75 0.7,2.62 z"
           id="path3287"
           inkscape:connector-curvature="0"
           style="fill:#000000;stroke-width:0" /><path
           d="m 1294.8,374.9 0.1,0 0.1,0 0.1,0 0.1,0 0.2,0.01 0.1,0 0.2,0 0.1,0.01 0.2,0.01 0.2,0.01 0.1,0.01 0.2,0.01 0.2,0.01 0.2,0.02 0.4,0.03 0.4,0.04 0.4,0.05 0.4,0.06 0.4,0.07 0.4,0.08 0.2,0.05 0.2,0.04 0.2,0.05 0.1,0.06 0.2,0.05 0.2,0.06 c 2.6,0.91 3.1,2.58 3.1,3.63 0,1.92 -1.9,3.06 -4.3,3.06 v -0.97 c 1.5,0 2.8,-0.76 2.8,-2.09 0,-3.38 -5.9,-3.38 -7.4,-3.38 h -1.7 c 1.4,5.05 5.3,5.47 6.3,5.47 v 0.97 c -4.2,0 -9.9,-3.2 -9.9,-9.16 0,-3.51 2.2,-6.54 6.3,-6.54 5.9,0 8.6,3.43 8.6,3.93 0,0.21 -0.3,0.6 -0.5,0.6 -0.3,0 -0.3,-0.08 -0.6,-0.36 -2.7,-3.2 -6.8,-3.2 -7.4,-3.2 -2.1,0 -3.5,1.39 -3.5,4.21 0,0.49 0,1.19 0.4,3.1 z"
           id="path3289"
           inkscape:connector-curvature="0"
           style="fill:#000000;stroke-width:0" /><path
           d="m 1210.4,336.91 0,-0.07 0,-0.07 0,-0.07 0,-0.08 0,-0.07 -0.1,-0.08 0,-0.16 0,-0.16 -0.1,-0.16 0,-0.16 0,-0.08 -0.1,-0.07 0,-0.08 0,-0.07 0,-0.07 0,-0.07 0,-0.07 -0.1,-0.06 0,-0.06 0,-0.06 0,-0.05 0,-0.05 0,-0.05 0,-0.04 0,-0.03 0,-0.03 0,-0.03 0,-0.02 c 0,-0.76 0.6,-1.11 1.1,-1.11 0.7,0 1.2,0.46 1.4,0.77 0.2,0.31 0.4,1.42 0.6,2.16 0.2,0.65 0.6,2.26 0.8,3.14 0.2,0.76 0.4,1.53 0.6,2.32 0.4,1.5 0.4,1.57 1.1,2.66 1.1,1.7 2.8,3.69 5.5,3.69 2,0 2.1,-1.61 2.1,-2.44 0,-2.09 -1.5,-5.95 -2.1,-7.42 -0.3,-0.99 -0.5,-1.3 -0.5,-1.89 0,-1.84 1.6,-2.99 3.3,-2.99 3.5,0 5,4.8 5,5.33 0,0.46 -0.4,0.46 -0.5,0.46 -0.5,0 -0.5,-0.21 -0.7,-0.6 -0.8,-2.78 -2.3,-4.22 -3.7,-4.22 -0.7,0 -0.8,0.49 -0.8,1.22 0,0.8 0.1,1.25 0.8,2.83 0.4,1.08 1.8,4.77 1.8,6.72 0,0.56 0,2.03 -1.3,3.03 -0.6,0.45 -1.6,0.94 -3.2,0.94 -3.1,0 -5.1,-2.05 -6.2,-3.52 -0.3,2.97 -2.8,3.52 -4.5,3.52 -2.9,0 -4.9,-1.77 -5.9,-3.16 -0.3,2.39 -2.3,3.16 -3.7,3.16 -1.5,0 -2.3,-1.08 -2.8,-1.88 -0.8,-1.28 -1.2,-3.28 -1.2,-3.45 0,-0.45 0.4,-0.45 0.6,-0.45 0.4,0 0.5,0.11 0.7,1.04 0.5,2.07 1.2,3.77 2.6,3.77 0.9,0 1.1,-0.77 1.1,-1.7 0,-0.68 -0.3,-1.96 -0.6,-2.89 -0.2,-0.96 -0.5,-2.38 -0.7,-3.15 l -1.1,-4.46 c -0.2,-0.44 -0.4,-1.32 -0.4,-1.43 0,-0.76 0.6,-1.11 1.2,-1.11 0.6,0 1.2,0.46 1.4,0.77 0.1,0.31 0.4,1.42 0.6,2.16 0.2,0.65 0.5,2.26 0.8,3.14 0.2,0.76 0.4,1.53 0.6,2.32 0.3,1.44 0.4,1.71 1.4,3.15 1,1.39 2.6,3.2 5.2,3.2 2.1,0 2.1,-1.78 2.1,-2.44 0,-0.87 -0.1,-1.33 -0.6,-3.28 z"
           id="path3291"
           inkscape:connector-curvature="0"
           style="fill:#000000;stroke-width:0" /></g>    </g>
    <g
       id="g3411"
       transform="translate(-337.51607,93.107882)">
      <g
         word-spacing="normal"
         letter-spacing="normal"
         font-size-adjust="none"
         font-stretch="normal"
         font-weight="normal"
         font-variant="normal"
         font-style="normal"
         stroke-miterlimit="10.433"
         xml:space="preserve"
         transform="matrix(1.1604347,0,0,-1.1604347,-203.07606,681.19222)"
         id="g3413"
         style="font-style:normal;font-variant:normal;font-weight:normal;font-stretch:normal;letter-spacing:normal;word-spacing:normal;text-anchor:start;fill:none;stroke:#000000;stroke-linecap:butt;stroke-linejoin:miter;stroke-miterlimit:10.43299961;stroke-opacity:1;stroke-dasharray:none;stroke-dashoffset:0"><path
           id="path3415"
           d="m 1187,371.35 0,0.32 0,0.34 0,0.35 0,0.37 0,0.39 -0.1,0.4 0,0.4 -0.1,0.42 -0.1,0.42 0,0.42 -0.1,0.42 -0.1,0.43 -0.1,0.42 -0.2,0.42 -0.1,0.42 -0.2,0.4 -0.1,0.4 -0.2,0.38 -0.2,0.38 -0.2,0.35 -0.3,0.34 -0.2,0.32 -0.3,0.3 -0.3,0.27 -0.3,0.25 -0.1,0.12 -0.2,0.11 -0.2,0.1 -0.2,0.09 -0.1,0.08 -0.2,0.08 -0.2,0.07 -0.2,0.06 -0.2,0.05 -0.2,0.05 -0.3,0.03 -0.2,0.03 -0.2,0.01 -0.2,0.01 -0.1,-1.1 c 2.4,0 2.7,-3.18 2.7,-6.03 0,-2.44 -0.4,-4.98 -1.6,-9.92 h -10.4 c 0.9,3.2 1.9,7.19 3.9,10.72 1.3,2.44 3.2,5.23 5.4,5.23 l 0.1,1.1 c -7,0 -14.7,-14.05 -14.7,-25.46 0,-4.68 1.5,-10.22 6,-10.22 v 1.1 c -1.6,0 -2.7,1.45 -2.7,6.08 0,2.09 0.3,4.98 1.6,9.86 h 10.4 c -0.5,-2.29 -1.6,-6.52 -3.5,-10.11 -1.7,-3.39 -3.6,-5.83 -5.8,-5.83 v -1.1 c 7,0 14.6,14.3 14.6,25.46 z"
           inkscape:connector-curvature="0"
           style="fill:#000000;stroke-width:0" /><path
           id="path3417"
           d="m 1197,374.9 0.1,0 0.1,0 0.1,0 0.2,0 0.1,0.01 0.1,0 0.2,0 0.1,0.01 0.2,0.01 0.2,0.01 0.1,0.01 0.2,0.01 0.2,0.01 0.2,0.02 0.4,0.03 0.4,0.04 0.4,0.05 0.4,0.06 0.4,0.07 0.4,0.08 0.2,0.05 0.2,0.04 0.2,0.05 0.2,0.06 0.1,0.05 0.2,0.06 c 2.6,0.91 3.1,2.58 3.1,3.63 0,1.92 -1.9,3.06 -4.3,3.06 v -0.97 c 1.5,0 2.8,-0.76 2.8,-2.09 0,-3.38 -5.9,-3.38 -7.4,-3.38 h -1.7 c 1.4,5.05 5.3,5.47 6.3,5.47 v 0.97 c -4.2,0 -9.9,-3.2 -9.9,-9.16 0,-3.51 2.2,-6.54 6.3,-6.54 5.9,0 8.6,3.43 8.6,3.93 0,0.21 -0.3,0.6 -0.5,0.6 -0.2,0 -0.3,-0.08 -0.6,-0.36 -2.7,-3.2 -6.8,-3.2 -7.4,-3.2 -2.1,0 -3.5,1.39 -3.5,4.21 0,0.49 0,1.19 0.4,3.1 z"
           inkscape:connector-curvature="0"
           style="fill:#000000;stroke-width:0" /><path
           id="path3419"
           d="m 1225.8,381.32 0,0.03 0,0.03 0,0.03 0,0.03 0,0.03 0,0.03 0,0.03 0,0.04 0,0.03 0,0.03 0,0.04 0,0.03 0,0.04 0,0.03 0,0.03 0,0.04 c 0,0.21 -0.1,0.48 -0.4,0.48 -0.4,0 -1.8,-1.17 -2.5,-2.3 -0.4,0.71 -1.5,2.3 -3.7,2.3 v -0.97 c 2.4,0 3.1,-2.69 3.1,-3.03 0,-0.17 -0.1,-0.39 -0.1,-0.52 l -1.7,-6.45 c -0.2,-0.59 -0.2,-0.65 -0.6,-1.22 -1.4,-1.61 -3,-2.54 -4.4,-2.54 -1.3,0 -2.5,0.9 -2.5,3.37 0,1.86 1,5.69 1.8,7.08 1.6,2.8 3.4,3.31 4.4,3.31 v 0.97 c -4.5,0 -9,-4.91 -9,-9.92 0,-3.38 2.2,-5.78 5.2,-5.78 2,0 3.7,1.25 4.4,1.9 0,-0.09 -1.1,-4.48 -1.2,-5.07 -0.5,-1.93 -0.6,-1.96 -2.7,-1.99 -0.4,0 -0.9,0 -0.9,-0.76 0,-0.22 0.2,-0.5 0.5,-0.5 1.2,0 2.4,0.14 3.6,0.14 1.2,0 2.7,-0.14 3.7,-0.14 0.4,0 0.7,0.1 0.7,0.76 0,0.5 -0.4,0.5 -0.9,0.5 -0.7,0 -1.7,0 -1.7,0.41 0,0.11 0,0.18 0.2,0.76 z"
           inkscape:connector-curvature="0"
           style="fill:#000000;stroke-width:0" /><path
           id="path3421"
           d="m 1234.8,367.52 0,-0.36 0,-0.37 0,-0.38 -0.1,-0.38 0,-0.2 0,-0.19 -0.1,-0.2 0,-0.19 0,-0.2 -0.1,-0.2 -0.1,-0.2 0,-0.2 -0.1,-0.2 -0.1,-0.21 -0.1,-0.2 -0.1,-0.21 -0.1,-0.2 -0.1,-0.21 -0.1,-0.2 -0.2,-0.21 -0.1,-0.21 -0.2,-0.2 -0.1,-0.21 -0.2,-0.21 -0.2,-0.21 -0.2,-0.21 -0.2,-0.2 -0.2,-0.21 c -0.1,-0.14 -0.2,-0.25 -0.2,-0.42 0,-0.25 0.3,-0.49 0.4,-0.49 0.5,0 3.5,2.78 3.5,6.92 0,2.18 -0.8,3.8 -2.4,3.8 -1.2,0 -2,-0.91 -2,-1.98 0,-1.11 0.8,-2.02 2,-2.02 0.8,0 1.4,0.56 1.4,0.56 z"
           inkscape:connector-curvature="0"
           style="fill:#000000;stroke-width:0" /><path
           id="path3423"
           d="m 1242,362.71 -0.1,-0.09 0,-0.09 0,-0.08 0,-0.08 0,-0.07 -0.1,-0.07 0,-0.07 0,-0.06 0,-0.06 -0.1,-0.05 0,-0.06 0,-0.05 0,-0.04 -0.1,-0.05 0,-0.04 -0.1,-0.03 0,-0.04 0,-0.03 -0.1,-0.03 -0.1,-0.02 0,-0.03 -0.1,-0.02 0,-0.02 -0.1,-0.01 -0.1,-0.02 0,0 -0.1,-0.01 0,0 -0.1,-0.01 0,0 -0.1,-0.01 0,0 -0.1,0 0,0 -0.1,-0.01 -0.1,0 0,0 -0.1,0 0,0 c -0.5,0 -1,0 -1,-0.73 0,-0.39 0.3,-0.53 0.5,-0.53 0.9,0 2.1,0.14 3,0.14 1.2,0 2.5,-0.14 3.7,-0.14 0.3,0 0.7,0.1 0.7,0.76 0,0.5 -0.5,0.5 -0.9,0.5 -0.8,0 -1.8,0 -1.8,0.41 0,0.18 0.3,1.09 0.4,1.61 0.5,1.84 0.9,3.73 1.3,5.18 0.4,-0.68 1.5,-2.04 3.6,-2.04 v 0.97 c -2.5,0 -3.1,2.68 -3.1,3.03 0,0.14 0.1,0.39 0.1,0.53 l 1.8,7 c 2,2.69 3.7,3.2 4.8,3.2 1.4,0 2.6,-1.01 2.6,-3.37 0,-1.44 -0.8,-4.99 -1.8,-7.02 -0.9,-1.7 -2.6,-3.37 -4.4,-3.37 v -0.97 c 4.3,0 9,4.7 9,9.89 0,4.08 -2.9,5.81 -5.3,5.81 -2.1,0 -4,-1.45 -4.9,-2.44 -0.6,1.99 -2.6,2.44 -3.6,2.44 -1.4,0 -2.2,-0.91 -2.8,-1.84 -0.7,-1.19 -1.2,-3.27 -1.2,-3.49 0,-0.45 0.5,-0.45 0.6,-0.45 0.5,0 0.5,0.11 0.8,1.05 0.5,2.03 1.1,3.76 2.5,3.76 0.9,0 1.1,-0.76 1.1,-1.7 0,-0.39 0,-0.85 -0.1,-1.05 z"
           inkscape:connector-curvature="0"
           style="fill:#000000;stroke-width:0" /><path
           id="path3425"
           d="m 1278.4,376.23 0,0.36 -0.1,0.34 0,0.34 -0.1,0.33 0,0.32 -0.1,0.31 -0.1,0.3 -0.1,0.28 -0.2,0.28 -0.1,0.27 -0.2,0.25 -0.1,0.25 -0.2,0.23 -0.2,0.22 -0.2,0.22 -0.2,0.2 -0.2,0.19 -0.2,0.17 -0.3,0.17 -0.2,0.15 -0.3,0.15 -0.3,0.13 -0.2,0.12 -0.3,0.1 -0.3,0.1 -0.3,0.08 -0.3,0.07 -0.3,0.06 -0.3,0.04 -0.3,0.03 -0.3,0.02 -0.3,0.01 -0.1,-0.97 c 1.9,0 3.5,-1.3 3.5,-3.87 0,-0.83 -0.4,-4.28 -1.9,-6.72 -1.4,-2.05 -3.4,-3.17 -5.2,-3.17 h 0 c -1.7,0 -3.5,1.12 -3.5,3.87 0,1.42 0.7,4.84 2,6.83 1.5,2.16 3.6,3.06 5.1,3.06 l 0.1,0.97 c -5.2,0 -10.1,-4.84 -10.1,-9.61 0,-3.48 2.6,-6.09 6.4,-6.09 5,0 10,4.59 10,9.61 z"
           inkscape:connector-curvature="0"
           style="fill:#000000;stroke-width:0" /><path
           id="path3427"
           d="m 1294.6,380.05 -0.1,-0.02 -0.1,-0.02 -0.1,-0.03 -0.1,-0.02 0,-0.04 -0.1,-0.03 -0.1,-0.04 0,-0.04 -0.1,-0.04 -0.1,-0.04 0,-0.05 -0.1,-0.05 -0.1,-0.05 0,-0.05 -0.1,-0.05 0,-0.06 -0.1,-0.05 0,-0.06 0,-0.06 -0.1,-0.06 0,-0.06 0,-0.06 -0.1,-0.06 0,-0.06 0,-0.07 0,-0.06 -0.1,-0.07 0,-0.06 0,-0.07 0,-0.06 0,-0.07 0,-0.06 c 0,-0.81 0.7,-1.13 1.2,-1.13 0.3,0 1.6,0.22 1.6,1.99 0,2.26 -2.5,3.03 -4.6,3.03 -5.4,0 -6.4,-4 -6.4,-5.08 0,-1.29 0.7,-2.12 1.2,-2.54 0.9,-0.71 1.5,-0.83 3.9,-1.25 0.8,-0.15 3,-0.57 3,-2.3 0,-0.6 -0.4,-1.92 -1.8,-2.8 -1.4,-0.76 -3.1,-0.76 -3.5,-0.76 -1.4,0 -3.4,0.31 -4.2,1.46 1.2,0.15 1.9,1 1.9,1.99 0,0.87 -0.6,1.28 -1.3,1.28 -1.1,0 -2.1,-0.8 -2.1,-2.33 0,-2.09 2.3,-3.37 5.6,-3.37 6.5,0 7.6,4.39 7.6,5.75 0,3.2 -3.5,3.83 -4.8,4.08 -0.3,0.06 -1.2,0.2 -1.4,0.26 -1.3,0.25 -1.9,0.99 -1.9,1.75 0,0.8 0.6,1.74 1.4,2.24 0.9,0.59 2.2,0.65 2.8,0.65 0.7,0 2.5,-0.11 3.3,-1.3 z"
           inkscape:connector-curvature="0"
           style="fill:#000000;stroke-width:0" /><path
           id="path3429"
           d="m 1307,380.73 h 3.5 c 0.7,0 1.1,0 1.1,0.76 0,0.49 -0.4,0.49 -1,0.49 h -3.3 l 1.3,5.15 c 0,0.17 0.1,0.35 0.1,0.49 0,0.64 -0.5,1.12 -1.2,1.12 -0.9,0 -1.4,-0.59 -1.7,-1.5 -0.2,-0.87 0.3,0.8 -1.3,-5.26 h -3.5 c -0.7,0 -1.1,0 -1.1,-0.77 0,-0.48 0.4,-0.48 1,-0.48 h 3.3 l -2,-8.22 c -0.3,-0.88 -0.6,-2.13 -0.6,-2.58 0,-2.06 1.8,-3.31 3.8,-3.31 3.8,0 6,4.87 6,5.33 0,0.45 -0.4,0.45 -0.5,0.45 -0.4,0 -0.5,-0.08 -0.8,-0.66 -0.9,-2.2 -2.7,-4.15 -4.6,-4.15 -0.8,0 -1.3,0.45 -1.3,1.7 0,0.36 0.2,1.09 0.3,1.44 z"
           inkscape:connector-curvature="0"
           style="fill:#000000;stroke-width:0" /><path
           id="path3431"
           d="m 1202.9,336.91 0,-0.07 0,-0.07 -0.1,-0.07 0,-0.08 0,-0.07 0,-0.08 -0.1,-0.16 0,-0.16 0,-0.16 -0.1,-0.16 0,-0.08 0,-0.07 0,-0.08 -0.1,-0.07 0,-0.07 0,-0.07 0,-0.07 0,-0.06 0,-0.06 0,-0.06 -0.1,-0.05 0,-0.05 0,-0.05 0,-0.04 0,-0.03 0,-0.03 0,-0.03 0,-0.02 c 0,-0.76 0.6,-1.11 1.2,-1.11 0.6,0 1.2,0.46 1.3,0.77 0.2,0.31 0.5,1.42 0.7,2.16 0.2,0.65 0.5,2.26 0.7,3.14 0.2,0.76 0.5,1.53 0.6,2.32 0.4,1.5 0.4,1.57 1.1,2.66 1.1,1.7 2.9,3.69 5.6,3.69 1.9,0 2,-1.61 2,-2.44 0,-2.09 -1.5,-5.95 -2,-7.42 -0.4,-0.99 -0.5,-1.3 -0.5,-1.89 0,-1.84 1.5,-2.99 3.3,-2.99 3.5,0 5,4.8 5,5.33 0,0.46 -0.5,0.46 -0.6,0.46 -0.5,0 -0.5,-0.21 -0.6,-0.6 -0.8,-2.78 -2.3,-4.22 -3.7,-4.22 -0.7,0 -0.9,0.49 -0.9,1.22 0,0.8 0.2,1.25 0.8,2.83 0.4,1.08 1.8,4.77 1.8,6.72 0,0.56 0,2.03 -1.2,3.03 -0.6,0.45 -1.6,0.94 -3.3,0.94 -3.1,0 -5,-2.05 -6.1,-3.52 -0.3,2.97 -2.8,3.52 -4.6,3.52 -2.9,0 -4.8,-1.77 -5.9,-3.16 -0.2,2.39 -2.3,3.16 -3.7,3.16 -1.5,0 -2.3,-1.08 -2.7,-1.88 -0.8,-1.28 -1.3,-3.28 -1.3,-3.45 0,-0.45 0.5,-0.45 0.6,-0.45 0.5,0 0.5,0.11 0.8,1.04 0.5,2.07 1.1,3.77 2.5,3.77 0.9,0 1.1,-0.77 1.1,-1.7 0,-0.68 -0.3,-1.96 -0.5,-2.89 -0.2,-0.96 -0.6,-2.38 -0.8,-3.15 l -1.1,-4.46 c -0.1,-0.44 -0.3,-1.32 -0.3,-1.43 0,-0.76 0.6,-1.11 1.2,-1.11 0.6,0 1.1,0.46 1.3,0.77 0.2,0.31 0.5,1.42 0.6,2.16 0.2,0.65 0.6,2.26 0.8,3.14 0.2,0.76 0.4,1.53 0.6,2.32 0.4,1.44 0.5,1.71 1.5,3.15 0.9,1.39 2.6,3.2 5.2,3.2 2,0 2,-1.78 2,-2.44 0,-0.87 -0.1,-1.33 -0.6,-3.28 z"
           inkscape:connector-curvature="0"
           style="fill:#000000;stroke-width:0" /></g>    </g>
  </g>
</svg>
