<?xml version="1.0" encoding="UTF-8" standalone="no"?>
<!-- Created with Inkscape (http://www.inkscape.org/) -->

<svg
   xmlns:dc="http://purl.org/dc/elements/1.1/"
   xmlns:cc="http://creativecommons.org/ns#"
   xmlns:rdf="http://www.w3.org/1999/02/22-rdf-syntax-ns#"
   xmlns:svg="http://www.w3.org/2000/svg"
   xmlns="http://www.w3.org/2000/svg"
   xmlns:sodipodi="http://sodipodi.sourceforge.net/DTD/sodipodi-0.dtd"
   xmlns:inkscape="http://www.inkscape.org/namespaces/inkscape"
   width="210mm"
   height="297mm"
   viewBox="0 0 210 297"
   version="1.1"
   id="svg23971"
   inkscape:version="0.92.0 r"
   sodipodi:docname="weihong-polar-steps.svg">
  <defs
     id="defs23965" />
  <sodipodi:namedview
     id="base"
     pagecolor="#ffffff"
     bordercolor="#666666"
     borderopacity="1.0"
     inkscape:pageopacity="0.0"
     inkscape:pageshadow="2"
     inkscape:zoom="2.8"
     inkscape:cx="323.83139"
     inkscape:cy="693.23224"
     inkscape:document-units="mm"
     inkscape:current-layer="layer1"
     showgrid="false"
     inkscape:window-width="956"
     inkscape:window-height="1058"
     inkscape:window-x="1280"
     inkscape:window-y="18"
     inkscape:window-maximized="0" />
  <metadata
     id="metadata23968">
    <rdf:RDF>
      <cc:Work
         rdf:about="">
        <dc:format>image/svg+xml</dc:format>
        <dc:type
           rdf:resource="http://purl.org/dc/dcmitype/StillImage" />
        <dc:title></dc:title>
      </cc:Work>
    </rdf:RDF>
  </metadata>
  <g
     inkscape:label="Layer 1"
     inkscape:groupmode="layer"
     id="layer1">
    <g
       id="g909"
       transform="matrix(0.35277777,0,0,-0.35277777,89.423019,125.79161)">
      <path
         d="m 0,0 -2.749,0.085 -2.736,0.259 -2.716,0.43 -2.682,0.6 -2.641,0.767 -2.587,0.931 -2.523,1.091 -2.449,1.249 -2.366,1.398 -2.274,1.547 -2.173,1.685 -2.061,1.817 -1.945,1.945 -1.818,2.061 -1.685,2.173 -1.545,2.275 -1.4,2.366 -1.248,2.448 -1.091,2.523 -0.931,2.587 -0.767,2.641 -0.601,2.682 -0.429,2.716 -0.258,2.737 -0.087,2.748 0.087,2.747 0.258,2.737 0.429,2.715 0.601,2.684 0.767,2.639 0.931,2.587 1.091,2.524 1.248,2.447 1.4,2.365 1.545,2.275 1.685,2.171 1.818,2.063 1.945,1.944 2.061,1.818 2.173,1.685 2.274,1.545 2.366,1.399 2.45,1.249 2.522,1.092 2.587,0.931 2.641,0.767 2.682,0.599 2.716,0.431 2.737,0.259 L 0,87.52 2.747,87.434 5.484,87.175 8.2,86.744 l 2.683,-0.599 2.64,-0.767 2.586,-0.931 2.523,-1.092 2.45,-1.249 2.366,-1.399 2.275,-1.545 2.171,-1.686 2.063,-1.817 1.944,-1.944 1.817,-2.063 1.686,-2.171 1.545,-2.275 1.399,-2.366 1.248,-2.446 1.092,-2.523 0.931,-2.588 0.767,-2.639 0.601,-2.684 0.429,-2.715 0.259,-2.737 0.086,-2.747 -0.086,-2.748 -0.259,-2.737 -0.429,-2.716 -0.6,-2.682 L 41.619,30.237 40.688,27.65 39.596,25.127 38.348,22.679 36.949,20.313 35.404,18.038 33.718,15.865 31.901,13.804 29.957,11.859 27.895,10.042 25.723,8.357 23.448,6.81 21.082,5.412 18.632,4.163 16.109,3.072 13.523,2.141 10.883,1.374 8.2,0.774 5.484,0.344 2.747,0.085 0,0 m -1.228,10.713 -0.006,-0.169 1.276,-0.04 h 0.005 l 0.08,0.002 -0.005,0.169 1.349,0.042 0.006,-0.168 0.645,0.02 h 0.005 l 0.707,0.067 -0.016,0.168 1.345,0.128 0.016,-0.168 0.014,0.001 0.005,10e-4 1.325,0.209 -0.026,0.167 0.724,0.114 0.603,0.135 0.036,-0.164 1.318,0.295 -0.037,0.164 0.101,0.023 1.198,0.347 0.047,-0.162 0.789,0.229 0.005,0.001 0.503,0.181 -0.057,0.159 1.271,0.457 0.057,-0.158 0.179,0.064 0.005,0.002 1.069,0.463 -0.067,0.155 0.835,0.361 0.393,0.201 0.077,-0.151 1.203,0.614 -0.077,0.15 0.248,0.127 0.923,0.546 0.086,-0.146 0.863,0.512 0.296,0.2 -0.095,0.14 1.117,0.759 0.095,-0.14 0.303,0.206 0.005,0.003 0.781,0.607 -0.103,0.133 0.858,0.666 0.198,0.175 0.112,-0.127 1.013,0.893 -0.112,0.127 0.341,0.3 0.634,0.634 0.119,-0.12 0.834,0.833 0.121,0.137 -0.127,0.112 0.893,1.013 0.127,-0.111 0.359,0.407 0.003,0.004 0.498,0.642 -0.133,0.103 0.773,0.998 0.05,0.073 0.139,-0.095 0.76,1.117 -0.14,0.094 0.355,0.522 0.367,0.62 0.145,-0.086 0.69,1.166 0.003,0.005 -0.151,0.077 0.613,1.203 0.151,-0.076 0.327,0.641 0.002,0.005 0.253,0.583 -0.155,0.067 0.536,1.24 0.155,-0.067 0.035,0.08 0.002,0.005 0.43,1.193 -0.159,0.057 0.274,0.76 0.151,0.522 0.162,-0.047 0.376,1.297 -0.162,0.047 0.049,0.169 0.256,1.146 0.165,-0.037 0.196,0.874 0.001,0.005 0.072,0.455 -0.167,0.026 0.211,1.334 0.167,-0.026 0.041,0.261 10e-4,0.005 0.103,1.087 -0.168,0.016 0.093,0.979 0.011,0.366 0.169,-0.005 0.042,1.35 -0.169,0.005 0.011,0.353 0.169,0.006 -0.042,1.349 -0.169,-0.005 -0.022,0.719 -0.06,0.628 0.168,0.016 -0.127,1.345 -0.168,-0.016 -0.009,0.088 -0.197,1.247 0.167,0.026 v 0 l -0.126,0.797 -10e-4,0.005 -0.12,0.536 -0.165,-0.037 -0.295,1.318 0.165,0.037 -0.039,0.172 -0.001,0.005 -0.328,1.133 -0.162,-0.047 -0.249,0.859 -0.155,0.429 0.159,0.057 -0.458,1.271 -0.158,-0.058 -0.09,0.249 -0.431,0.997 0.155,0.067 -0.391,0.903 -0.002,0.005 -0.169,0.331 -0.15,-0.076 -0.614,1.203 0.15,0.077 -0.159,0.313 -0.003,0.005 -0.511,0.864 -0.145,-0.086 -0.546,0.923 -0.157,0.23 0.14,0.095 -0.759,1.116 -0.14,-0.094 -0.248,0.363 -0.558,0.719 0.133,0.104 -0.713,0.918 -0.131,0.149 -0.127,-0.112 -0.893,1.014 0.127,0.111 -0.348,0.395 -0.004,0.004 -0.586,0.586 -0.12,-0.119 -0.881,0.881 -0.078,0.069 0.111,0.126 -1.012,0.894 -0.112,-0.127 -0.461,0.407 -0.581,0.451 0.103,0.133 -1.058,0.821 -0.018,0.012 -0.095,-0.139 -1.117,0.759 0.095,0.14 -0.581,0.394 -0.005,0.003 -0.562,0.333 -0.086,-0.145 -1.162,0.687 0.085,0.145 -0.061,0.037 -0.005,0.002 -1.144,0.584 -0.077,-0.151 -0.704,0.359 -0.514,0.223 0.067,0.155 -1.239,0.536 -0.067,-0.155 -0.146,0.063 -1.121,0.404 0.057,0.159 -0.826,0.298 -0.006,0.001 -0.458,0.133 -0.047,-0.162 -1.297,0.377 0.047,0.162 v 0 L 8.289,75.692 8.283,75.694 7.202,75.936 7.165,75.771 6.221,75.983 5.842,76.042 5.869,76.209 4.535,76.421 4.509,76.254 4.177,76.306 3.167,76.402 3.183,76.57 2.132,76.669 2.127,76.67 1.826,76.679 1.821,76.51 0.471,76.552 0.476,76.721 0.052,76.734 H 0.047 l -0.931,-0.028 0.005,-0.169 -1.143,-0.036 -0.206,-0.019 -0.016,0.168 -1.344,-0.127 0.016,-0.168 -0.51,-0.049 -0.828,-0.131 -0.027,0.167 -1.221,-0.194 -0.122,-0.027 0.037,-0.165 -1.318,-0.294 -0.036,0.164 -0.587,-0.131 -0.005,-10e-4 -0.725,-0.21 0.047,-0.163 -1.267,-0.367 -0.029,-0.011 -0.057,0.159 -1.271,-0.458 0.057,-0.158 -0.648,-0.234 -0.607,-0.263 -0.067,0.155 -1.24,-0.536 0.067,-0.155 -0.052,-0.023 -1.152,-0.587 -0.077,0.15 -0.692,-0.352 -0.005,-0.003 -0.498,-0.294 0.086,-0.146 -1.163,-0.687 -0.086,0.146 -0.126,-0.075 -0.005,-0.003 -1,-0.68 0.095,-0.139 -0.715,-0.486 -0.384,-0.298 -0.103,0.133 -1.068,-0.827 0.104,-0.133 -0.186,-0.144 -0.837,-0.738 -0.111,0.126 -0.719,-0.634 -0.285,-0.284 0.12,-0.12 -0.955,-0.955 -0.119,0.119 -0.228,-0.227 -0.004,-0.004 -0.683,-0.776 0.126,-0.111 -0.688,-0.781 -0.19,-0.245 -0.133,0.104 -0.829,-1.067 0.133,-0.103 -0.25,-0.323 -0.53,-0.778 -0.14,0.095 -0.638,-0.937 -0.116,-0.196 0.146,-0.086 -0.687,-1.163 -0.145,0.086 -0.253,-0.428 -0.002,-0.004 -0.391,-0.766 0.151,-0.077 -0.552,-1.082 -0.054,-0.124 -0.155,0.067 -0.536,-1.24 0.155,-0.067 -0.232,-0.536 -0.26,-0.721 -0.159,0.057 -0.443,-1.232 -0.015,-0.049 0.162,-0.048 -0.377,-1.296 -0.162,0.047 v 0 l -0.188,-0.646 -10e-4,-0.005 -0.149,-0.667 0.165,-0.037 -0.295,-1.318 -0.164,0.037 -0.009,-0.041 -10e-4,-0.005 -0.206,-1.298 0.166,-0.026 -0.119,-0.751 -0.055,-0.588 -0.168,0.016 -0.127,-1.345 0.168,-0.015 -0.012,-0.129 -0.039,-1.221 -0.168,0.006 h -10e-4 l -0.027,-0.848 v -0.006 l 0.016,-0.507 0.169,0.006 0.043,-1.35 -0.168,-0.006 0.007,-0.218 v -0.005 l 0.106,-1.132 0.168,0.015 0.088,-0.933 0.065,-0.408 -0.167,-0.026 0.212,-1.334 0.166,0.026 0.048,-0.302 0.228,-1.019 -0.165,-0.037 0.224,-1.001 10e-4,-0.005 0.092,-0.318 0.162,0.048 0.377,-1.297 -0.162,-0.047 0.11,-0.379 0.002,-0.005 0.326,-0.905 0.158,0.058 0.378,-1.049 0.094,-0.217 -0.155,-0.067 0.536,-1.239 0.155,0.067 0.192,-0.443 0.394,-0.773 -0.15,-0.077 0.548,-1.076 0.078,-0.132 0.145,0.086 0.687,-1.163 -0.146,-0.086 0.291,-0.491 0.002,-0.004 0.442,-0.65 0.14,0.095 0.726,-1.066 0.037,-0.048 -0.133,-0.104 0.828,-1.067 0.133,0.104 0.404,-0.52 0.457,-0.519 -0.127,-0.112 0.893,-1.013 0.127,0.111 0.019,-0.021 0.934,-0.935 -0.119,-0.119 0.528,-0.528 0.004,-0.004 0.457,-0.403 0.111,0.127 1.013,-0.893 -0.111,-0.127 0.086,-0.076 0.004,-0.003 0.981,-0.761 0.103,0.134 0.66,-0.513 0.426,-0.289 -0.095,-0.139 1.117,-0.76 0.095,0.14 0.167,-0.114 0.989,-0.584 -0.086,-0.145 0.795,-0.471 0.004,-0.002 0.385,-0.197 0.077,0.151 1.203,-0.614 -0.077,-0.15 0.261,-0.133 0.005,-0.003 0.975,-0.422 0.068,0.155 0.928,-0.402 0.319,-0.115 -0.057,-0.159 1.27,-0.457 0.057,0.159 0.359,-0.129 0.931,-0.27 -0.047,-0.162 1.061,-0.308 0.25,-0.056 0.037,0.165 1.318,-0.295 -0.037,-0.165 0.458,-0.102 0.005,-0.001 0.876,-0.139 0.026,0.167 1.174,-0.186 0.162,-0.015 -0.016,-0.168 1.344,-0.128 0.016,0.168 0.554,-0.052 z"
         style="fill:#f9f789;fill-opacity:1;fill-rule:nonzero;stroke:none"
         id="path911"
         inkscape:connector-curvature="0" />
    </g>
    <g
       id="g913"
       transform="matrix(0.35277777,0,0,-0.35277777,89.423019,125.91085)">
      <path
         d="m 0,0 -2.77,0.086 -2.758,0.261 -2.736,0.433 -2.704,0.605 -2.661,0.772 -2.606,0.939 -2.542,1.1 -2.469,1.258 -2.384,1.409 -2.291,1.559 -2.19,1.698 -2.078,1.831 -1.959,1.959 -1.832,2.078 -1.698,2.19 -1.557,2.292 -1.411,2.384 -1.257,2.467 -1.1,2.543 -0.938,2.607 -0.774,2.661 -0.604,2.703 -0.433,2.736 -0.261,2.759 -0.087,2.769 0.087,2.769 0.261,2.757 0.433,2.737 0.605,2.704 0.773,2.66 0.938,2.607 1.1,2.543 1.257,2.465 1.41,2.384 1.558,2.293 1.698,2.188 1.832,2.078 1.959,1.959 2.078,1.832 2.19,1.698 2.291,1.557 2.384,1.41 2.469,1.259 2.542,1.1 2.606,0.938 2.661,0.773 2.704,0.604 2.736,0.434 2.758,0.261 2.77,0.087 2.768,-0.087 2.759,-0.261 2.736,-0.434 2.704,-0.604 2.66,-0.773 2.607,-0.938 2.542,-1.1 2.469,-1.259 2.384,-1.41 2.292,-1.557 2.189,-1.698 2.078,-1.832 1.96,-1.959 1.83,-2.079 1.699,-2.187 1.557,-2.292 1.41,-2.385 1.258,-2.465 1.1,-2.543 0.939,-2.607 0.773,-2.66 0.605,-2.705 0.432,-2.736 0.262,-2.758 0.085,-2.763 -0.169,-0.005 0.169,-0.005 -0.085,-2.765 -0.262,-2.757 -0.432,-2.737 -0.605,-2.704 -0.773,-2.66 -0.939,-2.607 -1.1,-2.543 -1.258,-2.467 -1.41,-2.384 -1.557,-2.292 -1.699,-2.19 -1.83,-2.078 -1.96,-1.959 L 28.11,10.12 25.921,8.422 23.629,6.863 21.245,5.454 18.776,4.196 16.234,3.095 13.627,2.157 10.967,1.385 8.263,0.78 5.527,0.347 2.768,0.086 0,0 m 0,87.858 -2.748,-0.086 -2.737,-0.259 -2.716,-0.431 -2.682,-0.599 -2.641,-0.767 -2.587,-0.931 -2.522,-1.092 -2.45,-1.249 -2.366,-1.399 -2.274,-1.545 -2.173,-1.685 -2.061,-1.818 -1.945,-1.944 -1.818,-2.063 -1.685,-2.171 -1.545,-2.275 -1.4,-2.365 -1.248,-2.447 -1.091,-2.524 -0.931,-2.587 -0.767,-2.639 -0.601,-2.684 -0.429,-2.715 -0.258,-2.737 -0.087,-2.747 0.087,-2.748 0.258,-2.737 0.429,-2.716 0.601,-2.682 0.767,-2.641 0.931,-2.587 1.091,-2.523 1.248,-2.448 1.4,-2.366 1.545,-2.275 1.685,-2.173 1.818,-2.061 1.945,-1.945 2.061,-1.817 2.173,-1.685 2.274,-1.547 2.366,-1.398 2.449,-1.249 2.523,-1.091 2.587,-0.931 2.641,-0.767 2.682,-0.6 2.716,-0.43 L -2.749,0.423 0,0.338 2.747,0.423 5.484,0.682 8.2,1.112 l 2.683,0.6 2.64,0.767 2.586,0.931 2.523,1.091 2.45,1.249 2.366,1.398 2.275,1.547 2.172,1.685 2.062,1.817 1.944,1.945 1.817,2.061 1.686,2.173 1.545,2.275 1.399,2.366 1.248,2.448 1.092,2.523 0.931,2.587 0.768,2.641 0.6,2.682 0.429,2.716 0.259,2.737 0.086,2.748 -0.086,2.747 -0.259,2.737 -0.429,2.715 -0.601,2.684 -0.767,2.639 -0.931,2.588 -1.092,2.523 -1.248,2.446 -1.399,2.366 -1.545,2.275 -1.686,2.171 -1.817,2.063 -1.944,1.944 -2.063,1.817 -2.171,1.686 -2.275,1.545 -2.366,1.399 -2.45,1.249 -2.523,1.092 -2.586,0.931 -2.64,0.767 -2.683,0.599 -2.716,0.431 -2.737,0.259 z"
         style="fill:#918f8f;fill-opacity:1;fill-rule:nonzero;stroke:none"
         id="path915"
         inkscape:connector-curvature="0" />
    </g>
    <g
       id="g917"
       transform="matrix(0.35277777,0,0,-0.35277777,89.466059,122.02571)">
      <path
         d="m 0,0 -0.006,0.169 -0.069,-0.003 -1.27,0.041 -0.005,-0.169 -0.794,0.025 -0.554,0.052 0.016,0.168 -1.345,0.128 -0.015,-0.168 -0.162,0.015 -1.174,0.186 0.027,0.167 -0.866,0.136 -0.452,0.102 -0.037,-0.165 -1.318,0.295 0.037,0.165 -0.24,0.053 -1.051,0.305 -0.047,-0.162 -0.931,0.27 -0.359,0.129 0.058,0.159 -1.271,0.457 -0.057,-0.159 -0.319,0.115 -0.928,0.402 0.067,0.155 -0.966,0.418 -0.256,0.131 -0.077,-0.151 -1.203,0.614 0.077,0.15 -0.376,0.192 -0.79,0.467 -0.086,-0.145 -0.989,0.584 -0.167,0.114 0.095,0.14 -1.117,0.759 -0.095,-0.14 -0.426,0.289 -0.66,0.513 0.103,0.133 -0.972,0.754 -0.082,0.072 -0.112,-0.126 -1.013,0.893 0.112,0.127 -0.449,0.395 -0.524,0.525 -0.12,-0.12 -0.934,0.935 -0.019,0.021 0.126,0.112 -0.892,1.013 -0.127,-0.111 -0.457,0.519 -0.404,0.52 0.133,0.103 -0.827,1.067 -0.134,-0.103 -0.037,0.048 -0.726,1.066 0.139,0.095 -0.435,0.64 -0.288,0.487 -0.145,-0.086 -0.687,1.163 0.146,0.086 -0.073,0.123 -0.544,1.066 -0.15,-0.076 -0.394,0.773 -0.192,0.443 0.155,0.067 -0.536,1.239 -0.155,-0.067 -0.094,0.217 -0.378,1.049 0.159,0.057 -0.322,0.894 -0.109,0.374 -0.162,-0.047 -0.377,1.297 0.162,0.047 -0.089,0.307 -0.222,0.995 -0.165,-0.036 -0.228,1.019 -0.048,0.302 0.167,0.027 -0.211,1.333 -0.167,-0.026 -0.065,0.408 -0.088,0.933 0.169,0.016 -0.106,1.122 -0.007,0.213 -0.169,-0.005 -0.043,1.35 0.169,0.005 -0.016,0.496 0.027,0.843 -0.169,0.005 0.039,1.221 0.012,0.129 0.168,-0.016 0.127,1.344 -0.168,0.016 0.055,0.588 0.119,0.751 0.167,-0.027 0.204,1.288 0.008,0.035 -0.165,0.037 0.295,1.318 0.165,-0.037 0.146,0.657 0.186,0.641 -0.162,0.047 0.377,1.296 0.162,-0.047 0.012,0.04 0.44,1.222 -0.159,0.057 0.26,0.721 0.232,0.536 0.155,-0.067 0.536,1.24 -0.155,0.067 0.054,0.124 0.552,1.082 0.15,-0.076 0.386,0.756 0.249,0.423 -0.145,0.086 0.687,1.163 0.145,-0.086 0.11,0.187 0.632,0.928 -0.139,0.095 0.53,0.778 0.25,0.323 0.134,-0.104 0.828,1.067 -0.133,0.103 0.19,0.245 0.688,0.781 0.127,-0.112 0.677,0.768 0.223,0.224 -0.119,0.119 0.955,0.955 0.119,-0.119 0.277,0.277 0.711,0.627 -0.112,0.127 0.837,0.738 0.186,0.144 0.103,-0.134 1.068,0.827 -0.104,0.134 0.384,0.298 0.715,0.486 0.095,-0.14 0.991,0.674 0.122,0.072 -0.086,0.145 1.163,0.687 0.085,-0.145 0.49,0.289 0.687,0.351 -0.076,0.15 1.152,0.587 0.052,0.023 0.067,-0.155 1.24,0.537 -0.067,0.154 0.607,0.263 0.648,0.234 0.057,-0.159 1.271,0.457 -0.057,0.159 0.029,0.011 1.267,0.367 0.047,-0.162 0.715,0.208 0.581,0.13 -0.037,0.165 1.318,0.294 0.037,-0.164 0.112,0.025 1.21,0.191 -0.026,0.167 0.828,0.131 0.51,0.049 0.016,-0.169 1.344,0.128 -0.016,0.168 0.206,0.019 1.143,0.036 0.006,-0.169 0.92,0.029 0.419,-0.013 0.005,0.168 1.35,-0.042 -0.005,-0.168 0.29,-0.009 1.045,-0.099 0.016,0.168 1.01,-0.096 0.332,-0.052 -0.027,-0.167 1.334,-0.211 0.026,0.166 0.379,-0.059 0.944,-0.212 -0.037,-0.164 1.072,-0.24 0.232,-0.068 0.047,0.163 1.297,-0.377 -0.047,-0.162 0.448,-0.13 0.822,-0.296 0.057,0.159 1.121,-0.404 0.146,-0.063 -0.067,-0.155 1.239,-0.536 0.067,0.155 0.514,-0.223 0.704,-0.359 -0.076,-0.15 1.135,-0.579 0.057,-0.033 0.086,0.145 1.162,-0.687 -0.086,-0.146 0.553,-0.327 0.577,-0.392 0.095,0.14 1.117,-0.759 -0.095,-0.14 0.009,-0.006 1.05,-0.814 0.104,0.133 0.581,-0.451 0.461,-0.407 -0.112,-0.126 1.013,-0.894 0.112,0.127 0.078,-0.069 0.881,-0.881 -0.119,-0.119 0.579,-0.579 0.345,-0.391 0.126,0.112 0.893,-1.014 -0.126,-0.111 0.124,-0.141 0.707,-0.91 0.133,0.103 0.558,-0.719 0.248,-0.363 -0.14,-0.095 0.76,-1.117 0.139,0.095 0.157,-0.23 0.546,-0.923 -0.145,-0.086 0.505,-0.855 0.158,-0.309 0.15,0.077 0.614,-1.203 -0.151,-0.077 0.164,-0.322 0.389,-0.898 0.155,0.067 0.431,-0.997 0.09,-0.249 -0.159,-0.057 0.457,-1.27 0.159,0.057 0.155,-0.429 0.249,-0.859 -0.162,-0.047 0.325,-1.123 0.038,-0.167 0.164,0.037 0.295,-1.318 -0.165,-0.037 0.118,-0.525 0.125,-0.792 0.167,0.027 0.197,-1.247 0.009,-0.088 -0.169,-0.016 0.128,-1.344 0.168,0.015 0.06,-0.628 0.022,-0.719 -0.169,-0.005 0.043,-1.35 0.168,0.005 -0.011,-0.353 -0.168,0.006 -0.043,-1.35 0.169,-0.006 -0.011,-0.366 -0.093,-0.979 -0.168,0.015 -0.102,-1.076 -0.041,-0.256 0.167,-0.026 -0.211,-1.334 -0.167,0.027 -0.07,-0.444 -0.194,-0.869 0.164,-0.037 -0.256,-1.146 -0.049,-0.169 -0.162,0.047 -0.376,-1.298 0.162,-0.046 -0.151,-0.522 -0.274,-0.76 -0.159,0.058 -0.426,-1.183 -0.033,-0.076 0.155,-0.067 -0.536,-1.24 -0.155,0.067 -0.249,-0.574 -0.324,-0.636 0.15,-0.077 -0.613,-1.203 h -10e-4 l -0.144,0.086 -0.688,-1.163 0.146,-0.085 -0.367,-0.62 -0.355,-0.522 -0.139,0.095 -0.76,-1.116 0.14,-0.095 -0.05,-0.073 -0.773,-0.998 -0.134,0.104 -0.491,-0.634 -0.356,-0.403 0.127,-0.112 L 24.06,10.524 23.934,10.635 23.82,10.507 22.994,9.681 23.113,9.562 22.479,8.928 22.138,8.628 22.027,8.754 21.014,7.861 21.125,7.735 20.927,7.56 20.069,6.894 19.965,7.027 19.192,6.427 18.894,6.224 18.988,6.085 17.871,5.326 17.776,5.466 17.49,5.271 16.635,4.765 16.721,4.62 15.798,4.074 15.55,3.947 15.473,4.097 14.27,3.484 14.347,3.334 13.954,3.133 13.119,2.772 13.052,2.927 11.993,2.468 11.818,2.405 11.876,2.246 10.605,1.789 10.548,1.948 10.055,1.77 9.271,1.543 9.318,1.381 8.12,1.034 8.019,1.011 7.983,1.176 6.665,0.881 6.702,0.716 6.099,0.581 5.375,0.467 5.349,0.634 4.033,0.426 4.025,0.425 4.041,0.257 2.696,0.129 2.681,0.297 1.984,0.231 1.344,0.211 1.349,0.042 0,0 m -0.926,11.007 -0.005,-0.168 0.851,-0.027 h 0.005 l 0.504,0.016 -0.005,0.168 0.88,0.028 0.468,0.044 0.016,-0.168 0.905,0.085 h 0.006 l 0.441,0.07 -0.027,0.167 0.929,0.148 0.4,0.089 0.037,-0.165 0.946,0.212 0.005,10e-4 0.371,0.108 -0.047,0.162 0.958,0.278 0.332,0.12 0.058,-0.159 0.966,0.349 0.005,10e-4 0.301,0.13 -0.067,0.155 0.97,0.419 0.262,0.134 0.077,-0.151 0.972,0.496 0.232,0.138 -0.086,0.145 0.961,0.568 0.193,0.132 0.095,-0.14 0.952,0.647 0.166,0.129 -0.103,0.134 0.928,0.719 0.132,0.117 0.112,-0.127 0.907,0.799 0.108,0.108 -0.12,0.119 0.873,0.873 0.077,0.087 0.126,-0.112 v 0 h 0.001 -0.001 l 0.84,0.952 0.056,0.073 -0.133,0.104 0.792,1.021 0.032,0.048 0.14,-0.095 0.746,1.097 0.017,0.03 -0.145,0.086 0.688,1.162 0.145,-0.086 h 0.001 l 0.002,0.005 0.614,1.208 -0.15,0.077 0.013,0.026 0.525,1.213 0.155,-0.068 0.023,0.055 0.003,0.005 0.44,1.219 -0.159,0.057 0.03,0.084 0.351,1.212 0.162,-0.047 0.033,0.113 0.002,0.005 0.27,1.208 -0.165,0.037 0.033,0.144 0.187,1.188 0.167,-0.026 0.027,0.175 0.001,0.005 0.112,1.173 -0.168,0.016 0.02,0.206 0.036,1.143 0.168,-0.005 0.008,0.236 -0.169,0.005 0.169,0.006 -0.043,1.349 -0.168,-0.005 -0.001,0.029 -0.126,1.316 0.168,0.016 -0.005,0.058 -0.001,0.005 -0.202,1.281 -0.166,-0.026 -0.014,0.087 -0.276,1.232 0.164,0.037 -0.025,0.114 -10e-4,0.005 -0.345,1.19 -0.162,-0.047 -0.041,0.141 -0.409,1.132 0.159,0.057 -0.06,0.167 -0.002,0.005 -0.468,1.082 -0.155,-0.067 -0.082,0.188 -0.519,1.021 0.151,0.076 -0.106,0.209 -0.003,0.005 -0.571,0.965 -0.145,-0.086 -0.135,0.227 -0.611,0.899 0.14,0.095 -0.165,0.242 -0.003,0.005 -0.651,0.84 -0.133,-0.104 -0.198,0.255 -0.679,0.771 0.126,0.112 -0.232,0.264 -0.004,0.004 -0.71,0.71 -0.119,-0.12 -0.27,0.27 -0.727,0.64 0.111,0.127 -0.308,0.272 -0.004,0.003 -0.746,0.58 -0.104,-0.134 -0.348,0.271 -0.752,0.511 0.094,0.139 -0.388,0.265 -0.005,0.003 -0.762,0.45 -0.086,-0.145 -0.431,0.254 -0.758,0.386 0.077,0.15 -0.471,0.24 -0.005,0.002 -0.76,0.328 -0.067,-0.155 -0.511,0.221 -0.747,0.269 0.058,0.158 H 7.321 l -0.552,0.199 -0.005,0.002 -0.738,0.215 -0.047,-0.162 -0.591,0.172 -0.717,0.16 0.036,0.165 -0.628,0.14 -0.005,0.001 -0.703,0.111 -0.027,-0.167 -0.666,0.106 -0.673,0.064 0.016,0.168 -0.701,0.066 -0.006,10e-4 -0.651,0.02 -0.005,-0.168 -0.733,0.023 -0.617,-0.02 -0.005,0.169 -0.763,-0.024 h -0.005 l -0.59,-0.056 0.016,-0.168 -0.788,-0.075 -0.552,-0.088 -0.027,0.167 -0.811,-0.128 -0.006,-10e-4 -0.521,-0.116 0.037,-0.165 -0.831,-0.185 -0.479,-0.14 -0.048,0.162 -0.845,-0.246 -0.005,-10e-4 -0.447,-0.161 0.057,-0.159 -0.856,-0.308 -0.405,-0.175 -0.067,0.155 -0.861,-0.372 -0.005,-0.002 -0.372,-0.189 0.076,-0.15 -0.862,-0.439 -0.33,-0.195 -0.086,0.145 -0.861,-0.509 -0.298,-0.202 0.095,-0.14 -0.849,-0.576 -0.257,-0.199 -0.103,0.133 -0.837,-0.651 -0.226,-0.198 0.112,-0.127 -0.814,-0.717 -0.188,-0.188 -0.12,0.12 -0.791,-0.792 -0.16,-0.181 0.127,-0.112 -0.757,-0.858 -0.126,-0.163 -0.134,0.103 -0.721,-0.931 -0.103,-0.151 0.139,-0.095 -0.677,-0.995 -0.075,-0.127 -0.146,0.086 -0.628,-1.065 -0.057,-0.11 0.151,-0.077 -0.573,-1.124 -0.035,-0.082 -0.155,0.067 -0.514,-1.189 -0.023,-0.061 0.159,-0.058 -0.448,-1.241 -0.008,-0.03 -0.162,0.047 -0.378,-1.301 -0.002,-0.006 0.165,-0.037 -0.294,-1.318 -0.165,0.037 -0.006,-0.027 -0.001,-0.005 -0.207,-1.312 0.167,-0.026 -0.009,-0.057 -0.122,-1.287 -0.169,0.016 -0.008,-0.087 v -0.005 l -0.04,-1.269 0.168,-0.005 -0.003,-0.116 0.039,-1.234 -0.169,-0.005 0.005,-0.146 v -0.005 l 0.114,-1.205 0.168,0.016 0.017,-0.174 0.183,-1.161 -0.167,-0.026 0.032,-0.202 0.001,-0.006 0.251,-1.123 0.164,0.036 0.051,-0.228 0.312,-1.072 -0.162,-0.047 0.073,-0.253 0.002,-0.006 0.371,-1.027 0.159,0.057 0.099,-0.275 0.419,-0.971 -0.154,-0.067 h -0.001 l 0.128,-0.296 0.002,-0.005 0.469,-0.921 0.151,0.077 0.16,-0.314 0.507,-0.86 -0.145,-0.086 0.193,-0.327 0.003,-0.005 0.549,-0.806 0.14,0.095 0.231,-0.339 0.576,-0.743 -0.133,-0.103 0.269,-0.348 0.003,-0.004 0.606,-0.687 0.127,0.111 0.31,-0.351 0.623,-0.624 -0.119,-0.119 0.352,-0.353 0.004,-0.004 0.644,-0.566 0.111,0.126 0.396,-0.349 0.65,-0.504 -0.104,-0.133 0.44,-0.342 0.004,-0.003 0.662,-0.449 0.095,0.14 0.485,-0.33 0.657,-0.389 -0.086,-0.145 0.53,-0.314 0.005,-0.003 0.659,-0.336 0.077,0.151 0.575,-0.294 0.647,-0.279 -0.067,-0.155 0.619,-0.268 0.005,-0.002 0.641,-0.23 0.057,0.158 0.662,-0.239 0.621,-0.18 -0.047,-0.162 0.704,-0.205 0.005,-10e-4 0.608,-0.136 0.037,0.165 0.744,-0.166 0.58,-0.093 -0.026,-0.166 0.783,-0.125 0.005,-0.001 0.561,-0.052 0.016,0.168 0.818,-0.077 z"
         style="fill:#f9ce53;fill-opacity:1;fill-rule:nonzero;stroke:none"
         id="path919"
         inkscape:connector-curvature="0" />
    </g>
    <g
       id="g921"
       transform="matrix(0.35277777,0,0,-0.35277777,89.615636,118.14657)">
      <path
         d="M 0,0 -0.005,0.169 -0.499,0.154 -1.344,0.18 -1.35,0.011 -1.878,0.028 -2.696,0.105 -2.681,0.273 -3.23,0.324 -4.008,0.448 -4.035,0.281 -4.615,0.374 -5.359,0.54 -5.323,0.705 -5.92,0.838 -6.619,1.041 -6.666,0.879 l -0.621,0.18 -0.662,0.239 0.057,0.159 -0.631,0.227 -0.614,0.266 -0.067,-0.155 -0.647,0.279 -0.575,0.294 0.076,0.15 -0.649,0.331 -0.526,0.311 -0.086,-0.145 -0.657,0.389 -0.485,0.33 0.094,0.14 -0.652,0.442 -0.435,0.338 -0.104,-0.133 -0.65,0.504 -0.396,0.349 0.112,0.127 -0.636,0.56 -0.348,0.348 -0.12,-0.119 -0.623,0.624 -0.31,0.351 0.126,0.112 -0.598,0.679 -0.266,0.343 -0.134,-0.103 -0.576,0.743 -0.231,0.339 0.139,0.095 -0.543,0.797 -0.19,0.323 -0.146,-0.086 -0.507,0.86 -0.16,0.314 0.15,0.076 -0.464,0.912 -0.126,0.291 -0.155,-0.067 -0.419,0.971 -0.099,0.275 0.158,0.058 -0.367,1.017 -0.072,0.248 -0.162,-0.047 -0.312,1.072 -0.051,0.228 0.165,0.037 -0.248,1.114 -0.031,0.196 -0.167,-0.026 -0.183,1.161 -0.017,0.174 0.168,0.016 -0.113,1.194 -0.005,0.141 -0.168,-0.006 -0.039,1.234 0.003,0.116 0.169,-0.005 0.04,1.257 0.008,0.082 -0.168,0.016 0.122,1.287 0.009,0.057 0.166,-0.027 0.206,1.302 0.005,0.022 -0.165,0.036 0.294,1.318 0.012,-0.002 0.15,-0.044 0.377,1.296 -0.162,0.047 0.008,0.03 0.448,1.241 0.159,-0.057 0.019,0.052 0.51,1.179 -0.155,0.067 0.035,0.082 0.573,1.124 0.15,-0.077 0.052,0.102 0.623,1.056 -0.145,0.085 0.075,0.127 0.677,0.995 0.14,-0.095 0.097,0.142 0.715,0.923 -0.133,0.104 0.126,0.163 0.757,0.858 0.126,-0.112 0.153,0.174 0.784,0.784 -0.119,0.119 0.188,0.188 0.814,0.717 0.111,-0.127 0.218,0.192 0.829,0.644 -0.104,0.134 0.257,0.199 0.849,0.576 0.094,-0.14 0.29,0.196 0.852,0.505 -0.086,0.145 0.33,0.195 0.862,0.439 0.077,-0.151 0.363,0.184 0.856,0.37 -0.067,0.155 0.405,0.175 0.856,0.308 0.057,-0.159 0.437,0.157 0.841,0.245 -0.047,0.162 0.479,0.14 0.831,0.185 0.037,-0.165 0.51,0.114 0.807,0.128 -0.026,0.166 0.552,0.088 0.788,0.075 0.016,-0.168 0.579,0.055 0.758,0.024 -0.006,0.168 0.617,0.02 0.733,-0.023 -0.005,-0.169 0.64,-0.02 0.696,-0.066 0.016,0.168 0.673,-0.064 0.666,-0.106 -0.026,-0.166 0.692,-0.11 0.624,-0.139 0.037,0.165 0.717,-0.16 0.591,-0.172 -0.047,-0.163 0.728,-0.212 0.547,-0.196 0.057,0.159 0.747,-0.269 0.511,-0.221 -0.067,-0.155 0.75,-0.324 0.467,-0.237 0.076,0.151 0.758,-0.386 0.431,-0.254 -0.086,-0.145 0.753,-0.446 0.385,-0.261 0.095,0.14 0.752,-0.511 0.348,-0.271 -0.103,-0.133 0.737,-0.573 0.305,-0.268 0.112,0.126 0.727,-0.64 0.27,-0.27 -0.119,-0.119 0.702,-0.702 0.229,-0.26 0.127,0.111 0.679,-0.771 0.198,-0.255 -0.133,-0.103 0.644,-0.832 0.162,-0.238 0.139,0.095 0.611,-0.899 0.135,-0.227 -0.146,-0.086 0.566,-0.956 0.104,-0.204 0.15,0.077 0.519,-1.021 0.082,-0.188 -0.155,-0.068 0.465,-1.072 0.058,-0.161 0.158,0.057 0.409,-1.132 0.041,-0.141 -0.162,-0.047 0.341,-1.18 0.025,-0.109 0.165,0.037 0.276,-1.232 0.014,-0.087 -0.167,-0.026 0.2,-1.271 0.005,-0.053 0.168,0.016 0.126,-1.316 0.001,-0.029 -0.169,-0.005 0.042,-1.345 -0.007,-0.231 0.169,-0.005 -0.036,-1.143 -0.02,-0.206 -0.168,0.016 -0.111,-1.162 -0.027,-0.17 0.167,-0.027 -0.187,-1.188 -0.033,-0.144 -0.164,0.037 -0.268,-1.198 -0.032,-0.108 0.162,-0.047 -0.351,-1.212 -0.03,-0.084 -0.159,0.058 -0.436,-1.209 -0.022,-0.05 L 19.9,13.81 19.375,12.597 19.362,12.571 19.211,12.647 18.6,11.444 18.745,11.37 18.75,11.367 18.062,10.205 17.917,10.291 17.904,10.27 17.165,9.182 17.304,9.087 17.272,9.039 16.48,8.018 16.346,8.121 16.296,8.056 15.464,7.113 15.591,7.001 15.514,6.914 14.641,6.041 14.522,6.16 14.422,6.061 13.523,5.268 13.634,5.142 13.502,5.025 12.574,4.306 12.47,4.439 12.313,4.316 11.37,3.676 11.464,3.536 11.271,3.404 10.31,2.836 10.224,2.981 10.001,2.849 9.038,2.358 9.115,2.208 8.853,2.074 7.883,1.655 7.816,1.81 7.525,1.684 6.563,1.337 6.62,1.179 6.288,1.059 5.33,0.781 5.283,0.943 4.922,0.838 3.981,0.628 4.018,0.463 3.618,0.374 2.689,0.226 2.663,0.393 2.233,0.324 1.332,0.24 1.348,0.072 0.88,0.028 0,0 m -0.925,10.981 -0.006,-0.169 0.427,-0.014 h 0.005 l 0.695,0.022 h 0.006 l 0.237,0.023 -0.015,0.168 0.453,0.043 0.682,0.108 0.2,0.044 0.036,-0.164 0.474,0.105 0.006,10e-4 0.667,0.195 0.005,10e-4 0.17,0.061 -0.057,0.159 0.484,0.174 0.632,0.274 0.131,0.067 0.077,-0.151 0.485,0.247 0.005,0.003 0.598,0.353 0.004,0.003 0.101,0.068 -0.095,0.14 0.474,0.322 0.546,0.424 0.065,0.057 0.112,-0.127 0.453,0.399 0.004,0.004 0.49,0.491 0.004,0.003 0.042,0.048 -0.127,0.112 0.418,0.474 0.423,0.545 0.016,0.023 0.14,-0.094 0.372,0.547 0.003,0.005 0.353,0.597 -0.146,0.086 10e-4,10e-4 0.314,0.614 0.262,0.605 0.155,-0.067 0.012,0.028 0.003,0.005 0.234,0.655 0.002,0.005 0.178,0.609 -0.163,0.048 0.017,0.058 0.151,0.673 0.092,0.593 0.167,-0.026 0.014,0.088 10e-4,0.005 0.066,0.692 10e-4,0.006 0.018,0.576 -0.169,0.005 0.004,0.119 0.168,0.005 -0.021,0.689 v 0.006 l -0.064,0.664 -0.168,-0.017 -0.003,0.029 -0.106,0.681 -0.138,0.617 0.165,0.037 v 0 l -0.013,0.057 -10e-4,0.005 -0.194,0.668 -0.002,0.005 -0.205,0.572 -0.159,-0.057 -0.029,0.082 -0.275,0.633 -0.26,0.51 0.15,0.077 L 9.276,27.318 9.273,27.322 8.919,27.921 8.917,27.926 8.608,28.379 8.469,28.284 8.386,28.405 7.963,28.95 7.624,29.336 7.75,29.447 7.634,29.58 7.63,29.584 7.14,30.075 7.136,30.079 6.768,30.403 6.656,30.277 6.502,30.412 5.956,30.835 5.58,31.091 l 0.095,0.139 -0.194,0.133 -0.005,0.003 -0.597,0.353 -0.005,0.003 -0.385,0.195 -0.077,-0.15 -0.236,0.12 -0.632,0.275 -0.373,0.133 0.057,0.159 -0.276,0.1 -0.005,10e-4 -0.667,0.195 -0.005,10e-4 -0.364,0.081 -0.037,-0.165 -0.315,0.071 -0.682,0.108 -0.336,0.032 0.017,0.168 v 0 l -0.351,0.033 -0.005,10e-4 -0.696,0.021 h -0.005 l -0.313,-0.009 0.005,-0.169 -0.382,-0.012 -0.687,-0.065 -0.275,-0.044 -0.026,0.167 -0.407,-0.064 -0.005,-10e-4 -0.678,-0.152 -0.005,-0.001 -0.245,-0.071 0.047,-0.162 -0.422,-0.123 -0.65,-0.233 -0.202,-0.088 -0.067,0.155 -0.431,-0.187 -0.005,-0.002 -0.619,-0.316 -0.005,-0.002 -0.169,-0.1 0.086,-0.145 -0.429,-0.254 -0.571,-0.388 -0.128,-0.099 -0.103,0.133 -0.418,-0.323 -0.004,-0.004 -0.522,-0.46 -0.004,-0.003 -0.097,-0.097 0.12,-0.119 -0.396,-0.395 -0.456,-0.518 -0.062,-0.08 -0.134,0.103 -0.359,-0.464 -0.003,-0.004 -0.391,-0.575 -0.003,-0.004 -0.041,-0.068 0.146,-0.086 -0.315,-0.531 -0.312,-0.615 -0.017,-0.04 -0.155,0.067 -0.258,-0.592 -0.002,-0.006 -0.235,-0.654 -0.002,-0.005 -0.005,-0.019 0.162,-0.047 -0.189,-0.649 -0.147,-0.659 -0.164,0.037 -0.004,-0.015 -10e-4,-0.005 -0.109,-0.686 -0.001,-0.006 -0.06,-0.648 0.168,-0.015 -0.004,-0.045 -0.023,-0.689 0.02,-0.616 -0.168,-0.005 0.002,-0.074 V 21.25 l 0.065,-0.692 v -0.006 l 0.093,-0.585 0.167,0.027 0.016,-0.102 0.15,-0.673 0.156,-0.536 -0.162,-0.047 v 0 0 l 0.037,-0.127 10e-4,-0.005 0.235,-0.655 0.002,-0.005 0.213,-0.489 0.154,0.067 0.065,-0.149 0.312,-0.614 0.255,-0.429 -0.146,-0.086 0.098,-0.165 0.003,-0.005 0.391,-0.575 0.003,-0.004 0.29,-0.375 0.133,0.103 0.135,-0.174 0.456,-0.518 0.312,-0.311 -0.12,-0.119 0.177,-0.177 0.004,-0.003 0.522,-0.46 0.004,-0.003 0.328,-0.255 0.104,0.133 0.221,-0.172 0.571,-0.388 0.327,-0.193 -0.086,-0.145 0.266,-0.158 0.005,-0.002 0.619,-0.316 0.005,-0.003 0.327,-0.141 0.067,0.155 0.311,-0.135 0.65,-0.233 0.309,-0.09 -0.048,-0.162 0.354,-0.103 0.005,-0.002 0.678,-0.151 0.005,-10e-4 0.295,-0.047 0.026,0.167 0.392,-0.062 0.687,-0.065 z"
         style="fill:#f7a137;fill-opacity:1;fill-rule:nonzero;stroke:none"
         id="path923"
         inkscape:connector-curvature="0" />
    </g>
    <g
       id="g925"
       transform="matrix(0.35277777,0,0,-0.35277777,89.439601,118.21148)">
      <path
         d="M 0,0 H -0.005 L -0.856,0.027 -0.851,0.195 -0.845,0.364 0,0.338 0.494,0.353 0.499,0.184 0.504,0.016 0,0 M 1.863,0.088 1.847,0.256 1.831,0.424 2.732,0.508 3.162,0.577 3.188,0.41 3.215,0.243 2.774,0.173 H 2.768 L 1.863,0.088 M -2.213,0.121 -2.774,0.173 -2.779,0.174 -3.562,0.299 -3.536,0.465 -3.509,0.632 -2.731,0.508 -2.182,0.457 -2.197,0.289 -2.213,0.121 M 4.554,0.482 4.517,0.647 4.48,0.812 5.421,1.022 5.782,1.127 5.829,0.965 5.876,0.803 5.505,0.695 5.5,0.694 4.554,0.482 M -4.897,0.559 -5.505,0.695 -5.51,0.696 -6.214,0.901 -6.167,1.063 -6.12,1.225 -5.421,1.022 -4.824,0.889 -4.86,0.724 -4.897,0.559 m -1.317,0.342 v 0 M 7.177,1.204 7.119,1.363 7.062,1.521 8.024,1.868 8.315,1.994 8.382,1.839 8.449,1.684 8.148,1.554 8.143,1.553 7.177,1.204 m -14.684,0.12 -0.641,0.23 -0.005,0.002 -0.619,0.268 0.067,0.155 0.067,0.155 L -8.024,1.868 -7.393,1.641 -7.45,1.482 -7.507,1.324 M 9.691,2.241 9.614,2.392 9.537,2.542 10.5,3.033 10.723,3.165 10.809,3.02 10.895,2.875 10.663,2.737 9.691,2.241 m -19.695,0.16 -0.659,0.336 -0.005,0.003 -0.53,0.314 0.086,0.145 0.086,0.145 0.526,-0.311 0.649,-0.331 -0.076,-0.15 -0.077,-0.151 M 12.058,3.58 11.963,3.72 11.869,3.86 12.812,4.5 12.969,4.623 13.073,4.49 13.176,4.356 13.01,4.227 12.058,3.58 m -24.407,0.198 -0.662,0.449 -0.004,0.003 -0.44,0.342 0.104,0.133 0.104,0.133 0.435,-0.338 0.652,-0.442 -0.094,-0.14 -0.095,-0.14 m 26.594,1.421 -0.112,0.127 -0.111,0.126 0.899,0.793 0.1,0.099 L 15.14,6.225 15.26,6.106 15.152,5.998 14.245,5.199 m -28.753,0.233 -0.644,0.566 -0.004,0.004 -0.352,0.353 0.119,0.119 0.12,0.119 0.348,-0.348 0.636,-0.56 -0.112,-0.127 -0.111,-0.126 m 30.725,1.641 h -10e-4 v 0 h 10e-4 m -10e-4,0 -0.126,0.112 -0.127,0.112 0.832,0.943 0.05,0.065 0.134,-0.103 0.133,-0.104 -0.056,-0.073 -0.84,-0.952 m -32.665,0.265 -0.606,0.687 -0.003,0.004 -0.269,0.348 0.133,0.103 0.134,0.103 0.266,-0.343 0.598,-0.679 -0.126,-0.112 -0.127,-0.111 m 34.392,1.838 -0.14,0.095 -0.139,0.095 0.739,1.088 0.013,0.021 0.145,-0.086 0.145,-0.086 -0.017,-0.03 -0.746,-1.097 m -36.084,0.291 -0.549,0.806 -0.003,0.005 -0.193,0.327 0.145,0.086 0.146,0.086 0.19,-0.323 0.543,-0.797 -0.139,-0.095 -0.14,-0.095 m 37.535,1.998 -0.145,0.086 -0.005,0.003 -0.145,0.074 0.611,1.203 0.151,-0.076 0.15,-0.077 -0.614,-1.208 -0.002,-0.005 h -0.001 m -0.145,0.086 v 0 m -38.808,0.237 -0.469,0.921 -0.002,0.005 -0.128,0.296 h 0.001 l 0.154,0.067 0.155,0.067 0.126,-0.291 0.464,-0.912 -0.15,-0.076 -0.151,-0.077 m 40.113,2.138 -0.155,0.068 -0.155,0.067 0.022,0.05 0.436,1.209 0.159,-0.058 0.159,-0.057 -0.44,-1.219 -0.003,-0.005 -0.023,-0.055 m -41.234,0.34 -0.371,1.027 -0.002,0.006 -0.073,0.253 0.162,0.047 0.162,0.047 0.072,-0.248 0.367,-1.017 -0.158,-0.058 -0.159,-0.057 m 42.084,2.245 -0.162,0.047 -0.162,0.047 0.032,0.108 0.268,1.198 0.164,-0.037 0.165,-0.037 -0.27,-1.208 -0.002,-0.005 -0.033,-0.113 m -42.895,0.352 -0.251,1.123 -10e-4,0.006 -0.032,0.202 0.167,0.026 0.167,0.026 0.031,-0.196 0.248,-1.114 -0.165,-0.037 -0.164,-0.036 m 43.422,2.317 -0.167,0.026 -0.167,0.027 0.027,0.17 0.111,1.162 0.168,-0.016 0.168,-0.016 -0.112,-1.173 -0.001,-0.005 -0.027,-0.175 m -43.907,0.359 -0.114,1.205 v 0.005 l -0.005,0.146 0.169,0.005 0.168,0.006 0.005,-0.141 0.113,-1.194 -0.168,-0.016 -0.168,-0.016 m 44.103,2.354 -0.168,0.005 -0.169,0.005 0.007,0.231 -0.042,1.345 0.169,0.005 0.168,0.005 0.043,-1.349 -0.169,-0.006 0.169,-0.005 -0.008,-0.236 m -43.92,0.352 -0.169,0.005 -0.168,0.005 0.04,1.269 v 0.005 l 0.008,0.087 0.169,-0.016 0.168,-0.016 -0.008,-0.082 -0.04,-1.257 m 43.422,2.568 -0.005,0.053 -0.2,1.271 0.167,0.026 0.166,0.026 0.202,-1.281 0.001,-0.005 0.005,-0.058 -0.168,-0.016 -0.168,-0.016 m -43.245,0.104 -0.166,0.027 -0.167,0.026 0.207,1.312 0.001,0.005 0.006,0.027 0.165,-0.037 0.165,-0.036 -0.005,-0.022 -0.206,-1.302 m 42.752,2.528 -0.025,0.109 -0.341,1.18 0.162,0.047 0.162,0.047 0.345,-1.19 0.001,-0.005 0.025,-0.114 -0.164,-0.037 -0.165,-0.037 m -42.25,0.104 -0.15,0.044 -0.012,0.002 -0.165,0.037 0.002,0.006 0.378,1.301 0.162,-0.047 0.162,-0.047 -0.377,-1.296 m 41.438,2.448 -0.058,0.161 -0.465,1.072 0.155,0.068 0.155,0.067 0.468,-1.082 0.002,-0.005 0.06,-0.167 -0.159,-0.057 -0.158,-0.057 m -40.608,0.109 -0.159,0.057 -0.159,0.058 0.023,0.061 0.514,1.189 0.155,-0.067 0.155,-0.067 -0.51,-1.179 -0.019,-0.052 m 39.489,2.324 -0.104,0.204 -0.566,0.956 0.146,0.086 0.145,0.086 0.571,-0.965 0.003,-0.005 0.106,-0.209 -0.151,-0.076 -0.15,-0.077 m -38.357,0.103 -0.15,0.077 -0.151,0.077 0.057,0.11 0.628,1.065 0.146,-0.086 0.145,-0.085 -0.623,-1.056 -0.052,-0.102 m 36.948,2.174 -0.162,0.238 -0.644,0.832 0.133,0.103 0.133,0.104 0.651,-0.84 0.003,-0.005 0.165,-0.242 -0.14,-0.095 -0.139,-0.095 m -35.526,0.096 -0.14,0.095 -0.139,0.095 0.103,0.151 0.721,0.931 0.134,-0.103 0.133,-0.104 -0.715,-0.923 -0.097,-0.142 m 33.849,1.992 -0.229,0.26 -0.702,0.702 0.119,0.119 0.119,0.12 0.71,-0.71 0.004,-0.004 0.232,-0.264 -0.126,-0.112 -0.127,-0.111 m -32.161,0.086 -0.126,0.112 -0.127,0.112 0.16,0.181 0.791,0.792 0.12,-0.12 0.119,-0.119 -0.784,-0.784 -0.153,-0.174 m 30.24,1.779 -0.305,0.268 -0.737,0.573 0.103,0.133 0.104,0.134 0.746,-0.58 0.004,-0.003 0.308,-0.272 -0.111,-0.127 -0.112,-0.126 m -28.309,0.076 -0.111,0.127 -0.112,0.127 0.226,0.198 0.837,0.651 0.103,-0.133 0.104,-0.134 -0.829,-0.644 -0.218,-0.192 m 26.175,1.54 -0.385,0.261 -0.753,0.446 0.086,0.145 0.086,0.145 0.762,-0.45 0.005,-0.003 0.388,-0.265 -0.094,-0.139 -0.095,-0.14 m -24.032,0.065 -0.094,0.14 -0.095,0.14 0.298,0.202 0.861,0.509 0.086,-0.145 0.086,-0.145 -0.852,-0.505 -0.29,-0.196 M 9.747,41.617 9.28,41.854 8.53,42.178 8.597,42.333 8.664,42.488 9.424,42.16 9.429,42.158 9.9,41.918 9.823,41.768 9.747,41.617 m -19.39,0.053 -0.077,0.151 -0.076,0.15 0.372,0.189 0.005,0.002 0.861,0.372 0.067,-0.155 0.067,-0.155 -0.856,-0.37 -0.363,-0.184 M 7.282,42.664 6.735,42.86 6.007,43.072 6.054,43.235 6.101,43.397 6.839,43.182 6.844,43.18 7.396,42.981 H 7.397 L 7.339,42.823 7.282,42.664 m -14.455,0.039 -0.057,0.159 -0.057,0.159 0.447,0.161 0.005,10e-4 0.845,0.246 0.048,-0.162 0.047,-0.162 -0.841,-0.245 -0.437,-0.157 m 11.882,0.699 -0.624,0.139 -0.692,0.11 0.026,0.166 0.027,0.167 0.703,-0.111 0.005,-10e-4 0.628,-0.14 -0.036,-0.165 -0.037,-0.165 m -9.304,0.025 -0.037,0.165 -0.037,0.165 0.521,0.116 0.006,0.001 0.811,0.128 0.027,-0.167 0.026,-0.166 -0.807,-0.128 -0.51,-0.114 m 6.659,0.392 -0.696,0.066 -0.64,0.02 0.005,0.169 0.005,0.168 0.651,-0.02 L 1.395,44.221 2.096,44.155 2.08,43.987 2.064,43.819 m -4.012,0.011 -0.016,0.168 -0.016,0.168 0.59,0.056 h 0.005 l 0.763,0.024 0.005,-0.169 0.006,-0.168 -0.758,-0.024 z"
         style="fill:#c3a155;fill-opacity:1;fill-rule:nonzero;stroke:none"
         id="path927"
         inkscape:connector-curvature="0" />
    </g>
    <g
       id="g929"
       transform="matrix(0.35277777,0,0,-0.35277777,89.439601,122.08604)">
      <path
         d="M 0,0 H -0.005 L -1.281,0.04 -1.275,0.209 -1.27,0.378 0,0.337 0.069,0.34 0.075,0.171 0.08,0.002 0,0 M 1.43,0.045 1.424,0.213 1.419,0.382 2.059,0.402 2.756,0.468 2.771,0.3 2.787,0.132 2.08,0.065 H 2.075 L 1.43,0.045 M -2.639,0.118 -3.983,0.246 -3.967,0.414 -3.952,0.582 -2.607,0.454 -2.623,0.286 -2.639,0.118 M 4.132,0.26 v 0 L 4.116,0.428 4.1,0.596 4.108,0.597 5.424,0.805 5.45,0.638 5.476,0.471 4.151,0.262 4.146,0.261 4.132,0.26 M -5.329,0.448 -6.205,0.587 -6.21,0.588 -6.668,0.69 -6.631,0.855 -6.594,1.02 -6.142,0.918 -5.276,0.782 -5.303,0.615 -5.329,0.448 M 6.813,0.723 6.777,0.887 6.74,1.052 8.058,1.347 8.094,1.182 8.131,1.018 6.813,0.723 M -7.986,0.985 -8.236,1.041 -9.297,1.349 -9.25,1.511 -9.203,1.673 -8.152,1.368 -7.912,1.315 -7.949,1.15 -7.986,0.985 M 9.44,1.39 9.393,1.552 9.346,1.714 10.13,1.941 10.623,2.119 10.68,1.96 10.737,1.801 10.234,1.62 10.229,1.619 9.44,1.39 m -20.037,0.361 -1.27,0.457 0.057,0.159 0.057,0.159 1.271,-0.457 L -10.54,1.91 -10.597,1.751 M 12.008,2.259 11.951,2.417 11.893,2.576 12.068,2.639 13.127,3.098 13.194,2.943 13.261,2.788 12.192,2.325 12.187,2.323 12.008,2.259 m -25.133,0.47 -0.975,0.422 -0.005,0.003 -0.261,0.133 0.077,0.15 0.077,0.151 0.256,-0.131 0.966,-0.418 -0.067,-0.155 -0.068,-0.155 m 27.624,0.625 -0.077,0.151 -0.077,0.15 1.203,0.613 0.077,-0.15 0.077,-0.15 -1.203,-0.614 m -30.068,0.546 -0.385,0.197 -0.004,0.002 -0.795,0.471 0.086,0.145 0.086,0.145 0.79,-0.467 0.376,-0.192 -0.077,-0.15 -0.077,-0.151 m 32.451,0.745 -0.086,0.146 -0.086,0.145 0.855,0.506 0.286,0.195 0.095,-0.14 0.095,-0.14 -0.296,-0.2 -0.863,-0.512 m -34.8,0.628 -1.117,0.76 0.095,0.139 0.095,0.14 1.117,-0.759 -0.095,-0.14 -0.095,-0.14 m 37.076,0.843 -0.095,0.14 -0.094,0.139 0.298,0.203 0.773,0.6 L 20.144,7.065 20.247,6.932 19.466,6.325 19.461,6.322 19.158,6.116 m -39.287,0.724 -0.981,0.761 -0.004,0.003 -0.086,0.076 0.111,0.127 0.112,0.126 0.082,-0.072 0.972,-0.754 -0.103,-0.133 -0.103,-0.134 M 21.312,7.779 21.2,7.906 21.089,8.032 22.102,8.925 22.213,8.799 22.325,8.672 21.312,7.779 m -43.525,0.794 -0.457,0.403 -0.004,0.004 -0.528,0.528 0.119,0.119 0.12,0.12 0.524,-0.525 0.449,-0.395 -0.112,-0.127 -0.111,-0.127 m 45.52,1.04 -0.119,0.12 -0.119,0.119 0.826,0.826 0.114,0.128 0.126,-0.111 0.127,-0.112 -0.121,-0.137 -0.834,-0.833 m -47.47,0.859 -0.893,1.013 0.127,0.112 0.127,0.111 0.892,-1.013 -0.126,-0.112 -0.127,-0.111 m 49.318,1.125 -0.127,0.111 -0.127,0.112 0.356,0.403 0.491,0.634 0.134,-0.104 0.133,-0.103 -0.498,-0.642 -0.003,-0.004 -0.359,-0.407 m -51.078,0.935 -0.828,1.067 0.133,0.104 0.134,0.103 0.827,-1.067 -0.133,-0.103 -0.133,-0.104 m 52.767,1.197 -0.139,0.095 -0.14,0.095 0.76,1.116 0.139,-0.095 0.14,-0.094 -0.76,-1.117 m -54.365,0.993 -0.442,0.65 -0.002,0.004 -0.291,0.491 0.146,0.086 0.145,0.086 0.288,-0.487 0.435,-0.64 -0.139,-0.095 -0.14,-0.095 m 55.852,1.274 -0.145,0.086 -0.146,0.085 0.688,1.163 0.144,-0.086 h 0.001 l 0.151,-0.077 -0.003,-0.005 -0.69,-1.166 m 0.542,1.248 v 0 m -57.815,-0.214 -0.078,0.132 -0.548,1.076 0.15,0.077 0.15,0.076 0.544,-1.066 0.073,-0.123 -0.146,-0.086 -0.145,-0.086 m 58.579,1.341 -0.151,0.076 -0.15,0.077 0.324,0.636 0.249,0.574 0.155,-0.067 0.155,-0.067 -0.253,-0.583 -0.002,-0.005 -0.327,-0.641 m -59.796,1.093 -0.536,1.239 0.155,0.067 0.155,0.067 0.536,-1.239 -0.155,-0.067 -0.155,-0.067 m 60.914,1.376 v 0 l -0.155,0.067 -0.155,0.067 0.033,0.076 0.426,1.183 0.159,-0.058 0.159,-0.057 -0.43,-1.193 -0.002,-0.005 -0.035,-0.08 m -61.925,1.138 -0.326,0.905 -0.002,0.005 -0.11,0.379 0.162,0.047 0.162,0.047 0.109,-0.374 0.322,-0.894 -0.159,-0.057 -0.158,-0.058 m 62.82,1.432 -0.162,0.047 -0.162,0.046 0.376,1.298 0.162,-0.047 0.162,-0.047 -0.376,-1.297 m -63.635,1.153 -0.092,0.318 -0.001,0.005 -0.224,1.001 0.165,0.037 0.165,0.036 0.222,-0.995 0.089,-0.307 -0.162,-0.047 -0.162,-0.048 m 64.319,1.469 -0.165,0.037 -0.164,0.037 0.194,0.869 0.07,0.444 0.167,-0.027 0.167,-0.026 -0.072,-0.455 -10e-4,-0.005 -0.196,-0.874 m -64.913,1.187 -0.212,1.334 0.167,0.026 0.167,0.026 0.211,-1.333 -0.167,-0.027 -0.166,-0.026 m 65.393,1.481 -0.167,0.026 -0.167,0.026 0.041,0.256 0.102,1.076 0.168,-0.015 0.168,-0.016 -0.103,-1.087 -0.001,-0.005 -0.041,-0.261 m -65.759,1.205 -0.106,1.132 v 0.005 l -0.007,0.218 0.168,0.006 0.169,0.005 0.007,-0.213 0.106,-1.122 -0.169,-0.016 -0.168,-0.015 m 66.009,1.504 -0.169,0.005 -0.169,0.006 0.043,1.35 0.168,-0.006 0.169,-0.005 -0.042,-1.35 m -66.166,1.201 -0.016,0.507 v 0.006 l 0.027,0.848 h 10e-4 l 0.168,-0.006 0.169,-0.005 -0.027,-0.843 0.016,-0.496 -0.169,-0.005 -0.169,-0.006 m 65.882,0.502 -0.043,1.35 0.169,0.005 0.169,0.005 0.042,-1.349 -0.169,-0.006 -0.168,-0.005 m -65.483,2.187 -0.168,0.016 -0.168,0.015 0.127,1.345 0.168,-0.016 0.168,-0.016 -0.127,-1.344 m 65.359,0.5 -0.128,1.344 0.169,0.016 0.168,0.016 0.127,-1.345 -0.168,-0.016 -0.168,-0.015 m -65.059,2.172 -0.167,0.027 -0.166,0.026 0.206,1.298 10e-4,0.005 0.009,0.041 0.164,-0.037 0.165,-0.037 -0.008,-0.035 -0.204,-1.288 m 64.727,0.496 -0.125,0.792 -0.118,0.525 0.165,0.037 0.165,0.037 0.12,-0.536 10e-4,-0.005 0.126,-0.797 v 0 l -0.167,-0.026 -0.167,-0.027 m -64.22,2.145 -0.165,0.037 -0.165,0.037 0.149,0.667 10e-4,0.005 0.188,0.646 v 0 l 0.162,-0.047 0.162,-0.047 -0.186,-0.641 -0.146,-0.657 m 63.683,0.49 -0.038,0.167 -0.325,1.123 0.162,0.047 0.162,0.047 0.328,-1.133 10e-4,-0.005 0.039,-0.172 -0.165,-0.037 -0.164,-0.037 m -62.974,2.104 -0.162,0.047 -0.162,0.048 0.015,0.049 0.443,1.232 0.159,-0.057 0.159,-0.057 -0.44,-1.222 -0.012,-0.04 m 62.21,0.464 -0.457,1.27 0.159,0.057 0.158,0.058 0.458,-1.271 -0.159,-0.057 -0.159,-0.057 m -61.27,2.045 -0.155,0.067 -0.155,0.067 0.536,1.24 0.155,-0.067 0.155,-0.067 -0.536,-1.24 m 60.296,0.461 -0.389,0.898 -0.164,0.322 0.151,0.077 0.15,0.076 0.169,-0.331 0.002,-0.005 0.391,-0.903 -0.155,-0.067 -0.155,-0.067 m -59.159,1.976 -0.15,0.076 -0.151,0.077 0.391,0.766 0.002,0.004 0.253,0.428 0.145,-0.086 0.145,-0.086 -0.249,-0.423 -0.386,-0.756 m 57.993,0.447 -0.158,0.309 -0.505,0.855 0.145,0.086 0.145,0.086 0.511,-0.864 0.003,-0.005 0.159,-0.313 -0.15,-0.077 -0.15,-0.077 m -56.671,1.895 -0.145,0.086 -0.146,0.086 0.116,0.196 0.638,0.937 0.14,-0.095 0.139,-0.095 -0.632,-0.928 -0.11,-0.187 m 55.311,0.413 -0.76,1.117 0.14,0.095 0.14,0.094 0.759,-1.116 -0.14,-0.095 -0.139,-0.095 m -53.794,1.794 -0.134,0.104 -0.133,0.103 0.829,1.067 0.133,-0.104 0.133,-0.103 -0.828,-1.067 m 52.235,0.397 -0.707,0.91 -0.124,0.141 0.126,0.111 0.127,0.112 0.131,-0.149 0.713,-0.918 -0.133,-0.104 -0.133,-0.103 m -50.535,1.687 -0.127,0.112 -0.126,0.111 0.683,0.776 0.004,0.004 0.228,0.227 0.119,-0.119 0.119,-0.119 -0.223,-0.224 -0.677,-0.768 m 48.811,0.377 -0.345,0.391 -0.579,0.579 0.119,0.119 0.12,0.119 0.586,-0.586 0.004,-0.004 0.348,-0.395 -0.127,-0.111 -0.126,-0.112 m -46.956,1.57 -0.119,0.119 -0.12,0.12 0.285,0.284 0.719,0.634 0.111,-0.126 0.112,-0.127 -0.711,-0.627 -0.277,-0.277 m 45.08,0.342 -1.013,0.894 0.112,0.126 0.112,0.127 1.012,-0.894 -0.111,-0.126 -0.112,-0.127 m -43.078,1.437 -0.103,0.134 -0.104,0.133 1.068,0.827 0.103,-0.133 0.104,-0.134 -1.068,-0.827 m 41.031,0.308 -1.05,0.814 -0.009,0.006 0.095,0.14 0.095,0.139 0.018,-0.012 1.058,-0.821 -0.103,-0.133 -0.104,-0.133 m -38.873,1.297 -0.095,0.14 -0.095,0.139 1,0.68 0.005,0.003 0.126,0.075 0.086,-0.146 0.086,-0.145 -0.122,-0.072 -0.991,-0.674 m 36.697,0.282 -0.577,0.392 -0.553,0.327 0.086,0.146 0.086,0.145 0.562,-0.333 0.005,-0.003 0.581,-0.394 -0.095,-0.14 -0.095,-0.14 m -34.422,1.151 -0.085,0.145 -0.086,0.146 0.498,0.294 0.005,0.003 0.692,0.352 0.077,-0.15 0.076,-0.15 -0.687,-0.351 -0.49,-0.289 m 32.13,0.256 -0.057,0.033 -1.135,0.579 0.076,0.15 0.077,0.151 1.144,-0.584 0.005,-0.002 0.061,-0.037 -0.085,-0.145 -0.086,-0.145 m -29.758,0.989 -0.067,0.155 -0.067,0.155 1.24,0.536 0.067,-0.155 0.067,-0.154 -1.24,-0.537 m 27.357,0.2 -1.239,0.536 0.067,0.155 0.067,0.155 1.239,-0.536 -0.067,-0.155 -0.067,-0.155 m -24.872,0.829 -0.057,0.159 -0.057,0.158 1.271,0.458 0.057,-0.159 0.057,-0.159 -1.271,-0.457 m 22.376,0.17 -0.822,0.296 -0.448,0.13 0.047,0.162 0.047,0.162 0.458,-0.133 0.006,-0.001 0.826,-0.298 -0.057,-0.159 -0.057,-0.159 m -19.819,0.662 -0.047,0.162 -0.047,0.163 0.725,0.21 0.005,0.001 0.587,0.131 0.036,-0.164 0.037,-0.165 -0.581,-0.13 -0.715,-0.208 m 17.252,0.14 -0.232,0.068 -1.072,0.24 0.037,0.164 0.037,0.165 1.081,-0.242 0.006,-0.002 0.237,-0.068 v 0 L 8.432,64.958 8.385,64.795 m -14.638,0.493 -0.037,0.164 -0.037,0.165 0.122,0.027 1.221,0.194 0.027,-0.167 0.026,-0.167 -1.21,-0.191 -0.112,-0.025 M 5.769,65.372 4.435,65.583 4.462,65.75 4.488,65.917 5.822,65.705 5.795,65.538 5.769,65.372 m -9.372,0.31 -0.016,0.169 -0.016,0.168 1.344,0.127 0.016,-0.168 0.016,-0.168 -1.344,-0.128 m 6.707,0.048 -1.045,0.099 -0.29,0.009 0.005,0.168 0.005,0.169 L 2.08,66.166 2.085,66.165 3.136,66.066 3.12,65.898 3.104,65.73 M -0.92,65.864 -0.926,66.033 -0.931,66.202 0,66.23 H 0.005 L 0.429,66.217 0.424,66.048 0.419,65.88 0,65.893 Z"
         style="fill:#8e8c6e;fill-opacity:1;fill-rule:nonzero;stroke:none"
         id="path931"
         inkscape:connector-curvature="0" />
    </g>
    <g
       id="g933"
       transform="matrix(0.35277777,0,0,-0.35277777,89.289317,114.27271)">
      <path
         d="m 0,0 -0.264,0.008 -0.687,0.065 -0.392,0.062 0.027,0.167 -0.285,0.045 -0.662,0.148 -0.348,0.101 -0.047,-0.162 -0.309,0.09 -0.65,0.233 -0.311,0.135 0.067,0.155 -0.317,0.137 -0.605,0.309 -0.262,0.154 -0.086,-0.145 -0.327,0.193 -0.571,0.388 -0.221,0.172 0.103,0.133 -0.32,0.249 -0.51,0.449 -0.173,0.173 -0.119,-0.12 -0.312,0.311 -0.456,0.518 -0.135,0.174 0.134,0.104 -0.284,0.366 -0.382,0.563 -0.095,0.16 -0.145,-0.086 -0.255,0.429 -0.312,0.614 -0.065,0.149 0.155,0.068 -0.208,0.479 -0.229,0.639 -0.036,0.122 -0.162,-0.047 -0.156,0.536 -0.15,0.673 -0.016,0.102 0.167,0.026 -0.092,0.575 -0.063,0.676 -0.002,0.069 -0.169,-0.006 -0.02,0.616 0.023,0.689 0.004,0.045 0.168,-0.016 0.059,0.637 0.107,0.671 0.002,0.01 -0.165,0.036 0.147,0.659 0.189,0.649 0.162,-0.047 0.002,0.008 0.23,0.64 0.256,0.588 -0.155,0.067 0.017,0.04 0.312,0.615 0.315,0.531 0.145,-0.086 0.035,0.058 0.382,0.562 0.356,0.46 -0.133,0.104 0.062,0.08 0.456,0.518 0.396,0.395 0.119,-0.12 0.089,0.09 0.51,0.449 0.414,0.321 -0.104,0.133 0.128,0.099 0.571,0.388 0.429,0.254 0.086,-0.146 0.16,0.095 0.605,0.308 0.426,0.185 -0.067,0.155 0.202,0.088 0.65,0.233 0.422,0.123 0.048,-0.162 0.234,0.068 0.662,0.148 0.402,0.064 -0.027,0.166 0.275,0.044 0.687,0.065 0.382,0.012 0.005,-0.169 0.303,0.009 0.68,-0.02 0.344,-0.033 0.016,0.168 0.336,-0.032 0.682,-0.108 0.315,-0.071 -0.037,-0.164 0.354,-0.079 0.652,-0.19 0.271,-0.098 0.057,0.159 0.373,-0.133 0.632,-0.275 0.236,-0.12 -0.076,-0.151 0.375,-0.19 0.584,-0.345 0.19,-0.13 0.095,0.14 0.376,-0.256 0.546,-0.423 0.154,-0.135 -0.112,-0.127 0.361,-0.317 0.479,-0.48 0.113,-0.129 0.127,0.112 0.339,-0.386 0.423,-0.545 0.083,-0.121 -0.14,-0.095 0.302,-0.444 0.346,-0.586 0.051,-0.099 0.151,0.076 0.26,-0.51 0.275,-0.633 0.029,-0.082 -0.159,-0.057 0.202,-0.562 0.19,-0.653 0.011,-0.051 0.165,0.036 0.138,-0.617 0.106,-0.681 0.003,-0.029 -0.168,-0.016 0.063,-0.653 0.021,-0.683 0.169,0.005 L 11.405,10.85 11.236,10.855 11.219,10.29 11.154,9.613 11.141,9.53 11.307,9.504 11.215,8.911 11.064,8.238 11.047,8.18 10.885,8.227 10.711,7.627 10.482,6.988 10.472,6.964 10.626,6.897 10.364,6.292 10.05,5.678 10.049,5.677 9.904,5.763 9.557,5.175 9.188,4.631 9.327,4.536 9.311,4.513 8.888,3.968 8.47,3.494 8.344,3.605 8.309,3.566 7.83,3.086 7.38,2.691 7.492,2.564 7.427,2.507 6.881,2.083 6.407,1.761 6.312,1.901 6.22,1.838 5.636,1.493 5.156,1.248 5.232,1.098 5.101,1.031 4.469,0.757 3.985,0.583 3.927,0.742 3.767,0.685 3.116,0.495 2.647,0.39 2.684,0.225 2.484,0.181 1.802,0.073 1.349,0.03 1.333,0.198 1.105,0.176 0.426,0.155 0.005,0.168 Z"
         style="fill:#da5b2f;fill-opacity:1;fill-rule:nonzero;stroke:none"
         id="path935"
         inkscape:connector-curvature="0" />
    </g>
    <g
       id="g937"
       transform="matrix(0.35277777,0,0,-0.35277777,89.439601,114.33727)">
      <path
         d="M 0,0 H -0.005 L -0.432,0.014 -0.426,0.183 -0.421,0.351 0,0.338 0.679,0.359 0.907,0.381 0.923,0.213 0.938,0.045 0.701,0.022 H 0.695 L 0,0 M -1.795,0.151 -2.09,0.198 -2.095,0.199 -2.773,0.35 -2.778,0.352 -3.132,0.455 -3.084,0.617 -3.037,0.779 -2.689,0.678 -2.027,0.53 -1.742,0.485 -1.769,0.318 -1.795,0.151 M 2.294,0.244 2.258,0.408 2.221,0.573 2.69,0.678 3.341,0.868 3.501,0.925 3.559,0.766 3.616,0.607 3.446,0.546 3.441,0.545 2.774,0.35 2.768,0.349 2.294,0.244 M -4.421,0.92 -4.748,1.061 -4.753,1.064 -5.372,1.38 -5.377,1.382 -5.643,1.54 -5.557,1.685 -5.471,1.83 -5.209,1.676 -4.604,1.367 -4.287,1.23 -4.354,1.075 -4.421,0.92 M 4.883,1.13 4.806,1.281 4.73,1.431 5.21,1.676 5.794,2.021 5.886,2.084 5.981,1.944 6.076,1.804 5.975,1.736 5.971,1.733 5.373,1.38 5.368,1.377 4.883,1.13 M -6.78,2.305 -7.108,2.56 l -0.004,0.003 -0.522,0.46 -0.004,0.003 -0.177,0.177 0.12,0.119 0.119,0.12 0.173,-0.173 0.51,-0.449 0.32,-0.249 L -6.676,2.438 -6.78,2.305 M 7.178,2.62 7.066,2.747 6.954,2.874 7.404,3.269 7.883,3.749 7.918,3.788 8.044,3.677 8.171,3.565 8.129,3.517 8.125,3.514 7.635,3.023 7.631,3.019 7.178,2.62 M -8.731,4.222 -9.021,4.597 -9.024,4.601 -9.415,5.176 -9.418,5.181 -9.516,5.346 -9.37,5.432 -9.225,5.518 -9.13,5.358 -8.748,4.795 -8.464,4.429 -8.598,4.325 -8.731,4.222 M 9.041,4.625 8.901,4.719 8.762,4.814 9.131,5.358 9.478,5.946 9.623,5.86 9.769,5.774 9.416,5.177 9.413,5.172 9.041,4.625 m -19.197,1.932 -0.213,0.489 -0.002,0.005 -0.235,0.655 -10e-4,0.005 -0.037,0.127 0.162,0.047 0.162,0.047 0.036,-0.122 0.229,-0.639 0.208,-0.479 -0.155,-0.068 -0.154,-0.067 m 20.511,0.456 v 0 L 10.2,7.08 10.046,7.147 10.056,7.171 10.285,7.81 10.459,8.41 10.621,8.363 10.784,8.315 10.606,7.706 10.604,7.701 10.37,7.046 10.367,7.041 10.355,7.013 m -20.999,0.825 v 0 0 m -0.327,1.331 -0.093,0.585 V 9.76 l -0.065,0.692 v 0.005 l -0.002,0.074 0.168,0.005 0.169,0.006 0.002,-0.069 0.063,-0.676 0.092,-0.575 -0.167,-0.026 -0.167,-0.027 m 22.019,0.492 -0.167,0.026 -0.166,0.026 0.013,0.083 0.065,0.677 0.017,0.565 0.169,-0.005 0.169,-0.005 L 11.13,10.452 11.129,10.446 11.063,9.754 11.062,9.749 11.048,9.661 m -0.234,1.486 -0.021,0.683 -0.063,0.653 0.168,0.016 0.168,0.017 0.064,-0.664 v -0.006 l 0.021,-0.689 -0.168,-0.005 -0.169,-0.005 m -21.602,0.723 -0.168,0.016 -0.168,0.015 0.06,0.648 10e-4,0.006 0.109,0.686 0.001,0.005 0.004,0.015 0.164,-0.037 0.165,-0.036 -0.002,-0.01 -0.107,-0.671 -0.059,-0.637 m 21.274,1.92 -0.011,0.051 -0.19,0.653 -0.202,0.562 0.159,0.057 0.159,0.057 0.205,-0.572 0.002,-0.005 0.194,-0.668 0.001,-0.005 0.013,-0.057 v 0 L 10.651,13.826 10.486,13.79 m -20.773,0.695 -0.162,0.047 -0.162,0.047 0.005,0.019 0.002,0.005 0.235,0.654 0.002,0.006 0.258,0.592 0.155,-0.067 0.155,-0.067 -0.256,-0.588 -0.23,-0.64 -0.002,-0.008 m 19.814,1.777 -0.051,0.099 -0.346,0.586 -0.302,0.444 0.14,0.095 0.139,0.095 0.309,-0.453 0.002,-0.005 0.354,-0.599 0.003,-0.004 0.053,-0.105 -0.15,-0.077 -0.151,-0.076 m -18.692,0.626 -0.145,0.086 -0.146,0.086 0.041,0.068 0.003,0.004 0.391,0.575 0.003,0.004 0.359,0.464 0.134,-0.103 0.133,-0.104 -0.356,-0.46 -0.382,-0.562 -0.035,-0.058 m 17.161,1.538 -0.113,0.129 -0.479,0.48 -0.361,0.317 0.112,0.127 0.112,0.126 0.368,-0.324 0.004,-0.004 0.49,-0.491 0.004,-0.004 0.116,-0.133 -0.126,-0.111 -0.127,-0.112 m -15.488,0.519 -0.119,0.12 -0.12,0.119 0.097,0.097 0.004,0.003 0.522,0.46 0.004,0.004 0.418,0.323 0.103,-0.133 0.104,-0.133 -0.414,-0.321 -0.51,-0.449 -0.089,-0.09 m 13.476,1.208 -0.19,0.13 -0.584,0.345 -0.375,0.19 0.076,0.151 0.077,0.15 0.385,-0.195 0.005,-0.003 0.597,-0.353 0.005,-0.003 0.194,-0.133 -0.095,-0.139 -0.095,-0.14 m -11.353,0.38 -0.086,0.146 -0.086,0.145 0.169,0.1 0.005,0.002 0.619,0.316 0.005,0.002 0.431,0.187 0.067,-0.155 0.067,-0.155 -0.426,-0.185 -0.605,-0.308 -0.16,-0.095 m 8.982,0.805 -0.271,0.098 -0.652,0.19 -0.354,0.079 0.037,0.164 0.037,0.165 0.364,-0.081 0.005,-10e-4 0.667,-0.195 0.005,-0.001 0.276,-0.1 L 3.67,21.497 3.613,21.338 m -6.536,0.22 -0.048,0.162 -0.047,0.162 0.245,0.071 0.005,0.001 0.678,0.152 0.005,10e-4 0.407,0.064 0.026,-0.167 0.027,-0.166 -0.402,-0.064 -0.662,-0.148 -0.234,-0.068 M 1.024,21.912 0.68,21.945 0,21.965 -0.303,21.956 -0.308,22.125 -0.313,22.294 0,22.303 h 0.005 l 0.696,-0.021 0.005,-0.001 0.351,-0.033 v 0 L 1.04,22.08 Z"
         style="fill:#8d7250;fill-opacity:1;fill-rule:nonzero;stroke:none"
         id="path939"
         inkscape:connector-curvature="0" />
    </g>
    <text
       y="112.1552"
       x="93.427933"
       style="font-variant:normal;font-weight:normal;font-stretch:normal;font-size:2.11666656px;font-family:'ANKEF A +Helvetica LT Std';-inkscape-font-specification:HelveticaLTStd-Roman;writing-mode:lr-tb;fill:#231f20;fill-opacity:1;fill-rule:nonzero;stroke:none;stroke-width:0.35277775"
       id="text949">
      <tspan
         style="stroke-width:0.35277775"
         x="93.427933 94.604797 95.781662"
         y="112.1552"
         sodipodi:role="line"
         id="tspan941">200</tspan>
      <tspan
         style="stroke-width:0.35277775"
         x="97.022034 98.198898 99.375763"
         y="113.21988"
         sodipodi:role="line"
         id="tspan943">400</tspan>
      <tspan
         style="stroke-width:0.35277775"
         x="100.85743 102.03429 103.21117"
         y="114.06232"
         sodipodi:role="line"
         id="tspan945">600</tspan>
      <tspan
         style="stroke-width:0.35277775"
         x="104.70976 105.88663 107.0635"
         y="115.15452"
         sodipodi:role="line"
         id="tspan947">800</tspan>
    </text>
    <g
       id="g951"
       transform="matrix(0.35277777,0,0,-0.35277777,76.048157,118.20336)">
      <path
         d="M 0,0 1.169,0.675 1,0.967 -0.169,0.292 Z M 2.339,1.35 3.508,2.025 3.34,2.317 2.17,1.642 Z M 4.678,2.7 5.848,3.375 5.679,3.668 4.509,2.993 Z M 7.017,4.051 8.187,4.726 8.018,5.018 6.848,4.343 Z m 2.339,1.35 1.17,0.675 -0.169,0.293 -1.169,-0.676 z m 2.34,1.35 1.169,0.676 -0.169,0.292 -1.169,-0.675 z m 2.339,1.351 1.169,0.675 -0.168,0.293 -1.17,-0.676 z m 2.339,1.35 1.17,0.676 -0.169,0.292 -1.17,-0.675 z m 2.339,1.351 1.17,0.675 -0.169,0.292 -1.17,-0.675 z m 2.339,1.35 1.17,0.676 -0.169,0.292 -1.169,-0.675 z m 2.339,1.351 1.17,0.675 -0.169,0.292 -1.169,-0.675 z m 2.34,1.35 1.169,0.675 -0.169,0.293 -1.169,-0.675 z m 2.339,1.351 1.169,0.675 -0.168,0.292 -1.17,-0.675 z m 2.339,1.35 1.17,0.675 -0.169,0.293 -1.17,-0.676 z m 2.339,1.351 1.17,0.675 -0.169,0.292 -1.17,-0.675 z m 2.339,1.35 1.17,0.675 -0.169,0.293 -1.169,-0.676 z m 2.34,1.35 1.169,0.676 -0.169,0.292 -1.169,-0.675 z m 2.339,1.351 1.169,0.675 -0.168,0.292 -1.17,-0.675 z m 2.339,1.35 1.17,0.676 -0.169,0.292 -1.17,-0.675 z m 2.339,1.351 1.17,0.675 -0.169,0.292 -1.17,-0.675 z m 2.339,1.35 1.17,0.675 -0.169,0.293 -1.17,-0.675 z m 2.339,1.351 1.17,0.675 -0.169,0.292 -1.169,-0.675 z m 2.34,1.35 1.169,0.675 -0.169,0.293 -1.169,-0.675 z m 2.339,1.351 1.169,0.675 -0.168,0.292 -1.17,-0.675 z m 2.339,1.35 1.17,0.675 -0.169,0.293 -1.17,-0.676 z m 2.339,1.35 1.17,0.676 -0.169,0.292 -1.17,-0.675 z m 2.339,1.351 1.17,0.675 -0.169,0.293 -1.169,-0.676 z m 2.34,1.35 1.169,0.676 -0.169,0.292 -1.169,-0.675 z m 2.339,1.351 1.169,0.675 -0.168,0.292 -1.17,-0.675 z m 2.339,1.35 1.17,0.675 -0.169,0.293 -1.17,-0.675 z m 2.339,1.351 1.17,0.675 -0.169,0.292 -1.17,-0.675 z m 2.339,1.35 1.17,0.675 -0.169,0.293 -1.17,-0.675 z m 2.339,1.351 1.17,0.675 -0.169,0.292 -1.169,-0.675 z"
         style="fill:#231f20;fill-opacity:1;fill-rule:nonzero;stroke:none"
         id="path953"
         inkscape:connector-curvature="0" />
    </g>
    <g
       id="g955"
       transform="matrix(0.35277777,0,0,-0.35277777,81.742342,123.85451)">
      <path
         d="M 0,0 0.675,1.17 0.383,1.339 -0.292,0.169 Z M 1.351,2.34 2.026,3.509 1.733,3.678 1.058,2.508 Z M 2.701,4.679 3.376,5.848 3.084,6.017 2.409,4.847 Z M 4.052,7.018 4.727,8.187 4.435,8.356 3.759,7.187 Z M 5.402,9.357 6.077,10.526 5.785,10.695 5.11,9.526 Z m 1.351,2.339 0.675,1.17 -0.292,0.168 -0.676,-1.169 z m 1.35,2.339 0.676,1.17 -0.293,0.169 -0.675,-1.17 z m 1.351,2.339 0.675,1.169 -0.292,0.169 -0.676,-1.169 z m 1.35,2.339 0.676,1.17 -0.293,0.168 -0.675,-1.169 z m 1.351,2.339 0.675,1.17 -0.292,0.168 -0.675,-1.169 z m 1.35,2.339 0.676,1.17 -0.293,0.169 -0.675,-1.17 z m 1.351,2.339 0.675,1.17 -0.292,0.169 -0.675,-1.17 z m 1.351,2.34 0.675,1.169 -0.293,0.169 -0.675,-1.17 z m 1.35,2.339 0.675,1.169 -0.292,0.169 -0.675,-1.17 z m 1.351,2.339 0.675,1.169 -0.292,0.169 -0.676,-1.169 z m 1.35,2.339 0.675,1.169 -0.292,0.169 -0.675,-1.169 z m 1.351,2.339 0.675,1.17 -0.292,0.168 -0.676,-1.169 z m 1.35,2.339 0.676,1.17 -0.293,0.169 -0.675,-1.17 z m 1.351,2.339 0.675,1.17 -0.292,0.169 -0.676,-1.17 z m 1.35,2.339 0.676,1.17 -0.293,0.169 -0.675,-1.17 z m 1.351,2.34 0.675,1.169 -0.292,0.169 -0.675,-1.17 z m 1.35,2.339 0.676,1.169 -0.293,0.169 -0.675,-1.169 z m 1.351,2.339 0.675,1.169 -0.292,0.169 -0.675,-1.169 z m 1.351,2.339 0.675,1.17 -0.293,0.168 -0.675,-1.169 z m 1.35,2.339 0.675,1.17 -0.292,0.168 -0.675,-1.169 z m 1.351,2.339 0.675,1.17 -0.292,0.169 -0.676,-1.17 z m 1.35,2.339 0.675,1.17 -0.292,0.169 -0.675,-1.17 z m 1.351,2.339 0.675,1.17 -0.292,0.169 -0.676,-1.17 z m 1.35,2.34 0.676,1.169 -0.293,0.169 -0.675,-1.17 z m 1.351,2.339 0.675,1.169 -0.292,0.169 -0.676,-1.169 z m 1.35,2.339 0.676,1.169 -0.293,0.169 -0.675,-1.169 z m 1.351,2.339 0.675,1.17 -0.292,0.168 -0.675,-1.169 z m 1.35,2.339 0.676,1.17 -0.293,0.169 -0.675,-1.17 z"
         style="fill:#231f20;fill-opacity:1;fill-rule:nonzero;stroke:none"
         id="path957"
         inkscape:connector-curvature="0" />
    </g>
    <path
       d="m 89.499219,125.42438 h -0.119237 v 0.47661 h 0.119237 z m 0,-0.95285 h -0.119237 v 0.4766 h 0.119237 z m 0,-0.95285 h -0.119237 v 0.4766 h 0.119237 z m 0,-0.95286 h -0.119237 v 0.47661 h 0.119237 z m 0,-0.95285 h -0.119237 v 0.4766 h 0.119237 z m 0,-0.95285 h -0.119237 v 0.4766 h 0.119237 z m 0,-0.95285 h -0.119237 v 0.4766 h 0.119237 z m 0,-0.95286 h -0.119237 v 0.47661 h 0.119237 z m 0,-0.95285 h -0.119237 v 0.4766 h 0.119237 z m 0,-0.9525 h -0.119237 v 0.47625 h 0.119237 z m 0,-0.95285 h -0.119237 v 0.4766 h 0.119237 z m 0,-0.95285 h -0.119237 v 0.47625 h 0.119237 z m 0,-0.95286 h -0.119237 v 0.47661 h 0.119237 z m 0,-0.95285 h -0.119237 v 0.47625 h 0.119237 z m 0,-0.95285 h -0.119237 v 0.4766 h 0.119237 z m 0,-0.95285 h -0.119237 v 0.47625 h 0.119237 z m 0,-0.95286 h -0.119237 v 0.47661 h 0.119237 z m 0,-0.95285 h -0.119237 v 0.4766 h 0.119237 z m 0,-0.95285 h -0.119237 v 0.47625 h 0.119237 z m 0,-0.95286 h -0.119237 v 0.47661 h 0.119237 z m 0,-0.95285 h -0.119237 v 0.47625 h 0.119237 z m 0,-0.9532 h -0.119237 v 0.4766 h 0.119237 z m 0,-0.95286 h -0.119237 v 0.47625 h 0.119237 z m 0,-0.95285 h -0.119237 v 0.4766 h 0.119237 z m 0,-0.95285 h -0.119237 v 0.47625 h 0.119237 z m 0,-0.95285 h -0.119237 v 0.4766 h 0.119237 z m 0,-0.95286 h -0.119237 v 0.47661 h 0.119237 z m 0,-0.952851 h -0.119237 v 0.476251 h 0.119237 z m 0,-0.952852 h -0.119237 v 0.476602 h 0.119237 z m 0,-0.952853 h -0.119237 v 0.47625 h 0.119237 z m 0,-0.952853 h -0.119237 v 0.476603 h 0.119237 z m 0,-0.952853 h -0.119237 v 0.476603 h 0.119237 z m 0,-0.952852 h -0.119237 v 0.476602 h 0.119237 z"
       style="fill:#231f20;fill-opacity:1;fill-rule:nonzero;stroke:none;stroke-width:0.35277775"
       id="path959"
       inkscape:connector-curvature="0" />
    <g
       id="g961"
       transform="matrix(0.35277777,0,0,-0.35277777,97.240224,123.79489)">
      <path
         d="m 0,0 -0.675,1.17 -0.292,-0.169 0.675,-1.17 z M -1.35,2.339 -2.026,3.509 -2.318,3.34 -1.643,2.171 Z M -2.701,4.678 -3.376,5.848 -3.669,5.679 -2.993,4.51 Z m -1.35,2.34 -0.676,1.169 -0.292,-0.169 0.675,-1.169 z m -1.351,2.339 -0.675,1.169 -0.293,-0.169 0.676,-1.169 z m -1.351,2.339 -0.675,1.169 -0.292,-0.168 0.675,-1.17 z m -1.35,2.339 -0.675,1.17 -0.293,-0.169 0.676,-1.17 z m -1.351,2.339 -0.675,1.169 -0.292,-0.169 0.675,-1.169 z m -1.35,2.339 -0.675,1.169 -0.293,-0.168 0.675,-1.17 z m -1.351,2.339 -0.675,1.169 -0.292,-0.168 0.675,-1.17 z m -1.35,2.339 -0.676,1.17 -0.292,-0.169 0.675,-1.17 z m -1.351,2.339 -0.675,1.17 -0.292,-0.169 0.675,-1.17 z m -1.35,2.339 -0.676,1.17 -0.292,-0.169 0.675,-1.169 z m -1.351,2.339 -0.675,1.17 -0.293,-0.169 0.676,-1.169 z m -1.35,2.34 -0.676,1.169 -0.292,-0.169 0.675,-1.169 z m -1.351,2.339 -0.675,1.169 -0.293,-0.169 0.676,-1.169 z m -1.351,2.339 -0.675,1.169 -0.292,-0.168 0.675,-1.17 z m -1.35,2.339 -0.675,1.17 -0.293,-0.169 0.676,-1.17 z m -1.351,2.339 -0.675,1.17 -0.292,-0.169 0.675,-1.17 z m -1.35,2.339 -0.675,1.17 -0.293,-0.169 0.675,-1.17 z m -1.351,2.339 -0.675,1.17 -0.292,-0.169 0.675,-1.169 z m -1.35,2.34 -0.676,1.169 -0.292,-0.169 0.675,-1.169 z m -1.351,2.339 -0.675,1.169 -0.292,-0.169 0.675,-1.169 z m -1.35,2.339 -0.676,1.169 -0.292,-0.168 0.675,-1.17 z m -1.351,2.339 -0.675,1.169 -0.293,-0.168 0.676,-1.17 z m -1.35,2.339 -0.676,1.17 -0.292,-0.169 0.675,-1.17 z m -1.351,2.339 -0.675,1.17 -0.293,-0.169 0.676,-1.17 z m -1.351,2.339 -0.675,1.17 -0.292,-0.169 0.675,-1.17 z m -1.35,2.339 -0.675,1.17 -0.293,-0.169 0.676,-1.169 z m -1.351,2.34 -0.675,1.169 -0.292,-0.169 0.675,-1.169 z m -1.35,2.339 -0.675,1.169 -0.293,-0.169 0.675,-1.169 z m -1.351,2.339 -0.675,1.169 -0.292,-0.168 0.675,-1.17 z m -1.35,2.339 -0.676,1.17 -0.292,-0.169 0.675,-1.17 z"
         style="fill:#231f20;fill-opacity:1;fill-rule:nonzero;stroke:none"
         id="path963"
         inkscape:connector-curvature="0" />
    </g>
    <g
       id="g965"
       transform="matrix(0.35277777,0,0,-0.35277777,102.89102,118.10035)">
      <path
         d="m 0,0 -1.17,0.675 -0.168,-0.292 1.169,-0.675 z m -2.339,1.35 -1.17,0.675 -0.169,-0.292 1.17,-0.675 z m -2.339,1.351 -1.17,0.675 -0.169,-0.293 1.17,-0.675 z m -2.34,1.35 -1.169,0.675 -0.169,-0.292 1.17,-0.675 z m -2.339,1.35 -1.169,0.676 -0.169,-0.293 1.169,-0.675 z m -2.339,1.351 -1.17,0.675 -0.168,-0.292 1.169,-0.676 z m -2.339,1.35 -1.17,0.676 -0.169,-0.293 1.17,-0.675 z m -2.339,1.351 -1.17,0.675 -0.169,-0.292 1.17,-0.676 z m -2.339,1.35 -1.17,0.675 -0.169,-0.292 1.17,-0.675 z m -2.34,1.351 -1.169,0.675 -0.169,-0.292 1.17,-0.676 z m -2.339,1.35 -1.169,0.675 -0.169,-0.292 1.169,-0.675 z m -2.339,1.351 -1.17,0.675 -0.168,-0.293 1.169,-0.675 z m -2.339,1.35 -1.17,0.675 -0.169,-0.292 1.17,-0.675 z m -2.339,1.35 -1.17,0.676 -0.169,-0.293 1.17,-0.675 z m -2.34,1.351 -1.169,0.675 -0.169,-0.292 1.17,-0.675 z m -2.339,1.35 -1.169,0.676 -0.169,-0.293 1.169,-0.675 z m -2.339,1.351 -1.17,0.675 -0.168,-0.292 1.169,-0.676 z m -2.339,1.35 -1.17,0.675 -0.169,-0.292 1.17,-0.675 z m -2.339,1.351 -1.17,0.675 -0.169,-0.292 1.17,-0.676 z m -2.339,1.35 -1.17,0.675 -0.169,-0.292 1.17,-0.675 z m -2.34,1.351 -1.169,0.675 -0.169,-0.293 1.17,-0.675 z m -2.339,1.35 -1.169,0.675 -0.169,-0.292 1.169,-0.675 z m -2.339,1.351 -1.17,0.675 -0.168,-0.293 1.169,-0.675 z m -2.339,1.35 -1.17,0.675 -0.169,-0.292 1.17,-0.675 z m -2.339,1.35 -1.17,0.676 -0.169,-0.293 1.17,-0.675 z m -2.34,1.351 -1.169,0.675 -0.169,-0.292 1.17,-0.676 z m -2.339,1.35 -1.169,0.676 -0.169,-0.293 1.169,-0.675 z m -2.339,1.351 -1.17,0.675 -0.168,-0.292 1.169,-0.676 z m -2.339,1.35 -1.17,0.675 -0.169,-0.292 1.17,-0.675 z m -2.339,1.351 -1.17,0.675 -0.169,-0.293 1.17,-0.675 z m -2.34,1.35 -1.169,0.675 -0.169,-0.292 1.17,-0.675 z m -2.339,1.351 -1.169,0.675 -0.169,-0.293 1.17,-0.675 z m -2.339,1.35 -1.169,0.675 -0.169,-0.292 1.169,-0.675 z"
         style="fill:#231f20;fill-opacity:1;fill-rule:nonzero;stroke:none"
         id="path967"
         inkscape:connector-curvature="0" />
    </g>
    <path
       d="m 104.93713,110.34349 h -0.47625 v 0.11923 h 0.47625 z m -0.95285,0 h -0.47625 v 0.11923 h 0.47625 z m -0.95286,0 h -0.47625 v 0.11923 h 0.47625 z m -0.95285,0 h -0.47625 v 0.11923 h 0.47625 z m -0.95285,0 h -0.47625 v 0.11923 h 0.47625 z m -0.95285,0 h -0.476255 v 0.11923 h 0.476255 z m -0.952859,0 h -0.47625 v 0.11923 h 0.47625 z m -0.952852,0 h -0.47625 v 0.11923 h 0.47625 z m -0.952852,0 h -0.47625 v 0.11923 h 0.47625 z m -0.952854,0 h -0.47625 v 0.11923 h 0.47625 z m -0.952852,0 h -0.47625 v 0.11923 h 0.47625 z m -0.952852,0 h -0.47625 v 0.11923 h 0.47625 z m -0.952855,0 h -0.47625 v 0.11923 h 0.47625 z m -0.952852,0 h -0.47625 v 0.11923 h 0.47625 z m -0.952852,0 h -0.47625 v 0.11923 h 0.47625 z m -0.952854,0 h -0.47625 v 0.11923 h 0.47625 z m -0.952852,0 h -0.47625 v 0.11923 h 0.47625 z m -0.952852,0 h -0.47625 v 0.11923 h 0.47625 z m -0.952854,0 h -0.47625 v 0.11923 h 0.47625 z m -0.952852,0 h -0.47625 v 0.11923 h 0.47625 z m -0.952852,0 h -0.476605 v 0.11923 h 0.476605 z m -0.952855,0 h -0.476602 v 0.11923 h 0.476602 z m -0.952852,0 h -0.476602 v 0.11923 h 0.476602 z m -0.952852,0 h -0.476604 v 0.11923 h 0.476604 z m -0.952854,0 h -0.476602 v 0.11923 h 0.476602 z m -0.952852,0 h -0.476602 v 0.11923 h 0.476602 z m -0.952852,0 h -0.476603 v 0.11923 h 0.476603 z m -0.952853,0 h -0.476603 v 0.11923 h 0.476603 z m -0.952853,0 h -0.476603 v 0.11923 h 0.476603 z m -0.952853,0 h -0.476603 v 0.11923 h 0.476603 z m -0.952853,0 h -0.476602 v 0.11923 h 0.476602 z m -0.952852,0 H 74.92209 v 0.11923 h 0.476603 z m -0.952853,0 h -0.476603 v 0.11923 h 0.476603 z"
       style="fill:#231f20;fill-opacity:1;fill-rule:nonzero;stroke:none;stroke-width:0.35277775"
       id="path969"
       inkscape:connector-curvature="0" />
    <text
       y="110.9868"
       x="71.260078"
       style="font-variant:normal;font-weight:normal;font-stretch:normal;font-size:2.11666656px;font-family:'ANKEF A +Helvetica LT Std';-inkscape-font-specification:HelveticaLTStd-Roman;writing-mode:lr-tb;fill:#231f20;fill-opacity:1;fill-rule:nonzero;stroke:none;stroke-width:0.35277775"
       id="text979">
      <tspan
         style="stroke-width:0.35277775"
         x="71.260078 72.436943"
         y="110.9868"
         sodipodi:role="line"
         id="tspan971">90</tspan>
      <tspan
         style="stroke-width:0.35277775"
         x="105.53738 106.71424 107.89111"
         y="110.92754"
         sodipodi:role="line"
         id="tspan973">270</tspan>
      <tspan
         style="stroke-width:0.35277775"
         x="87.93306 89.109932 90.286797"
         y="127.82488"
         sodipodi:role="line"
         id="tspan975">180</tspan>
      <tspan
         style="stroke-width:0.35277775"
         x="88.894028"
         y="94.288414"
         id="tspan977">0</tspan>
    </text>
    <g
       id="g981"
       transform="matrix(0.35277777,0,0,-0.35277777,89.512274,110.37135)">
      <path
         d="M 0,0 H 2.581 L 2.426,0.883 0,0 3.198,1.165 2.607,2.188 0,0 5.637,4.73 3.678,6.372 0,0 8.676,15.028 3.013,17.089 0,0 5.855,33.202 H -5.854 L 0,0 -3.157,17.9 -9.088,15.741 0,0 -3.596,6.23 -5.511,4.625 0,0 -3.702,3.106 -4.541,1.653 0,0 -5.883,2.141 -6.261,0 H 0 -6.04 L -5.677,-2.066 0,0 -2.425,-0.883 -1.977,-1.659 0,0 -1.556,-1.306 -1.017,-1.76 0,0 -1.977,-3.424 -0.687,-3.893 0,0 -0.906,-5.138 H 0.906 L 0,0 0.6,-3.407 1.729,-2.996 0,0 1.071,-1.855 1.64,-1.376 0,0 2.019,-1.694 2.477,-0.902 0,0 2.219,-0.808 2.361,0 Z"
         style="fill:#7bd3dc;fill-opacity:1;fill-rule:nonzero;stroke:none"
         id="path983"
         inkscape:connector-curvature="0" />
    </g>
    <g
       id="g985"
       transform="matrix(0.35277777,0,0,-0.35277777,89.512274,110.43096)">
      <path
         d="M 0,0 H 2.782 L 2.592,1.081 2.557,1.279 -0.058,0.328 0.058,0.011 3.445,1.244 2.653,2.616 -0.108,0.298 0.109,0.04 5.9,4.899 3.633,6.8 -0.146,0.253 0.146,0.085 8.922,15.287 2.882,17.485 -0.166,0.198 0.166,0.14 6.056,33.54 H -6.055 L -0.166,0.14 0.166,0.198 -3.026,18.297 -9.335,16 -0.146,0.085 0.146,0.253 -3.551,6.658 -5.774,4.794 -0.108,0.04 0.109,0.298 -3.748,3.534 -4.788,1.733 -0.058,0.011 0.058,0.328 -6.014,2.538 -6.462,0 H 0 v 0.338 h -6.241 l 0.433,-2.462 5.866,2.135 -0.116,0.317 -2.614,-0.952 0.649,-1.124 2.132,1.788 -0.217,0.258 -1.71,-1.434 0.692,-0.584 0.154,-0.13 1.118,1.935 -0.292,0.169 -2.078,-3.599 1.668,-0.607 0.722,4.092 -0.332,0.058 -0.941,-5.335 H 1.107 L 0.166,0.198 -0.166,0.14 l 0.635,-3.605 1.507,0.548 -1.83,3.17 -0.292,-0.168 1.171,-2.03 0.724,0.608 0.154,0.13 L 0.109,0.298 -0.108,0.04 2.065,-1.784 2.724,-0.643 0.058,0.328 -0.058,0.011 2.35,-0.866 2.527,0.14 2.562,0.338 H 0 V 0 H 2.159 L 2.087,-0.411 0.058,0.328 -0.058,0.011 2.23,-0.822 1.974,-1.267 0.109,0.298 -0.108,0.04 1.378,-1.207 1.117,-1.427 0.146,0.253 -0.146,0.085 1.482,-2.737 0.732,-3.01 0.166,0.198 -0.166,0.14 0.705,-4.8 h -1.41 L 0.166,0.14 -0.166,0.198 -0.819,-3.497 -1.73,-3.165 0.146,0.085 -0.146,0.254 -1.062,-1.332 -1.294,-1.137 0.109,0.04 -0.108,0.298 -1.932,-1.231 -2.178,-0.804 0.058,0.011 -0.058,0.328 -5.545,-1.669 -5.839,0 H 0 V 0.338 H -6.06 L -5.752,2.083 -0.058,0.011 0.058,0.328 -4.294,1.912 -3.657,3.016 -0.108,0.04 0.109,0.298 -5.249,4.794 -3.642,6.14 -0.146,0.085 0.146,0.253 -8.841,15.82 -3.288,17.842 -0.166,0.14 0.166,0.198 -5.653,33.202 H 5.654 L -0.166,0.198 0.166,0.14 3.145,17.031 8.429,15.108 -0.146,0.253 0.146,0.085 3.724,6.283 5.374,4.899 -0.108,0.298 0.109,0.04 2.562,2.098 2.951,1.423 -0.058,0.328 0.058,0.011 2.294,0.824 2.38,0.338 H 0 Z"
         style="fill:#231f20;fill-opacity:1;fill-rule:nonzero;stroke:none"
         id="path987"
         inkscape:connector-curvature="0" />
    </g>
    <path
       id="text1013"
       transform="scale(0.26458333)"
       style="font-variant:normal;font-weight:normal;font-stretch:normal;font-size:2.11666656px;font-family:'ANKEF A +Helvetica LT Std';-inkscape-font-specification:HelveticaLTStd-Roman;writing-mode:lr-tb;fill:#231f20;fill-opacity:1;fill-rule:nonzero;stroke:none;stroke-width:1.33333325"
       d="m 278.61914,348.80078 v 0.91016 h 0.71875 v -0.91016 z m 28.66992,0 v 2.36719 c -0.15104,-0.26042 -0.34245,-0.45313 -0.57422,-0.57813 -0.22916,-0.1276 -0.5052,-0.1914 -0.82812,-0.1914 -0.52865,0 -0.95964,0.21094 -1.29297,0.63281 -0.33073,0.42187 -0.49609,0.97656 -0.49609,1.66406 0,0.6875 0.16536,1.24219 0.49609,1.66407 0.33333,0.42187 0.76432,0.63281 1.29297,0.63281 0.32292,0 0.59896,-0.0625 0.82812,-0.1875 0.23177,-0.12761 0.42318,-0.32162 0.57422,-0.58203 v 0.65625 h 0.71875 v -6.07813 z m -35.30273,0.2461 v 5.83203 h 0.76562 v -5.1211 l 1.50391,4 h 0.79297 l 1.5039,-4 v 5.1211 h 0.76954 v -5.83203 h -1.17579 l -1.49609,3.96874 -1.48828,-3.96874 z m 10.51758,1.35156 c -0.30469,0 -0.57422,0.0651 -0.8086,0.19531 -0.23177,0.13021 -0.43359,0.32682 -0.60547,0.58984 v -0.67968 h -0.72265 v 4.375 h 0.72265 v -2.47266 c 0,-0.42708 0.11198,-0.76432 0.33594,-1.01172 0.22396,-0.24739 0.52995,-0.37109 0.91797,-0.37109 0.32292,0 0.5651,0.10286 0.72656,0.30859 0.16146,0.20573 0.24219,0.51563 0.24219,0.92969 v 2.61719 h 0.71875 v -2.64063 c 0,-0.60417 -0.12891,-1.0612 -0.38672,-1.37109 -0.25781,-0.3125 -0.63802,-0.46875 -1.14062,-0.46875 z m 8.17773,0 c -0.53646,0 -0.95052,0.11198 -1.24219,0.33594 -0.29166,0.22395 -0.4375,0.54166 -0.4375,0.95312 0,0.33854 0.099,0.60547 0.29688,0.80078 0.19791,0.19271 0.51953,0.33594 0.96484,0.42969 l 0.25,0.0586 c 0.44531,0.0964 0.73307,0.19662 0.86328,0.30078 0.13282,0.10417 0.19922,0.25391 0.19922,0.44922 0,0.21094 -0.0911,0.375 -0.27344,0.49219 -0.18229,0.11458 -0.4427,0.17187 -0.78125,0.17187 -0.2526,10e-6 -0.50781,-0.0339 -0.76562,-0.10156 -0.25781,-0.0703 -0.51953,-0.17448 -0.78516,-0.3125 v 0.74219 c 0.28125,0.0912 0.54818,0.15885 0.80078,0.20313 0.25521,0.0469 0.5,0.0703 0.73438,0.0703 0.5625,0 1.00391,-0.11849 1.32422,-0.35547 0.32291,-0.23698 0.48437,-0.5586 0.48437,-0.96484 0,-0.35678 -0.10807,-0.63412 -0.32422,-0.83204 -0.21354,-0.20052 -0.57552,-0.35547 -1.08593,-0.46484 l -0.2461,-0.0547 c -0.38541,-0.0859 -0.64192,-0.17578 -0.76953,-0.26953 -0.1276,-0.0963 -0.1914,-0.22786 -0.1914,-0.39453 0,-0.21875 0.0885,-0.38281 0.26562,-0.49219 0.17969,-0.10937 0.44792,-0.16406 0.80469,-0.16406 0.23437,0 0.46094,0.026 0.67969,0.0781 0.21875,0.0521 0.42968,0.13021 0.63281,0.23438 v -0.67969 c -0.19792,-0.0781 -0.41406,-0.13672 -0.64844,-0.17578 -0.23437,-0.0391 -0.48437,-0.0586 -0.75,-0.0586 z m 6.66602,0 c -0.65625,0 -1.17839,0.21094 -1.56641,0.63281 -0.38542,0.41927 -0.57813,0.98698 -0.57813,1.70313 0,0.6927 0.20313,1.24218 0.60938,1.64843 0.40885,0.40625 0.96224,0.60938 1.66016,0.60938 0.27864,0 0.55338,-0.0286 0.82422,-0.0859 0.27083,-0.0573 0.53515,-0.14063 0.79296,-0.25 v -0.67969 c -0.2552,0.13542 -0.51302,0.23698 -0.77343,0.30469 -0.25782,0.0677 -0.52474,0.10156 -0.80079,0.10156 -0.47656,0 -0.84895,-0.1289 -1.11718,-0.38672 -0.26563,-0.26041 -0.41407,-0.63802 -0.44532,-1.13281 h 3.30469 v -0.35156 c 0,-0.65104 -0.17187,-1.16537 -0.51562,-1.54297 -0.34115,-0.38021 -0.80599,-0.57031 -1.39453,-0.57031 z m 4.72461,0 c -0.30469,0 -0.57422,0.0651 -0.8086,0.19531 -0.23177,0.13021 -0.43359,0.32682 -0.60547,0.58984 v -0.67968 h -0.72265 v 4.375 h 0.72265 v -2.47266 c 0,-0.42708 0.11198,-0.76432 0.33594,-1.01172 0.22396,-0.24739 0.52995,-0.37109 0.91797,-0.37109 0.32292,0 0.5651,0.10286 0.72656,0.30859 0.16146,0.20573 0.24219,0.51563 0.24219,0.92969 v 2.61719 h 0.71875 v -2.64063 c 0,-0.60417 -0.12891,-1.0612 -0.38672,-1.37109 -0.25781,-0.3125 -0.63802,-0.46875 -1.14062,-0.46875 z m -23.45313,0.10547 v 4.375 h 0.71875 v -4.375 z m 6.15039,0 v 2.64843 c 0,0.60157 0.13021,1.0586 0.39063,1.3711 0.26041,0.3125 0.64192,0.46875 1.14453,0.46875 0.30468,0 0.57161,-0.0638 0.80078,-0.19141 0.23177,-0.13021 0.43489,-0.32812 0.60937,-0.59375 v 0.67188 h 0.71875 v -4.375 h -0.71875 v 2.48047 c 0,0.42708 -0.11328,0.76432 -0.33984,1.01171 -0.22396,0.2474 -0.52995,0.3711 -0.91797,0.3711 -0.32292,0 -0.5651,-0.10287 -0.72656,-0.3086 -0.16146,-0.20833 -0.24219,-0.51953 -0.24219,-0.93359 v -2.62109 z M 306.0625,351 c 0.38021,0 0.67969,0.15104 0.89844,0.45312 0.21875,0.29948 0.32812,0.71355 0.32812,1.24219 0,0.52865 -0.10937,0.94401 -0.32812,1.2461 -0.21875,0.29948 -0.51823,0.44921 -0.89844,0.44921 -0.38021,0 -0.67969,-0.14973 -0.89844,-0.44921 -0.21614,-0.30209 -0.32422,-0.71745 -0.32422,-1.2461 0,-0.52864 0.10808,-0.94271 0.32422,-1.24219 C 305.38281,351.15104 305.68229,351 306.0625,351 Z m -8.70703,0.008 c 0.35417,0 0.63802,0.11719 0.85156,0.35157 0.21615,0.23437 0.32682,0.54817 0.33203,0.9414 l -2.5625,0.004 c 0.0365,-0.41146 0.17448,-0.73047 0.41406,-0.95703 0.24219,-0.22657 0.56381,-0.33985 0.96485,-0.33985 z m 74.09375,7.38281 c -0.23177,0 -0.47917,0.0208 -0.74219,0.0625 -0.26042,0.0417 -0.54036,0.10417 -0.83984,0.1875 v 0.70313 c 0.29687,-0.099 0.56901,-0.17188 0.8164,-0.21875 0.2474,-0.0469 0.47917,-0.0703 0.69532,-0.0703 0.39583,0 0.69922,0.0807 0.91015,0.24219 0.21354,0.15885 0.32032,0.38802 0.32032,0.6875 -10e-6,0.29166 -0.10287,0.51562 -0.3086,0.67187 -0.20573,0.15365 -0.5026,0.23047 -0.89062,0.23047 h -0.71094 v 0.64844 h 0.67969 c 0.42968,0 0.76432,0.0976 1.0039,0.29296 0.24219,0.19271 0.36328,0.46094 0.36328,0.80469 0,0.3724 -0.1302,0.65625 -0.39062,0.85157 -0.25781,0.19531 -0.63412,0.29296 -1.12891,0.29296 -0.28385,0 -0.55599,-0.0325 -0.8164,-0.0976 -0.26042,-0.0651 -0.5,-0.16146 -0.71875,-0.28907 v 0.76172 c 0.27604,0.0964 0.54297,0.16797 0.80078,0.21485 0.26041,0.0495 0.51302,0.0742 0.75781,0.0742 0.72917,0 1.29167,-0.15756 1.6875,-0.47266 0.39583,-0.3151 0.59375,-0.76042 0.59375,-1.33594 0,-0.375 -0.10677,-0.6901 -0.32031,-0.94531 -0.21094,-0.25521 -0.50521,-0.42318 -0.88282,-0.50391 0.34115,-0.0859 0.60417,-0.23958 0.78907,-0.46093 0.18489,-0.22396 0.27734,-0.4974 0.27734,-0.82032 0,-0.46354 -0.17448,-0.83073 -0.52344,-1.10156 -0.34895,-0.27344 -0.82291,-0.41016 -1.42187,-0.41016 z m 4.44726,0 c -0.23177,0 -0.47916,0.0208 -0.74218,0.0625 -0.26042,0.0417 -0.54037,0.10417 -0.83985,0.1875 v 0.70313 c 0.29688,-0.099 0.56901,-0.17188 0.81641,-0.21875 0.2474,-0.0469 0.47917,-0.0703 0.69531,-0.0703 0.39584,0 0.69922,0.0807 0.91016,0.24219 0.21354,0.15885 0.32031,0.38802 0.32031,0.6875 0,0.29166 -0.10286,0.51562 -0.30859,0.67187 -0.20573,0.15365 -0.50261,0.23047 -0.89063,0.23047 h -0.71094 v 0.64844 h 0.67969 c 0.42969,0 0.76432,0.0976 1.00391,0.29296 0.24219,0.19271 0.36328,0.46094 0.36328,0.80469 0,0.3724 -0.13021,0.65625 -0.39063,0.85157 -0.25781,0.19531 -0.63411,0.29296 -1.1289,0.29296 -0.28386,0 -0.55599,-0.0325 -0.81641,-0.0976 -0.26041,-0.0651 -0.5,-0.16146 -0.71875,-0.28907 v 0.76172 c 0.27604,0.0964 0.54297,0.16797 0.80078,0.21485 0.26042,0.0495 0.51302,0.0742 0.75782,0.0742 0.72916,0 1.29166,-0.15756 1.6875,-0.47266 0.39583,-0.3151 0.59375,-0.76042 0.59375,-1.33594 0,-0.375 -0.10678,-0.6901 -0.32032,-0.94531 -0.21093,-0.25521 -0.50521,-0.42318 -0.88281,-0.50391 0.34115,-0.0859 0.60417,-0.23958 0.78906,-0.46093 0.1849,-0.22396 0.27735,-0.4974 0.27735,-0.82032 0,-0.46354 -0.17448,-0.83073 -0.52344,-1.10156 -0.34896,-0.27344 -0.82292,-0.41016 -1.42188,-0.41016 z m 4.62305,0 c -0.65364,0 -1.15364,0.25912 -1.5,0.77735 -0.34375,0.51562 -0.51562,1.26562 -0.51562,2.25 0,0.98177 0.17187,1.73177 0.51562,2.25 0.34636,0.51562 0.84636,0.77344 1.5,0.77344 0.65365,0 1.15235,-0.25782 1.49609,-0.77344 0.34636,-0.51823 0.51954,-1.26823 0.51954,-2.25 0,-0.98438 -0.17318,-1.73438 -0.51954,-2.25 -0.34374,-0.51823 -0.84244,-0.77735 -1.49609,-0.77735 z m 0,0.625 c 0.40886,0 0.71485,0.20053 0.91797,0.60157 0.20573,0.39843 0.30859,0.9987 0.30859,1.80078 0,0.79948 -0.10286,1.39974 -0.30859,1.80078 -0.20312,0.39844 -0.50911,0.59766 -0.91797,0.59766 -0.40625,0 -0.71224,-0.19922 -0.91797,-0.59766 -0.20312,-0.40104 -0.30468,-1.0013 -0.30468,-1.80078 -10e-6,-0.80208 0.10156,-1.40235 0.30468,-1.80078 0.20573,-0.40104 0.51172,-0.60157 0.91797,-0.60157 z m -76.6543,0.13477 c -0.23177,0 -0.47916,0.0208 -0.74218,0.0625 -0.26042,0.0417 -0.54037,0.10417 -0.83985,0.1875 v 0.70313 c 0.29688,-0.099 0.56901,-0.17188 0.81641,-0.21875 0.2474,-0.0469 0.47917,-0.0703 0.69531,-0.0703 0.39584,0 0.69922,0.0807 0.91016,0.24219 0.21354,0.15885 0.32031,0.38802 0.32031,0.6875 0,0.29167 -0.10286,0.51563 -0.30859,0.67188 -0.20573,0.15364 -0.50261,0.23046 -0.89063,0.23046 h -0.71094 v 0.64844 h 0.67969 c 0.42969,0 0.76432,0.0977 1.00391,0.29297 0.24219,0.19271 0.36328,0.46094 0.36328,0.80469 0,0.37239 -0.13021,0.65625 -0.39063,0.85156 -0.25781,0.19531 -0.63411,0.29297 -1.1289,0.29297 -0.28386,0 -0.55599,-0.0325 -0.81641,-0.0977 -0.26041,-0.0651 -0.5,-0.16146 -0.71875,-0.28906 v 0.76172 c 0.27604,0.0964 0.54297,0.16797 0.80078,0.21484 0.26042,0.0495 0.51302,0.0742 0.75782,0.0742 0.72916,0 1.29166,-0.15755 1.6875,-0.47265 0.39583,-0.31511 0.59375,-0.76042 0.59375,-1.33594 0,-0.375 -0.10678,-0.69011 -0.32032,-0.94531 -0.21093,-0.25521 -0.50521,-0.42318 -0.88281,-0.50391 0.34115,-0.0859 0.60417,-0.23958 0.78906,-0.46094 0.1849,-0.22396 0.27735,-0.49739 0.27735,-0.82031 0,-0.46354 -0.17448,-0.83073 -0.52344,-1.10156 -0.34896,-0.27344 -0.82292,-0.41016 -1.42188,-0.41016 z m 4.62305,0 c -0.65364,0 -1.15364,0.25912 -1.5,0.77734 -0.34375,0.51563 -0.51562,1.26563 -0.51562,2.25 0,0.98178 0.17187,1.73178 0.51562,2.25 0.34636,0.51563 0.84636,0.77344 1.5,0.77344 0.65365,0 1.15235,-0.25781 1.4961,-0.77344 0.34635,-0.51822 0.51953,-1.26822 0.51953,-2.25 0,-0.98437 -0.17318,-1.73437 -0.51953,-2.25 -0.34375,-0.51822 -0.84245,-0.77734 -1.4961,-0.77734 z m 0,0.625 c 0.40886,0 0.71485,0.20052 0.91797,0.60156 0.20573,0.39844 0.30859,0.9987 0.30859,1.80078 0,0.79948 -0.10286,1.39974 -0.30859,1.80079 -0.20312,0.39843 -0.50911,0.59765 -0.91797,0.59765 -0.40625,0 -0.71224,-0.19922 -0.91797,-0.59765 -0.20312,-0.40105 -0.30469,-1.00131 -0.30469,-1.80079 10e-6,-0.80208 0.10157,-1.40234 0.30469,-1.80078 0.20573,-0.40104 0.51172,-0.60156 0.91797,-0.60156 z m 85.80078,22.42969 c -0.23177,0 -0.47916,0.0208 -0.74218,0.0625 -0.26042,0.0417 -0.54037,0.10416 -0.83985,0.1875 v 0.70312 c 0.29688,-0.099 0.56901,-0.17187 0.81641,-0.21875 0.24739,-0.0469 0.47916,-0.0703 0.69531,-0.0703 0.39583,0 0.69922,0.0807 0.91016,0.24219 0.21354,0.15885 0.32031,0.38802 0.32031,0.6875 0,0.29166 -0.10287,0.51562 -0.3086,0.67187 -0.20572,0.15365 -0.5026,0.23047 -0.89062,0.23047 h -0.71094 v 0.64844 h 0.67969 c 0.42969,0 0.76432,0.0977 1.00391,0.29297 0.24218,0.19271 0.36328,0.46094 0.36328,0.80469 0,0.37239 -0.13021,0.65625 -0.39063,0.85156 -0.25781,0.19531 -0.63411,0.29297 -1.1289,0.29297 -0.28386,0 -0.55599,-0.0326 -0.81641,-0.0977 -0.26042,-0.0651 -0.5,-0.16146 -0.71875,-0.28906 v 0.76172 c 0.27604,0.0964 0.54297,0.16797 0.80078,0.21484 0.26042,0.0495 0.51302,0.0742 0.75781,0.0742 0.72917,0 1.29167,-0.15755 1.6875,-0.47266 0.39584,-0.3151 0.59375,-0.76041 0.59375,-1.33593 0,-0.375 -0.10677,-0.69011 -0.32031,-0.94532 -0.21094,-0.25521 -0.50521,-0.42317 -0.88281,-0.5039 0.34114,-0.0859 0.60417,-0.23959 0.78906,-0.46094 0.1849,-0.22396 0.27735,-0.4974 0.27735,-0.82031 0,-0.46354 -0.17448,-0.83073 -0.52344,-1.10157 -0.34896,-0.27343 -0.82292,-0.41015 -1.42188,-0.41015 z m 4.62305,0 c -0.65365,0 -1.15365,0.25911 -1.5,0.77734 -0.34375,0.51563 -0.51563,1.26563 -0.51563,2.25 0,0.98177 0.17188,1.73177 0.51563,2.25 0.34635,0.51563 0.84635,0.77344 1.5,0.77344 0.65365,0 1.15234,-0.25781 1.49609,-0.77344 0.34636,-0.51823 0.51953,-1.26823 0.51953,-2.25 0,-0.98437 -0.17317,-1.73437 -0.51953,-2.25 -0.34375,-0.51823 -0.84244,-0.77734 -1.49609,-0.77734 z m 4.44727,0 c -0.65365,0 -1.15365,0.25911 -1.5,0.77734 -0.34375,0.51563 -0.51563,1.26563 -0.51563,2.25 0,0.98177 0.17188,1.73177 0.51563,2.25 0.34635,0.51563 0.84635,0.77344 1.5,0.77344 0.65364,0 1.15234,-0.25781 1.49609,-0.77344 0.34635,-0.51823 0.51953,-1.26823 0.51953,-2.25 0,-0.98437 -0.17318,-1.73437 -0.51953,-2.25 -0.34375,-0.51823 -0.84245,-0.77734 -1.49609,-0.77734 z m -122.16602,0.47265 c -0.73698,0 -1.32422,0.27474 -1.76172,0.82422 -0.4375,0.54688 -0.65625,1.28125 -0.65625,2.20313 0,0.98177 0.17839,1.73177 0.53516,2.25 0.35677,0.51562 0.87239,0.77344 1.54687,0.77344 0.58854,0 1.0599,-0.18099 1.41406,-0.54297 0.35417,-0.36198 0.53125,-0.84245 0.53125,-1.44141 0,-0.61198 -0.17057,-1.09505 -0.51171,-1.44922 -0.33855,-0.35677 -0.80079,-0.53515 -1.38672,-0.53515 -0.27865,0 -0.53386,0.0612 -0.76563,0.18359 -0.23177,0.11979 -0.42448,0.29297 -0.57812,0.51953 0.0391,-0.71094 0.19531,-1.24219 0.46875,-1.59375 0.27604,-0.35156 0.67448,-0.52734 1.19531,-0.52734 0.19792,0 0.39713,0.0247 0.59766,0.0742 0.20312,0.0495 0.40364,0.12109 0.60156,0.21484 v -0.71875 c -0.21875,-0.0781 -0.42969,-0.13672 -0.63281,-0.17578 -0.20053,-0.0391 -0.39974,-0.0586 -0.59766,-0.0586 z m 4.01562,0 c -0.65364,0 -1.15364,0.25912 -1.5,0.77735 -0.34375,0.51562 -0.51562,1.26562 -0.51562,2.25 0,0.98177 0.17187,1.73177 0.51562,2.25 0.34636,0.51562 0.84636,0.77344 1.5,0.77344 0.65365,0 1.15235,-0.25782 1.4961,-0.77344 0.34635,-0.51823 0.51953,-1.26823 0.51953,-2.25 0,-0.98438 -0.17318,-1.73438 -0.51953,-2.25 -0.34375,-0.51823 -0.84245,-0.77735 -1.4961,-0.77735 z m 113.70313,0.15235 c 0.40885,0 0.71484,0.20052 0.91797,0.60156 0.20573,0.39844 0.30859,0.9987 0.30859,1.80078 0,0.79948 -0.10286,1.39974 -0.30859,1.80078 -0.20313,0.39844 -0.50912,0.59766 -0.91797,0.59766 -0.40625,0 -0.71224,-0.19922 -0.91797,-0.59766 -0.20312,-0.40104 -0.30469,-1.0013 -0.30469,-1.80078 0,-0.80208 0.10157,-1.40234 0.30469,-1.80078 0.20573,-0.40104 0.51172,-0.60156 0.91797,-0.60156 z m 4.44727,0 c 0.40885,0 0.71484,0.20052 0.91796,0.60156 0.20573,0.39844 0.3086,0.9987 0.3086,1.80078 0,0.79948 -0.10287,1.39974 -0.3086,1.80078 -0.20312,0.39844 -0.50911,0.59766 -0.91796,0.59766 -0.40625,0 -0.71224,-0.19922 -0.91797,-0.59766 -0.20313,-0.40104 -0.30469,-1.0013 -0.30469,-1.80078 0,-0.80208 0.10156,-1.40234 0.30469,-1.80078 0.20573,-0.40104 0.51172,-0.60156 0.91797,-0.60156 z m -118.1504,0.47265 c 0.40886,0 0.71485,0.20053 0.91797,0.60157 0.20573,0.39843 0.3086,0.99869 0.3086,1.80078 0,0.79948 -0.10287,1.39974 -0.3086,1.80078 -0.20312,0.39844 -0.50911,0.59766 -0.91797,0.59766 -0.40625,0 -0.71224,-0.19922 -0.91796,-0.59766 -0.20313,-0.40104 -0.30469,-1.0013 -0.30469,-1.80078 0,-0.80209 0.10156,-1.40235 0.30469,-1.80078 0.20572,-0.40104 0.51171,-0.60157 0.91796,-0.60157 z m -4.35156,2.08204 c 0.35417,0 0.63412,0.12109 0.83985,0.36328 0.20833,0.24218 0.3125,0.57422 0.3125,0.99609 0,0.41927 -0.10417,0.7513 -0.3125,0.99609 -0.20573,0.24219 -0.48568,0.36329 -0.83985,0.36329 -0.35416,0 -0.63541,-0.1211 -0.84375,-0.36329 -0.20573,-0.24479 -0.30859,-0.57682 -0.30859,-0.99609 0,-0.42187 0.10286,-0.75391 0.30859,-0.99609 0.20834,-0.24219 0.48959,-0.36328 0.84375,-0.36328 z m 0.13672,60.65234 c -0.22917,0 -0.48177,0.0326 -0.75781,0.0977 -0.27604,0.0651 -0.57292,0.16145 -0.89063,0.28906 v 0.79687 c 0.3125,-0.17448 0.60547,-0.30468 0.87891,-0.39062 0.27604,-0.0859 0.53776,-0.12891 0.78516,-0.12891 0.34895,0 0.63151,0.0977 0.84765,0.29297 0.21875,0.19531 0.32813,0.44792 0.32813,0.75781 0,0.19011 -0.0508,0.38412 -0.15235,0.58203 -0.099,0.19532 -0.27474,0.4349 -0.52734,0.71875 -0.13281,0.15105 -0.45833,0.48829 -0.97656,1.01172 -0.51563,0.52084 -0.92318,0.9362 -1.22266,1.2461 v 0.66406 h 3.70313 v -0.66406 h -2.75391 c 0.63542,-0.64844 1.1276,-1.15235 1.47656,-1.51172 0.34896,-0.36198 0.55599,-0.58073 0.6211,-0.65625 0.23697,-0.29167 0.39974,-0.54427 0.48828,-0.75781 0.0911,-0.21615 0.13672,-0.44401 0.13672,-0.6836 0,-0.50521 -0.17969,-0.90885 -0.53907,-1.21094 -0.35937,-0.30208 -0.84114,-0.45312 -1.44531,-0.45312 z m 4.71875,0 c -0.65365,0 -1.15365,0.25911 -1.5,0.77734 -0.34375,0.51563 -0.51562,1.26563 -0.51562,2.25 0,0.98177 0.17187,1.73177 0.51562,2.25 0.34635,0.51563 0.84635,0.77344 1.5,0.77344 0.65365,0 1.15234,-0.25781 1.49609,-0.77344 0.34636,-0.51823 0.51954,-1.26823 0.51954,-2.25 0,-0.98437 -0.17318,-1.73437 -0.51954,-2.25 -0.34375,-0.51823 -0.84244,-0.77734 -1.49609,-0.77734 z m -9.16601,0.10547 -1.39454,0.28125 v 0.71875 l 1.40235,-0.28125 v 4.44922 h -1.28907 v 0.66406 h 3.35938 v -0.66406 h -1.28906 v -5.16797 z m 117.65624,0.45508 c -0.22916,0 -0.48177,0.0325 -0.75781,0.0976 -0.27604,0.0651 -0.57291,0.16146 -0.89062,0.28907 v 0.79687 c 0.3125,-0.17448 0.60547,-0.30469 0.8789,-0.39063 0.27605,-0.0859 0.53776,-0.1289 0.78516,-0.1289 0.34896,0 0.63151,0.0977 0.84766,0.29297 0.21875,0.19531 0.32812,0.44791 0.32812,0.75781 0,0.1901 -0.0508,0.38411 -0.15234,0.58203 -0.099,0.19531 -0.27474,0.4349 -0.52735,0.71875 -0.13281,0.15104 -0.45833,0.48828 -0.97656,1.01172 -0.51562,0.52083 -0.92318,0.9362 -1.22266,1.24609 v 0.66407 h 3.70313 v -0.66407 h -2.75391 c 0.63542,-0.64843 1.12761,-1.15234 1.47657,-1.51171 0.34895,-0.36198 0.55599,-0.58073 0.62109,-0.65626 0.23698,-0.29166 0.39974,-0.54427 0.48828,-0.75781 0.0912,-0.21614 0.13672,-0.44401 0.13672,-0.68359 0,-0.50521 -0.17969,-0.90886 -0.53906,-1.21094 -0.35938,-0.30208 -0.84115,-0.45312 -1.44532,-0.45312 z m 9.16407,0 c -0.65365,0 -1.15365,0.25911 -1.5,0.77734 -0.34375,0.51562 -0.51563,1.26563 -0.51563,2.25 0,0.98177 0.17188,1.73177 0.51563,2.25 0.34635,0.51562 0.84635,0.77344 1.5,0.77344 0.65364,0 1.15234,-0.25782 1.49609,-0.77344 0.34636,-0.51823 0.51953,-1.26823 0.51953,-2.25 0,-0.98437 -0.17317,-1.73438 -0.51953,-2.25 -0.34375,-0.51823 -0.84245,-0.77734 -1.49609,-0.77734 z m -117.6543,0.0644 c 0.40885,0 0.71484,0.20052 0.91797,0.60156 0.20573,0.39844 0.30859,0.9987 0.30859,1.80078 0,0.79948 -0.10286,1.39974 -0.30859,1.80078 -0.20313,0.39844 -0.50912,0.59766 -0.91797,0.59766 -0.40625,0 -0.71224,-0.19922 -0.91797,-0.59766 -0.20312,-0.40104 -0.30469,-1.0013 -0.30469,-1.80078 0,-0.80208 0.10157,-1.40234 0.30469,-1.80078 0.20573,-0.40104 0.51172,-0.60156 0.91797,-0.60156 z m 113.48047,0.041 -2.42578,3.69532 v 0.76172 h 2.63281 v 1.375 h 0.78516 v -1.375 h 0.83203 v -0.65625 h -0.83203 v -3.80079 z m 4.17383,0.51954 c 0.40885,0 0.71484,0.20052 0.91797,0.60156 0.20573,0.39844 0.30859,0.9987 0.30859,1.80078 0,0.79948 -0.10286,1.39974 -0.30859,1.80078 -0.20313,0.39844 -0.50912,0.59766 -0.91797,0.59766 -0.40625,0 -0.71224,-0.19922 -0.91797,-0.59766 -0.20313,-0.40104 -0.30469,-1.0013 -0.30469,-1.80078 0,-0.80208 0.10156,-1.40234 0.30469,-1.80078 0.20573,-0.40104 0.51172,-0.60156 0.91797,-0.60156 z m -3.9668,0.16796 v 3.11329 h -1.99219 z m -89.44922,21.58399 c -0.65364,0 -1.15364,0.25911 -1.5,0.77734 -0.34375,0.51563 -0.51562,1.26563 -0.51562,2.25 0,0.98177 0.17187,1.73177 0.51562,2.25 0.34636,0.51563 0.84636,0.77344 1.5,0.77344 0.65365,0 1.15235,-0.25781 1.4961,-0.77344 0.34635,-0.51823 0.51953,-1.26823 0.51953,-2.25 0,-0.98437 -0.17318,-1.73437 -0.51953,-2.25 -0.34375,-0.51823 -0.84245,-0.77734 -1.4961,-0.77734 z m -9.16406,0.10547 -1.39453,0.28125 v 0.71875 l 1.40234,-0.28125 v 4.44922 h -1.28906 v 0.66406 h 3.35937 v -0.66406 h -1.28906 v -5.16797 z m 3.03711,0 v 2.92969 c 0.21875,-0.099 0.43229,-0.17188 0.64062,-0.21875 0.21094,-0.0469 0.42188,-0.0703 0.63282,-0.0703 0.45052,0 0.80729,0.11849 1.07031,0.35547 0.26302,0.23698 0.39453,0.5586 0.39453,0.96485 0,0.40625 -0.13151,0.72786 -0.39453,0.96484 -0.26302,0.23698 -0.61979,0.35547 -1.07031,0.35547 -0.27865,0 -0.54297,-0.0312 -0.79297,-0.0937 -0.25,-0.0625 -0.49219,-0.15755 -0.72657,-0.28516 v 0.79297 c 0.27084,0.0833 0.53256,0.14583 0.78516,0.1875 0.25521,0.0417 0.50521,0.0625 0.75,0.0625 0.71094,0 1.26172,-0.17318 1.65234,-0.51953 0.39063,-0.34896 0.58594,-0.83724 0.58594,-1.46484 0,-0.60938 -0.1901,-1.09245 -0.57031,-1.44922 -0.38021,-0.35677 -0.89583,-0.53516 -1.54687,-0.53516 -0.11459,0 -0.22917,0.0104 -0.34376,0.0312 -0.11458,0.0182 -0.22916,0.0469 -0.34374,0.0859 v -1.42969 h 2.375 v -0.66406 z m 6.12695,0.51953 c 0.40886,0 0.71485,0.20052 0.91797,0.60156 0.20573,0.39844 0.30859,0.9987 0.30859,1.80078 0,0.79948 -0.10286,1.39974 -0.30859,1.80078 -0.20312,0.39844 -0.50911,0.59766 -0.91797,0.59766 -0.40625,0 -0.71224,-0.19922 -0.91797,-0.59766 -0.20312,-0.40104 -0.30468,-1.0013 -0.30468,-1.80078 0,-0.80208 0.10156,-1.40234 0.30468,-1.80078 0.20573,-0.40104 0.51172,-0.60156 0.91797,-0.60156 z m 61.41211,0.28711 c -0.22917,0 -0.48177,0.0325 -0.75781,0.0977 -0.27604,0.0651 -0.57292,0.16145 -0.89063,0.28906 v 0.79687 c 0.3125,-0.17448 0.60547,-0.30469 0.87891,-0.39062 0.27604,-0.0859 0.53776,-0.12891 0.78516,-0.12891 0.34895,0 0.63151,0.0977 0.84765,0.29297 0.21875,0.19531 0.32813,0.44792 0.32813,0.75781 0,0.19011 -0.0508,0.38412 -0.15235,0.58203 -0.099,0.19532 -0.27474,0.4349 -0.52734,0.71875 -0.13281,0.15105 -0.45833,0.48829 -0.97656,1.01172 -0.51563,0.52084 -0.92318,0.9362 -1.22266,1.2461 v 0.66406 h 3.70313 v -0.66406 H 370.625 c 0.63542,-0.64844 1.1276,-1.15235 1.47656,-1.51172 0.34896,-0.36198 0.55599,-0.58073 0.6211,-0.65625 0.23698,-0.29167 0.39974,-0.54427 0.48828,-0.75781 0.0911,-0.21615 0.13672,-0.44402 0.13672,-0.6836 0,-0.50521 -0.17969,-0.90885 -0.53907,-1.21094 -0.35937,-0.30208 -0.84114,-0.45312 -1.44531,-0.45312 z m 9.16406,0 c -0.65364,0 -1.15364,0.25911 -1.5,0.77734 -0.34375,0.51563 -0.51562,1.26563 -0.51562,2.25 0,0.98177 0.17187,1.73177 0.51562,2.25 0.34636,0.51563 0.84636,0.77344 1.5,0.77344 0.65365,0 1.15235,-0.25781 1.4961,-0.77344 0.34635,-0.51823 0.51953,-1.26823 0.51953,-2.25 0,-0.98437 -0.17318,-1.73437 -0.51953,-2.25 -0.34375,-0.51823 -0.84245,-0.77734 -1.4961,-0.77734 z m -4.71679,0.10547 -1.39453,0.28125 v 0.71875 l 1.40234,-0.28125 v 4.44922 h -1.28906 v 0.66406 h 3.35937 v -0.66406 h -1.28906 v -5.16797 z m 4.71679,0.51953 c 0.40886,0 0.71485,0.20052 0.91797,0.60156 0.20573,0.39844 0.3086,0.9987 0.3086,1.80078 0,0.79948 -0.10287,1.39974 -0.3086,1.80078 -0.20312,0.39844 -0.50911,0.59766 -0.91797,0.59766 -0.40625,0 -0.71224,-0.19922 -0.91796,-0.59766 -0.20313,-0.40104 -0.30469,-1.0013 -0.30469,-1.80078 0,-0.80208 0.10156,-1.40234 0.30469,-1.80078 0.20572,-0.40104 0.51171,-0.60156 0.91796,-0.60156 z m -103.90039,7.43359 v 6.07813 h 0.71875 v -6.07813 z m 24.22266,0 v 2.36719 c -0.15104,-0.26042 -0.34245,-0.45313 -0.57422,-0.57812 -0.22917,-0.12761 -0.50521,-0.19141 -0.82812,-0.19141 -0.52865,0 -0.95964,0.21094 -1.29297,0.63281 -0.33073,0.42188 -0.4961,0.97656 -0.4961,1.66406 0,0.6875 0.16537,1.24219 0.4961,1.66407 0.33333,0.42187 0.76432,0.63281 1.29297,0.63281 0.32291,0 0.59895,-0.0625 0.82812,-0.1875 0.23177,-0.12761 0.42318,-0.32162 0.57422,-0.58203 v 0.65625 h 0.71875 v -6.07813 z m -29.52734,0.2461 v 5.83203 h 0.78906 v -2.34375 h 0.99219 c 0.65364,0 1.14713,-0.14714 1.48046,-0.44141 0.33594,-0.29427 0.50391,-0.72917 0.50391,-1.30469 0,-0.57031 -0.16797,-1.0026 -0.50391,-1.29687 -0.33333,-0.29688 -0.82682,-0.44531 -1.48046,-0.44531 z m 0.78906,0.64843 h 0.99219 c 0.36718,0 0.65104,0.0951 0.85156,0.28516 0.20052,0.1901 0.30078,0.45964 0.30078,0.80859 0,0.35157 -0.10026,0.6224 -0.30078,0.8125 -0.20052,0.19011 -0.48438,0.28516 -0.85156,0.28516 h -0.99219 z m 12.13086,0.70313 c -0.53646,0 -0.95052,0.11198 -1.24219,0.33594 -0.29167,0.22395 -0.4375,0.54166 -0.4375,0.95312 0,0.33854 0.099,0.60547 0.29688,0.80078 0.19791,0.19271 0.51953,0.33594 0.96484,0.42969 l 0.25,0.0586 c 0.44531,0.0964 0.73307,0.19662 0.86328,0.30079 0.13281,0.10416 0.19922,0.2539 0.19922,0.44921 0,0.21094 -0.0912,0.375 -0.27344,0.49219 -0.18229,0.11458 -0.44271,0.17188 -0.78125,0.17188 -0.2526,0 -0.50781,-0.0339 -0.76562,-0.10157 -0.25782,-0.0703 -0.51954,-0.17448 -0.78516,-0.3125 v 0.74219 c 0.28125,0.0912 0.54818,0.15886 0.80078,0.20313 0.25521,0.0469 0.5,0.0703 0.73438,0.0703 0.5625,0 1.0039,-0.11849 1.32421,-0.35547 0.32292,-0.23698 0.48438,-0.55859 0.48438,-0.96484 0,-0.35677 -0.10807,-0.63412 -0.32422,-0.83203 -0.21354,-0.20053 -0.57552,-0.35547 -1.08594,-0.46485 l -0.24609,-0.0547 c -0.38542,-0.0859 -0.64193,-0.17578 -0.76953,-0.26953 -0.12761,-0.0964 -0.19141,-0.22786 -0.19141,-0.39453 0,-0.21875 0.0885,-0.38281 0.26563,-0.49219 0.17968,-0.10937 0.44791,-0.16406 0.80468,-0.16406 0.23438,0 0.46094,0.026 0.67969,0.0781 0.21875,0.0521 0.42969,0.1302 0.63281,0.23437 v -0.67969 c -0.19791,-0.0781 -0.41406,-0.13672 -0.64843,-0.17578 -0.23438,-0.0391 -0.48438,-0.0586 -0.75,-0.0586 z m 6.66406,0 c -0.65625,0 -1.17839,0.21094 -1.56641,0.63281 -0.38541,0.41927 -0.57812,0.98698 -0.57812,1.70313 0,0.6927 0.20312,1.24218 0.60937,1.64843 0.40886,0.40625 0.96224,0.60938 1.66016,0.60938 0.27865,0 0.55339,-0.0287 0.82422,-0.0859 0.27083,-0.0573 0.53516,-0.14062 0.79297,-0.25 v -0.67969 c -0.25521,0.13542 -0.51302,0.23698 -0.77344,0.30469 -0.25781,0.0677 -0.52474,0.10156 -0.80078,0.10156 -0.47656,0 -0.84896,-0.1289 -1.11719,-0.38672 -0.26562,-0.26041 -0.41406,-0.63802 -0.44531,-1.13281 h 3.30469 v -0.35156 c 0,-0.65104 -0.17188,-1.16536 -0.51563,-1.54297 -0.34114,-0.38021 -0.80599,-0.57031 -1.39453,-0.57031 z m 4.72656,0 c -0.30468,0 -0.57422,0.0651 -0.80859,0.19531 -0.23177,0.13021 -0.4336,0.32682 -0.60547,0.58984 v -0.67968 h -0.72266 v 4.375 h 0.72266 v -2.47266 c 0,-0.42708 0.11198,-0.76432 0.33594,-1.01172 0.22396,-0.24739 0.52995,-0.37109 0.91797,-0.37109 0.32291,0 0.5651,0.10286 0.72656,0.30859 0.16146,0.20573 0.24219,0.51563 0.24219,0.92969 v 2.61719 h 0.71875 v -2.64063 c 0,-0.60416 -0.12891,-1.0612 -0.38672,-1.37109 -0.25781,-0.3125 -0.63802,-0.46875 -1.14063,-0.46875 z m -17.30469,0.10547 v 2.64844 c 0,0.60156 0.13021,1.05859 0.39063,1.37109 0.26042,0.3125 0.64193,0.46875 1.14453,0.46875 0.30469,0 0.57162,-0.0638 0.80078,-0.19141 0.23177,-0.13021 0.4349,-0.32812 0.60938,-0.59375 v 0.67188 h 0.71875 v -4.375 h -0.71875 v 2.48047 c 0,0.42708 -0.11328,0.76432 -0.33985,1.01171 -0.22395,0.2474 -0.52994,0.3711 -0.91797,0.3711 -0.32291,0 -0.5651,-0.10287 -0.72656,-0.3086 -0.16146,-0.20833 -0.24218,-0.51953 -0.24218,-0.93359 v -2.62109 z m 21.29493,0.49609 c 0.38021,0 0.67968,0.15104 0.89843,0.45313 0.21875,0.29948 0.32813,0.71354 0.32813,1.24218 0,0.52865 -0.10938,0.94401 -0.32813,1.2461 -0.21875,0.29948 -0.51822,0.44922 -0.89843,0.44922 -0.38021,0 -0.67969,-0.14974 -0.89844,-0.44922 -0.21615,-0.30209 -0.32422,-0.71745 -0.32422,-1.2461 0,-0.52864 0.10807,-0.9427 0.32422,-1.24218 0.21875,-0.30209 0.51823,-0.45313 0.89844,-0.45313 z m -8.70899,0.008 c 0.35417,0 0.63802,0.11719 0.85156,0.35157 0.21615,0.23437 0.32683,0.54817 0.33204,0.9414 l -2.5625,0.004 c 0.0365,-0.41146 0.17448,-0.73047 0.41406,-0.95703 0.24219,-0.22656 0.5638,-0.33985 0.96484,-0.33985 z" />
  </g>
</svg>
