<?xml version="1.0" encoding="UTF-8" standalone="no"?>
<!-- Created with Inkscape (http://www.inkscape.org/) -->

<svg
   xmlns:dc="http://purl.org/dc/elements/1.1/"
   xmlns:cc="http://creativecommons.org/ns#"
   xmlns:rdf="http://www.w3.org/1999/02/22-rdf-syntax-ns#"
   xmlns:svg="http://www.w3.org/2000/svg"
   xmlns="http://www.w3.org/2000/svg"
   xmlns:sodipodi="http://sodipodi.sourceforge.net/DTD/sodipodi-0.dtd"
   xmlns:inkscape="http://www.inkscape.org/namespaces/inkscape"
   width="210mm"
   height="297mm"
   viewBox="0 0 210 297"
   version="1.1"
   id="svg25838"
   inkscape:version="0.92.0 r"
   sodipodi:docname="weihong-run-length.svg">
  <defs
     id="defs25832">
    <clipPath
       clipPathUnits="userSpaceOnUse"
       id="clipPath2393-3">
      <path
         d="m 73.421,234.596 h 91.565 v -72.21 H 73.421 Z"
         id="path2391-3"
         inkscape:connector-curvature="0" />
    </clipPath>
    <clipPath
       clipPathUnits="userSpaceOnUse"
       id="clipPath1905-0">
      <path
         d="m 189.376,262.985 h 73.584 v 39.6 h -73.584 z"
         id="path1903-9"
         inkscape:connector-curvature="0" />
    </clipPath>
    <clipPath
       clipPathUnits="userSpaceOnUse"
       id="clipPath1913-7">
      <path
         d="m 1.906,2.971 h 1 v 1 h -1 z"
         id="path1911-5"
         inkscape:connector-curvature="0" />
    </clipPath>
  </defs>
  <sodipodi:namedview
     id="base"
     pagecolor="#ffffff"
     bordercolor="#666666"
     borderopacity="1.0"
     inkscape:pageopacity="0.0"
     inkscape:pageshadow="2"
     inkscape:zoom="2.8"
     inkscape:cx="141.98019"
     inkscape:cy="558.41098"
     inkscape:document-units="mm"
     inkscape:current-layer="layer1"
     showgrid="false"
     inkscape:window-width="956"
     inkscape:window-height="1058"
     inkscape:window-x="1280"
     inkscape:window-y="18"
     inkscape:window-maximized="0" />
  <metadata
     id="metadata25835">
    <rdf:RDF>
      <cc:Work
         rdf:about="">
        <dc:format>image/svg+xml</dc:format>
        <dc:type
           rdf:resource="http://purl.org/dc/dcmitype/StillImage" />
        <dc:title></dc:title>
      </cc:Work>
    </rdf:RDF>
  </metadata>
  <g
     inkscape:label="Layer 1"
     inkscape:groupmode="layer"
     id="layer1">
    <path
       id="text2039"
       transform="scale(0.26458333)"
       style="font-variant:normal;font-weight:normal;font-stretch:normal;font-size:2.11666656px;font-family:'ANKEF A +Helvetica LT Std';-inkscape-font-specification:HelveticaLTStd-Roman;writing-mode:lr-tb;fill:#231f20;fill-opacity:1;fill-rule:nonzero;stroke:none;stroke-width:1.33333325"
       d="m 625.87695,491.31445 v 6.07813 h 0.71875 v -6.07813 z m 10.22461,0 v 0.91016 h 0.71875 v -0.91016 z m 11.32617,0.008 c -0.39322,0.61458 -0.68619,1.21614 -0.8789,1.80468 -0.19271,0.58854 -0.28906,1.17318 -0.28906,1.75391 0,0.58333 0.0964,1.17057 0.28906,1.76172 0.19531,0.59114 0.48828,1.19271 0.8789,1.80469 h 0.625 c -0.34635,-0.59636 -0.60546,-1.18881 -0.77734,-1.77735 -0.16927,-0.59114 -0.25391,-1.1875 -0.25391,-1.78906 0,-0.60156 0.0846,-1.19531 0.25391,-1.78125 0.16927,-0.58594 0.42839,-1.17839 0.77734,-1.77734 z m -32.02539,0.23828 2.22657,5.83203 h 0.89453 l 2.22265,-5.83203 h -0.82031 l -1.85156,4.91015 -1.84766,-4.91015 z m 22.46289,0.21484 v 1.24219 h -0.52734 v 0.55859 h 0.52734 v 2.375 c 0,0.54688 0.10547,0.92448 0.31641,1.13281 0.21094,0.20573 0.59375,0.3086 1.14844,0.3086 h 0.73828 v -0.60156 h -0.73828 c -0.29948,0 -0.4987,-0.0508 -0.59766,-0.15235 -0.0964,-0.10156 -0.14453,-0.33073 -0.14453,-0.6875 v -2.375 h 1.22852 l 1.53906,3.7461 -0.12891,0.32812 c -0.13281,0.34896 -0.2539,0.57031 -0.36328,0.66406 -0.10937,0.0937 -0.26302,0.14063 -0.46094,0.14063 h -0.42187 v 0.60156 h 0.57422 c 0.32291,0 0.58075,-0.0794 0.77343,-0.23828 0.19271,-0.15885 0.39063,-0.4987 0.59376,-1.01953 l 1.92187,-4.78125 h -0.76172 l -1.36719,3.42187 -1.36718,-3.42187 h -0.2793 -1.48047 v -1.24219 z m -14.60351,1.13672 c -0.65625,0 -1.17839,0.21094 -1.56641,0.63281 -0.38541,0.41927 -0.57812,0.98698 -0.57812,1.70313 0,0.69271 0.20312,1.24218 0.60937,1.64843 0.40886,0.40625 0.96224,0.60938 1.66016,0.60938 0.27864,0 0.55338,-0.0286 0.82422,-0.0859 0.27083,-0.0573 0.53515,-0.14062 0.79297,-0.25 v -0.67969 c -0.25521,0.13542 -0.51302,0.23698 -0.77344,0.30469 -0.25781,0.0677 -0.52474,0.10156 -0.80078,0.10156 -0.47656,0 -0.84896,-0.1289 -1.11719,-0.38671 -0.26562,-0.26042 -0.41406,-0.63803 -0.44531,-1.13282 h 3.30469 v -0.35156 c 0,-0.65104 -0.17188,-1.16536 -0.51563,-1.54297 -0.34115,-0.38021 -0.80599,-0.57031 -1.39453,-0.57031 z m 6.08789,0 c -0.6276,0 -1.11979,0.20312 -1.47656,0.60937 -0.35417,0.40625 -0.53125,0.96875 -0.53125,1.6875 0,0.71615 0.17708,1.27865 0.53125,1.6875 0.35677,0.40625 0.84896,0.60938 1.47656,0.60938 0.625,0 1.11588,-0.20313 1.47266,-0.60938 0.35677,-0.40885 0.53515,-0.97135 0.53515,-1.6875 0,-0.71875 -0.17838,-1.28125 -0.53515,-1.6875 -0.35678,-0.40625 -0.84766,-0.60937 -1.47266,-0.60937 z m 4.63867,0 c -0.68229,0 -1.22005,0.20443 -1.61328,0.61328 -0.39062,0.40885 -0.58594,0.97005 -0.58594,1.68359 0,0.70313 0.19401,1.26172 0.58203,1.67579 0.38802,0.41406 0.91146,0.62109 1.57032,0.62109 0.24218,0 0.47005,-0.0234 0.68359,-0.0703 0.21615,-0.0469 0.42448,-0.11719 0.625,-0.21094 v -0.66406 c -0.20312,0.11198 -0.40755,0.19661 -0.61328,0.2539 -0.20313,0.0547 -0.40886,0.082 -0.61719,0.082 -0.46614,0 -0.82812,-0.14713 -1.08594,-0.4414 -0.25781,-0.29688 -0.38671,-0.71224 -0.38671,-1.2461 -10e-6,-0.53385 0.1289,-0.94791 0.38671,-1.24218 0.25782,-0.29688 0.6198,-0.44532 1.08594,-0.44532 0.20833,0 0.41406,0.0287 0.61719,0.0859 0.20573,0.0547 0.41016,0.13802 0.61328,0.25 v -0.67187 c -0.19792,-0.0911 -0.40234,-0.15886 -0.61328,-0.20313 -0.21094,-0.0469 -0.42708,-0.0703 -0.64844,-0.0703 z m 17.11133,0 c -0.30469,0 -0.57422,0.0651 -0.80859,0.19531 -0.23178,0.13021 -0.4336,0.32682 -0.60547,0.58985 v -0.67969 h -0.72266 v 4.375 h 0.72266 v -2.47266 c 0,-0.42708 0.11198,-0.76432 0.33593,-1.01172 0.22396,-0.24739 0.52995,-0.37109 0.91797,-0.37109 0.32292,0 0.56511,0.10286 0.72657,0.30859 0.16145,0.20573 0.24218,0.51563 0.24218,0.92969 v 2.61719 h 0.71875 v -2.64063 c 0,-0.60416 -0.1289,-1.06119 -0.38672,-1.37109 -0.25781,-0.3125 -0.63802,-0.46875 -1.14062,-0.46875 z m 4.43945,0 c -0.3151,0 -0.58724,0.0638 -0.8164,0.19141 -0.22917,0.1276 -0.42579,0.32552 -0.58985,0.59375 v -0.67969 h -0.72265 v 4.375 h 0.72265 v -2.47266 c 0,-0.42448 0.10808,-0.76041 0.32422,-1.00781 0.21615,-0.25 0.50781,-0.375 0.875,-0.375 0.3099,0 0.53906,0.10156 0.6875,0.30469 0.14844,0.20052 0.22266,0.51172 0.22266,0.93359 v 2.61719 h 0.72265 v -2.47266 c 0,-0.42708 0.10808,-0.76432 0.32422,-1.01172 0.21615,-0.24739 0.51042,-0.37109 0.88282,-0.37109 0.30466,0 0.53125,0.10156 0.67968,0.30469 0.14844,0.20312 0.22266,0.51432 0.22266,0.93359 v 2.61719 h 0.72266 v -2.64063 c 0,-0.58854 -0.1237,-1.04166 -0.3711,-1.35937 -0.24739,-0.32031 -0.59896,-0.48047 -1.05469,-0.48047 -0.33854,0 -0.63281,0.0768 -0.88281,0.23047 -0.25,0.15364 -0.46484,0.39193 -0.64453,0.71484 -0.10677,-0.30729 -0.27214,-0.54166 -0.49609,-0.70312 -0.22136,-0.16146 -0.49089,-0.24219 -0.8086,-0.24219 z m 8.17774,0 c -0.53646,0 -0.95052,0.11198 -1.24219,0.33594 -0.29167,0.22396 -0.4375,0.54166 -0.4375,0.95312 0,0.33854 0.099,0.60547 0.29687,0.80078 0.19792,0.19271 0.51954,0.33594 0.96485,0.42969 l 0.25,0.0586 c 0.44531,0.0964 0.73307,0.19662 0.86328,0.30079 0.13281,0.10416 0.19922,0.2539 0.19922,0.44921 0,0.21094 -0.0911,0.375 -0.27344,0.49219 -0.18229,0.11459 -0.44271,0.17188 -0.78125,0.17188 -0.2526,0 -0.50781,-0.0339 -0.76562,-0.10157 -0.25782,-0.0703 -0.51954,-0.17447 -0.78516,-0.3125 v 0.74219 c 0.28125,0.0912 0.54818,0.15886 0.80078,0.20313 0.25521,0.0469 0.5,0.0703 0.73438,0.0703 0.5625,0 1.0039,-0.11849 1.32421,-0.35547 0.32292,-0.23698 0.48438,-0.55859 0.48438,-0.96484 0,-0.35677 -0.10807,-0.63412 -0.32422,-0.83203 -0.21354,-0.20053 -0.57552,-0.35547 -1.08594,-0.46485 l -0.24609,-0.0547 c -0.38542,-0.0859 -0.64193,-0.17578 -0.76953,-0.26953 -0.12761,-0.0964 -0.19141,-0.22786 -0.19141,-0.39453 0,-0.21875 0.0885,-0.38281 0.26563,-0.49219 0.17968,-0.10937 0.44791,-0.16406 0.80468,-0.16406 0.23438,0 0.46094,0.026 0.67969,0.0781 0.21875,0.0521 0.42969,0.13021 0.63281,0.23437 v -0.67969 c -0.19791,-0.0781 -0.41406,-0.13671 -0.64843,-0.17578 -0.23438,-0.0391 -0.48438,-0.0586 -0.75,-0.0586 z m -27.61524,0.10547 v 4.375 h 0.71875 v -4.375 z m -12.83203,0.5039 c 0.35417,0 0.63802,0.11719 0.85156,0.35157 0.21615,0.23437 0.32685,0.54817 0.33203,0.9414 l -2.5625,0.004 c 0.0365,-0.41146 0.17448,-0.73047 0.41407,-0.95703 0.24218,-0.22656 0.5638,-0.33985 0.96484,-0.33985 z m 6.08008,0 c 0.38281,0 0.6862,0.15235 0.91016,0.45704 0.22395,0.30208 0.33593,0.71224 0.33593,1.23046 0,0.52084 -0.11198,0.9323 -0.33593,1.23438 -0.22396,0.30208 -0.52735,0.45312 -0.91016,0.45312 -0.38802,0 -0.69401,-0.14974 -0.91797,-0.44921 -0.22135,-0.30209 -0.33203,-0.71485 -0.33203,-1.23829 0,-0.52343 0.11198,-0.93489 0.33594,-1.23437 0.22396,-0.30208 0.52864,-0.45313 0.91406,-0.45313 z M 81.410156,527.6875 c -0.653646,0 -1.153646,0.25911 -1.5,0.77734 -0.34375,0.51563 -0.515625,1.26563 -0.515625,2.25 0,0.98177 0.171875,1.73177 0.515625,2.25 0.346354,0.51563 0.846354,0.77344 1.5,0.77344 0.653646,0 1.152344,-0.25781 1.496094,-0.77344 0.346354,-0.51823 0.519531,-1.26823 0.519531,-2.25 0,-0.98437 -0.173177,-1.73437 -0.519531,-2.25 -0.34375,-0.51823 -0.842448,-0.77734 -1.496094,-0.77734 z m 6.402344,0 c -0.229167,0 -0.481773,0.0326 -0.757812,0.0977 -0.276042,0.0651 -0.572917,0.16145 -0.890626,0.28906 v 0.79687 c 0.3125,-0.17448 0.605469,-0.30468 0.878907,-0.39062 0.276041,-0.0859 0.53776,-0.12891 0.785156,-0.12891 0.348958,0 0.63151,0.0977 0.847656,0.29297 0.21875,0.19531 0.328125,0.44792 0.328125,0.75781 0,0.19011 -0.05078,0.38412 -0.152344,0.58204 -0.09896,0.19529 -0.274739,0.43491 -0.527343,0.71874 -0.132813,0.15105 -0.458334,0.48829 -0.976563,1.01172 -0.515625,0.52084 -0.923177,0.9362 -1.222656,1.2461 v 0.66406 h 3.703125 v -0.66406 h -2.753906 c 0.635416,-0.64844 1.127604,-1.15235 1.476562,-1.51172 0.348959,-0.36198 0.55599,-0.58073 0.621094,-0.65625 0.236979,-0.29167 0.39974,-0.54427 0.488281,-0.75781 0.09115,-0.21615 0.136719,-0.44401 0.136719,-0.6836 0,-0.50521 -0.179688,-0.90885 -0.539063,-1.21094 -0.359372,-0.30206 -0.841145,-0.45312 -1.445312,-0.45312 z m 3.039062,0.10547 v 2.92969 c 0.21875,-0.099 0.432292,-0.17188 0.640626,-0.21875 0.210935,-0.0469 0.421875,-0.0703 0.632812,-0.0703 0.450521,0 0.807294,0.11849 1.070312,0.35547 0.263021,0.23698 0.394532,0.5586 0.394532,0.96485 0,0.40625 -0.131511,0.72786 -0.394532,0.96484 -0.263018,0.23698 -0.619791,0.35547 -1.070312,0.35547 -0.278646,0 -0.542969,-0.0312 -0.792969,-0.0937 -0.25,-0.0625 -0.492187,-0.15755 -0.726562,-0.28516 v 0.79297 c 0.270833,0.0833 0.532552,0.14583 0.785156,0.1875 0.255208,0.0417 0.505208,0.0625 0.75,0.0625 0.710937,0 1.261719,-0.17318 1.652344,-0.51953 0.390625,-0.34896 0.585937,-0.83724 0.585937,-1.46484 0,-0.60938 -0.190104,-1.09245 -0.570312,-1.44922 -0.380209,-0.35677 -0.895834,-0.53516 -1.546875,-0.53516 -0.114584,0 -0.229167,0.0104 -0.34375,0.0312 -0.114584,0.0182 -0.229167,0.0469 -0.34375,0.0859 v -1.42969 h 2.375 v -0.66406 z m -9.441406,0.51953 c 0.408854,0 0.714844,0.20052 0.917969,0.60156 0.205729,0.39844 0.308594,0.9987 0.308594,1.80078 0,0.79948 -0.102865,1.39976 -0.308594,1.80078 -0.203125,0.39844 -0.509115,0.59766 -0.917969,0.59766 -0.40625,0 -0.712241,-0.19922 -0.917968,-0.59766 -0.203125,-0.40102 -0.304688,-1.0013 -0.304688,-1.80078 0,-0.80208 0.101563,-1.40234 0.304688,-1.80078 0.205727,-0.40104 0.511718,-0.60156 0.917968,-0.60156 z m 2.761719,4.32031 v 0.99219 h 0.824219 v -0.99219 z m -2.761719,11.18164 c -0.653646,0 -1.153646,0.25912 -1.5,0.77735 -0.34375,0.51562 -0.515625,1.26562 -0.515625,2.25 0,0.98177 0.171875,1.73177 0.515625,2.25 0.346354,0.51562 0.846354,0.77343 1.5,0.77343 0.653646,0 1.152344,-0.25781 1.496094,-0.77343 0.346354,-0.51823 0.519531,-1.26823 0.519531,-2.25 0,-0.98438 -0.173177,-1.73438 -0.519531,-2.25 -0.34375,-0.51823 -0.842448,-0.77735 -1.496094,-0.77735 z m 6.402344,0 c -0.229167,0 -0.481773,0.0326 -0.757812,0.0977 -0.276042,0.0651 -0.572917,0.16146 -0.890626,0.28906 v 0.79688 c 0.3125,-0.17448 0.605469,-0.30469 0.878907,-0.39063 0.276041,-0.0859 0.53776,-0.1289 0.785156,-0.1289 0.348958,0 0.63151,0.0977 0.847656,0.29296 0.21875,0.19532 0.328125,0.44792 0.328125,0.75782 0,0.1901 -0.05078,0.38411 -0.152344,0.58203 -0.09896,0.19531 -0.274739,0.43489 -0.527343,0.71875 -0.132813,0.15104 -0.458334,0.48828 -0.976563,1.01172 -0.515625,0.52083 -0.923177,0.93619 -1.222656,1.24609 v 0.66406 h 3.703125 v -0.66406 h -2.753906 c 0.635416,-0.64844 1.127604,-1.15234 1.476562,-1.51172 0.348959,-0.36198 0.55599,-0.58073 0.621094,-0.65625 0.236979,-0.29166 0.39974,-0.54427 0.488281,-0.75781 0.09115,-0.21615 0.136719,-0.44401 0.136719,-0.68359 0,-0.50521 -0.179688,-0.90886 -0.539063,-1.21094 -0.359372,-0.30209 -0.841145,-0.45313 -1.445312,-0.45313 z m 4.71875,0 c -0.653646,0 -1.153646,0.25912 -1.5,0.77735 -0.34375,0.51562 -0.515625,1.26562 -0.515625,2.25 0,0.98177 0.171875,1.73177 0.515625,2.25 0.346354,0.51562 0.846354,0.77343 1.5,0.77343 0.653646,0 1.152344,-0.25781 1.496094,-0.77343 0.346354,-0.51823 0.519531,-1.26823 0.519531,-2.25 0,-0.98438 -0.173177,-1.73438 -0.519531,-2.25 -0.34375,-0.51823 -0.842448,-0.77735 -1.496094,-0.77735 z m -11.121094,0.625 c 0.408854,0 0.714844,0.20052 0.917969,0.60157 0.205729,0.39843 0.308594,0.99869 0.308594,1.80078 0,0.79948 -0.102865,1.39974 -0.308594,1.80078 -0.203125,0.39844 -0.509115,0.59765 -0.917969,0.59765 -0.40625,0 -0.712241,-0.19921 -0.917968,-0.59765 -0.203125,-0.40104 -0.304688,-1.0013 -0.304688,-1.80078 0,-0.80209 0.101563,-1.40235 0.304688,-1.80078 0.205727,-0.40105 0.511718,-0.60157 0.917968,-0.60157 z m 11.121094,0 c 0.408854,0 0.714844,0.20052 0.917969,0.60157 0.205729,0.39843 0.308594,0.99869 0.308593,1.80078 0,0.79948 -0.102864,1.39974 -0.308593,1.80078 -0.203125,0.39844 -0.509115,0.59765 -0.917969,0.59765 -0.40625,0 -0.71224,-0.19921 -0.917969,-0.59765 -0.203125,-0.40104 -0.304687,-1.0013 -0.304687,-1.80078 0,-0.80209 0.101562,-1.40235 0.304687,-1.80078 0.205729,-0.40105 0.511719,-0.60157 0.917969,-0.60157 z m -8.359375,4.32032 v 0.99218 h 0.824219 v -0.99218 z m -2.761719,11.17578 c -0.653646,0 -1.153646,0.25911 -1.5,0.77734 -0.34375,0.51563 -0.515625,1.26563 -0.515625,2.25 0,0.98177 0.171875,1.73177 0.515625,2.25 0.346354,0.51563 0.846354,0.77344 1.5,0.77344 0.653646,0 1.152344,-0.25781 1.496094,-0.77344 0.346354,-0.51823 0.519531,-1.26823 0.519531,-2.25 0,-0.98437 -0.173177,-1.73437 -0.519531,-2.25 -0.34375,-0.51823 -0.842448,-0.77734 -1.496094,-0.77734 z m 6.402344,0.10547 -1.394531,0.28125 v 0.71875 l 1.402343,-0.28125 v 4.44921 H 86.53125 v 0.66407 h 3.359375 v -0.66407 h -1.289063 v -5.16796 z m 3.039062,0 v 2.92968 c 0.21875,-0.099 0.432292,-0.17187 0.640626,-0.21875 0.210935,-0.0469 0.421875,-0.0703 0.632812,-0.0703 0.450521,0 0.807294,0.11849 1.070312,0.35547 0.263021,0.23698 0.394532,0.55859 0.394532,0.96484 0,0.40625 -0.131511,0.72787 -0.394532,0.96485 -0.263018,0.23698 -0.619791,0.35547 -1.070312,0.35547 -0.278646,0 -0.542969,-0.0312 -0.792969,-0.0937 -0.25,-0.0625 -0.492187,-0.15756 -0.726562,-0.28516 v 0.79297 c 0.270833,0.0833 0.532552,0.14583 0.785156,0.1875 0.255208,0.0417 0.505208,0.0625 0.75,0.0625 0.710937,0 1.261719,-0.17318 1.652344,-0.51953 0.390625,-0.34896 0.585937,-0.83724 0.585937,-1.46485 0,-0.60937 -0.190104,-1.09244 -0.570312,-1.44922 -0.380209,-0.35677 -0.895834,-0.53515 -1.546875,-0.53515 -0.114584,0 -0.229167,0.0104 -0.34375,0.0312 -0.114584,0.0182 -0.229167,0.0469 -0.34375,0.0859 v -1.42969 h 2.375 v -0.66406 z m -9.441406,0.51953 c 0.408854,0 0.714844,0.20052 0.917969,0.60156 0.205729,0.39844 0.308594,0.9987 0.308594,1.80078 0,0.79948 -0.102865,1.39974 -0.308594,1.80078 -0.203125,0.39844 -0.509115,0.59766 -0.917969,0.59766 -0.40625,0 -0.712241,-0.19922 -0.917968,-0.59766 -0.203125,-0.40104 -0.304688,-1.0013 -0.304688,-1.80078 0,-0.80208 0.101563,-1.40234 0.304688,-1.80078 0.205727,-0.40104 0.511718,-0.60156 0.917968,-0.60156 z m 2.761719,4.32031 v 0.99219 h 0.824219 v -0.99219 z m -2.761719,11.18164 c -0.653646,0 -1.153646,0.25911 -1.5,0.77734 -0.34375,0.51563 -0.515625,1.26563 -0.515625,2.25 0,0.98177 0.171875,1.73177 0.515625,2.25 0.346354,0.51563 0.846354,0.77344 1.5,0.77344 0.653646,0 1.152344,-0.25781 1.496094,-0.77344 0.346354,-0.51823 0.519531,-1.26823 0.519531,-2.25 0,-0.98437 -0.173177,-1.73437 -0.519531,-2.25 -0.34375,-0.51823 -0.842448,-0.77734 -1.496094,-0.77734 z m 11.121094,0 c -0.653646,0 -1.153646,0.25911 -1.5,0.77734 -0.34375,0.51563 -0.515625,1.26563 -0.515625,2.25 0,0.98177 0.171875,1.73177 0.515625,2.25 0.346354,0.51563 0.846354,0.77344 1.5,0.77344 0.653646,0 1.152344,-0.25781 1.496094,-0.77344 0.346354,-0.51823 0.519531,-1.26823 0.519531,-2.25 0,-0.98437 -0.173177,-1.73437 -0.519531,-2.25 -0.34375,-0.51823 -0.842448,-0.77734 -1.496094,-0.77734 z m -4.71875,0.10547 -1.394531,0.28125 v 0.71875 l 1.402343,-0.28125 v 4.44922 H 86.53125 V 582 h 3.359375 v -0.66406 h -1.289063 v -5.16797 z m -6.402344,0.51953 c 0.408854,0 0.714844,0.20052 0.917969,0.60156 0.205729,0.39844 0.308594,0.9987 0.308594,1.80078 0,0.79948 -0.102865,1.39976 -0.308594,1.80078 -0.203125,0.39844 -0.509115,0.59766 -0.917969,0.59766 -0.40625,0 -0.712241,-0.19922 -0.917968,-0.59766 -0.203125,-0.40102 -0.304688,-1.0013 -0.304688,-1.80078 0,-0.80208 0.101563,-1.40234 0.304688,-1.80078 0.205727,-0.40104 0.511718,-0.60156 0.917968,-0.60156 z m 11.121094,0 c 0.408854,0 0.714844,0.20052 0.917969,0.60156 0.205729,0.39844 0.308594,0.9987 0.308593,1.80078 0,0.79948 -0.102864,1.39976 -0.308593,1.80078 -0.203125,0.39844 -0.509115,0.59766 -0.917969,0.59766 -0.40625,0 -0.71224,-0.19922 -0.917969,-0.59766 -0.203125,-0.40102 -0.304687,-1.0013 -0.304687,-1.80078 0,-0.80208 0.101562,-1.40234 0.304687,-1.80078 0.205729,-0.40104 0.511719,-0.60156 0.917969,-0.60156 z m -8.359375,4.32031 V 582 h 0.824219 v -0.99219 z m -2.761719,11.1836 c -0.653646,0 -1.153646,0.25911 -1.5,0.77734 -0.34375,0.51562 -0.515625,1.26563 -0.515625,2.25 0,0.98177 0.171875,1.73177 0.515625,2.25 0.346354,0.51562 0.846354,0.77344 1.5,0.77344 0.653646,0 1.152344,-0.25782 1.496094,-0.77344 0.346354,-0.51823 0.519531,-1.26823 0.519531,-2.25 0,-0.98437 -0.173177,-1.73438 -0.519531,-2.25 -0.34375,-0.51823 -0.842448,-0.77734 -1.496094,-0.77734 z m 6.671875,0 c -0.653646,0 -1.153646,0.25911 -1.5,0.77734 -0.34375,0.51562 -0.515625,1.26563 -0.515625,2.25 0,0.98177 0.171875,1.73177 0.515625,2.25 0.346354,0.51562 0.846354,0.77344 1.5,0.77344 0.653646,0 1.152344,-0.25782 1.496094,-0.77344 0.346354,-0.51823 0.519531,-1.26823 0.519531,-2.25 0,-0.98437 -0.173177,-1.73438 -0.519531,-2.25 -0.34375,-0.51823 -0.842448,-0.77734 -1.496094,-0.77734 z m 2.769531,0.10547 v 2.92968 c 0.21875,-0.099 0.432292,-0.17187 0.640626,-0.21875 0.210935,-0.0469 0.421875,-0.0703 0.632812,-0.0703 0.450521,0 0.807294,0.11849 1.070312,0.35547 0.263021,0.23698 0.394532,0.55859 0.394532,0.96484 0,0.40625 -0.131511,0.72787 -0.394532,0.96485 -0.263018,0.23698 -0.619791,0.35547 -1.070312,0.35546 -0.278646,0 -0.542969,-0.0312 -0.792969,-0.0937 -0.25,-0.0625 -0.492187,-0.15756 -0.726562,-0.28516 v 0.79297 c 0.270833,0.0833 0.532552,0.14583 0.785156,0.1875 0.255208,0.0417 0.505208,0.0625 0.75,0.0625 0.710937,0 1.261719,-0.17318 1.652344,-0.51953 0.390625,-0.34896 0.585937,-0.83724 0.585937,-1.46485 0,-0.60937 -0.190104,-1.09245 -0.570312,-1.44922 -0.380209,-0.35677 -0.895834,-0.53515 -1.546875,-0.53515 -0.114584,0 -0.229167,0.0104 -0.34375,0.0312 -0.114584,0.0182 -0.229167,0.0469 -0.34375,0.0859 v -1.42968 h 2.375 v -0.66406 z m -9.441406,0.51953 c 0.408854,0 0.714844,0.20052 0.917969,0.60156 0.205729,0.39844 0.308594,0.9987 0.308594,1.80078 0,0.79948 -0.102865,1.39974 -0.308594,1.80078 -0.203125,0.39844 -0.509115,0.59766 -0.917969,0.59766 -0.40625,0 -0.712241,-0.19922 -0.917968,-0.59766 -0.203125,-0.40104 -0.304688,-1.0013 -0.304688,-1.80078 0,-0.80208 0.101563,-1.40234 0.304688,-1.80078 0.205727,-0.40104 0.511718,-0.60156 0.917968,-0.60156 z m 6.671875,0 c 0.408854,0 0.714844,0.20052 0.917969,0.60156 0.205729,0.39844 0.308594,0.9987 0.308594,1.80078 0,0.79948 -0.102865,1.39974 -0.308594,1.80078 -0.203125,0.39844 -0.509115,0.59766 -0.917969,0.59766 -0.40625,0 -0.712239,-0.19922 -0.917969,-0.59766 -0.203122,-0.40104 -0.304687,-1.0013 -0.304687,-1.80078 0,-0.80208 0.101565,-1.40234 0.304687,-1.80078 0.20573,-0.40104 0.511719,-0.60156 0.917969,-0.60156 z m -3.910156,4.32031 v 0.99219 h 0.824219 v -0.99219 z m 8.359375,11.39844 c -0.653646,0 -1.153646,0.25911 -1.5,0.77734 -0.34375,0.51562 -0.515625,1.26563 -0.515625,2.25 0,0.98177 0.171875,1.73177 0.515625,2.25 0.346354,0.51562 0.846354,0.77344 1.5,0.77344 0.653646,0 1.152344,-0.25782 1.496094,-0.77344 0.346354,-0.51823 0.519531,-1.26823 0.519531,-2.25 0,-0.98437 -0.173177,-1.73438 -0.519531,-2.25 -0.34375,-0.51823 -0.842448,-0.77734 -1.496094,-0.77734 z m 0,0.625 c 0.408854,0 0.714844,0.20052 0.917969,0.60156 0.205729,0.39844 0.308594,0.9987 0.308593,1.80078 0,0.79948 -0.102864,1.39974 -0.308593,1.80078 -0.203125,0.39844 -0.509115,0.59766 -0.917969,0.59766 -0.40625,0 -0.71224,-0.19922 -0.917969,-0.59766 -0.203125,-0.40104 -0.304687,-1.0013 -0.304687,-1.80078 0,-0.80208 0.101562,-1.40234 0.304687,-1.80078 0.205729,-0.40104 0.511719,-0.60156 0.917969,-0.60156 z m 6.359375,6.04687 c -0.653646,0 -1.153646,0.25912 -1.5,0.77735 -0.34375,0.5156 -0.515625,1.26562 -0.515625,2.25 0,0.98175 0.171875,1.73177 0.515625,2.25 0.346354,0.5156 0.846354,0.77343 1.5,0.77343 0.653646,0 1.152345,-0.25783 1.496095,-0.77343 0.34635,-0.51823 0.51953,-1.26825 0.51953,-2.25 0,-0.98438 -0.17318,-1.7344 -0.51953,-2.25 -0.34375,-0.51823 -0.842449,-0.77735 -1.496095,-0.77735 z m 23.818355,0 c -0.22916,0 -0.48177,0.0326 -0.75781,0.0977 -0.27604,0.0651 -0.57291,0.16146 -0.89062,0.28906 v 0.79687 c 0.3125,-0.17445 0.60547,-0.30468 0.8789,-0.39062 0.27604,-0.0859 0.53776,-0.12891 0.78516,-0.12891 0.34896,0 0.63151,0.0977 0.84766,0.29297 0.21875,0.19531 0.32812,0.44792 0.32812,0.75782 0,0.19008 -0.0508,0.38411 -0.15234,0.58203 -0.099,0.19531 -0.27474,0.43489 -0.52735,0.71875 -0.13281,0.15104 -0.45833,0.48828 -0.97656,1.01172 -0.51562,0.52081 -0.92318,0.93619 -1.22266,1.24609 v 0.66406 h 3.70313 v -0.66406 h -2.75391 c 0.63542,-0.64844 1.12761,-1.15235 1.47657,-1.51172 0.34895,-0.36198 0.55599,-0.58073 0.62109,-0.65625 0.23698,-0.29167 0.39974,-0.54427 0.48828,-0.75781 0.0911,-0.21615 0.13672,-0.44401 0.13672,-0.6836 0,-0.5052 -0.17969,-0.90885 -0.53906,-1.21093 -0.35938,-0.30209 -0.84115,-0.45313 -1.44532,-0.45313 z m 49.75977,0 c -0.73698,0 -1.32422,0.27474 -1.76172,0.82422 -0.4375,0.54687 -0.65625,1.28125 -0.65625,2.20313 0,0.98175 0.17839,1.73177 0.53516,2.25 0.35677,0.5156 0.87239,0.77343 1.54687,0.77343 0.58854,0 1.0599,-0.18099 1.41407,-0.54297 0.35414,-0.36198 0.53124,-0.84244 0.53124,-1.4414 0,-0.61198 -0.17057,-1.09505 -0.51171,-1.44922 -0.33855,-0.35677 -0.80079,-0.53516 -1.38672,-0.53516 -0.27865,0 -0.53386,0.0612 -0.76563,0.1836 -0.23177,0.11979 -0.42448,0.29297 -0.57812,0.51953 0.0391,-0.71094 0.19531,-1.24219 0.46875,-1.59375 0.27604,-0.35156 0.67448,-0.52735 1.19531,-0.52735 0.19792,0 0.39714,0.0247 0.59766,0.0742 0.20312,0.0495 0.40364,0.1211 0.60156,0.21485 v -0.71875 c -0.21875,-0.0781 -0.42969,-0.13672 -0.63281,-0.17579 -0.20052,-0.0391 -0.39974,-0.0586 -0.59766,-0.0586 z m 24.08594,0 c -0.57813,0 -1.03386,0.13542 -1.36719,0.40625 -0.33073,0.27083 -0.49609,0.63932 -0.49609,1.10547 0,0.33333 0.0937,0.61589 0.28125,0.84766 0.1901,0.23177 0.45444,0.38932 0.79296,0.47265 -0.38018,0.0885 -0.67708,0.26172 -0.89062,0.51953 -0.21354,0.25782 -0.32031,0.57292 -0.32031,0.94532 0,0.5651 0.17187,0.99869 0.51562,1.30078 0.34636,0.30208 0.84115,0.45312 1.48438,0.45312 0.64323,0 1.13672,-0.15104 1.48047,-0.45312 0.34635,-0.30209 0.51953,-0.73568 0.51953,-1.30078 0,-0.3724 -0.10679,-0.6875 -0.32031,-0.94532 -0.21094,-0.25781 -0.50652,-0.43099 -0.88672,-0.51953 0.33593,-0.0833 0.59765,-0.24088 0.78515,-0.47265 0.19011,-0.23177 0.28516,-0.51433 0.28516,-0.84766 0,-0.46615 -0.16539,-0.83464 -0.49609,-1.10547 -0.33073,-0.27083 -0.78646,-0.40625 -1.36719,-0.40625 z m 25.80859,0 c -0.65364,0 -1.15364,0.25912 -1.5,0.77735 -0.34375,0.5156 -0.51562,1.26562 -0.51562,2.25 0,0.98175 0.17187,1.73177 0.51562,2.25 0.34636,0.5156 0.84636,0.77343 1.5,0.77343 0.65365,0 1.15235,-0.25783 1.4961,-0.77343 0.34633,-0.51823 0.51953,-1.26825 0.51953,-2.25 0,-0.98438 -0.1732,-1.7344 -0.51953,-2.25 -0.34375,-0.51823 -0.84245,-0.77735 -1.4961,-0.77735 z m -74.51953,0.10547 -2.42578,3.69531 v 0.76172 h 2.63281 v 1.375 h 0.78516 v -1.375 h 0.83203 v -0.65625 h -0.83203 v -3.80078 z m 69.80078,0 -1.39453,0.28125 v 0.71875 l 1.40234,-0.28125 v 4.44922 h -1.28906 v 0.66406 h 3.35938 v -0.66406 h -1.28907 v -5.16797 z m -118.753905,0.51953 c 0.408854,0 0.714844,0.20052 0.917969,0.60156 0.205726,0.39844 0.308596,0.9987 0.308596,1.80079 0,0.79945 -0.10287,1.39973 -0.308596,1.80078 -0.203125,0.39843 -0.509115,0.59765 -0.917969,0.59765 -0.40625,0 -0.71224,-0.19922 -0.917969,-0.59765 -0.203125,-0.40105 -0.304687,-1.00133 -0.304687,-1.80078 0,-0.80209 0.101562,-1.40235 0.304687,-1.80079 0.205729,-0.40104 0.511719,-0.60156 0.917969,-0.60156 z m 97.664065,0 c 0.33854,0 0.60286,0.0846 0.79297,0.25391 0.1927,0.16927 0.28906,0.40495 0.28906,0.70703 0,0.30208 -0.0964,0.53776 -0.28906,0.70703 -0.19011,0.16927 -0.45443,0.25391 -0.79297,0.25391 -0.34115,0 -0.60677,-0.0846 -0.79688,-0.25391 -0.1875,-0.16927 -0.28125,-0.40495 -0.28125,-0.70703 0,-0.30208 0.0937,-0.53776 0.28125,-0.70703 0.19011,-0.16927 0.45573,-0.25391 0.79688,-0.25391 z m 25.80859,0 c 0.40886,0 0.71485,0.20052 0.91797,0.60156 0.20573,0.39844 0.30859,0.9987 0.30859,1.80079 0,0.79945 -0.10286,1.39973 -0.30859,1.80078 -0.20312,0.39843 -0.50911,0.59765 -0.91797,0.59765 -0.40625,0 -0.71224,-0.19922 -0.91797,-0.59765 -0.20312,-0.40105 -0.30469,-1.00133 -0.30469,-1.80078 0,-0.80209 0.10157,-1.40235 0.30469,-1.80079 0.20573,-0.40104 0.51172,-0.60156 0.91797,-0.60156 z M 148.05078,616 v 3.11328 h -1.99219 z m 24.08203,1.91406 c 0.35417,0 0.63412,0.1211 0.83985,0.36328 0.20833,0.24219 0.3125,0.57422 0.3125,0.9961 0,0.41927 -0.10417,0.7513 -0.3125,0.99609 -0.20573,0.24219 -0.48568,0.36328 -0.83985,0.36328 -0.35416,0 -0.63541,-0.12109 -0.84375,-0.36328 -0.20573,-0.24479 -0.30859,-0.57682 -0.30859,-0.99609 0,-0.42188 0.10286,-0.75391 0.30859,-0.9961 0.20834,-0.24218 0.48959,-0.36328 0.84375,-0.36328 z m 24.42188,0.46094 c 0.3776,0 0.67317,0.10026 0.88672,0.30078 0.21614,0.20052 0.32421,0.47656 0.32421,0.82813 10e-6,0.34895 -0.10807,0.625 -0.32421,0.82812 -0.21615,0.20052 -0.51172,0.30078 -0.88672,0.30078 -0.375,0 -0.67058,-0.10026 -0.88672,-0.30078 -0.21354,-0.20052 -0.32031,-0.47656 -0.32031,-0.82812 0,-0.35157 0.10677,-0.62761 0.32031,-0.82813 0.21614,-0.20052 0.51172,-0.30078 0.88672,-0.30078 z" />
    <path
       d="m 44.761786,139.07007 h -1.188861 v -1.16276 h 1.188861 z"
       style="fill:#ed1d24;fill-opacity:1;fill-rule:nonzero;stroke:none;stroke-width:0.35277775"
       id="path2049"
       inkscape:connector-curvature="0" />
    <text
       y="139.27446"
       x="45.239445"
       style="font-variant:normal;font-weight:normal;font-stretch:normal;font-size:2.11666656px;font-family:'ANKEF A +Helvetica LT Std';-inkscape-font-specification:HelveticaLTStd-Roman;writing-mode:lr-tb;fill:#231f20;fill-opacity:1;fill-rule:nonzero;stroke:none;stroke-width:0.35277775"
       id="text2069">
      <tspan
         style="stroke-width:0.35277775"
         x="45.239445 46.886211 48.298027 49.591312 50.768177 51.945042 53.003376 54.180241 55.357113 55.827007"
         y="139.27446"
         sodipodi:role="line"
         id="tspan2065">GST–dynein</tspan>
      <tspan
         style="stroke-width:0.35277775"
         sodipodi:role="line"
         id="tspan2067"
         x="45.239445"
         y="0" />
    </text>
    <text
       y="19.091702"
       x="-159.33197"
       transform="rotate(-90)"
       style="font-variant:normal;font-weight:normal;font-stretch:normal;font-size:2.11666656px;font-family:'ANKEF A +Helvetica LT Std';-inkscape-font-specification:HelveticaLTStd-Roman;writing-mode:lr-tb;fill:#231f20;fill-opacity:1;fill-rule:nonzero;stroke:none;stroke-width:0.35277775"
       id="text2073">
      <tspan
         style="stroke-width:0.35277775"
         x="-159.33197 -157.80373 -156.62686 -155.92201 -154.15883 -152.98196 -152.51207 -152.04216 -150.98383 -149.80696 -148.6301 -148.04167 -147.45323 -146.74838 -145.57152 -144.39465 -143.21777 -142.04091 -140.86404 -139.80573"
         y="19.091702"
         sodipodi:role="line"
         id="tspan2071">Normalized frequency</tspan>
    </text>
    <text
       y="167.34816"
       x="34.55603"
       style="font-variant:normal;font-weight:normal;font-stretch:normal;font-size:2.11666656px;font-family:'ANKEF A +Helvetica LT Std';-inkscape-font-specification:HelveticaLTStd-Roman;writing-mode:lr-tb;fill:#231f20;fill-opacity:1;fill-rule:nonzero;stroke:none;stroke-width:0.35277775"
       id="text2077">
      <tspan
         style="stroke-width:0.35277775"
         x="34.55603 36.084267 37.261131 38.437996 39.026432 39.49633 40.673199 41.850063 43.026932 43.615364 44.792229 45.380665"
         y="167.34816"
         sodipodi:role="line"
         id="tspan2075">Run length (</tspan>
    </text>
    <text
       y="167.34816"
       x="46.085514"
       style="font-variant:normal;font-weight:normal;font-stretch:normal;font-size:2.11666656px;font-family:Symbol;-inkscape-font-specification:Symbol;writing-mode:lr-tb;fill:#231f20;fill-opacity:1;fill-rule:nonzero;stroke:none;stroke-width:0.35277775"
       id="text2081">
      <tspan
         style="stroke-width:0.35277775"
         x="46.085514"
         y="167.34816"
         id="tspan2079">µ</tspan>
    </text>
    <text
       y="167.34816"
       x="47.304714"
       style="font-variant:normal;font-weight:normal;font-stretch:normal;font-size:2.11666656px;font-family:'ANKEF A +Helvetica LT Std';-inkscape-font-specification:HelveticaLTStd-Roman;writing-mode:lr-tb;fill:#231f20;fill-opacity:1;fill-rule:nonzero;stroke:none;stroke-width:0.35277775"
       id="text2085">
      <tspan
         style="stroke-width:0.35277775"
         x="47.304714 49.067898"
         y="167.34816"
         sodipodi:role="line"
         id="tspan2083">m)</tspan>
    </text>
    <g
       id="g2087"
       transform="matrix(0.35277777,0,0,-0.35277777,25.982721,136.35368)">
      <path
         d="M 0,0 H 91.738 Z"
         style="fill:#ffffff;fill-opacity:1;fill-rule:nonzero;stroke:none"
         id="path2089"
         inkscape:connector-curvature="0" />
    </g>
    <g
       id="g2091"
       transform="matrix(0.35277777,0,0,-0.35277777,25.982721,161.87644)">
      <path
         d="M 0,0 V 0 72.348 Z"
         style="fill:#ffffff;fill-opacity:1;fill-rule:nonzero;stroke:none"
         id="path2093"
         inkscape:connector-curvature="0" />
    </g>
    <g
       id="g2163"
       transform="matrix(0.35277777,0,0,-0.35277777,26.030698,136.2743)">
      <path
         d="M 0,0 H 91.738 Z"
         style="fill:#ffffff;fill-opacity:1;fill-rule:nonzero;stroke:none"
         id="path2165"
         inkscape:connector-curvature="0" />
    </g>
    <g
       id="g2167"
       transform="matrix(0.35277777,0,0,-0.35277777,26.030698,161.79742)">
      <path
         d="M 0,0 V 0 72.349 Z"
         style="fill:#ffffff;fill-opacity:1;fill-rule:nonzero;stroke:none"
         id="path2169"
         inkscape:connector-curvature="0" />
    </g>
    <g
       id="g2341"
       transform="matrix(0.35277777,0,0,-0.35277777,26.013412,136.29864)">
      <path
         d="M 0,0 H 91.564 Z"
         style="fill:#ffffff;fill-opacity:1;fill-rule:nonzero;stroke:none"
         id="path2343"
         inkscape:connector-curvature="0" />
    </g>
    <g
       id="g2345"
       transform="matrix(0.35277777,0,0,-0.35277777,26.013412,161.77273)">
      <path
         d="M 0,0 V 0 72.21 Z"
         style="fill:#ffffff;fill-opacity:1;fill-rule:nonzero;stroke:none"
         id="path2347"
         inkscape:connector-curvature="0" />
    </g>
    <path
       d="m 28.10362,143.27694 h 0.633236 v 18.49579 H 28.10362 Z"
       style="fill:#ed1d24;fill-opacity:1;fill-rule:nonzero;stroke:none;stroke-width:0.35277775"
       id="path2349"
       inkscape:connector-curvature="0" />
    <path
       d="m 29.68724,138.23222 h 0.633589 v 23.54051 H 29.68724 Z"
       style="fill:#ed1d24;fill-opacity:1;fill-rule:nonzero;stroke:none;stroke-width:0.35277775"
       id="path2351"
       inkscape:connector-curvature="0" />
    <path
       d="m 31.270859,146.26638 h 0.633589 v 15.50635 h -0.633589 z"
       style="fill:#ed1d24;fill-opacity:1;fill-rule:nonzero;stroke:none;stroke-width:0.35277775"
       id="path2353"
       inkscape:connector-curvature="0" />
    <path
       d="m 32.854831,152.43117 h 0.633589 v 9.34156 h -0.633589 z"
       style="fill:#ed1d24;fill-opacity:1;fill-rule:nonzero;stroke:none;stroke-width:0.35277775"
       id="path2355"
       inkscape:connector-curvature="0" />
    <path
       d="m 34.438804,156.35512 h 0.633941 v 5.41761 h -0.633941 z"
       style="fill:#ed1d24;fill-opacity:1;fill-rule:nonzero;stroke:none;stroke-width:0.35277775"
       id="path2357"
       inkscape:connector-curvature="0" />
    <path
       d="m 36.022776,158.78399 h 0.634647 v 2.98874 h -0.634647 z"
       style="fill:#ed1d24;fill-opacity:1;fill-rule:nonzero;stroke:none;stroke-width:0.35277775"
       id="path2359"
       inkscape:connector-curvature="0" />
    <path
       d="m 37.608512,159.25072 h 0.634647 v 2.52201 h -0.634647 z"
       style="fill:#ed1d24;fill-opacity:1;fill-rule:nonzero;stroke:none;stroke-width:0.35277775"
       id="path2361"
       inkscape:connector-curvature="0" />
    <path
       d="m 39.193895,159.15723 h 0.633589 v 2.6155 h -0.633589 z"
       style="fill:#ed1d24;fill-opacity:1;fill-rule:nonzero;stroke:none;stroke-width:0.35277775"
       id="path2363"
       inkscape:connector-curvature="0" />
    <path
       d="m 40.777514,160.46498 h 0.633589 v 1.30775 h -0.633589 z"
       style="fill:#ed1d24;fill-opacity:1;fill-rule:nonzero;stroke:none;stroke-width:0.35277775"
       id="path2365"
       inkscape:connector-curvature="0" />
    <path
       d="m 42.361487,160.93241 h 0.633236 v 0.84032 h -0.633236 z"
       style="fill:#ed1d24;fill-opacity:1;fill-rule:nonzero;stroke:none;stroke-width:0.35277775"
       id="path2367"
       inkscape:connector-curvature="0" />
    <path
       d="m 43.945459,161.02554 h 0.633235 v 0.74719 h -0.633235 z"
       style="fill:#ed1d24;fill-opacity:1;fill-rule:nonzero;stroke:none;stroke-width:0.35277775"
       id="path2369"
       inkscape:connector-curvature="0" />
    <path
       d="m 45.529078,161.39949 h 0.633237 v 0.37324 h -0.633237 z"
       style="fill:#ed1d24;fill-opacity:1;fill-rule:nonzero;stroke:none;stroke-width:0.35277775"
       id="path2371"
       inkscape:connector-curvature="0" />
    <path
       d="m 47.112699,161.67924 h 0.633235 v 0.0935 h -0.633235 z"
       style="fill:#ed1d24;fill-opacity:1;fill-rule:nonzero;stroke:none;stroke-width:0.35277775"
       id="path2373"
       inkscape:connector-curvature="0" />
    <path
       d="m 48.697024,161.58611 h 0.633941 v 0.18662 h -0.633941 z"
       style="fill:#ed1d24;fill-opacity:1;fill-rule:nonzero;stroke:none;stroke-width:0.35277775"
       id="path2375"
       inkscape:connector-curvature="0" />
    <path
       d="m 50.280642,161.58611 h 0.633942 v 0.18662 h -0.633942 z"
       style="fill:#ed1d24;fill-opacity:1;fill-rule:nonzero;stroke:none;stroke-width:0.35277775"
       id="path2377"
       inkscape:connector-curvature="0" />
    <path
       d="m 51.864615,161.49297 h 0.633588 v 0.27976 h -0.633588 z"
       style="fill:#ed1d24;fill-opacity:1;fill-rule:nonzero;stroke:none;stroke-width:0.35277775"
       id="path2379"
       inkscape:connector-curvature="0" />
    <path
       d="m 53.448234,161.67924 h 0.63359 v 0.0935 h -0.63359 z"
       style="fill:#ed1d24;fill-opacity:1;fill-rule:nonzero;stroke:none;stroke-width:0.35277775"
       id="path2381"
       inkscape:connector-curvature="0" />
    <path
       d="m 55.031853,161.67924 h 0.633589 v 0.0935 h -0.633589 z"
       style="fill:#ed1d24;fill-opacity:1;fill-rule:nonzero;stroke:none;stroke-width:0.35277775"
       id="path2383"
       inkscape:connector-curvature="0" />
    <path
       d="m 56.615826,161.49297 h 0.633587 v 0.27976 h -0.633587 z"
       style="fill:#ed1d24;fill-opacity:1;fill-rule:nonzero;stroke:none;stroke-width:0.35277775"
       id="path2385"
       inkscape:connector-curvature="0" />
    <g
       transform="matrix(0.35277777,0,0,-0.35277777,0.11211498,219.0589)"
       id="g2387">
      <g
         id="g2389"
         clip-path="url(#clipPath2393-3)">
        <g
           id="g2395"
           transform="translate(73.421,162.386)">
          <path
             d="M 0,0 H 91.564"
             style="fill:none;stroke:#231f20;stroke-width:0.74199998;stroke-linecap:butt;stroke-linejoin:miter;stroke-miterlimit:4;stroke-dasharray:none;stroke-opacity:1"
             id="path2397"
             inkscape:connector-curvature="0" />
        </g>
      </g>
    </g>
    <path
       d="m 52.656249,161.67359 h 0.633235 v 0.0991 h -0.633235 z"
       style="fill:#51aee5;fill-opacity:1;fill-rule:nonzero;stroke:none;stroke-width:0.35277775"
       id="path2401"
       inkscape:connector-curvature="0" />
    <g
       id="g2437"
       transform="matrix(0.35277777,0,0,-0.35277777,32.472774,161.77273)">
      <path
         d="M 0,0 V 0.915 M 18.322,0 V 0.915 M 36.633,0 V 0.915 M 54.943,0 V 0.915 M -18.31,0 H 73.254 M -18.31,12.034 h 0.915 m -0.915,12.035 h 0.915 m -0.915,12.036 h 0.915 M -18.31,48.14 h 0.915 m -0.915,12.035 h 0.915 M -18.31,-0.294 V 72.481 M -18.31,0 v 0.721 m 0,-0.721 v 0"
         style="fill:none;stroke:#231f20;stroke-width:0.74199998;stroke-linecap:butt;stroke-linejoin:miter;stroke-miterlimit:4;stroke-dasharray:none;stroke-opacity:1"
         id="path2439"
         inkscape:connector-curvature="0" />
    </g>
    <path
       id="text2447"
       transform="scale(0.26458333)"
       style="font-variant:normal;font-weight:normal;font-stretch:normal;font-size:2.11666656px;font-family:'ANKEF A +Helvetica LT Std';-inkscape-font-specification:HelveticaLTStd-Roman;writing-mode:lr-tb;fill:#231f20;fill-opacity:1;fill-rule:nonzero;stroke:none;stroke-width:1.33333325"
       d="m 81.410156,512.35352 c -0.653646,0 -1.153646,0.25911 -1.5,0.77734 -0.34375,0.51562 -0.515625,1.26562 -0.515625,2.25 0,0.98177 0.171875,1.73177 0.515625,2.25 0.346354,0.51562 0.846354,0.77344 1.5,0.77344 0.653646,0 1.152344,-0.25782 1.496094,-0.77344 0.346354,-0.51823 0.519531,-1.26823 0.519531,-2.25 0,-0.98438 -0.173177,-1.73438 -0.519531,-2.25 -0.34375,-0.51823 -0.842448,-0.77734 -1.496094,-0.77734 z m 6.496094,0 c -0.231771,0 -0.479167,0.0208 -0.742188,0.0625 -0.260413,0.0417 -0.540364,0.10416 -0.839843,0.1875 v 0.70312 c 0.296875,-0.099 0.56901,-0.17187 0.816406,-0.21875 0.247396,-0.0469 0.479167,-0.0703 0.695313,-0.0703 0.39583,0 0.699218,0.0807 0.910156,0.24219 0.213541,0.15885 0.320312,0.38802 0.320312,0.6875 0,0.29166 -0.102864,0.51562 -0.308594,0.67187 -0.205726,0.15365 -0.502607,0.23047 -0.890624,0.23047 H 87.15625 v 0.64844 h 0.679688 c 0.429684,0 0.764322,0.0976 1.003906,0.29297 0.242187,0.1927 0.363281,0.46093 0.363281,0.80468 0,0.3724 -0.130208,0.65625 -0.390625,0.85157 -0.257812,0.19531 -0.634115,0.29296 -1.128906,0.29296 -0.283854,0 -0.555993,-0.0326 -0.816406,-0.0977 -0.260417,-0.0651 -0.500004,-0.16146 -0.71875,-0.28906 v 0.76171 c 0.276038,0.0964 0.542968,0.16797 0.800781,0.21485 0.260416,0.0495 0.513021,0.0742 0.757812,0.0742 0.729167,0 1.291667,-0.15756 1.6875,-0.47266 0.395834,-0.3151 0.59375,-0.76042 0.59375,-1.33594 0,-0.375 -0.106771,-0.6901 -0.320312,-0.94531 -0.210938,-0.25521 -0.505209,-0.42318 -0.882813,-0.50391 0.341146,-0.0859 0.604167,-0.23958 0.789063,-0.46093 0.184896,-0.22396 0.277343,-0.4974 0.277343,-0.82032 0,-0.46354 -0.174479,-0.83072 -0.523437,-1.10156 -0.348958,-0.27344 -0.822917,-0.41015 -1.421875,-0.41015 z m 4.623047,0 c -0.653646,0 -1.153646,0.25911 -1.5,0.77734 -0.34375,0.51562 -0.515625,1.26562 -0.515625,2.25 0,0.98177 0.171875,1.73177 0.515625,2.25 0.346354,0.51562 0.846354,0.77344 1.5,0.77344 0.653646,0 1.152344,-0.25782 1.496094,-0.77344 0.346354,-0.51823 0.519531,-1.26823 0.519531,-2.25 0,-0.98438 -0.173177,-1.73438 -0.519531,-2.25 -0.34375,-0.51823 -0.842448,-0.77734 -1.496094,-0.77734 z m -11.119141,0.625 c 0.408854,0 0.714844,0.20052 0.917969,0.60156 0.205729,0.39844 0.308594,0.9987 0.308594,1.80078 0,0.79948 -0.102865,1.39974 -0.308594,1.80078 -0.203125,0.39844 -0.509115,0.59766 -0.917969,0.59766 -0.40625,0 -0.712242,-0.19922 -0.917968,-0.59766 -0.203125,-0.40104 -0.304688,-1.0013 -0.304688,-1.80078 0,-0.80208 0.101563,-1.40234 0.304688,-1.80078 0.205726,-0.40104 0.511718,-0.60156 0.917968,-0.60156 z m 11.119141,0 c 0.408854,0 0.714844,0.20052 0.917969,0.60156 0.205729,0.39844 0.308593,0.9987 0.308593,1.80078 0,0.79948 -0.102864,1.39974 -0.308593,1.80078 -0.203125,0.39844 -0.509115,0.59766 -0.917969,0.59766 -0.40625,0 -0.71224,-0.19922 -0.917969,-0.59766 -0.203125,-0.40104 -0.304687,-1.0013 -0.304687,-1.80078 0,-0.80208 0.101562,-1.40234 0.304687,-1.80078 0.205729,-0.40104 0.511719,-0.60156 0.917969,-0.60156 z m -8.359375,4.32031 v 0.99219 h 0.824219 v -0.99219 z" />
  </g>
</svg>
