<?xml version="1.0" encoding="UTF-8" standalone="no"?>
<!-- Created with Inkscape (http://www.inkscape.org/) -->

<svg
   xmlns:dc="http://purl.org/dc/elements/1.1/"
   xmlns:cc="http://creativecommons.org/ns#"
   xmlns:rdf="http://www.w3.org/1999/02/22-rdf-syntax-ns#"
   xmlns:svg="http://www.w3.org/2000/svg"
   xmlns="http://www.w3.org/2000/svg"
   xmlns:sodipodi="http://sodipodi.sourceforge.net/DTD/sodipodi-0.dtd"
   xmlns:inkscape="http://www.inkscape.org/namespaces/inkscape"
   width="210mm"
   height="297mm"
   viewBox="0 0 210 297"
   version="1.1"
   id="svg26956"
   inkscape:version="0.92.0 r"
   sodipodi:docname="weihong-dwell-time.svg">
  <defs
     id="defs26950">
    <clipPath
       clipPathUnits="userSpaceOnUse"
       id="clipPath2865-1">
      <path
         d="m 327.903,233.923 h 90.11 v -71.084 h -90.11 z"
         id="path2863-3"
         inkscape:connector-curvature="0" />
    </clipPath>
    <clipPath
       clipPathUnits="userSpaceOnUse"
       id="clipPath2319-8">
      <path
         d="m 196.135,234.553 h 91.731 v -72.347 h -91.731 z"
         id="path2317-5"
         inkscape:connector-curvature="0" />
    </clipPath>
  </defs>
  <sodipodi:namedview
     id="base"
     pagecolor="#ffffff"
     bordercolor="#666666"
     borderopacity="1.0"
     inkscape:pageopacity="0.0"
     inkscape:pageshadow="2"
     inkscape:zoom="2.8"
     inkscape:cx="266.82428"
     inkscape:cy="677.03842"
     inkscape:document-units="mm"
     inkscape:current-layer="layer1"
     showgrid="false"
     inkscape:window-width="956"
     inkscape:window-height="1058"
     inkscape:window-x="1280"
     inkscape:window-y="18"
     inkscape:window-maximized="0" />
  <metadata
     id="metadata26953">
    <rdf:RDF>
      <cc:Work
         rdf:about="">
        <dc:format>image/svg+xml</dc:format>
        <dc:type
           rdf:resource="http://purl.org/dc/dcmitype/StillImage" />
        <dc:title></dc:title>
      </cc:Work>
    </rdf:RDF>
  </metadata>
  <g
     inkscape:label="Layer 1"
     inkscape:groupmode="layer"
     id="layer1">
    <text
       y="122.51431"
       x="58.274429"
       style="font-variant:normal;font-weight:normal;font-stretch:normal;font-size:2.11666656px;font-family:'ANKEF A +Helvetica LT Std';-inkscape-font-specification:HelveticaLTStd-Roman;writing-mode:lr-tb;fill:#231f20;fill-opacity:1;fill-rule:nonzero;stroke:none;stroke-width:0.35277775"
       id="text2479">
      <tspan
         style="stroke-width:0.35277775"
         x="58.274429 66.245796 74.217163 82.18853 90.09005"
         y="122.51431"
         sodipodi:role="line"
         id="tspan2461">02468</tspan>
      <tspan
         style="stroke-width:0.35277775"
         x="56.945164"
         y="120.43574"
         id="tspan2463">0</tspan>
      <tspan
         style="stroke-width:0.35277775"
         x="54.002998 55.179863 55.768295 56.945164"
         y="116.88185"
         sodipodi:role="line"
         id="tspan2465">0.05</tspan>
      <tspan
         style="stroke-width:0.35277775"
         x="54.002998 55.179863 55.768295 56.945164"
         y="113.28987"
         sodipodi:role="line"
         id="tspan2467">0.10</tspan>
      <tspan
         style="stroke-width:0.35277775"
         x="54.002998 55.179863 55.768295 56.945164"
         y="109.66402"
         sodipodi:role="line"
         id="tspan2469">0.15</tspan>
      <tspan
         style="stroke-width:0.35277775"
         x="54.002998 55.179863 55.768295 56.945164"
         y="106.1313"
         sodipodi:role="line"
         id="tspan2471">0.20</tspan>
      <tspan
         style="stroke-width:0.35277775"
         x="54.002998 55.179863 55.768295 56.945164"
         y="102.54144"
         sodipodi:role="line"
         id="tspan2473">0.25</tspan>
      <tspan
         style="stroke-width:0.35277775"
         x="54.002998 55.179863 55.768295 56.945164"
         y="98.904999"
         sodipodi:role="line"
         id="tspan2475">0.30</tspan>
      <tspan
         style="stroke-width:0.35277775"
         x="54.002998 55.179863 55.768295 56.945164"
         y="95.399803"
         sodipodi:role="line"
         id="tspan2477">0.35</tspan>
    </text>
    <g
       id="g2485"
       transform="matrix(0.35277777,0,0,-0.35277777,111.35182,150.55877)">
      <path
         d="M 0,0 V 0 71.296 Z"
         style="fill:#ffffff;fill-opacity:1;fill-rule:nonzero;stroke:none"
         id="path2487"
         inkscape:connector-curvature="0" />
    </g>
    <text
       y="52.52874"
       x="-117.53449"
       transform="rotate(-90)"
       style="font-variant:normal;font-weight:normal;font-stretch:normal;font-size:2.11666656px;font-family:'ANKEF A +Helvetica LT Std';-inkscape-font-specification:HelveticaLTStd-Roman;writing-mode:lr-tb;fill:#231f20;fill-opacity:1;fill-rule:nonzero;stroke:none;stroke-width:0.35277775"
       id="text2739">
      <tspan
         style="stroke-width:0.35277775"
         x="-117.53449 -116.00626 -114.82939 -114.12454 -112.36136 -111.18449 -110.71459 -110.24469 -109.18636 -108.00949 -106.83263 -106.24419 -105.65576 -104.95091 -103.77404 -102.59718 -101.42031 -100.24345 -99.066582 -98.008247"
         y="52.52874"
         sodipodi:role="line"
         id="tspan2735">Normalized frequency</tspan>
      <tspan
         style="stroke-width:0.35277775"
         sodipodi:role="line"
         id="tspan2737"
         x="-117.53449"
         y="0" />
    </text>
    <text
       y="125.66182"
       x="68.428787"
       style="font-variant:normal;font-weight:normal;font-stretch:normal;font-size:2.11666656px;font-family:'ANKEF A +Helvetica LT Std';-inkscape-font-specification:HelveticaLTStd-Roman;writing-mode:lr-tb;fill:#231f20;fill-opacity:1;fill-rule:nonzero;stroke:none;stroke-width:0.35277775"
       id="text2747">
      <tspan
         style="stroke-width:0.35277775"
         x="68.428787 69.957024 71.485252 72.662125 73.132019 73.601921 74.190353 74.778786 75.248688 77.011871 78.188736 78.777176 79.482025 80.540359 112.94652 114.47475 116.00299 117.17986 117.64975 118.11965 118.70808 119.29652 119.76642 121.5296 122.70647 123.29491 123.99976 125.05809"
         y="125.66182"
         sodipodi:role="line"
         id="tspan2741">Dwell time (s)Dwell time (s)</tspan>
      <tspan
         style="stroke-width:0.35277775"
         x="68.428787"
         sodipodi:role="line"
         id="tspan2743"
         y="0" />
      <tspan
         style="stroke-width:0.35277775"
         sodipodi:role="line"
         id="tspan2745"
         y="98.170555"
         x="123.29913 124.82737 126.3556 127.76742 128.94427 130.12115 131.17949 132.35635 133.53322 134.00311">DNA–dynein</tspan>
    </text>
    <text
       y="93.502213"
       x="50.829762"
       style="font-variant:normal;font-weight:normal;font-stretch:normal;font-size:4.23333311px;font-family:'Trade Gothic LT Std';-inkscape-font-specification:TradeGothicLTStd-Bd2;writing-mode:lr-tb;fill:#231f20;fill-opacity:1;fill-rule:nonzero;stroke:none;stroke-width:0.35277775"
       id="text2751">
      <tspan
         style="stroke-width:0.35277775"
         sodipodi:role="line"
         id="tspan2749"
         x="50.829762"
         y="97.247719" />
    </text>
    <g
       id="g2777"
       transform="matrix(0.35277777,0,0,-0.35277777,58.942098,94.705786)">
      <path
         d="M 0,0 H 90.11 Z"
         style="fill:#ffffff;fill-opacity:1;fill-rule:nonzero;stroke:none"
         id="path2779"
         inkscape:connector-curvature="0" />
    </g>
    <g
       id="g2781"
       transform="matrix(0.35277777,0,0,-0.35277777,58.942098,119.78264)">
      <path
         d="M 0,0 V 0 71.084 Z"
         style="fill:#ffffff;fill-opacity:1;fill-rule:nonzero;stroke:none"
         id="path2783"
         inkscape:connector-curvature="0" />
    </g>
    <path
       d="m 59.744314,101.08013 h 0.779639 v 18.70251 h -0.779639 z"
       style="fill:#ed1c24;fill-opacity:1;fill-rule:nonzero;stroke:none;stroke-width:0.35277775"
       id="path2785"
       inkscape:connector-curvature="0" />
    <path
       d="m 60.718333,104.90318 h 0.779639 v 14.87946 h -0.779639 z"
       style="fill:#ed1c24;fill-opacity:1;fill-rule:nonzero;stroke:none;stroke-width:0.35277775"
       id="path2787"
       inkscape:connector-curvature="0" />
    <path
       d="m 61.692352,105.24396 h 0.779639 v 14.53868 h -0.779639 z"
       style="fill:#ed1c24;fill-opacity:1;fill-rule:nonzero;stroke:none;stroke-width:0.35277775"
       id="path2789"
       inkscape:connector-curvature="0" />
    <path
       d="m 62.666372,114.39043 h 0.779286 v 5.39221 h -0.779286 z"
       style="fill:#ed1c24;fill-opacity:1;fill-rule:nonzero;stroke:none;stroke-width:0.35277775"
       id="path2791"
       inkscape:connector-curvature="0" />
    <path
       d="m 63.640391,114.35621 h 0.778934 v 5.42643 h -0.778934 z"
       style="fill:#ed1c24;fill-opacity:1;fill-rule:nonzero;stroke:none;stroke-width:0.35277775"
       id="path2793"
       inkscape:connector-curvature="0" />
    <path
       d="m 64.614411,116.60834 h 0.778933 v 3.1743 h -0.778933 z"
       style="fill:#ed1c24;fill-opacity:1;fill-rule:nonzero;stroke:none;stroke-width:0.35277775"
       id="path2795"
       inkscape:connector-curvature="0" />
    <path
       d="m 65.58843,117.56402 h 0.778934 v 2.21862 H 65.58843 Z"
       style="fill:#ed1c24;fill-opacity:1;fill-rule:nonzero;stroke:none;stroke-width:0.35277775"
       id="path2797"
       inkscape:connector-curvature="0" />
    <path
       d="m 66.56245,117.73512 h 0.778933 v 2.04752 H 66.56245 Z"
       style="fill:#ed1c24;fill-opacity:1;fill-rule:nonzero;stroke:none;stroke-width:0.35277775"
       id="path2799"
       inkscape:connector-curvature="0" />
    <path
       d="m 67.536116,118.65587 h 0.779286 v 1.12677 h -0.779286 z"
       style="fill:#ed1c24;fill-opacity:1;fill-rule:nonzero;stroke:none;stroke-width:0.35277775"
       id="path2801"
       inkscape:connector-curvature="0" />
    <path
       d="m 68.510136,118.92927 h 0.779285 v 0.85337 h -0.779285 z"
       style="fill:#ed1c24;fill-opacity:1;fill-rule:nonzero;stroke:none;stroke-width:0.35277775"
       id="path2803"
       inkscape:connector-curvature="0" />
    <path
       d="m 69.484154,119.03158 h 0.779288 v 0.75106 h -0.779288 z"
       style="fill:#ed1c24;fill-opacity:1;fill-rule:nonzero;stroke:none;stroke-width:0.35277775"
       id="path2805"
       inkscape:connector-curvature="0" />
    <path
       d="m 70.458175,119.27041 h 0.779286 v 0.51223 h -0.779286 z"
       style="fill:#ed1c24;fill-opacity:1;fill-rule:nonzero;stroke:none;stroke-width:0.35277775"
       id="path2807"
       inkscape:connector-curvature="0" />
    <path
       d="m 71.432194,119.37271 h 0.778933 v 0.40993 h -0.778933 z"
       style="fill:#ed1c24;fill-opacity:1;fill-rule:nonzero;stroke:none;stroke-width:0.35277775"
       id="path2809"
       inkscape:connector-curvature="0" />
    <path
       d="m 72.406212,119.4415 h 0.778934 v 0.34114 h -0.778934 z"
       style="fill:#ed1c24;fill-opacity:1;fill-rule:nonzero;stroke:none;stroke-width:0.35277775"
       id="path2811"
       inkscape:connector-curvature="0" />
    <path
       d="m 73.380234,119.57732 h 0.778933 v 0.20532 h -0.778933 z"
       style="fill:#ed1c24;fill-opacity:1;fill-rule:nonzero;stroke:none;stroke-width:0.35277775"
       id="path2813"
       inkscape:connector-curvature="0" />
    <path
       d="m 74.354252,119.61154 h 0.778934 v 0.1711 h -0.778934 z"
       style="fill:#ed1c24;fill-opacity:1;fill-rule:nonzero;stroke:none;stroke-width:0.35277775"
       id="path2815"
       inkscape:connector-curvature="0" />
    <path
       d="m 75.327919,119.47537 h 0.779285 v 0.30727 h -0.779285 z"
       style="fill:#ed1c24;fill-opacity:1;fill-rule:nonzero;stroke:none;stroke-width:0.35277775"
       id="path2817"
       inkscape:connector-curvature="0" />
    <path
       d="m 76.301937,119.74877 h 0.779288 v 0.0339 h -0.779288 z"
       style="fill:#ed1c24;fill-opacity:1;fill-rule:nonzero;stroke:none;stroke-width:0.35277775"
       id="path2819"
       inkscape:connector-curvature="0" />
    <path
       d="m 77.275959,119.71491 h 0.779285 v 0.0677 h -0.779285 z"
       style="fill:#ed1c24;fill-opacity:1;fill-rule:nonzero;stroke:none;stroke-width:0.35277775"
       id="path2821"
       inkscape:connector-curvature="0" />
    <path
       d="m 78.249625,119.68033 h 0.779286 v 0.10231 h -0.779286 z"
       style="fill:#ed1c24;fill-opacity:1;fill-rule:nonzero;stroke:none;stroke-width:0.35277775"
       id="path2823"
       inkscape:connector-curvature="0" />
    <path
       d="m 79.223644,119.74877 h 0.779285 v 0.0339 h -0.779285 z"
       style="fill:#ed1c24;fill-opacity:1;fill-rule:nonzero;stroke:none;stroke-width:0.35277775"
       id="path2825"
       inkscape:connector-curvature="0" />
    <path
       d="m 80.198017,119.74877 h 0.778933 v 0.0339 h -0.778933 z"
       style="fill:#ed1c24;fill-opacity:1;fill-rule:nonzero;stroke:none;stroke-width:0.35277775"
       id="path2827"
       inkscape:connector-curvature="0" />
    <path
       d="m 81.172036,119.71491 h 0.778933 v 0.0677 h -0.778933 z"
       style="fill:#ed1c24;fill-opacity:1;fill-rule:nonzero;stroke:none;stroke-width:0.35277775"
       id="path2829"
       inkscape:connector-curvature="0" />
    <g
       id="g2831"
       transform="matrix(0.35277777,0,0,-0.35277777,82.145702,119.78264)">
      <path
         d="M 0,0 V 0 H 2.208 Z"
         style="fill:#ed1c24;fill-opacity:1;fill-rule:nonzero;stroke:none"
         id="path2833"
         inkscape:connector-curvature="0" />
    </g>
    <path
       d="m 83.119369,119.74877 h 0.77964 v 0.0339 h -0.77964 z"
       style="fill:#ed1c24;fill-opacity:1;fill-rule:nonzero;stroke:none;stroke-width:0.35277775"
       id="path2835"
       inkscape:connector-curvature="0" />
    <path
       d="m 84.093387,119.74877 h 0.77964 v 0.0339 h -0.77964 z"
       style="fill:#ed1c24;fill-opacity:1;fill-rule:nonzero;stroke:none;stroke-width:0.35277775"
       id="path2837"
       inkscape:connector-curvature="0" />
    <g
       id="g2839"
       transform="matrix(0.35277777,0,0,-0.35277777,85.067409,119.78264)">
      <path
         d="M 0,0 V 0 H 2.21 Z"
         style="fill:#ed1c24;fill-opacity:1;fill-rule:nonzero;stroke:none"
         id="path2841"
         inkscape:connector-curvature="0" />
    </g>
    <path
       d="m 86.041779,119.74877 h 0.778933 v 0.0339 h -0.778933 z"
       style="fill:#ed1c24;fill-opacity:1;fill-rule:nonzero;stroke:none;stroke-width:0.35277775"
       id="path2843"
       inkscape:connector-curvature="0" />
    <g
       id="g2845"
       transform="matrix(0.35277777,0,0,-0.35277777,87.0158,119.78264)">
      <path
         d="M 0,0 V 0 H 2.208 Z"
         style="fill:#ed1c24;fill-opacity:1;fill-rule:nonzero;stroke:none"
         id="path2847"
         inkscape:connector-curvature="0" />
    </g>
    <g
       id="g2849"
       transform="matrix(0.35277777,0,0,-0.35277777,87.989819,119.78264)">
      <path
         d="M 0,0 V 0 H 2.207 Z"
         style="fill:#ed1c24;fill-opacity:1;fill-rule:nonzero;stroke:none"
         id="path2851"
         inkscape:connector-curvature="0" />
    </g>
    <path
       d="m 88.963837,119.74877 h 0.778934 v 0.0339 h -0.778934 z"
       style="fill:#ed1c24;fill-opacity:1;fill-rule:nonzero;stroke:none;stroke-width:0.35277775"
       id="path2853"
       inkscape:connector-curvature="0" />
    <g
       id="g2855"
       transform="matrix(0.35277777,0,0,-0.35277777,89.937152,119.78264)">
      <path
         d="M 0,0 V 0 H 2.208 Z"
         style="fill:#ed1c24;fill-opacity:1;fill-rule:nonzero;stroke:none"
         id="path2857"
         inkscape:connector-curvature="0" />
    </g>
    <g
       transform="matrix(0.35277777,0,0,-0.35277777,-56.734791,177.22862)"
       id="g2859">
      <g
         id="g2861"
         clip-path="url(#clipPath2865-1)">
        <g
           id="g2867"
           transform="translate(327.903,162.839)">
          <path
             d="M 0,0 H 90.11 M 3.379,56.501 3.525,55.546 3.671,54.609 3.818,53.689 3.965,52.782 4.111,51.892 4.258,51.015 4.404,50.155 4.551,49.31 4.697,48.478 4.844,47.661 4.989,46.855 5.136,46.065 5.282,45.288 5.429,44.524 5.576,43.772 5.723,43.034 5.869,42.308 6.016,41.594 6.162,40.892 6.309,40.203 6.454,39.526 6.601,38.858 6.747,38.203 6.894,37.558 7.041,36.926 7.187,36.302 7.334,35.69 7.48,35.088 7.627,34.496 7.772,33.913 7.92,33.34 l 0.146,-0.562 0.147,-0.552 0.146,-0.545 0.146,-0.534 0.146,-0.524 0.147,-0.517 0.146,-0.51 0.148,-0.498 0.146,-0.489 0.147,-0.483 0.146,-0.474 0.147,-0.468 0.146,-0.458 0.147,-0.45 0.146,-0.445 0.146,-0.437 0.146,-0.427 0.147,-0.42 0.146,-0.415 0.148,-0.408 0.146,-0.4 0.147,-0.393 0.146,-0.386 0.147,-0.381 0.146,-0.374 0.147,-0.367 0.146,-0.362 0.146,-0.355 0.146,-0.349 0.146,-0.343 0.147,-0.339 0.147,-0.331 0.147,-0.327 0.146,-0.32 0.147,-0.316 0.146,-0.31 0.146,-0.305 0.146,-0.299 0.147,-0.295 0.146,-0.29 0.147,-0.285 0.146,-0.28 0.148,-0.275 0.146,-0.272 0.147,-0.264 0.145,-0.262 0.147,-0.257 0.146,-0.253 0.147,-0.25 0.146,-0.243 0.147,-0.241 0.146,-0.236 0.147,-0.232 0.145,-0.229 0.147,-0.223 0.147,-0.221 0.147,-0.217 0.146,-0.214 0.147,-0.21 0.146,-0.207 0.147,-0.201 0.146,-0.199 0.145,-0.195 0.147,-0.194 0.146,-0.188 0.147,-0.186 0.146,-0.184 0.148,-0.18 0.146,-0.178 0.147,-0.173 L 18.319,9.962 18.465,9.796 18.611,9.63 18.758,9.466 18.904,9.307 19.052,9.15 19.197,8.995 19.344,8.844 19.49,8.694 19.638,8.548 19.783,8.404 19.93,8.262 20.077,8.123 20.223,7.985 20.37,7.85 20.516,7.718 20.662,7.589 20.809,7.461 20.955,7.335 21.102,7.212 21.248,7.09 21.396,6.97 21.541,6.851 21.688,6.737 21.835,6.623 21.98,6.51 22.127,6.4 22.273,6.294 22.42,6.187 22.566,6.083 22.714,5.979 22.859,5.88 23.007,5.78 23.153,5.682 23.299,5.587 23.445,5.493 23.592,5.4 23.739,5.309 23.886,5.218 24.032,5.13 24.178,5.045 24.324,4.96 24.471,4.875 24.617,4.794 24.765,4.714 24.911,4.633 25.058,4.554 25.204,4.478 25.351,4.402 25.496,4.329 25.643,4.257 25.789,4.182 25.936,4.113 26.082,4.044 26.229,3.976 26.375,3.908 26.522,3.842 26.669,3.778 26.814,3.715 26.961,3.651 27.107,3.59 27.254,3.53 27.4,3.468 27.547,3.411 27.693,3.354 27.84,3.298 27.985,3.242 28.132,3.185 28.279,3.132 28.426,3.08 28.572,3.028 28.719,2.976 28.865,2.926 29.012,2.877 29.158,2.829 29.304,2.781 29.45,2.733 29.597,2.689 29.743,2.642 29.89,2.598 30.037,2.553 30.184,2.511 30.33,2.469 30.477,2.428 30.622,2.387 30.769,2.346 30.915,2.306 31.062,2.268 31.208,2.228 31.355,2.19 31.501,2.155 31.647,2.119 31.795,2.083 31.94,2.047 32.087,2.013 32.233,1.979 32.38,1.945 32.526,1.914 32.673,1.882 32.819,1.849 32.966,1.818 33.112,1.788 33.258,1.757 33.405,1.727 33.552,1.698 33.699,1.669 33.846,1.642 33.991,1.614 34.138,1.587 34.284,1.56 34.431,1.533 34.576,1.508 34.724,1.483 34.87,1.457 35.017,1.433 35.163,1.408 35.311,1.385 35.456,1.361 35.603,1.34 35.749,1.315 35.896,1.294 36.042,1.271 36.188,1.25 36.335,1.229 36.481,1.208 36.628,1.187 36.774,1.169 36.92,1.149 37.068,1.128 37.214,1.11 37.361,1.09 37.508,1.074 37.653,1.054 37.8,1.037 37.946,1.02 38.093,1.002 38.238,0.984 38.386,0.968 38.532,0.952 38.68,0.936 38.826,0.921 38.972,0.904 39.118,0.888 39.265,0.875 39.411,0.86 39.558,0.845 39.704,0.831 39.851,0.819 39.997,0.802 40.144,0.791 40.289,0.776 40.436,0.764 40.583,0.751 40.73,0.739 40.876,0.725 41.022,0.713 41.169,0.701 41.315,0.689 41.462,0.679 41.607,0.665 41.754,0.655 41.9,0.643 42.047,0.632 42.193,0.622 42.341,0.612 42.487,0.601 42.634,0.591 42.78,0.582 42.926,0.571 43.072,0.563 43.219,0.552 43.365,0.544 43.512,0.534 43.658,0.525 43.805,0.516 43.951,0.507 44.098,0.5 44.245,0.49 44.391,0.484 44.537,0.473 44.684,0.465 44.83,0.458 44.978,0.452 45.123,0.444 45.27,0.436 45.415,0.427 45.562,0.421 45.71,0.415 45.855,0.408 46.002,0.4 46.149,0.393 46.295,0.388 46.441,0.38 46.588,0.374 46.733,0.367 46.881,0.361 47.026,0.356 47.174,0.35 47.319,0.344 47.468,0.339 47.613,0.332 47.76,0.326 47.907,0.32 48.053,0.314 48.199,0.31 48.346,0.304 48.492,0.3 48.639,0.295 48.785,0.29 48.931,0.284 49.077,0.28 49.223,0.276 49.372,0.271 49.518,0.265 49.664,0.261 49.812,0.257 49.957,0.253 50.104,0.249 50.249,0.246 50.396,0.24 50.543,0.236 50.688,0.232 50.836,0.228 50.982,0.224 51.129,0.22 51.275,0.217 51.422,0.214 51.568,0.209 51.715,0.207 51.861,0.203 52.008,0.199 52.154,0.196 52.301,0.192 52.446,0.188 52.593,0.185 52.74,0.182 52.886,0.18 53.033,0.176 53.18,0.174 53.326,0.171 53.473,0.169 53.619,0.166 53.765,0.163 53.911,0.16 54.058,0.157 54.204,0.154 54.351,0.153 54.498,0.15 54.645,0.146 54.791,0.144 54.938,0.142 55.083,0.138 55.23,0.136 55.376,0.134 55.522,0.132 55.669,0.131 55.815,0.128 55.962,0.127 56.108,0.123 56.255,0.122 56.401,0.119 56.548,0.118 56.694,0.115 56.841,0.113 56.988,0.112 57.134,0.111 57.28,0.109 57.427,0.106 57.572,0.105 57.72,0.103 57.865,0.102 58.013,0.098 58.159,0.096 58.306,0.095 58.452,0.094 58.599,0.092 58.745,0.09 h 0.147 L 59.037,0.089 59.184,0.087 59.33,0.086 59.477,0.085 59.625,0.083 59.771,0.081 59.917,0.08 60.063,0.079 60.209,0.077 60.356,0.075 60.502,0.074 60.65,0.073 h 0.146 L 60.942,0.071 61.088,0.07 61.234,0.069 61.383,0.067 h 0.145 l 0.147,-0.002 0.146,-0.001 0.146,-0.001 0.147,-0.002 h 0.147 l 0.145,-0.002 0.148,-10e-4 h 0.145 l 0.147,-0.001 h 0.146 l 0.146,-0.002 0.148,-0.002 h 0.147 L 63.579,0.052 63.725,0.05 h 0.146 l 0.148,-0.001 h 0.145 l 0.148,-0.001 h 0.146 L 64.604,0.047 64.75,0.045 h 0.146 l 0.147,-0.002 h 0.147 l 0.147,-10e-4 h 0.146 l 0.146,-0.001 h 0.147 l 0.146,-0.002 h 0.146 l 0.147,-0.001 h 0.146 0.147 l 0.146,-0.001 h 0.147 l 0.147,-0.002 h 0.147 0.145 l 0.147,-0.002 h 0.146 L 67.68,0.032 h 0.146 0.147 l 0.146,-0.001 h 0.147 l 0.147,-0.002 h 0.146 0.146 l 0.147,-0.002 h 0.146 0.147 l 0.146,-0.001 h 0.147 0.146 0.146 l 0.146,-10e-4 h 0.146 0.148 l 0.146,-0.002 h 0.147 0.146 0.147 l 0.146,-0.001 h 0.147 0.145 l 0.147,-10e-4 h 0.146 0.148 0.145 0.148 l 0.146,-0.002 h 0.147 0.146 0.146 0.146 0.147 l 0.146,-0.002 h 0.148 0.145 0.147 l 0.146,-0.001 h 0.146 0.148 0.146 0.146 0.147 l 0.147,-0.001 h 0.146 0.146 0.146 0.147 l 0.145,-0.002 h 0.149 0.146 0.147 0.146 0.146 0.147 0.146 l 0.146,-0.002 h 0.147 0.145 0.149 0.145 L 77.054,0.01 h 0.147 0.147 0.146 0.146 0.146 0.148 0.146 0.146 0.146 l 0.147,-0.001 h 0.146 0.146 0.148 0.146 0.147 0.146 0.146 L 79.69,0.007 h 0.147 0.146 0.147 0.146 0.147 0.146 0.148 0.145 0.147 0.146 0.147 0.146 0.147 0.146 0.147 0.145 0.147 0.146 0.148 0.146 0.147 0.147 0.146 0.146 0.146 0.146 l 0.148,-0.002 h 0.145 0.147 0.148 0.145 0.147 0.145 0.147 0.147 0.146 0.146 0.147 0.146 0.147 0.146 0.149 0.145 0.146 0.147 0.146 l 0.147,-0.002 h 0.147 0.145 0.147 0.145 0.149 0.145 0.146 0.149 0.146 0.145 0.147 0.146 0.148 0.145 0.146 0.147 0.145 0.148 0.146 0.148 0.146 0.146 0.147 L 90.09,0.001 h 0.147 0.146 0.146 0.147 0.145 0.148 0.147 0.146 0.147 0.146 0.146 0.147 0.145 0.148 0.146 0.147 0.146 0.146 0.147 0.147 0.146 0.147 0.146 0.146 0.147 0.146 0.147 0.145 0.147 0.146 0.148 0.146 0.147 0.146 0.147 0.146 0.146 0.146 0.147 0.146 0.147 0.146 0.148 0.146 0.147 0.146 0.146 0.146 0.147 0.146 0.148 0.145 0.147 0.146 0.147 0.147 0.145 0.147 0.147 0.146 0.146 0.147 0.147 0.146 0.145 0.148 0.146 0.147 0.147 L 100.343,0 h 0.147 0.146 0.145 0.148 0.145 0.148 0.146 0.146 0.147 0.147 0.147 0.146 0.147 0.147 0.145 0.147 0.146 0.147 0.146 0.146 0.148 0.146 0.145 0.147 0.147 0.146 0.147 0.146 0.147 0.146 0.147 0.147 0.146 0.146 0.147 0.146 0.147 0.146 0.147 0.146 0.147 0.145 0.147 0.146 0.148 0.146 0.147 0.146 0.147 0.146 0.146 0.146 0.146 0.147 0.146 0.147 0.147 0.147 0.146 0.146 0.146 0.147 0.147 0.146 0.146 0.147 0.146 0.149 0.144 0.147 0.146 0.147 0.146 0.147 0.146 0.148 0.144 0.149 0.144 0.148 0.147 0.146 0.147 0.145 0.146 0.148 0.145 0.148 0.147 0.144 0.148 0.146 0.148 0.146 0.145 0.148 0.145 0.148 0.146 0.145 0.148 0.146 0.147 0.147 0.145 0.148 0.147 0.145 0.147 0.145 0.148 0.146 0.147 0.146 0.147 0.146 0.146 0.147 0.146 0.147 0.146 0.147 0.146 0.147 0.145 0.147 0.146 0.148 0.146 0.147 0.146 0.147 0.146 0.146 0.146 0.147 0.146 0.147 0.146 0.148 0.146 0.146 0.146 0.147 0.146 0.147 0.146 0.147 0.146 0.147 0.145 0.147 0.147 0.146 0.147 0.146 0.147 0.146 0.147 0.145 0.147 0.146 0.149 0.145 0.147 0.146 0.147 0.147 0.145 0.148 0.145 0.146 0.148 0.145 0.148 0.147 0.146 0.147 0.145 0.146 0.148 0.145 0.147 0.146 0.146 0.148 0.144 0.15 0.146 0.146 0.146 0.146 0.147 0.147 0.146 0.147 0.144 0.149 0.145 0.148 0.146 0.147 0.146 0.147 0.144 0.149 0.146 0.146 0.146 0.147 0.146 0.148 0.146 0.146 0.147 0.146 0.146 0.146 0.147 0.146 0.147 0.146 0.147 0.147 0.147 0.145 0.147 0.146 0.147 0.146 0.147 0.146 0.147 0.146 0.147 0.146 0.147 0.146 0.147 0.146 0.147 0.146 0.147 0.145 0.147 0.146 0.147 0.147 0.146 0.147 0.146 0.147 0.145 0.147 0.148 0.145 0.146 0.147 0.147 0.148 0.144 0.147 0.148 0.145 0.146 0.147 0.146 0.148 0.145 0.146 0.146 0.148 0.148 0.145 0.147 0.147 0.145 0.148 0.144 0.148 0.147 0.144 0.149 0.145 0.148 0.146 0.145 0.148 0.147 0.144 0.149 0.144 0.148 0.146 0.148 0.146 0.145 0.148 0.147 0.146 0.146 0.146 0.147 0.146 0.147 0.146 0.148 0.146 0.147 0.145 0.147 0.146 0.146 0.147 0.146 0.147 0.146 0.146 0.147 0.147 0.146 0.147 0.146 0.147 0.146 0.147 0.145 0.147 0.146 0.147 0.147 0.147 0.146 0.147 0.145 0.147 0.146"
             style="fill:none;stroke:#231f20;stroke-width:0.74199998;stroke-linecap:butt;stroke-linejoin:miter;stroke-miterlimit:4;stroke-dasharray:none;stroke-opacity:1"
             id="path2869"
             inkscape:connector-curvature="0" />
        </g>
      </g>
    </g>
    <path
       d="m 66.889123,119.68175 v -0.31821 m 7.94773,0.31821 v -0.31821 m 7.94702,0.31821 v -0.31821 m -23.841775,0.31821 h 31.788805 m -31.788805,-3.58176 h 0.3175 m -0.3175,-3.5821 h 0.3175 m -0.3175,-3.58175 h 0.3175 m -0.3175,-3.58176 h 0.3175 m -0.3175,-3.5814 h 0.3175 m -0.3175,-3.584578 h 0.3175 m -0.3175,21.594238 V 94.500817 m 0,25.180933 v 0 M 98.940393,58.777129 h 0.3235 M 58.942098,94.604885 h 0.323144 M 131.16664,84.246625 V 83.923128 M 90.619773,119.68422 v -0.32315 M 103.41185,94.535035 h 0.3242 m 31.42792,25.117785 v -0.32315 M 1.3306656,119.84156 v -0.3235 M -30.833847,94.402743 h 0.323497 m 42.96798,0.012 h 0.323143"
       style="fill:none;stroke:#231f20;stroke-width:0.2617611;stroke-linecap:butt;stroke-linejoin:miter;stroke-miterlimit:4;stroke-dasharray:none;stroke-opacity:1"
       id="path2873"
       inkscape:connector-curvature="0" />
  </g>
</svg>
